<svg width="137" height="72" viewBox="0 0 137 72" fill="none" xmlns="http://www.w3.org/2000/svg">
<mask id="mask0_2366_3298" style="mask-type:luminance" maskUnits="userSpaceOnUse" x="0" y="0" width="131" height="72">
<path d="M0 15.7102L6.8239 71.8465L130.407 56.8238L123.583 0.687507L0 15.7102Z" fill="white"/>
</mask>
<g mask="url(#mask0_2366_3298)">
<path d="M6.77289 16.2521C2.37681 22.0622 4.06905 30.3924 8.87698 35.4344C13.9853 40.7906 21.6378 42.8971 28.8168 43.321C37.2429 43.8168 46.3043 41.7902 52.2664 35.439C54.7988 32.7444 56.6965 29.3979 57.4438 25.7544C58.0513 22.778 58.0002 18.2136 54.837 16.6274C50.9316 14.6673 46.292 20.0633 44.2752 22.8843C41.9775 26.0903 40.4736 29.867 39.9025 33.7677C38.9005 40.6233 40.9823 47.4755 45.407 52.7704C56.1875 65.6807 74.1382 62.2846 87.8086 56.4271C102.735 50.0284 115.301 38.8885 123.538 24.8906C124.132 23.8761 126.379 23.658 125.475 25.1916C116.515 40.4226 102.525 52.3924 86.1438 58.9647C77.8808 62.2802 68.3833 64.8345 59.4322 63.5392C51.2393 62.3513 43.9779 57.1055 40.1394 49.7652C36.3634 42.5412 36.4373 33.9825 39.939 26.6614C42.3413 21.6475 49.0398 12.5002 55.6821 14.3271C63.2163 16.3964 59.5893 27.8804 56.8875 32.2464C52.4117 39.4727 44.5771 43.73 36.3303 45.0214C26.9053 46.4973 15.4836 44.9143 8.10672 38.4065C1.8001 32.8417 -0.467346 22.9582 4.83203 15.9516C5.52187 15.0423 7.84309 14.8393 6.77289 16.2521Z" fill="white"/>
</g>
<mask id="mask1_2366_3298" style="mask-type:luminance" maskUnits="userSpaceOnUse" x="114" y="14" width="20" height="19">
<path d="M114.924 16.4485L116.928 32.9328L133.004 30.9785L131.001 14.4942L114.924 16.4485Z" fill="white"/>
</mask>
<g mask="url(#mask1_2366_3298)">
<path d="M124.756 25.3921L128.287 30.8508C128.805 31.6476 130.035 31.3295 130.099 30.3794L131.045 16.0814C131.097 15.2875 130.243 14.762 129.561 15.1648L117.046 22.5532C116.219 23.0424 116.507 24.3074 117.465 24.3869L124.012 24.9461C124.315 24.9711 124.591 25.1371 124.756 25.3921Z" fill="white"/>
</g>
</svg>
