<svg width="137" height="72" viewBox="0 0 137 72" fill="none" xmlns="http://www.w3.org/2000/svg">
<mask id="mask0_2366_3276" style="mask-type:luminance" maskUnits="userSpaceOnUse" x="0" y="0" width="131" height="72">
<path d="M0 56.1363L6.8239 0L130.407 15.0227L123.583 71.159L0 56.1363Z" fill="white"/>
</mask>
<g mask="url(#mask0_2366_3276)">
<path d="M6.77289 55.5944C2.37681 49.7843 4.06905 41.4541 8.87698 36.4121C13.9853 31.0559 21.6378 28.9494 28.8168 28.5255C37.2429 28.0297 46.3043 30.0563 52.2664 36.4075C54.7988 39.1021 56.6965 42.4486 57.4438 46.0921C58.0513 49.0686 58.0002 53.6329 54.837 55.2191C50.9316 57.1792 46.292 51.7832 44.2752 48.9622C41.9775 45.7562 40.4736 41.9795 39.9025 38.0788C38.9005 31.2232 40.9823 24.371 45.407 19.0761C56.1875 6.16576 74.1382 9.56186 87.8086 15.4194C102.735 21.8181 115.301 32.958 123.538 46.9559C124.132 47.9704 126.379 48.1885 125.475 46.6549C116.515 31.4239 102.525 19.4541 86.1438 12.8818C77.8808 9.56628 68.3833 7.01205 59.4322 8.30727C51.2393 9.4952 43.9779 14.741 40.1394 22.0813C36.3634 29.3053 36.4373 37.864 39.939 45.1851C42.3413 50.199 49.0398 59.3463 55.6821 57.5194C63.2163 55.4501 59.5893 43.9661 56.8875 39.6001C52.4117 32.3738 44.5771 28.1165 36.3303 26.8251C26.9053 25.3492 15.4836 26.9322 8.10672 33.44C1.8001 39.0048 -0.467346 48.8883 4.83203 55.8949C5.52187 56.8042 7.84309 57.0072 6.77289 55.5944Z" fill="white"/>
</g>
<mask id="mask1_2366_3276" style="mask-type:luminance" maskUnits="userSpaceOnUse" x="114" y="38" width="19" height="20">
<path d="M114.91 55.398L116.914 38.9137L132.991 40.868L130.987 57.3523L114.91 55.398Z" fill="white"/>
</mask>
<g mask="url(#mask1_2366_3276)">
<path d="M124.743 46.4544L128.273 40.9957C128.791 40.1989 130.022 40.517 130.086 41.4671L131.032 55.7651C131.083 56.559 130.23 57.0845 129.547 56.6817L117.032 49.2933C116.205 48.8041 116.493 47.5391 117.452 47.4596L123.999 46.9004C124.302 46.8754 124.577 46.7094 124.743 46.4544Z" fill="white"/>
</g>
</svg>
