<svg width="232" height="152" viewBox="0 0 232 152" fill="none" xmlns="http://www.w3.org/2000/svg">
<g filter="url(#filter0_d_2366_3085)">
<rect x="44" y="36" width="152" height="72" rx="12" fill="white" shape-rendering="crispEdges"/>
<rect x="44.5" y="36.5" width="151" height="71" rx="11.5" stroke="#BEBEBE" stroke-opacity="0.2" shape-rendering="crispEdges"/>
<rect x="59" y="52.5" width="16" height="16" rx="8" fill="#FFD93D"/>
<path d="M67 59.8C67.7594 59.8 68.375 59.1733 68.375 58.4001C68.375 57.627 67.7594 57.0002 67 57.0002C66.2406 57.0002 65.625 57.627 65.625 58.4001C65.625 59.1733 66.2406 59.8 67 59.8Z" stroke="white" stroke-width="0.8"/>
<path d="M69.7493 62.5997C69.7498 62.5423 69.75 62.484 69.75 62.4247C69.75 61.555 68.5187 60.8499 67 60.8499C65.4813 60.8499 64.25 61.555 64.25 62.4247C64.25 63.2944 64.25 63.9996 67 63.9996C67.7669 63.9996 68.32 63.9447 68.7188 63.8467" stroke="white" stroke-width="0.8" stroke-linecap="round"/>
<rect x="73" y="52.5" width="16" height="16" rx="8" fill="#FF4F93"/>
<path d="M81 59.8C81.7594 59.8 82.375 59.1733 82.375 58.4001C82.375 57.627 81.7594 57.0002 81 57.0002C80.2406 57.0002 79.625 57.627 79.625 58.4001C79.625 59.1733 80.2406 59.8 81 59.8Z" stroke="white" stroke-width="0.8"/>
<path d="M83.7493 62.5997C83.7498 62.5423 83.75 62.484 83.75 62.4247C83.75 61.555 82.5187 60.8499 81 60.8499C79.4813 60.8499 78.25 61.555 78.25 62.4247C78.25 63.2944 78.25 63.9996 81 63.9996C81.7669 63.9996 82.32 63.9447 82.7188 63.8467" stroke="white" stroke-width="0.8" stroke-linecap="round"/>
<rect x="87" y="52.5" width="16" height="16" rx="8" fill="#FFD93D"/>
<path d="M95 59.8C95.7594 59.8 96.375 59.1733 96.375 58.4001C96.375 57.627 95.7594 57.0002 95 57.0002C94.2406 57.0002 93.625 57.627 93.625 58.4001C93.625 59.1733 94.2406 59.8 95 59.8Z" stroke="white" stroke-width="0.8"/>
<path d="M97.7493 62.5997C97.7498 62.5423 97.75 62.484 97.75 62.4247C97.75 61.555 96.5187 60.8499 95 60.8499C93.4813 60.8499 92.25 61.555 92.25 62.4247C92.25 63.2944 92.25 63.9996 95 63.9996C95.7669 63.9996 96.32 63.9447 96.7188 63.8467" stroke="white" stroke-width="0.8" stroke-linecap="round"/>
<path d="M62.528 88.644C62.056 88.644 61.616 88.56 61.208 88.392C60.8 88.224 60.448 87.988 60.152 87.684C59.856 87.372 59.636 87.004 59.492 86.58L60.488 86.172C60.656 86.62 60.92 86.968 61.28 87.216C61.64 87.464 62.056 87.588 62.528 87.588C62.896 87.588 63.224 87.516 63.512 87.372C63.8 87.228 64.024 87.02 64.184 86.748C64.352 86.476 64.436 86.148 64.436 85.764C64.436 85.372 64.352 85.044 64.184 84.78C64.024 84.508 63.8 84.3 63.512 84.156C63.224 84.012 62.892 83.94 62.516 83.94C62.396 83.94 62.264 83.948 62.12 83.964C61.984 83.98 61.868 84.004 61.772 84.036L61.52 83.496L63.908 80.58H59.948V79.56H65.24V80.544L62.96 83.352L62.888 83.04C63.424 83.056 63.896 83.18 64.304 83.412C64.712 83.644 65.032 83.96 65.264 84.36C65.496 84.752 65.612 85.212 65.612 85.74C65.612 86.284 65.48 86.776 65.216 87.216C64.952 87.656 64.588 88.004 64.124 88.26C63.66 88.516 63.128 88.644 62.528 88.644ZM71.5544 88.644C71.0904 88.644 70.6704 88.536 70.2944 88.32C69.9264 88.104 69.6384 87.804 69.4304 87.42C69.2304 87.028 69.1304 86.58 69.1304 86.076V82.032H70.2464V85.956C70.2464 86.276 70.3104 86.556 70.4384 86.796C70.5744 87.036 70.7584 87.224 70.9904 87.36C71.2304 87.496 71.5024 87.564 71.8064 87.564C72.1104 87.564 72.3784 87.496 72.6104 87.36C72.8504 87.224 73.0344 87.028 73.1624 86.772C73.2984 86.516 73.3664 86.212 73.3664 85.86V82.032H74.4944V88.5H73.4024V87.24L73.5824 87.348C73.4304 87.756 73.1704 88.076 72.8024 88.308C72.4424 88.532 72.0264 88.644 71.5544 88.644ZM76.2234 90.9V82.032H77.3154V83.424L77.1714 83.148C77.4114 82.764 77.7394 82.46 78.1554 82.236C78.5714 82.004 79.0474 81.888 79.5834 81.888C80.1914 81.888 80.7354 82.036 81.2154 82.332C81.7034 82.628 82.0874 83.032 82.3674 83.544C82.6474 84.048 82.7874 84.624 82.7874 85.272C82.7874 85.904 82.6474 86.476 82.3674 86.988C82.0874 87.5 81.7034 87.904 81.2154 88.2C80.7354 88.496 80.1874 88.644 79.5714 88.644C79.0514 88.644 78.5754 88.528 78.1434 88.296C77.7194 88.064 77.3914 87.736 77.1594 87.312L77.3394 87.12V90.9H76.2234ZM79.4874 87.564C79.8954 87.564 80.2594 87.464 80.5794 87.264C80.8994 87.064 81.1474 86.792 81.3234 86.448C81.5074 86.096 81.5994 85.704 81.5994 85.272C81.5994 84.824 81.5074 84.432 81.3234 84.096C81.1474 83.752 80.8994 83.48 80.5794 83.28C80.2594 83.072 79.8954 82.968 79.4874 82.968C79.0794 82.968 78.7114 83.068 78.3834 83.268C78.0634 83.468 77.8074 83.744 77.6154 84.096C77.4314 84.44 77.3394 84.832 77.3394 85.272C77.3394 85.704 77.4314 86.096 77.6154 86.448C77.8074 86.792 78.0634 87.064 78.3834 87.264C78.7114 87.464 79.0794 87.564 79.4874 87.564ZM87.2507 88.644C86.6187 88.644 86.0547 88.496 85.5587 88.2C85.0707 87.904 84.6867 87.5 84.4067 86.988C84.1267 86.476 83.9867 85.9 83.9867 85.26C83.9867 84.612 84.1267 84.036 84.4067 83.532C84.6867 83.028 85.0707 82.628 85.5587 82.332C86.0547 82.036 86.6187 81.888 87.2507 81.888C87.6747 81.888 88.0707 81.964 88.4387 82.116C88.8067 82.268 89.1307 82.472 89.4107 82.728C89.6907 82.984 89.8947 83.284 90.0227 83.628L89.0267 84.108C88.8747 83.772 88.6427 83.5 88.3307 83.292C88.0187 83.076 87.6587 82.968 87.2507 82.968C86.8587 82.968 86.5027 83.068 86.1827 83.268C85.8707 83.468 85.6227 83.74 85.4387 84.084C85.2547 84.428 85.1627 84.824 85.1627 85.272C85.1627 85.704 85.2547 86.096 85.4387 86.448C85.6227 86.792 85.8707 87.064 86.1827 87.264C86.5027 87.464 86.8587 87.564 87.2507 87.564C87.6587 87.564 88.0187 87.46 88.3307 87.252C88.6427 87.036 88.8747 86.752 89.0267 86.4L90.0227 86.904C89.8947 87.24 89.6907 87.54 89.4107 87.804C89.1307 88.06 88.8067 88.264 88.4387 88.416C88.0707 88.568 87.6747 88.644 87.2507 88.644ZM94.5532 88.644C93.9292 88.644 93.3652 88.5 92.8612 88.212C92.3572 87.916 91.9572 87.512 91.6612 87C91.3652 86.488 91.2172 85.908 91.2172 85.26C91.2172 84.612 91.3612 84.036 91.6492 83.532C91.9452 83.028 92.3452 82.628 92.8492 82.332C93.3532 82.036 93.9212 81.888 94.5532 81.888C95.1772 81.888 95.7412 82.036 96.2452 82.332C96.7492 82.62 97.1452 83.016 97.4332 83.52C97.7292 84.024 97.8772 84.604 97.8772 85.26C97.8772 85.916 97.7252 86.5 97.4212 87.012C97.1172 87.516 96.7132 87.916 96.2092 88.212C95.7132 88.5 95.1612 88.644 94.5532 88.644ZM94.5532 87.564C94.9532 87.564 95.3132 87.464 95.6332 87.264C95.9612 87.064 96.2172 86.788 96.4012 86.436C96.5932 86.084 96.6892 85.692 96.6892 85.26C96.6892 84.82 96.5932 84.432 96.4012 84.096C96.2172 83.752 95.9612 83.48 95.6332 83.28C95.3132 83.072 94.9532 82.968 94.5532 82.968C94.1452 82.968 93.7772 83.072 93.4492 83.28C93.1292 83.48 92.8732 83.752 92.6812 84.096C92.4892 84.432 92.3932 84.82 92.3932 85.26C92.3932 85.692 92.4892 86.084 92.6812 86.436C92.8732 86.788 93.1292 87.064 93.4492 87.264C93.7772 87.464 94.1452 87.564 94.5532 87.564ZM99.3328 88.5V82.032H100.425V83.352L100.269 83.148C100.429 82.74 100.685 82.428 101.037 82.212C101.389 81.996 101.785 81.888 102.225 81.888C102.729 81.888 103.181 82.028 103.581 82.308C103.989 82.588 104.269 82.956 104.421 83.412L104.109 83.424C104.277 82.92 104.561 82.54 104.961 82.284C105.361 82.02 105.805 81.888 106.293 81.888C106.741 81.888 107.145 81.992 107.505 82.2C107.873 82.408 108.165 82.696 108.381 83.064C108.597 83.432 108.705 83.848 108.705 84.312V88.5H107.577V84.672C107.577 84.312 107.513 84.008 107.385 83.76C107.257 83.512 107.081 83.32 106.857 83.184C106.641 83.04 106.385 82.968 106.089 82.968C105.801 82.968 105.541 83.04 105.309 83.184C105.085 83.32 104.905 83.516 104.769 83.772C104.641 84.02 104.577 84.32 104.577 84.672V88.5H103.449V84.672C103.449 84.312 103.385 84.008 103.257 83.76C103.129 83.512 102.953 83.32 102.729 83.184C102.513 83.04 102.257 82.968 101.961 82.968C101.673 82.968 101.413 83.04 101.181 83.184C100.957 83.32 100.777 83.516 100.641 83.772C100.513 84.02 100.449 84.32 100.449 84.672V88.5H99.3328ZM110.29 88.5V82.032H111.406V88.5H110.29ZM110.29 81V79.56H111.406V81H110.29ZM113.137 88.5V82.032H114.229V83.292L114.049 83.184C114.209 82.776 114.465 82.46 114.817 82.236C115.177 82.004 115.597 81.888 116.077 81.888C116.541 81.888 116.953 81.992 117.313 82.2C117.681 82.408 117.969 82.696 118.177 83.064C118.393 83.432 118.501 83.848 118.501 84.312V88.5H117.373V84.672C117.373 84.312 117.309 84.008 117.181 83.76C117.053 83.512 116.869 83.32 116.629 83.184C116.397 83.04 116.129 82.968 115.825 82.968C115.521 82.968 115.249 83.04 115.009 83.184C114.777 83.32 114.593 83.516 114.457 83.772C114.321 84.02 114.253 84.32 114.253 84.672V88.5H113.137ZM123.182 91.14C122.726 91.14 122.302 91.068 121.91 90.924C121.526 90.78 121.194 90.58 120.914 90.324C120.642 90.076 120.434 89.784 120.29 89.448L121.334 88.968C121.446 89.272 121.658 89.528 121.97 89.736C122.29 89.952 122.69 90.06 123.17 90.06C123.538 90.06 123.87 89.988 124.166 89.844C124.47 89.708 124.71 89.5 124.886 89.22C125.062 88.948 125.15 88.616 125.15 88.224V86.772L125.354 86.988C125.13 87.428 124.806 87.764 124.382 87.996C123.966 88.228 123.506 88.344 123.002 88.344C122.394 88.344 121.85 88.204 121.37 87.924C120.89 87.636 120.514 87.248 120.242 86.76C119.97 86.264 119.834 85.716 119.834 85.116C119.834 84.508 119.97 83.96 120.242 83.472C120.514 82.984 120.886 82.6 121.358 82.32C121.838 82.032 122.382 81.888 122.99 81.888C123.494 81.888 123.95 82.004 124.358 82.236C124.774 82.46 125.106 82.772 125.354 83.172L125.186 83.472V82.032H126.278V88.224C126.278 88.784 126.146 89.284 125.882 89.724C125.618 90.164 125.25 90.508 124.778 90.756C124.314 91.012 123.782 91.14 123.182 91.14ZM123.098 87.264C123.482 87.264 123.826 87.168 124.13 86.976C124.442 86.784 124.69 86.528 124.874 86.208C125.058 85.88 125.15 85.516 125.15 85.116C125.15 84.724 125.058 84.364 124.874 84.036C124.69 83.708 124.442 83.448 124.13 83.256C123.826 83.064 123.482 82.968 123.098 82.968C122.706 82.968 122.35 83.064 122.03 83.256C121.71 83.448 121.458 83.708 121.274 84.036C121.098 84.356 121.01 84.716 121.01 85.116C121.01 85.516 121.098 85.88 121.274 86.208C121.458 86.528 121.706 86.784 122.018 86.976C122.338 87.168 122.698 87.264 123.098 87.264ZM130.083 88.5V82.032H131.175V83.352L131.019 83.148C131.179 82.74 131.435 82.428 131.787 82.212C132.139 81.996 132.535 81.888 132.975 81.888C133.479 81.888 133.931 82.028 134.331 82.308C134.739 82.588 135.019 82.956 135.171 83.412L134.859 83.424C135.027 82.92 135.311 82.54 135.711 82.284C136.111 82.02 136.555 81.888 137.043 81.888C137.491 81.888 137.895 81.992 138.255 82.2C138.623 82.408 138.915 82.696 139.131 83.064C139.347 83.432 139.455 83.848 139.455 84.312V88.5H138.327V84.672C138.327 84.312 138.263 84.008 138.135 83.76C138.007 83.512 137.831 83.32 137.607 83.184C137.391 83.04 137.135 82.968 136.839 82.968C136.551 82.968 136.291 83.04 136.059 83.184C135.835 83.32 135.655 83.516 135.519 83.772C135.391 84.02 135.327 84.32 135.327 84.672V88.5H134.199V84.672C134.199 84.312 134.135 84.008 134.007 83.76C133.879 83.512 133.703 83.32 133.479 83.184C133.263 83.04 133.007 82.968 132.711 82.968C132.423 82.968 132.163 83.04 131.931 83.184C131.707 83.32 131.527 83.516 131.391 83.772C131.263 84.02 131.199 84.32 131.199 84.672V88.5H130.083ZM144.016 88.644C143.392 88.644 142.836 88.496 142.348 88.2C141.86 87.904 141.476 87.5 141.196 86.988C140.916 86.468 140.776 85.888 140.776 85.248C140.776 84.6 140.912 84.024 141.184 83.52C141.464 83.016 141.84 82.62 142.312 82.332C142.792 82.036 143.328 81.888 143.92 81.888C144.4 81.888 144.824 81.976 145.192 82.152C145.568 82.32 145.884 82.552 146.14 82.848C146.404 83.136 146.604 83.468 146.74 83.844C146.884 84.212 146.956 84.596 146.956 84.996C146.956 85.084 146.948 85.184 146.932 85.296C146.924 85.4 146.912 85.5 146.896 85.596H141.592V84.636H146.248L145.72 85.068C145.792 84.652 145.752 84.28 145.6 83.952C145.448 83.624 145.224 83.364 144.928 83.172C144.632 82.98 144.296 82.884 143.92 82.884C143.544 82.884 143.2 82.98 142.888 83.172C142.576 83.364 142.332 83.64 142.156 84C141.988 84.352 141.92 84.772 141.952 85.26C141.92 85.732 141.992 86.148 142.168 86.508C142.352 86.86 142.608 87.136 142.936 87.336C143.272 87.528 143.636 87.624 144.028 87.624C144.46 87.624 144.824 87.524 145.12 87.324C145.416 87.124 145.656 86.868 145.84 86.556L146.776 87.036C146.648 87.332 146.448 87.604 146.176 87.852C145.912 88.092 145.596 88.284 145.228 88.428C144.868 88.572 144.464 88.644 144.016 88.644ZM151.387 88.644C150.763 88.644 150.207 88.496 149.719 88.2C149.231 87.904 148.847 87.5 148.567 86.988C148.287 86.468 148.147 85.888 148.147 85.248C148.147 84.6 148.283 84.024 148.555 83.52C148.835 83.016 149.211 82.62 149.683 82.332C150.163 82.036 150.699 81.888 151.291 81.888C151.771 81.888 152.195 81.976 152.563 82.152C152.939 82.32 153.255 82.552 153.511 82.848C153.775 83.136 153.975 83.468 154.111 83.844C154.255 84.212 154.327 84.596 154.327 84.996C154.327 85.084 154.319 85.184 154.303 85.296C154.295 85.4 154.283 85.5 154.267 85.596H148.963V84.636H153.619L153.091 85.068C153.163 84.652 153.123 84.28 152.971 83.952C152.819 83.624 152.595 83.364 152.299 83.172C152.003 82.98 151.667 82.884 151.291 82.884C150.915 82.884 150.571 82.98 150.259 83.172C149.947 83.364 149.703 83.64 149.527 84C149.359 84.352 149.291 84.772 149.323 85.26C149.291 85.732 149.363 86.148 149.539 86.508C149.723 86.86 149.979 87.136 150.307 87.336C150.643 87.528 151.007 87.624 151.399 87.624C151.831 87.624 152.195 87.524 152.491 87.324C152.787 87.124 153.027 86.868 153.211 86.556L154.147 87.036C154.019 87.332 153.819 87.604 153.547 87.852C153.283 88.092 152.967 88.284 152.599 88.428C152.239 88.572 151.835 88.644 151.387 88.644ZM158.41 88.572C157.778 88.572 157.29 88.392 156.946 88.032C156.61 87.672 156.442 87.164 156.442 86.508V83.1H155.266V82.032H155.506C155.794 82.032 156.022 81.944 156.19 81.768C156.358 81.592 156.442 81.36 156.442 81.072V80.544H157.558V82.032H159.01V83.1H157.558V86.472C157.558 86.688 157.59 86.876 157.654 87.036C157.726 87.196 157.842 87.324 158.002 87.42C158.162 87.508 158.374 87.552 158.638 87.552C158.694 87.552 158.762 87.548 158.842 87.54C158.93 87.532 159.01 87.524 159.082 87.516V88.5C158.978 88.524 158.862 88.54 158.734 88.548C158.606 88.564 158.498 88.572 158.41 88.572ZM162.832 88.644C162.368 88.644 161.948 88.536 161.572 88.32C161.204 88.104 160.916 87.804 160.708 87.42C160.508 87.028 160.408 86.58 160.408 86.076V82.032H161.524V85.956C161.524 86.276 161.588 86.556 161.716 86.796C161.852 87.036 162.036 87.224 162.268 87.36C162.508 87.496 162.78 87.564 163.084 87.564C163.388 87.564 163.656 87.496 163.888 87.36C164.128 87.224 164.312 87.028 164.44 86.772C164.576 86.516 164.644 86.212 164.644 85.86V82.032H165.772V88.5H164.68V87.24L164.86 87.348C164.708 87.756 164.448 88.076 164.08 88.308C163.72 88.532 163.304 88.644 162.832 88.644ZM167.501 90.9V82.032H168.593V83.424L168.449 83.148C168.689 82.764 169.017 82.46 169.433 82.236C169.849 82.004 170.325 81.888 170.861 81.888C171.469 81.888 172.013 82.036 172.493 82.332C172.981 82.628 173.365 83.032 173.645 83.544C173.925 84.048 174.065 84.624 174.065 85.272C174.065 85.904 173.925 86.476 173.645 86.988C173.365 87.5 172.981 87.904 172.493 88.2C172.013 88.496 171.465 88.644 170.849 88.644C170.329 88.644 169.853 88.528 169.421 88.296C168.997 88.064 168.669 87.736 168.437 87.312L168.617 87.12V90.9H167.501ZM170.765 87.564C171.173 87.564 171.537 87.464 171.857 87.264C172.177 87.064 172.425 86.792 172.601 86.448C172.785 86.096 172.877 85.704 172.877 85.272C172.877 84.824 172.785 84.432 172.601 84.096C172.425 83.752 172.177 83.48 171.857 83.28C171.537 83.072 171.173 82.968 170.765 82.968C170.357 82.968 169.989 83.068 169.661 83.268C169.341 83.468 169.085 83.744 168.893 84.096C168.709 84.44 168.617 84.832 168.617 85.272C168.617 85.704 168.709 86.096 168.893 86.448C169.085 86.792 169.341 87.064 169.661 87.264C169.989 87.464 170.357 87.564 170.765 87.564ZM177.844 88.644C177.196 88.644 176.632 88.484 176.152 88.164C175.672 87.844 175.332 87.412 175.132 86.868L176.02 86.436C176.204 86.82 176.456 87.124 176.776 87.348C177.096 87.572 177.452 87.684 177.844 87.684C178.196 87.684 178.488 87.6 178.72 87.432C178.952 87.264 179.068 87.044 179.068 86.772C179.068 86.58 179.012 86.428 178.9 86.316C178.796 86.196 178.668 86.104 178.516 86.04C178.364 85.968 178.224 85.916 178.096 85.884L177.124 85.608C176.54 85.44 176.112 85.2 175.84 84.888C175.576 84.576 175.444 84.212 175.444 83.796C175.444 83.412 175.54 83.08 175.732 82.8C175.932 82.512 176.2 82.288 176.536 82.128C176.88 81.968 177.264 81.888 177.688 81.888C178.256 81.888 178.764 82.032 179.212 82.32C179.668 82.608 179.992 83.012 180.184 83.532L179.272 83.952C179.128 83.616 178.912 83.352 178.624 83.16C178.336 82.96 178.012 82.86 177.652 82.86C177.324 82.86 177.064 82.944 176.872 83.112C176.68 83.272 176.584 83.476 176.584 83.724C176.584 83.908 176.632 84.06 176.728 84.18C176.824 84.292 176.94 84.38 177.076 84.444C177.212 84.5 177.344 84.548 177.472 84.588L178.528 84.9C179.056 85.052 179.464 85.288 179.752 85.608C180.048 85.928 180.196 86.312 180.196 86.76C180.196 87.12 180.096 87.444 179.896 87.732C179.696 88.02 179.42 88.244 179.068 88.404C178.716 88.564 178.308 88.644 177.844 88.644Z" fill="#3D3D3D"/>
</g>
<defs>
<filter id="filter0_d_2366_3085" x="0" y="0" width="232" height="152" filterUnits="userSpaceOnUse" color-interpolation-filters="sRGB">
<feFlood flood-opacity="0" result="BackgroundImageFix"/>
<feColorMatrix in="SourceAlpha" type="matrix" values="0 0 0 0 0 0 0 0 0 0 0 0 0 0 0 0 0 0 127 0" result="hardAlpha"/>
<feOffset dx="-4" dy="4"/>
<feGaussianBlur stdDeviation="20"/>
<feComposite in2="hardAlpha" operator="out"/>
<feColorMatrix type="matrix" values="0 0 0 0 0 0 0 0 0 0 0 0 0 0 0 0 0 0 0.1 0"/>
<feBlend mode="normal" in2="BackgroundImageFix" result="effect1_dropShadow_2366_3085"/>
<feBlend mode="normal" in="SourceGraphic" in2="effect1_dropShadow_2366_3085" result="shape"/>
</filter>
</defs>
</svg>
