<svg width="342" height="344" viewBox="0 0 342 344" fill="none" xmlns="http://www.w3.org/2000/svg">
<g clip-path="url(#clip0_2366_3576)">
<rect width="342" height="344" rx="32" fill="#FF4F93" fill-opacity="0.1"/>
<mask id="mask0_2366_3576" style="mask-type:luminance" maskUnits="userSpaceOnUse" x="-14" y="-47" width="241" height="225">
<path d="M-14 -47H226.461V177.89H-14V-47Z" fill="white"/>
</mask>
<g mask="url(#mask0_2366_3576)">
<path fill-rule="evenodd" clip-rule="evenodd" d="M109.586 -46.9092C44.5607 -44.4811 -1.25146 8.20422 -11.0543 61.8363C-16.989 94.1424 -9.79909 126.716 13.7346 148.805C29.4722 163.565 52.5021 173.682 83.9345 175.889C124.973 178.767 175.96 167.207 201.56 136.298C221.977 111.643 228.766 77.0464 221.576 46.1376C214.335 14.954 192.91 -12.4881 157.302 -22.7503C103.045 -38.449 51.2468 -8.75434 27.5594 31.0651C13.2821 55.0407 9.26015 82.6203 20.7708 106.107C28.4646 121.768 43.1006 135.664 66.3867 145.385C112.096 164.42 158.763 144.354 182.903 112.857C207.196 81.1848 208.75 38.1738 164.296 11.9838C123.863 -11.862 83.4819 5.91356 63.2699 35.2035C43.0493 64.4477 43.0493 105.031 82.9269 126.532C110.491 141.429 137.842 127.388 152.828 105.031C167.669 82.8952 169.88 52.7958 148.558 35.8297C139.251 28.4537 129.644 25.4377 120.542 25.4835C106.964 25.5751 94.4973 32.5922 86.1973 42.7627C72.4665 59.6297 70.2549 85.0484 92.5846 100.846C106.162 110.429 122.403 105.39 132.915 94.7227C143.273 84.239 147.798 68.4945 139.106 57.1557C122.403 35.4708 89.2202 59.3166 102.592 79.8333C103.446 81.1848 105.41 81.6353 106.87 80.826C108.373 80.0548 108.877 78.3062 107.972 77.0005C98.3655 62.2868 121.899 44.7861 133.871 60.355C141.01 69.617 136.689 82.3989 128.193 90.9889C119.841 99.4032 107.169 103.992 96.4101 96.433C77.0434 82.7577 79.3063 60.7139 91.1756 46.046C98.2716 37.3186 108.826 31.1491 120.499 31.0651C128.244 31.0192 136.39 33.7146 144.28 39.9681C163.442 55.1781 160.624 82.2156 147.346 102.106C134.17 121.768 110.337 134.771 86.0522 121.676C49.5903 102.015 49.9916 64.8524 68.4958 38.0821C87 11.3577 123.812 -5.20381 160.778 16.6186C201.765 40.7775 200.049 80.4594 177.677 109.62C155.142 138.994 111.644 157.983 68.9484 140.215C47.2762 131.167 33.5966 118.347 26.4066 103.771C15.6474 81.8568 19.6181 56.0791 32.9903 33.623C55.4737 -3.85231 104.155 -32.2413 155.347 -17.4818C188.735 -7.85335 208.597 17.9701 215.385 47.1684C222.225 76.5959 215.889 109.436 196.48 132.878C172.092 162.305 123.462 172.964 84.3871 170.223C54.765 168.154 32.9903 158.747 18.2091 144.888C-3.96689 124.058 -10.5078 93.2414 -4.87204 62.7373C4.47827 11.5791 47.8312 -38.9911 109.834 -41.3276C111.541 -41.3734 112.899 -42.7249 112.848 -44.252C112.754 -45.7868 111.294 -47.0008 109.586 -46.9092Z" fill="#FF4F93" fill-opacity="0.03"/>
</g>
<path d="M167.589 60.182C169.51 58.3901 172.49 58.3901 174.411 60.182L177.125 62.7145C178.512 64.0084 180.512 64.4061 182.288 63.7415L185.765 62.4406C188.226 61.5201 190.979 62.6605 192.068 65.0511L193.606 68.4296C194.393 70.1557 196.088 71.2884 197.983 71.3542L201.693 71.4829C204.319 71.574 206.426 73.6812 206.517 76.3065L206.646 80.0167C206.712 81.9123 207.844 83.6074 209.57 84.3936L212.949 85.9324C215.34 87.0212 216.48 89.7743 215.559 92.2347L214.259 95.7118C213.594 97.4882 213.992 99.4878 215.285 100.875L217.818 103.589C219.61 105.51 219.61 108.49 217.818 110.411L215.285 113.125C213.992 114.512 213.594 116.512 214.259 118.288L215.559 121.765C216.48 124.226 215.34 126.979 212.949 128.068L209.57 129.606C207.844 130.393 206.712 132.088 206.646 133.983L206.517 137.693C206.426 140.319 204.319 142.426 201.693 142.517L197.983 142.646C196.088 142.712 194.393 143.844 193.606 145.57L192.068 148.949C190.979 151.34 188.226 152.48 185.765 151.559L182.288 150.259C180.512 149.594 178.512 149.992 177.125 151.285L174.411 153.818C172.49 155.61 169.51 155.61 167.589 153.818L164.875 151.285C163.488 149.992 161.488 149.594 159.712 150.259L156.235 151.559C153.774 152.48 151.021 151.34 149.932 148.949L148.394 145.57C147.607 143.844 145.912 142.712 144.017 142.646L140.307 142.517C137.681 142.426 135.574 140.319 135.483 137.693L135.354 133.983C135.288 132.088 134.156 130.393 132.43 129.606L129.051 128.068C126.66 126.979 125.52 124.226 126.441 121.765L127.741 118.288C128.406 116.512 128.008 114.512 126.715 113.125L124.182 110.411C122.39 108.49 122.39 105.51 124.182 103.589L126.715 100.875C128.008 99.4878 128.406 97.4882 127.741 95.7118L126.441 92.2347C125.52 89.7743 126.66 87.0212 129.051 85.9324L132.43 84.3936C134.156 83.6074 135.288 81.9123 135.354 80.0167L135.483 76.3065C135.574 73.6812 137.681 71.574 140.307 71.4829L144.017 71.3542C145.912 71.2884 147.607 70.1557 148.394 68.4296L149.932 65.0511C151.021 62.6605 153.774 61.5201 156.235 62.4406L159.712 63.7415C161.488 64.4061 163.488 64.0084 164.875 62.7145L167.589 60.182Z" fill="#FF4F93"/>
<path d="M186.366 117.752C190.56 115.272 193.133 110.812 193.133 105.886C193.133 98.2858 186.946 92.0991 179.346 92.0991C171.746 92.0991 165.56 98.2858 165.56 105.886C165.56 106.506 165.606 107.119 165.686 107.726C164.506 107.326 163.273 107.119 162 107.119C155.693 107.119 150.566 112.246 150.566 118.546C150.566 124.846 155.693 129.979 162 129.979C164.533 129.979 166.953 129.152 168.94 127.626C170.04 132.272 174.206 135.652 179.086 135.652C184.84 135.652 189.526 130.972 189.526 125.212C189.526 122.372 188.38 119.706 186.366 117.746V117.752ZM179.346 93.4258C186.213 93.4258 191.8 99.0125 191.8 105.879C191.8 110.619 189.166 114.886 184.926 117.019C183.186 117.892 181.313 118.339 179.346 118.339C177.38 118.339 175.26 117.832 173.466 116.866C173.32 116.786 173.166 116.699 173.02 116.612C170.073 114.872 167.953 111.966 167.2 108.646C166.993 107.752 166.893 106.826 166.893 105.886C166.893 99.0191 172.48 93.4325 179.346 93.4325V93.4258ZM151.9 118.546C151.9 112.979 156.426 108.452 162 108.452C163.393 108.452 164.733 108.739 166 109.286C166.866 112.706 169.046 115.686 172.046 117.566C172.053 117.659 172.066 117.746 172.073 117.846C172.093 118.079 172.1 118.312 172.1 118.546C172.1 121.352 170.973 123.959 168.933 125.886C168.92 125.892 168.913 125.906 168.906 125.912C167.033 127.672 164.58 128.639 162.006 128.639C156.44 128.639 151.906 124.112 151.906 118.539L151.9 118.546ZM179.086 134.319C174.58 134.319 170.766 131.019 170.1 126.592C172.246 124.439 173.433 121.599 173.433 118.546C173.433 118.472 173.433 118.406 173.426 118.332C175.266 119.206 177.3 119.672 179.353 119.672C181.406 119.672 183.306 119.246 185.113 118.406C187.073 120.139 188.2 122.592 188.2 125.219C188.2 130.239 184.113 134.326 179.093 134.326L179.086 134.319Z" fill="white"/>
<path d="M182.36 121.54C181.993 121.54 181.693 121.84 181.693 122.206V122.76C181.693 123.126 181.993 123.426 182.36 123.426C182.727 123.426 183.027 123.126 183.027 122.76V122.206C183.027 121.84 182.727 121.54 182.36 121.54Z" fill="white"/>
<path d="M175.434 123.419C175.801 123.419 176.101 123.119 176.101 122.753V122.199C176.101 121.833 175.801 121.533 175.434 121.533C175.068 121.533 174.768 121.833 174.768 122.199V122.753C174.768 123.119 175.068 123.419 175.434 123.419Z" fill="white"/>
<path d="M182.361 128.405H175.434C175.068 128.405 174.768 128.705 174.768 129.072C174.768 129.439 175.068 129.739 175.434 129.739H182.361C182.728 129.739 183.028 129.439 183.028 129.072C183.028 128.705 182.728 128.405 182.361 128.405Z" fill="white"/>
<path d="M165.6 114.559C165.234 114.559 164.934 114.859 164.934 115.226V115.832C164.934 116.199 165.234 116.499 165.6 116.499C165.967 116.499 166.267 116.199 166.267 115.832V115.226C166.267 114.859 165.967 114.559 165.6 114.559Z" fill="white"/>
<path d="M157.973 116.499C158.34 116.499 158.64 116.199 158.64 115.832V115.226C158.64 114.859 158.34 114.559 157.973 114.559C157.607 114.559 157.307 114.859 157.307 115.226V115.832C157.307 116.199 157.607 116.499 157.973 116.499Z" fill="white"/>
<path d="M161.787 119.886C159.313 119.886 157.307 121.732 157.307 124.006C157.307 124.372 157.607 124.672 157.973 124.672C158.34 124.672 158.64 124.372 158.64 124.006C158.64 122.466 160.053 121.219 161.787 121.219C163.52 121.219 164.933 122.472 164.933 124.006C164.933 124.372 165.233 124.672 165.6 124.672C165.967 124.672 166.267 124.372 166.267 124.006C166.267 121.732 164.253 119.886 161.787 119.886Z" fill="white"/>
<path d="M183.741 103.246C184.108 103.246 184.408 102.946 184.408 102.579V101.839C184.408 101.472 184.108 101.172 183.741 101.172C183.374 101.172 183.074 101.472 183.074 101.839V102.579C183.074 102.946 183.374 103.246 183.741 103.246Z" fill="white"/>
<path d="M174.44 103.246C174.807 103.246 175.107 102.946 175.107 102.579V101.839C175.107 101.472 174.807 101.172 174.44 101.172C174.073 101.172 173.773 101.472 173.773 101.839V102.579C173.773 102.946 174.073 103.246 174.44 103.246Z" fill="white"/>
<path d="M179.088 114.419C182.021 114.419 184.408 112.233 184.408 109.539C184.408 109.173 184.108 108.873 183.741 108.873C183.374 108.873 183.074 109.173 183.074 109.539C183.074 111.493 181.288 113.086 179.088 113.086C176.888 113.086 175.101 111.499 175.101 109.539C175.101 109.173 174.801 108.873 174.434 108.873C174.068 108.873 173.768 109.173 173.768 109.539C173.768 112.226 176.154 114.419 179.088 114.419Z" fill="white"/>
<path d="M147.594 101.486H150.521C150.888 101.486 151.188 101.186 151.188 100.819C151.188 100.453 150.888 100.153 150.521 100.153H147.594C147.228 100.153 146.928 100.453 146.928 100.819C146.928 101.186 147.228 101.486 147.594 101.486Z" fill="white"/>
<path d="M160.127 100.819C160.127 101.186 160.427 101.486 160.794 101.486H163.72C164.087 101.486 164.387 101.186 164.387 100.819C164.387 100.453 164.087 100.153 163.72 100.153H160.794C160.427 100.153 160.127 100.453 160.127 100.819Z" fill="white"/>
<path d="M151.188 102.905C151.188 102.539 150.888 102.239 150.521 102.239H147.594C147.228 102.239 146.928 102.539 146.928 102.905C146.928 103.272 147.228 103.572 147.594 103.572H150.521C150.888 103.572 151.188 103.272 151.188 102.905Z" fill="white"/>
<path d="M163.72 102.239H160.794C160.427 102.239 160.127 102.539 160.127 102.905C160.127 103.272 160.427 103.572 160.794 103.572H163.72C164.087 103.572 164.387 103.272 164.387 102.905C164.387 102.539 164.087 102.239 163.72 102.239Z" fill="white"/>
<path d="M155.661 81.4859C156.027 81.4859 156.327 81.1859 156.327 80.8192V78.9992C156.327 78.6325 156.027 78.3325 155.661 78.3325C155.294 78.3325 154.994 78.6325 154.994 78.9992V80.8192C154.994 81.1859 155.294 81.4859 155.661 81.4859Z" fill="white"/>
<path d="M149.82 82.5926C149.953 82.7726 150.153 82.866 150.36 82.866C150.493 82.866 150.633 82.826 150.753 82.7393C151.053 82.526 151.12 82.106 150.9 81.806L149.833 80.3326C149.62 80.0326 149.2 79.966 148.9 80.186C148.6 80.3993 148.533 80.8193 148.753 81.1193L149.82 82.5926Z" fill="white"/>
<path d="M146.307 85.7455L144.54 85.1722C144.187 85.0522 143.814 85.2522 143.7 85.5989C143.587 85.9522 143.78 86.3255 144.127 86.4389L145.894 87.0122C145.96 87.0322 146.034 87.0455 146.1 87.0455C146.38 87.0455 146.64 86.8655 146.734 86.5855C146.847 86.2322 146.654 85.8589 146.307 85.7455Z" fill="white"/>
<path d="M165.28 87.0726C165.346 87.0726 165.42 87.0592 165.486 87.0392L167.253 86.4726C167.606 86.3592 167.793 85.9859 167.68 85.6326C167.566 85.2859 167.193 85.0859 166.84 85.2059L165.073 85.7726C164.72 85.8859 164.533 86.2592 164.646 86.6126C164.74 86.8926 165 87.0726 165.28 87.0726Z" fill="white"/>
<path d="M161.008 82.8652C161.214 82.8652 161.414 82.7719 161.548 82.5919L162.634 81.1119C162.854 80.8119 162.788 80.3986 162.488 80.1786C162.188 79.9586 161.774 80.0252 161.554 80.3186L160.468 81.7986C160.248 82.0986 160.314 82.5119 160.614 82.7319C160.734 82.8186 160.874 82.8586 161.008 82.8586V82.8652Z" fill="white"/>
<path d="M150.3 96.7258C150.926 97.2924 151.373 97.9391 151.62 98.6591L152.08 100.006V100.906C152.08 102.879 153.686 104.492 155.66 104.492C157.633 104.492 159.24 102.886 159.24 100.906V100.012L159.706 98.6524C159.953 97.9391 160.393 97.2791 160.986 96.7524C162.706 95.2324 163.693 93.0391 163.693 90.7458C163.693 88.4524 162.806 86.4658 161.206 84.9391C159.6 83.4058 157.486 82.6191 155.273 82.7324C151.08 82.9324 147.653 86.5124 147.633 90.7191C147.626 93.0124 148.6 95.1991 150.306 96.7324L150.3 96.7258ZM157.906 100.906C157.906 102.146 156.9 103.159 155.66 103.159C154.42 103.159 153.413 102.152 153.413 100.906V100.566H157.913V100.906H157.906ZM155.326 84.0591C157.186 83.9724 158.94 84.6258 160.28 85.8991C161.62 87.1724 162.353 88.8924 162.353 90.7391C162.353 92.5858 161.533 94.4791 160.1 95.7524C159.333 96.4324 158.76 97.2858 158.44 98.2191L158.093 99.2258H156.313V89.5324C156.313 89.5324 156.32 89.5124 156.32 89.4991C156.32 89.4991 156.32 89.4724 156.313 89.4591V88.8458C156.313 88.4791 156.013 88.1791 155.646 88.1791C155.28 88.1791 154.98 88.4791 154.98 88.8458V99.2258H153.213L152.866 98.2191C152.553 97.2991 151.966 96.4324 151.18 95.7258C149.76 94.4524 148.946 92.6258 148.953 90.7124C148.966 87.2058 151.826 84.2191 155.32 84.0524L155.326 84.0591Z" fill="white"/>
<path d="M193.548 113.74C192.371 115.075 190.91 117.01 191.079 117.18C191.243 117.343 192.975 115.668 194.153 114.333C195.33 112.998 195.376 112.664 195.212 112.501C195.043 112.334 194.727 112.407 193.548 113.74Z" fill="white"/>
<path d="M196.741 121.942C196.272 121.489 195.744 121.014 195.204 120.571C194.666 120.129 194.126 119.72 193.631 119.371C192.647 118.682 191.881 118.266 191.833 118.348C191.784 118.427 192.461 118.982 193.362 119.756C193.815 120.146 194.321 120.585 194.827 121.047C195.333 121.509 195.837 121.984 196.299 122.425C197.211 123.316 197.735 123.843 198.062 124.106C198.388 124.379 198.514 124.399 198.579 124.333C198.647 124.272 198.638 124.138 198.397 123.78C198.153 123.441 197.675 122.852 196.741 121.942Z" fill="white"/>
<path d="M190.059 119.468C189.981 119.498 190.088 119.89 190.226 120.408C190.369 120.923 190.533 121.572 190.65 122.122C190.772 122.67 190.848 122.989 190.931 123.175C191.014 123.361 191.098 123.417 191.191 123.432C191.284 123.446 191.358 123.409 191.397 123.228C191.427 123.044 191.425 122.707 191.298 122.118C191.171 121.528 190.92 120.833 190.654 120.313C190.389 119.782 190.132 119.44 190.059 119.468Z" fill="white"/>
<path d="M55.2106 210V195.1H58.2106L63.7906 202.5H62.3906L67.8106 195.1H70.8106V210H67.7106V198.52L68.9506 198.8L63.2106 206.2H62.8106L57.2706 198.8L58.3106 198.52V210H55.2106ZM78.6528 210.24C77.5728 210.24 76.5861 209.993 75.6928 209.5C74.8128 209.007 74.1061 208.333 73.5728 207.48C73.0528 206.613 72.7928 205.633 72.7928 204.54C72.7928 203.433 73.0528 202.453 73.5728 201.6C74.1061 200.747 74.8128 200.073 75.6928 199.58C76.5861 199.087 77.5728 198.84 78.6528 198.84C79.7328 198.84 80.7128 199.087 81.5928 199.58C82.4728 200.073 83.1728 200.747 83.6928 201.6C84.2261 202.453 84.4928 203.433 84.4928 204.54C84.4928 205.633 84.2261 206.613 83.6928 207.48C83.1728 208.333 82.4728 209.007 81.5928 209.5C80.7128 209.993 79.7328 210.24 78.6528 210.24ZM78.6528 207.54C79.1995 207.54 79.6728 207.413 80.0728 207.16C80.4861 206.907 80.8061 206.553 81.0328 206.1C81.2728 205.647 81.3928 205.127 81.3928 204.54C81.3928 203.953 81.2728 203.44 81.0328 203C80.8061 202.547 80.4861 202.193 80.0728 201.94C79.6728 201.673 79.1995 201.54 78.6528 201.54C78.1061 201.54 77.6261 201.673 77.2128 201.94C76.7995 202.193 76.4728 202.547 76.2328 203C76.0061 203.44 75.8928 203.953 75.8928 204.54C75.8928 205.127 76.0061 205.647 76.2328 206.1C76.4728 206.553 76.7995 206.907 77.2128 207.16C77.6261 207.413 78.1061 207.54 78.6528 207.54ZM91.6802 210.24C90.6002 210.24 89.6135 209.993 88.7202 209.5C87.8402 209.007 87.1335 208.333 86.6002 207.48C86.0802 206.613 85.8202 205.633 85.8202 204.54C85.8202 203.433 86.0802 202.453 86.6002 201.6C87.1335 200.747 87.8402 200.073 88.7202 199.58C89.6135 199.087 90.6002 198.84 91.6802 198.84C92.7602 198.84 93.7402 199.087 94.6202 199.58C95.5002 200.073 96.2002 200.747 96.7202 201.6C97.2535 202.453 97.5202 203.433 97.5202 204.54C97.5202 205.633 97.2535 206.613 96.7202 207.48C96.2002 208.333 95.5002 209.007 94.6202 209.5C93.7402 209.993 92.7602 210.24 91.6802 210.24ZM91.6802 207.54C92.2268 207.54 92.7002 207.413 93.1002 207.16C93.5135 206.907 93.8335 206.553 94.0602 206.1C94.3002 205.647 94.4202 205.127 94.4202 204.54C94.4202 203.953 94.3002 203.44 94.0602 203C93.8335 202.547 93.5135 202.193 93.1002 201.94C92.7002 201.673 92.2268 201.54 91.6802 201.54C91.1335 201.54 90.6535 201.673 90.2402 201.94C89.8268 202.193 89.5002 202.547 89.2602 203C89.0335 203.44 88.9202 203.953 88.9202 204.54C88.9202 205.127 89.0335 205.647 89.2602 206.1C89.5002 206.553 89.8268 206.907 90.2402 207.16C90.6535 207.413 91.1335 207.54 91.6802 207.54ZM104.428 210.24C103.361 210.24 102.408 209.987 101.568 209.48C100.728 208.973 100.061 208.287 99.5675 207.42C99.0875 206.553 98.8475 205.593 98.8475 204.54C98.8475 203.473 99.0942 202.513 99.5875 201.66C100.081 200.793 100.748 200.107 101.588 199.6C102.428 199.093 103.368 198.84 104.408 198.84C105.208 198.84 105.914 198.993 106.528 199.3C107.154 199.593 107.648 200.013 108.008 200.56L107.548 201.16V194.86H110.548V210H107.748V208L108.028 208.62C107.654 209.153 107.148 209.56 106.508 209.84C105.868 210.107 105.174 210.24 104.428 210.24ZM104.788 207.54C105.334 207.54 105.814 207.413 106.228 207.16C106.641 206.907 106.961 206.553 107.188 206.1C107.428 205.647 107.548 205.127 107.548 204.54C107.548 203.953 107.428 203.433 107.188 202.98C106.961 202.527 106.641 202.173 106.228 201.92C105.814 201.667 105.334 201.54 104.788 201.54C104.241 201.54 103.748 201.673 103.308 201.94C102.881 202.193 102.548 202.547 102.308 203C102.068 203.44 101.948 203.953 101.948 204.54C101.948 205.127 102.068 205.647 102.308 206.1C102.548 206.553 102.881 206.907 103.308 207.16C103.748 207.413 104.241 207.54 104.788 207.54ZM113.485 205.84V203.24H122.485V205.84H113.485ZM125.64 210V195.1H131.94C132.967 195.1 133.847 195.273 134.58 195.62C135.314 195.967 135.874 196.467 136.26 197.12C136.647 197.76 136.84 198.54 136.84 199.46C136.84 200.113 136.66 200.74 136.3 201.34C135.94 201.927 135.347 202.42 134.52 202.82V201.3C135.307 201.607 135.914 201.973 136.34 202.4C136.767 202.827 137.06 203.293 137.22 203.8C137.38 204.293 137.46 204.813 137.46 205.36C137.46 206.827 136.974 207.967 136 208.78C135.027 209.593 133.674 210 131.94 210H125.64ZM128.74 207.3H132.3C132.927 207.3 133.427 207.12 133.8 206.76C134.174 206.4 134.36 205.933 134.36 205.36C134.36 204.773 134.174 204.3 133.8 203.94C133.427 203.58 132.927 203.4 132.3 203.4H128.74V207.3ZM128.74 200.7H132.16C132.64 200.7 133.02 200.567 133.3 200.3C133.594 200.02 133.74 199.653 133.74 199.2C133.74 198.747 133.594 198.387 133.3 198.12C133.02 197.84 132.64 197.7 132.16 197.7H128.74V200.7ZM142.609 210.24C141.822 210.24 141.142 210.113 140.569 209.86C139.996 209.607 139.556 209.247 139.249 208.78C138.942 208.3 138.789 207.733 138.789 207.08C138.789 206.467 138.929 205.927 139.209 205.46C139.489 204.98 139.916 204.58 140.489 204.26C141.076 203.94 141.802 203.713 142.669 203.58L146.009 203.04V205.24L143.209 205.74C142.782 205.82 142.456 205.96 142.229 206.16C142.002 206.347 141.889 206.62 141.889 206.98C141.889 207.313 142.016 207.573 142.269 207.76C142.522 207.947 142.836 208.04 143.209 208.04C143.702 208.04 144.136 207.933 144.509 207.72C144.882 207.507 145.169 207.22 145.369 206.86C145.582 206.487 145.689 206.08 145.689 205.64V202.8C145.689 202.387 145.522 202.04 145.189 201.76C144.869 201.48 144.429 201.34 143.869 201.34C143.336 201.34 142.862 201.487 142.449 201.78C142.049 202.073 141.756 202.46 141.569 202.94L139.169 201.8C139.382 201.187 139.722 200.66 140.189 200.22C140.656 199.78 141.216 199.44 141.869 199.2C142.522 198.96 143.236 198.84 144.009 198.84C144.929 198.84 145.742 199.007 146.449 199.34C147.156 199.673 147.702 200.14 148.089 200.74C148.489 201.327 148.689 202.013 148.689 202.8V210H145.889V208.24L146.569 208.12C146.249 208.6 145.896 209 145.509 209.32C145.122 209.627 144.689 209.853 144.209 210C143.729 210.16 143.196 210.24 142.609 210.24ZM155.169 210.24C153.969 210.24 152.922 209.96 152.029 209.4C151.149 208.827 150.549 208.06 150.229 207.1L152.429 206.06C152.709 206.647 153.089 207.107 153.569 207.44C154.049 207.773 154.582 207.94 155.169 207.94C155.596 207.94 155.922 207.853 156.149 207.68C156.376 207.507 156.489 207.267 156.489 206.96C156.489 206.8 156.449 206.667 156.369 206.56C156.289 206.44 156.169 206.333 156.009 206.24C155.849 206.147 155.649 206.067 155.409 206L153.549 205.48C152.656 205.227 151.969 204.82 151.489 204.26C151.009 203.687 150.769 203.013 150.769 202.24C150.769 201.56 150.942 200.967 151.289 200.46C151.636 199.953 152.122 199.56 152.749 199.28C153.376 198.987 154.096 198.84 154.909 198.84C155.976 198.84 156.909 199.093 157.709 199.6C158.522 200.093 159.096 200.793 159.429 201.7L157.209 202.74C157.049 202.287 156.756 201.927 156.329 201.66C155.916 201.38 155.442 201.24 154.909 201.24C154.522 201.24 154.216 201.32 153.989 201.48C153.776 201.64 153.669 201.86 153.669 202.14C153.669 202.287 153.709 202.42 153.789 202.54C153.869 202.66 153.996 202.767 154.169 202.86C154.356 202.953 154.582 203.04 154.849 203.12L156.589 203.64C157.496 203.907 158.189 204.313 158.669 204.86C159.149 205.393 159.389 206.053 159.389 206.84C159.389 207.52 159.209 208.113 158.849 208.62C158.502 209.127 158.016 209.527 157.389 209.82C156.762 210.1 156.022 210.24 155.169 210.24ZM166.442 210.24C165.282 210.24 164.275 209.987 163.422 209.48C162.569 208.96 161.909 208.267 161.442 207.4C160.975 206.533 160.742 205.573 160.742 204.52C160.742 203.427 160.982 202.453 161.462 201.6C161.955 200.747 162.615 200.073 163.442 199.58C164.269 199.087 165.202 198.84 166.242 198.84C167.109 198.84 167.875 198.98 168.542 199.26C169.209 199.527 169.769 199.907 170.222 200.4C170.689 200.893 171.042 201.467 171.282 202.12C171.522 202.76 171.642 203.46 171.642 204.22C171.642 204.433 171.629 204.647 171.602 204.86C171.589 205.06 171.555 205.233 171.502 205.38H163.322V203.18H169.802L168.382 204.22C168.515 203.647 168.509 203.14 168.362 202.7C168.215 202.247 167.955 201.893 167.582 201.64C167.222 201.373 166.775 201.24 166.242 201.24C165.722 201.24 165.275 201.367 164.902 201.62C164.529 201.873 164.249 202.247 164.062 202.74C163.875 203.233 163.802 203.833 163.842 204.54C163.789 205.153 163.862 205.693 164.062 206.16C164.262 206.627 164.569 206.993 164.982 207.26C165.395 207.513 165.895 207.64 166.482 207.64C167.015 207.64 167.469 207.533 167.842 207.32C168.229 207.107 168.529 206.813 168.742 206.44L171.142 207.58C170.929 208.113 170.589 208.58 170.122 208.98C169.669 209.38 169.129 209.693 168.502 209.92C167.875 210.133 167.189 210.24 166.442 210.24ZM178.549 210.24C177.482 210.24 176.529 209.987 175.689 209.48C174.849 208.973 174.182 208.287 173.689 207.42C173.209 206.553 172.969 205.593 172.969 204.54C172.969 203.473 173.215 202.513 173.709 201.66C174.202 200.793 174.869 200.107 175.709 199.6C176.549 199.093 177.489 198.84 178.529 198.84C179.329 198.84 180.035 198.993 180.649 199.3C181.275 199.593 181.769 200.013 182.129 200.56L181.669 201.16V194.86H184.669V210H181.869V208L182.149 208.62C181.775 209.153 181.269 209.56 180.629 209.84C179.989 210.107 179.295 210.24 178.549 210.24ZM178.909 207.54C179.455 207.54 179.935 207.413 180.349 207.16C180.762 206.907 181.082 206.553 181.309 206.1C181.549 205.647 181.669 205.127 181.669 204.54C181.669 203.953 181.549 203.433 181.309 202.98C181.082 202.527 180.762 202.173 180.349 201.92C179.935 201.667 179.455 201.54 178.909 201.54C178.362 201.54 177.869 201.673 177.429 201.94C177.002 202.193 176.669 202.547 176.429 203C176.189 203.44 176.069 203.953 176.069 204.54C176.069 205.127 176.189 205.647 176.429 206.1C176.669 206.553 177.002 206.907 177.429 207.16C177.869 207.413 178.362 207.54 178.909 207.54ZM190.679 210V195.1H195.539C197.153 195.1 198.553 195.42 199.739 196.06C200.926 196.7 201.846 197.58 202.499 198.7C203.153 199.82 203.479 201.1 203.479 202.54C203.479 203.98 203.153 205.267 202.499 206.4C201.846 207.52 200.926 208.4 199.739 209.04C198.553 209.68 197.153 210 195.539 210H190.679ZM193.779 207.3H195.619C196.593 207.3 197.433 207.107 198.139 206.72C198.846 206.32 199.393 205.767 199.779 205.06C200.179 204.34 200.379 203.5 200.379 202.54C200.379 201.567 200.179 200.727 199.779 200.02C199.393 199.313 198.846 198.767 198.139 198.38C197.433 197.993 196.593 197.8 195.619 197.8H193.779V207.3ZM205.245 210V199.08H208.245V210H205.245ZM205.245 198.1V195.1H208.245V198.1H205.245ZM214.72 210.24C213.52 210.24 212.473 209.96 211.58 209.4C210.7 208.827 210.1 208.06 209.78 207.1L211.98 206.06C212.26 206.647 212.64 207.107 213.12 207.44C213.6 207.773 214.133 207.94 214.72 207.94C215.147 207.94 215.473 207.853 215.7 207.68C215.927 207.507 216.04 207.267 216.04 206.96C216.04 206.8 216 206.667 215.92 206.56C215.84 206.44 215.72 206.333 215.56 206.24C215.4 206.147 215.2 206.067 214.96 206L213.1 205.48C212.207 205.227 211.52 204.82 211.04 204.26C210.56 203.687 210.32 203.013 210.32 202.24C210.32 201.56 210.493 200.967 210.84 200.46C211.187 199.953 211.673 199.56 212.3 199.28C212.927 198.987 213.647 198.84 214.46 198.84C215.527 198.84 216.46 199.093 217.26 199.6C218.073 200.093 218.647 200.793 218.98 201.7L216.76 202.74C216.6 202.287 216.307 201.927 215.88 201.66C215.467 201.38 214.993 201.24 214.46 201.24C214.073 201.24 213.767 201.32 213.54 201.48C213.327 201.64 213.22 201.86 213.22 202.14C213.22 202.287 213.26 202.42 213.34 202.54C213.42 202.66 213.547 202.767 213.72 202.86C213.907 202.953 214.133 203.04 214.4 203.12L216.14 203.64C217.047 203.907 217.74 204.313 218.22 204.86C218.7 205.393 218.94 206.053 218.94 206.84C218.94 207.52 218.76 208.113 218.4 208.62C218.053 209.127 217.567 209.527 216.94 209.82C216.313 210.1 215.573 210.24 214.72 210.24ZM226.093 210.24C224.999 210.24 224.013 209.993 223.133 209.5C222.266 208.993 221.573 208.307 221.053 207.44C220.546 206.573 220.293 205.6 220.293 204.52C220.293 203.44 220.546 202.473 221.053 201.62C221.559 200.753 222.253 200.073 223.133 199.58C224.013 199.087 224.999 198.84 226.093 198.84C226.906 198.84 227.659 198.98 228.353 199.26C229.046 199.54 229.639 199.933 230.133 200.44C230.626 200.933 230.979 201.52 231.193 202.2L228.593 203.32C228.406 202.773 228.086 202.34 227.633 202.02C227.193 201.7 226.679 201.54 226.093 201.54C225.573 201.54 225.106 201.667 224.693 201.92C224.293 202.173 223.973 202.527 223.733 202.98C223.506 203.433 223.393 203.953 223.393 204.54C223.393 205.127 223.506 205.647 223.733 206.1C223.973 206.553 224.293 206.907 224.693 207.16C225.106 207.413 225.573 207.54 226.093 207.54C226.693 207.54 227.213 207.38 227.653 207.06C228.093 206.74 228.406 206.307 228.593 205.76L231.193 206.9C230.993 207.54 230.646 208.113 230.153 208.62C229.659 209.127 229.066 209.527 228.373 209.82C227.679 210.1 226.919 210.24 226.093 210.24ZM238.379 210.24C237.299 210.24 236.313 209.993 235.419 209.5C234.539 209.007 233.833 208.333 233.299 207.48C232.779 206.613 232.519 205.633 232.519 204.54C232.519 203.433 232.779 202.453 233.299 201.6C233.833 200.747 234.539 200.073 235.419 199.58C236.313 199.087 237.299 198.84 238.379 198.84C239.459 198.84 240.439 199.087 241.319 199.58C242.199 200.073 242.899 200.747 243.419 201.6C243.953 202.453 244.219 203.433 244.219 204.54C244.219 205.633 243.953 206.613 243.419 207.48C242.899 208.333 242.199 209.007 241.319 209.5C240.439 209.993 239.459 210.24 238.379 210.24ZM238.379 207.54C238.926 207.54 239.399 207.413 239.799 207.16C240.213 206.907 240.533 206.553 240.759 206.1C240.999 205.647 241.119 205.127 241.119 204.54C241.119 203.953 240.999 203.44 240.759 203C240.533 202.547 240.213 202.193 239.799 201.94C239.399 201.673 238.926 201.54 238.379 201.54C237.833 201.54 237.353 201.673 236.939 201.94C236.526 202.193 236.199 202.547 235.959 203C235.733 203.44 235.619 203.953 235.619 204.54C235.619 205.127 235.733 205.647 235.959 206.1C236.199 206.553 236.526 206.907 236.939 207.16C237.353 207.413 237.833 207.54 238.379 207.54ZM249.211 210L244.911 199.08H248.151L251.131 207.34H249.891L252.871 199.08H256.111L251.811 210H249.211ZM262.497 210.24C261.337 210.24 260.33 209.987 259.477 209.48C258.623 208.96 257.963 208.267 257.497 207.4C257.03 206.533 256.797 205.573 256.797 204.52C256.797 203.427 257.037 202.453 257.517 201.6C258.01 200.747 258.67 200.073 259.497 199.58C260.323 199.087 261.257 198.84 262.297 198.84C263.163 198.84 263.93 198.98 264.597 199.26C265.263 199.527 265.823 199.907 266.277 200.4C266.743 200.893 267.097 201.467 267.337 202.12C267.577 202.76 267.697 203.46 267.697 204.22C267.697 204.433 267.683 204.647 267.657 204.86C267.643 205.06 267.61 205.233 267.557 205.38H259.377V203.18H265.857L264.437 204.22C264.57 203.647 264.563 203.14 264.417 202.7C264.27 202.247 264.01 201.893 263.637 201.64C263.277 201.373 262.83 201.24 262.297 201.24C261.777 201.24 261.33 201.367 260.957 201.62C260.583 201.873 260.303 202.247 260.117 202.74C259.93 203.233 259.857 203.833 259.897 204.54C259.843 205.153 259.917 205.693 260.117 206.16C260.317 206.627 260.623 206.993 261.037 207.26C261.45 207.513 261.95 207.64 262.537 207.64C263.07 207.64 263.523 207.533 263.897 207.32C264.283 207.107 264.583 206.813 264.797 206.44L267.197 207.58C266.983 208.113 266.643 208.58 266.177 208.98C265.723 209.38 265.183 209.693 264.557 209.92C263.93 210.133 263.243 210.24 262.497 210.24ZM269.463 210V199.08H272.263V201.7L272.063 201.32C272.303 200.4 272.697 199.78 273.243 199.46C273.803 199.127 274.463 198.96 275.223 198.96H275.863V201.56H274.923C274.19 201.56 273.597 201.787 273.143 202.24C272.69 202.68 272.463 203.307 272.463 204.12V210H269.463ZM278.878 214.4C278.558 214.4 278.245 214.373 277.938 214.32C277.645 214.267 277.385 214.18 277.158 214.06V211.6C277.345 211.653 277.565 211.7 277.818 211.74C278.071 211.78 278.305 211.8 278.518 211.8C279.105 211.8 279.525 211.66 279.778 211.38C280.031 211.113 280.238 210.807 280.398 210.46L281.138 208.76L281.098 211.26L276.298 199.08H279.518L282.698 207.74H281.498L284.678 199.08H287.898L283.218 211.02C282.925 211.767 282.565 212.393 282.138 212.9C281.711 213.407 281.225 213.78 280.678 214.02C280.145 214.273 279.545 214.4 278.878 214.4Z" fill="#1E1E1E"/>
<path d="M61.4574 243.192C60.6147 243.192 59.8414 243.043 59.1374 242.744C58.4334 242.435 57.82 242.008 57.2974 241.464C56.7854 240.909 56.3854 240.259 56.0974 239.512C55.8094 238.765 55.6654 237.944 55.6654 237.048C55.6654 236.152 55.8094 235.331 56.0974 234.584C56.3854 233.837 56.7854 233.187 57.2974 232.632C57.82 232.077 58.4334 231.651 59.1374 231.352C59.8414 231.043 60.6147 230.888 61.4574 230.888C62.268 230.888 62.9934 231.032 63.6334 231.32C64.284 231.608 64.828 231.981 65.2654 232.44C65.7134 232.888 66.0334 233.363 66.2254 233.864L65.0254 234.392C64.7267 233.699 64.268 233.144 63.6494 232.728C63.0414 232.301 62.3107 232.088 61.4574 232.088C60.5827 232.088 59.804 232.296 59.1214 232.712C58.4387 233.128 57.9054 233.709 57.5214 234.456C57.1374 235.192 56.9454 236.056 56.9454 237.048C56.9454 238.029 57.1374 238.893 57.5214 239.64C57.9054 240.387 58.4387 240.968 59.1214 241.384C59.804 241.789 60.5827 241.992 61.4574 241.992C62.3107 241.992 63.0414 241.784 63.6494 241.368C64.268 240.952 64.7267 240.397 65.0254 239.704L66.2254 240.232C66.0334 240.723 65.7134 241.197 65.2654 241.656C64.828 242.104 64.284 242.472 63.6334 242.76C62.9934 243.048 62.268 243.192 61.4574 243.192ZM72.2011 243.192C71.3905 243.192 70.6545 243 69.9931 242.616C69.3318 242.221 68.8038 241.688 68.4091 241.016C68.0251 240.333 67.8331 239.56 67.8331 238.696C67.8331 237.843 68.0251 237.08 68.4091 236.408C68.7931 235.736 69.3105 235.208 69.9611 234.824C70.6225 234.429 71.3691 234.232 72.2011 234.232C73.0331 234.232 73.7745 234.424 74.4251 234.808C75.0865 235.192 75.6038 235.72 75.9771 236.392C76.3611 237.064 76.5531 237.832 76.5531 238.696C76.5531 239.571 76.3558 240.349 75.9611 241.032C75.5665 241.704 75.0385 242.232 74.3771 242.616C73.7265 243 73.0011 243.192 72.2011 243.192ZM72.2011 241.992C72.7771 241.992 73.2945 241.848 73.7531 241.56C74.2225 241.272 74.5905 240.877 74.8571 240.376C75.1345 239.875 75.2731 239.315 75.2731 238.696C75.2731 238.077 75.1345 237.523 74.8571 237.032C74.5905 236.541 74.2225 236.152 73.7531 235.864C73.2945 235.576 72.7771 235.432 72.2011 235.432C71.6251 235.432 71.1025 235.576 70.6331 235.864C70.1745 236.152 69.8065 236.541 69.5291 237.032C69.2518 237.523 69.1131 238.077 69.1131 238.696C69.1131 239.315 69.2518 239.875 69.5291 240.376C69.8065 240.877 70.1745 241.272 70.6331 241.56C71.1025 241.848 71.6251 241.992 72.2011 241.992ZM78.6695 243V234.424H79.8695V236.088L79.5975 236.024C79.8108 235.469 80.1575 235.032 80.6375 234.712C81.1282 234.392 81.6935 234.232 82.3335 234.232C82.9415 234.232 83.4855 234.371 83.9655 234.648C84.4562 234.925 84.8402 235.309 85.1175 235.8C85.4055 236.28 85.5495 236.824 85.5495 237.432V243H84.3495V237.896C84.3495 237.373 84.2535 236.931 84.0615 236.568C83.8802 236.205 83.6188 235.928 83.2775 235.736C82.9468 235.533 82.5628 235.432 82.1255 235.432C81.6882 235.432 81.2988 235.533 80.9575 235.736C80.6162 235.928 80.3495 236.211 80.1575 236.584C79.9655 236.947 79.8695 237.384 79.8695 237.896V243H78.6695ZM87.8414 243V234.424H89.0414V236.088L88.7694 236.024C88.9827 235.469 89.3294 235.032 89.8094 234.712C90.3 234.392 90.8654 234.232 91.5054 234.232C92.1134 234.232 92.6574 234.371 93.1374 234.648C93.628 234.925 94.012 235.309 94.2894 235.8C94.5774 236.28 94.7214 236.824 94.7214 237.432V243H93.5214V237.896C93.5214 237.373 93.4254 236.931 93.2334 236.568C93.052 236.205 92.7907 235.928 92.4494 235.736C92.1187 235.533 91.7347 235.432 91.2974 235.432C90.86 235.432 90.4707 235.533 90.1294 235.736C89.788 235.928 89.5214 236.211 89.3294 236.584C89.1374 236.947 89.0414 237.384 89.0414 237.896V243H87.8414ZM100.917 243.192C100.117 243.192 99.3919 243 98.7413 242.616C98.1013 242.221 97.5946 241.683 97.2213 241C96.8479 240.317 96.6613 239.544 96.6613 238.68C96.6613 237.816 96.8426 237.053 97.2053 236.392C97.5679 235.72 98.0586 235.192 98.6773 234.808C99.3066 234.424 100.011 234.232 100.789 234.232C101.408 234.232 101.957 234.349 102.437 234.584C102.928 234.808 103.344 235.117 103.685 235.512C104.027 235.896 104.288 236.333 104.469 236.824C104.651 237.304 104.741 237.8 104.741 238.312C104.741 238.419 104.736 238.541 104.725 238.68C104.715 238.808 104.699 238.941 104.677 239.08H97.4293V237.96H103.989L103.413 238.44C103.509 237.853 103.44 237.331 103.205 236.872C102.981 236.403 102.656 236.035 102.229 235.768C101.803 235.491 101.323 235.352 100.789 235.352C100.256 235.352 99.7599 235.491 99.3013 235.768C98.8533 236.045 98.5013 236.435 98.2453 236.936C97.9893 237.427 97.8879 238.013 97.9413 238.696C97.8879 239.379 97.9946 239.976 98.2613 240.488C98.5386 240.989 98.9119 241.379 99.3813 241.656C99.8613 241.933 100.373 242.072 100.917 242.072C101.547 242.072 102.075 241.923 102.501 241.624C102.928 241.325 103.275 240.952 103.541 240.504L104.565 241.048C104.395 241.432 104.133 241.789 103.781 242.12C103.429 242.44 103.008 242.701 102.517 242.904C102.037 243.096 101.504 243.192 100.917 243.192ZM110.777 243.192C109.934 243.192 109.193 242.995 108.553 242.6C107.913 242.205 107.412 241.672 107.049 241C106.686 240.317 106.505 239.549 106.505 238.696C106.505 237.843 106.686 237.08 107.049 236.408C107.412 235.736 107.913 235.208 108.553 234.824C109.193 234.429 109.934 234.232 110.777 234.232C111.31 234.232 111.812 234.328 112.281 234.52C112.75 234.712 113.166 234.973 113.529 235.304C113.892 235.624 114.164 235.997 114.345 236.424L113.257 236.984C113.044 236.525 112.718 236.152 112.281 235.864C111.844 235.576 111.342 235.432 110.777 235.432C110.212 235.432 109.7 235.576 109.241 235.864C108.793 236.141 108.436 236.531 108.169 237.032C107.913 237.523 107.785 238.083 107.785 238.712C107.785 239.331 107.913 239.891 108.169 240.392C108.436 240.883 108.793 241.272 109.241 241.56C109.7 241.848 110.212 241.992 110.777 241.992C111.342 241.992 111.838 241.848 112.265 241.56C112.702 241.272 113.033 240.888 113.257 240.408L114.345 241C114.164 241.416 113.892 241.789 113.529 242.12C113.166 242.451 112.75 242.712 112.281 242.904C111.812 243.096 111.31 243.192 110.777 243.192ZM119.731 243.096C118.963 243.096 118.371 242.872 117.955 242.424C117.539 241.976 117.331 241.336 117.331 240.504V235.624H115.747V234.424H116.147C116.509 234.424 116.797 234.307 117.011 234.072C117.224 233.827 117.331 233.523 117.331 233.16V232.44H118.531V234.424H120.419V235.624H118.531V240.504C118.531 240.792 118.573 241.048 118.659 241.272C118.744 241.485 118.888 241.656 119.091 241.784C119.304 241.912 119.587 241.976 119.939 241.976C120.024 241.976 120.125 241.971 120.243 241.96C120.36 241.949 120.461 241.939 120.547 241.928V243C120.419 243.032 120.275 243.053 120.115 243.064C119.955 243.085 119.827 243.096 119.731 243.096ZM127.261 243L124.317 234.424H125.677L128.109 241.928H127.629L129.917 234.424H131.117L133.405 241.928H132.925L135.373 234.424H136.717L133.773 243H132.573L130.349 235.656H130.685L128.461 243H127.261ZM138.123 243V234.424H139.323V243H138.123ZM138.123 232.84V231.08H139.323V232.84H138.123ZM145.059 243.096C144.291 243.096 143.699 242.872 143.283 242.424C142.867 241.976 142.659 241.336 142.659 240.504V235.624H141.075V234.424H141.475C141.838 234.424 142.126 234.307 142.339 234.072C142.552 233.827 142.659 233.523 142.659 233.16V232.44H143.859V234.424H145.747V235.624H143.859V240.504C143.859 240.792 143.902 241.048 143.987 241.272C144.072 241.485 144.216 241.656 144.419 241.784C144.632 241.912 144.915 241.976 145.267 241.976C145.352 241.976 145.454 241.971 145.571 241.96C145.688 241.949 145.79 241.939 145.875 241.928V243C145.747 243.032 145.603 243.053 145.443 243.064C145.283 243.085 145.155 243.096 145.059 243.096ZM147.982 243V230.888H149.182V236.088L148.91 236.024C149.123 235.469 149.47 235.032 149.95 234.712C150.441 234.392 151.006 234.232 151.646 234.232C152.254 234.232 152.798 234.371 153.278 234.648C153.769 234.925 154.153 235.309 154.43 235.8C154.718 236.28 154.862 236.824 154.862 237.432V243H153.662V237.896C153.662 237.373 153.566 236.931 153.374 236.568C153.182 236.205 152.915 235.928 152.574 235.736C152.243 235.533 151.865 235.432 151.438 235.432C151.011 235.432 150.627 235.533 150.286 235.736C149.945 235.928 149.673 236.211 149.47 236.584C149.278 236.947 149.182 237.384 149.182 237.896V243H147.982ZM159.873 246.2V234.424H161.073V236.344L160.881 236.008C161.222 235.464 161.675 235.032 162.241 234.712C162.817 234.392 163.473 234.232 164.209 234.232C165.019 234.232 165.739 234.429 166.369 234.824C167.009 235.208 167.51 235.736 167.873 236.408C168.246 237.08 168.433 237.848 168.433 238.712C168.433 239.565 168.246 240.333 167.873 241.016C167.51 241.688 167.009 242.221 166.369 242.616C165.739 243 165.019 243.192 164.209 243.192C163.473 243.192 162.806 243.027 162.209 242.696C161.622 242.355 161.179 241.875 160.881 241.256L161.073 241.08V246.2H159.873ZM164.145 241.992C164.721 241.992 165.233 241.848 165.681 241.56C166.139 241.272 166.497 240.883 166.753 240.392C167.019 239.891 167.153 239.331 167.153 238.712C167.153 238.083 167.019 237.523 166.753 237.032C166.497 236.541 166.139 236.152 165.681 235.864C165.233 235.576 164.721 235.432 164.145 235.432C163.569 235.432 163.046 235.576 162.577 235.864C162.118 236.152 161.75 236.547 161.473 237.048C161.206 237.539 161.073 238.093 161.073 238.712C161.073 239.331 161.206 239.891 161.473 240.392C161.75 240.883 162.118 241.272 162.577 241.56C163.046 241.848 163.569 241.992 164.145 241.992ZM174.449 243.192C173.649 243.192 172.923 243 172.273 242.616C171.633 242.221 171.126 241.683 170.753 241C170.379 240.317 170.193 239.544 170.193 238.68C170.193 237.816 170.374 237.053 170.737 236.392C171.099 235.72 171.59 235.192 172.209 234.808C172.838 234.424 173.542 234.232 174.321 234.232C174.939 234.232 175.489 234.349 175.969 234.584C176.459 234.808 176.875 235.117 177.217 235.512C177.558 235.896 177.819 236.333 178.001 236.824C178.182 237.304 178.273 237.8 178.273 238.312C178.273 238.419 178.267 238.541 178.257 238.68C178.246 238.808 178.23 238.941 178.209 239.08H170.961V237.96H177.521L176.945 238.44C177.041 237.853 176.971 237.331 176.737 236.872C176.513 236.403 176.187 236.035 175.761 235.768C175.334 235.491 174.854 235.352 174.321 235.352C173.787 235.352 173.291 235.491 172.833 235.768C172.385 236.045 172.033 236.435 171.777 236.936C171.521 237.427 171.419 238.013 171.473 238.696C171.419 239.379 171.526 239.976 171.793 240.488C172.07 240.989 172.443 241.379 172.913 241.656C173.393 241.933 173.905 242.072 174.449 242.072C175.078 242.072 175.606 241.923 176.033 241.624C176.459 241.325 176.806 240.952 177.073 240.504L178.097 241.048C177.926 241.432 177.665 241.789 177.312 242.12C176.961 242.44 176.539 242.701 176.049 242.904C175.569 243.096 175.035 243.192 174.449 243.192ZM184.404 243.192C183.594 243.192 182.858 243 182.196 242.616C181.535 242.221 181.007 241.688 180.612 241.016C180.228 240.333 180.036 239.56 180.036 238.696C180.036 237.843 180.228 237.08 180.612 236.408C180.996 235.736 181.514 235.208 182.164 234.824C182.826 234.429 183.572 234.232 184.404 234.232C185.236 234.232 185.978 234.424 186.628 234.808C187.29 235.192 187.807 235.72 188.18 236.392C188.564 237.064 188.756 237.832 188.756 238.696C188.756 239.571 188.559 240.349 188.164 241.032C187.77 241.704 187.242 242.232 186.58 242.616C185.93 243 185.204 243.192 184.404 243.192ZM184.404 241.992C184.98 241.992 185.498 241.848 185.956 241.56C186.426 241.272 186.794 240.877 187.06 240.376C187.338 239.875 187.476 239.315 187.476 238.696C187.476 238.077 187.338 237.523 187.06 237.032C186.794 236.541 186.426 236.152 185.956 235.864C185.498 235.576 184.98 235.432 184.404 235.432C183.828 235.432 183.306 235.576 182.836 235.864C182.378 236.152 182.01 236.541 181.732 237.032C181.455 237.523 181.316 238.077 181.316 238.696C181.316 239.315 181.455 239.875 181.732 240.376C182.01 240.877 182.378 241.272 182.836 241.56C183.306 241.848 183.828 241.992 184.404 241.992ZM190.873 246.2V234.424H192.073V236.344L191.881 236.008C192.222 235.464 192.675 235.032 193.241 234.712C193.817 234.392 194.473 234.232 195.209 234.232C196.019 234.232 196.739 234.429 197.369 234.824C198.009 235.208 198.51 235.736 198.873 236.408C199.246 237.08 199.433 237.848 199.433 238.712C199.433 239.565 199.246 240.333 198.873 241.016C198.51 241.688 198.009 242.221 197.369 242.616C196.739 243 196.019 243.192 195.209 243.192C194.473 243.192 193.806 243.027 193.209 242.696C192.622 242.355 192.179 241.875 191.881 241.256L192.073 241.08V246.2H190.873ZM195.145 241.992C195.721 241.992 196.233 241.848 196.681 241.56C197.139 241.272 197.497 240.883 197.753 240.392C198.019 239.891 198.153 239.331 198.153 238.712C198.153 238.083 198.019 237.523 197.753 237.032C197.497 236.541 197.139 236.152 196.681 235.864C196.233 235.576 195.721 235.432 195.145 235.432C194.569 235.432 194.046 235.576 193.577 235.864C193.118 236.152 192.75 236.547 192.473 237.048C192.206 237.539 192.073 238.093 192.073 238.712C192.073 239.331 192.206 239.891 192.473 240.392C192.75 240.883 193.118 241.272 193.577 241.56C194.046 241.848 194.569 241.992 195.145 241.992ZM201.545 243V230.888H202.745V243H201.545ZM209.105 243.192C208.305 243.192 207.579 243 206.929 242.616C206.289 242.221 205.782 241.683 205.409 241C205.035 240.317 204.849 239.544 204.849 238.68C204.849 237.816 205.03 237.053 205.393 236.392C205.755 235.72 206.246 235.192 206.865 234.808C207.494 234.424 208.198 234.232 208.977 234.232C209.595 234.232 210.145 234.349 210.625 234.584C211.115 234.808 211.531 235.117 211.873 235.512C212.214 235.896 212.475 236.333 212.657 236.824C212.838 237.304 212.929 237.8 212.929 238.312C212.929 238.419 212.923 238.541 212.913 238.68C212.902 238.808 212.886 238.941 212.865 239.08H205.617V237.96H212.177L211.601 238.44C211.697 237.853 211.627 237.331 211.393 236.872C211.169 236.403 210.843 236.035 210.417 235.768C209.99 235.491 209.51 235.352 208.977 235.352C208.443 235.352 207.947 235.491 207.489 235.768C207.041 236.045 206.689 236.435 206.433 236.936C206.177 237.427 206.075 238.013 206.129 238.696C206.075 239.379 206.182 239.976 206.449 240.488C206.726 240.989 207.099 241.379 207.569 241.656C208.049 241.933 208.561 242.072 209.105 242.072C209.734 242.072 210.262 241.923 210.689 241.624C211.115 241.325 211.462 240.952 211.729 240.504L212.753 241.048C212.582 241.432 212.321 241.789 211.969 242.12C211.617 242.44 211.195 242.701 210.705 242.904C210.225 243.096 209.691 243.192 209.105 243.192ZM222.099 243.192C221.363 243.192 220.697 243.027 220.099 242.696C219.513 242.355 219.07 241.875 218.771 241.256L218.963 241.08V243H217.763V230.888H218.963V236.344L218.771 236.008C219.113 235.464 219.566 235.032 220.131 234.712C220.707 234.392 221.363 234.232 222.099 234.232C222.91 234.232 223.63 234.429 224.259 234.824C224.899 235.208 225.401 235.736 225.763 236.408C226.137 237.08 226.323 237.848 226.323 238.712C226.323 239.565 226.137 240.333 225.763 241.016C225.401 241.688 224.899 242.221 224.259 242.616C223.63 243 222.91 243.192 222.099 243.192ZM222.035 241.992C222.611 241.992 223.123 241.848 223.571 241.56C224.03 241.272 224.387 240.883 224.643 240.392C224.91 239.891 225.043 239.331 225.043 238.712C225.043 238.083 224.91 237.523 224.643 237.032C224.387 236.541 224.03 236.152 223.571 235.864C223.123 235.576 222.611 235.432 222.035 235.432C221.459 235.432 220.937 235.576 220.467 235.864C220.009 236.152 219.641 236.547 219.363 237.048C219.097 237.539 218.963 238.093 218.963 238.712C218.963 239.331 219.097 239.891 219.363 240.392C219.641 240.883 220.009 241.272 220.467 241.56C220.937 241.848 221.459 241.992 222.035 241.992ZM230.915 243.192C230.371 243.192 229.886 243.091 229.459 242.888C229.032 242.675 228.696 242.387 228.451 242.024C228.206 241.661 228.083 241.245 228.083 240.776C228.083 240.328 228.179 239.923 228.371 239.56C228.563 239.187 228.862 238.872 229.267 238.616C229.672 238.36 230.19 238.179 230.819 238.072L234.179 237.512V238.6L231.107 239.112C230.488 239.219 230.04 239.416 229.763 239.704C229.496 239.992 229.363 240.333 229.363 240.728C229.363 241.112 229.512 241.437 229.811 241.704C230.12 241.971 230.515 242.104 230.995 242.104C231.582 242.104 232.094 241.981 232.531 241.736C232.968 241.48 233.31 241.139 233.555 240.712C233.8 240.285 233.923 239.811 233.923 239.288V237.112C233.923 236.6 233.736 236.184 233.363 235.864C232.99 235.544 232.504 235.384 231.907 235.384C231.384 235.384 230.926 235.517 230.531 235.784C230.136 236.04 229.843 236.376 229.651 236.792L228.563 236.2C228.723 235.837 228.974 235.507 229.315 235.208C229.667 234.909 230.067 234.675 230.515 234.504C230.963 234.323 231.427 234.232 231.907 234.232C232.536 234.232 233.091 234.355 233.571 234.6C234.062 234.845 234.44 235.187 234.707 235.624C234.984 236.051 235.123 236.547 235.123 237.112V243H233.923V241.288L234.099 241.464C233.95 241.784 233.715 242.077 233.395 242.344C233.086 242.6 232.718 242.808 232.291 242.968C231.875 243.117 231.416 243.192 230.915 243.192ZM240.567 243.192C239.746 243.192 239.026 242.984 238.407 242.568C237.789 242.152 237.341 241.587 237.063 240.872L238.071 240.392C238.317 240.915 238.658 241.331 239.095 241.64C239.543 241.949 240.034 242.104 240.567 242.104C241.079 242.104 241.511 241.981 241.863 241.736C242.215 241.48 242.391 241.149 242.391 240.744C242.391 240.445 242.306 240.211 242.135 240.04C241.965 239.859 241.767 239.72 241.543 239.624C241.319 239.528 241.122 239.459 240.951 239.416L239.719 239.064C238.93 238.84 238.359 238.525 238.007 238.12C237.655 237.715 237.479 237.245 237.479 236.712C237.479 236.211 237.607 235.773 237.863 235.4C238.119 235.027 238.466 234.739 238.903 234.536C239.341 234.333 239.826 234.232 240.359 234.232C241.085 234.232 241.741 234.424 242.327 234.808C242.925 235.181 243.346 235.704 243.591 236.376L242.567 236.856C242.354 236.376 242.045 236.003 241.639 235.736C241.245 235.459 240.802 235.32 240.311 235.32C239.831 235.32 239.447 235.443 239.159 235.688C238.871 235.933 238.727 236.243 238.727 236.616C238.727 236.904 238.802 237.133 238.951 237.304C239.101 237.475 239.271 237.603 239.463 237.688C239.666 237.773 239.842 237.837 239.991 237.88L241.415 238.296C242.109 238.499 242.647 238.813 243.031 239.24C243.426 239.667 243.623 240.168 243.623 240.744C243.623 241.213 243.49 241.635 243.223 242.008C242.967 242.381 242.61 242.675 242.151 242.888C241.693 243.091 241.165 243.192 240.567 243.192ZM249.636 243.192C248.836 243.192 248.111 243 247.46 242.616C246.82 242.221 246.313 241.683 245.94 241C245.567 240.317 245.38 239.544 245.38 238.68C245.38 237.816 245.561 237.053 245.924 236.392C246.287 235.72 246.777 235.192 247.396 234.808C248.025 234.424 248.729 234.232 249.508 234.232C250.127 234.232 250.676 234.349 251.156 234.584C251.647 234.808 252.063 235.117 252.404 235.512C252.745 235.896 253.007 236.333 253.188 236.824C253.369 237.304 253.46 237.8 253.46 238.312C253.46 238.419 253.455 238.541 253.444 238.68C253.433 238.808 253.417 238.941 253.396 239.08H246.148V237.96H252.708L252.132 238.44C252.228 237.853 252.159 237.331 251.924 236.872C251.7 236.403 251.375 236.035 250.948 235.768C250.521 235.491 250.041 235.352 249.508 235.352C248.975 235.352 248.479 235.491 248.02 235.768C247.572 236.045 247.22 236.435 246.964 236.936C246.708 237.427 246.607 238.013 246.66 238.696C246.607 239.379 246.713 239.976 246.98 240.488C247.257 240.989 247.631 241.379 248.1 241.656C248.58 241.933 249.092 242.072 249.636 242.072C250.265 242.072 250.793 241.923 251.22 241.624C251.647 241.325 251.993 240.952 252.26 240.504L253.284 241.048C253.113 241.432 252.852 241.789 252.5 242.12C252.148 242.44 251.727 242.701 251.236 242.904C250.756 243.096 250.223 243.192 249.636 243.192ZM259.448 243.192C258.648 243.192 257.928 243 257.288 242.616C256.648 242.221 256.141 241.688 255.768 241.016C255.405 240.333 255.224 239.565 255.224 238.712C255.224 237.848 255.405 237.08 255.768 236.408C256.141 235.736 256.642 235.208 257.272 234.824C257.912 234.429 258.637 234.232 259.448 234.232C260.184 234.232 260.84 234.392 261.416 234.712C261.992 235.032 262.445 235.464 262.776 236.008L262.584 236.344V230.888H263.784V243H262.584V241.08L262.776 241.256C262.477 241.875 262.029 242.355 261.432 242.696C260.845 243.027 260.184 243.192 259.448 243.192ZM259.512 241.992C260.088 241.992 260.605 241.848 261.064 241.56C261.533 241.272 261.901 240.883 262.168 240.392C262.445 239.891 262.584 239.331 262.584 238.712C262.584 238.093 262.445 237.539 262.168 237.048C261.901 236.547 261.533 236.152 261.064 235.864C260.605 235.576 260.088 235.432 259.512 235.432C258.946 235.432 258.434 235.576 257.976 235.864C257.517 236.152 257.154 236.541 256.888 237.032C256.632 237.523 256.504 238.083 256.504 238.712C256.504 239.331 256.632 239.891 256.888 240.392C257.154 240.883 257.512 241.272 257.96 241.56C258.418 241.848 258.936 241.992 259.512 241.992ZM272.982 243.192C272.172 243.192 271.436 243 270.774 242.616C270.113 242.221 269.585 241.688 269.19 241.016C268.806 240.333 268.614 239.56 268.614 238.696C268.614 237.843 268.806 237.08 269.19 236.408C269.574 235.736 270.092 235.208 270.742 234.824C271.404 234.429 272.15 234.232 272.982 234.232C273.814 234.232 274.556 234.424 275.206 234.808C275.868 235.192 276.385 235.72 276.758 236.392C277.142 237.064 277.334 237.832 277.334 238.696C277.334 239.571 277.137 240.349 276.742 241.032C276.348 241.704 275.82 242.232 275.158 242.616C274.508 243 273.782 243.192 272.982 243.192ZM272.982 241.992C273.558 241.992 274.076 241.848 274.534 241.56C275.004 241.272 275.372 240.877 275.638 240.376C275.916 239.875 276.054 239.315 276.054 238.696C276.054 238.077 275.916 237.523 275.638 237.032C275.372 236.541 275.004 236.152 274.534 235.864C274.076 235.576 273.558 235.432 272.982 235.432C272.406 235.432 271.884 235.576 271.414 235.864C270.956 236.152 270.588 236.541 270.31 237.032C270.033 237.523 269.894 238.077 269.894 238.696C269.894 239.315 270.033 239.875 270.31 240.376C270.588 240.877 270.956 241.272 271.414 241.56C271.884 241.848 272.406 241.992 272.982 241.992ZM279.451 243V234.424H280.651V236.088L280.379 236.024C280.592 235.469 280.939 235.032 281.419 234.712C281.909 234.392 282.475 234.232 283.115 234.232C283.723 234.232 284.267 234.371 284.747 234.648C285.237 234.925 285.621 235.309 285.899 235.8C286.187 236.28 286.331 236.824 286.331 237.432V243H285.131V237.896C285.131 237.373 285.035 236.931 284.843 236.568C284.661 236.205 284.4 235.928 284.059 235.736C283.728 235.533 283.344 235.432 282.907 235.432C282.469 235.432 282.08 235.533 281.739 235.736C281.397 235.928 281.131 236.211 280.939 236.584C280.747 236.947 280.651 237.384 280.651 237.896V243H279.451ZM76.8804 263V250.888H78.0804V256.088L77.8084 256.024C78.0218 255.469 78.3684 255.032 78.8484 254.712C79.3391 254.392 79.9044 254.232 80.5444 254.232C81.1524 254.232 81.6964 254.371 82.1764 254.648C82.6671 254.925 83.0511 255.309 83.3284 255.8C83.6164 256.28 83.7604 256.824 83.7604 257.432V263H82.5604V257.896C82.5604 257.373 82.4644 256.931 82.2724 256.568C82.0804 256.205 81.8138 255.928 81.4724 255.736C81.1418 255.533 80.7631 255.432 80.3364 255.432C79.9098 255.432 79.5258 255.533 79.1844 255.736C78.8431 255.928 78.5711 256.211 78.3684 256.584C78.1764 256.947 78.0804 257.384 78.0804 257.896V263H76.8804ZM90.0683 263.192C89.2576 263.192 88.5216 263 87.8603 262.616C87.199 262.221 86.671 261.688 86.2763 261.016C85.8923 260.333 85.7003 259.56 85.7003 258.696C85.7003 257.843 85.8923 257.08 86.2763 256.408C86.6603 255.736 87.1776 255.208 87.8283 254.824C88.4896 254.429 89.2363 254.232 90.0683 254.232C90.9003 254.232 91.6416 254.424 92.2923 254.808C92.9536 255.192 93.471 255.72 93.8443 256.392C94.2283 257.064 94.4203 257.832 94.4203 258.696C94.4203 259.571 94.223 260.349 93.8283 261.032C93.4336 261.704 92.9056 262.232 92.2443 262.616C91.5936 263 90.8683 263.192 90.0683 263.192ZM90.0683 261.992C90.6443 261.992 91.1616 261.848 91.6203 261.56C92.0896 261.272 92.4576 260.877 92.7243 260.376C93.0016 259.875 93.1403 259.315 93.1403 258.696C93.1403 258.077 93.0016 257.523 92.7243 257.032C92.4576 256.541 92.0896 256.152 91.6203 255.864C91.1616 255.576 90.6443 255.432 90.0683 255.432C89.4923 255.432 88.9696 255.576 88.5003 255.864C88.0416 256.152 87.6736 256.541 87.3963 257.032C87.119 257.523 86.9803 258.077 86.9803 258.696C86.9803 259.315 87.119 259.875 87.3963 260.376C87.6736 260.877 88.0416 261.272 88.5003 261.56C88.9696 261.848 89.4923 261.992 90.0683 261.992ZM98.2684 263L95.3244 254.424H96.6844L99.1164 261.928H98.6364L100.924 254.424H102.124L104.412 261.928H103.932L106.38 254.424H107.724L104.78 263H103.58L101.356 255.656H101.692L99.4684 263H98.2684ZM112.025 266.52C111.855 266.52 111.679 266.504 111.497 266.472C111.327 266.451 111.156 266.408 110.985 266.344V265.224C111.092 265.235 111.225 265.251 111.385 265.272C111.556 265.304 111.727 265.32 111.897 265.32C112.42 265.32 112.82 265.208 113.097 264.984C113.375 264.771 113.647 264.355 113.913 263.736L114.457 262.456L114.425 263.512L110.793 254.424H112.089L115.065 261.928H114.729L117.689 254.424H119.017L115.097 264.088C114.927 264.504 114.708 264.899 114.441 265.272C114.185 265.645 113.86 265.944 113.465 266.168C113.071 266.403 112.591 266.52 112.025 266.52ZM124.287 263.192C123.476 263.192 122.74 263 122.079 262.616C121.418 262.221 120.89 261.688 120.495 261.016C120.111 260.333 119.919 259.56 119.919 258.696C119.919 257.843 120.111 257.08 120.495 256.408C120.879 255.736 121.396 255.208 122.047 254.824C122.708 254.429 123.455 254.232 124.287 254.232C125.119 254.232 125.86 254.424 126.511 254.808C127.172 255.192 127.69 255.72 128.063 256.392C128.447 257.064 128.639 257.832 128.639 258.696C128.639 259.571 128.442 260.349 128.047 261.032C127.652 261.704 127.124 262.232 126.463 262.616C125.812 263 125.087 263.192 124.287 263.192ZM124.287 261.992C124.863 261.992 125.38 261.848 125.839 261.56C126.308 261.272 126.676 260.877 126.943 260.376C127.22 259.875 127.359 259.315 127.359 258.696C127.359 258.077 127.22 257.523 126.943 257.032C126.676 256.541 126.308 256.152 125.839 255.864C125.38 255.576 124.863 255.432 124.287 255.432C123.711 255.432 123.188 255.576 122.719 255.864C122.26 256.152 121.892 256.541 121.615 257.032C121.338 257.523 121.199 258.077 121.199 258.696C121.199 259.315 121.338 259.875 121.615 260.376C121.892 260.877 122.26 261.272 122.719 261.56C123.188 261.848 123.711 261.992 124.287 261.992ZM133.795 263.192C133.198 263.192 132.654 263.053 132.163 262.776C131.673 262.488 131.283 262.093 130.995 261.592C130.718 261.08 130.579 260.493 130.579 259.832V254.424H131.779V259.688C131.779 260.147 131.87 260.552 132.051 260.904C132.243 261.245 132.505 261.512 132.835 261.704C133.177 261.896 133.566 261.992 134.003 261.992C134.441 261.992 134.83 261.896 135.171 261.704C135.513 261.501 135.779 261.219 135.971 260.856C136.163 260.483 136.259 260.04 136.259 259.528V254.424H137.459V263H136.259V261.336L136.531 261.4C136.329 261.955 135.982 262.392 135.491 262.712C135.001 263.032 134.435 263.192 133.795 263.192ZM143.526 263V255.624H141.814V254.424H143.526V253.656C143.526 253.059 143.659 252.557 143.926 252.152C144.193 251.736 144.545 251.421 144.982 251.208C145.419 250.995 145.889 250.888 146.39 250.888C146.497 250.888 146.619 250.899 146.758 250.92C146.897 250.931 147.009 250.947 147.094 250.968V252.056C147.019 252.035 146.918 252.024 146.79 252.024C146.662 252.013 146.571 252.008 146.518 252.008C146.006 252.008 145.579 252.131 145.238 252.376C144.897 252.621 144.726 253.048 144.726 253.656V254.424H146.822V255.624H144.726V263H143.526ZM152.347 263.192C151.547 263.192 150.822 263 150.171 262.616C149.531 262.221 149.024 261.683 148.651 261C148.278 260.317 148.091 259.544 148.091 258.68C148.091 257.816 148.272 257.053 148.635 256.392C148.998 255.72 149.488 255.192 150.107 254.808C150.736 254.424 151.44 254.232 152.219 254.232C152.838 254.232 153.387 254.349 153.867 254.584C154.358 254.808 154.774 255.117 155.115 255.512C155.456 255.896 155.718 256.333 155.899 256.824C156.08 257.304 156.171 257.8 156.171 258.312C156.171 258.419 156.166 258.541 156.155 258.68C156.144 258.808 156.128 258.941 156.107 259.08H148.859V257.96H155.419L154.843 258.44C154.939 257.853 154.87 257.331 154.635 256.872C154.411 256.403 154.086 256.035 153.659 255.768C153.232 255.491 152.752 255.352 152.219 255.352C151.686 255.352 151.19 255.491 150.731 255.768C150.283 256.045 149.931 256.435 149.675 256.936C149.419 257.427 149.318 258.013 149.371 258.696C149.318 259.379 149.424 259.976 149.691 260.488C149.968 260.989 150.342 261.379 150.811 261.656C151.291 261.933 151.803 262.072 152.347 262.072C152.976 262.072 153.504 261.923 153.931 261.624C154.358 261.325 154.704 260.952 154.971 260.504L155.995 261.048C155.824 261.432 155.563 261.789 155.211 262.12C154.859 262.44 154.438 262.701 153.947 262.904C153.467 263.096 152.934 263.192 152.347 263.192ZM162.191 263.192C161.391 263.192 160.665 263 160.015 262.616C159.375 262.221 158.868 261.683 158.495 261C158.121 260.317 157.935 259.544 157.935 258.68C157.935 257.816 158.116 257.053 158.479 256.392C158.841 255.72 159.332 255.192 159.951 254.808C160.58 254.424 161.284 254.232 162.063 254.232C162.681 254.232 163.231 254.349 163.711 254.584C164.201 254.808 164.617 255.117 164.959 255.512C165.3 255.896 165.561 256.333 165.743 256.824C165.924 257.304 166.015 257.8 166.015 258.312C166.015 258.419 166.009 258.541 165.999 258.68C165.988 258.808 165.972 258.941 165.951 259.08H158.703V257.96H165.263L164.687 258.44C164.783 257.853 164.713 257.331 164.479 256.872C164.255 256.403 163.929 256.035 163.503 255.768C163.076 255.491 162.596 255.352 162.063 255.352C161.529 255.352 161.033 255.491 160.575 255.768C160.127 256.045 159.775 256.435 159.519 256.936C159.263 257.427 159.161 258.013 159.215 258.696C159.161 259.379 159.268 259.976 159.535 260.488C159.812 260.989 160.185 261.379 160.655 261.656C161.135 261.933 161.647 262.072 162.191 262.072C162.82 262.072 163.348 261.923 163.775 261.624C164.201 261.325 164.548 260.952 164.815 260.504L165.839 261.048C165.668 261.432 165.407 261.789 165.055 262.12C164.703 262.44 164.281 262.701 163.791 262.904C163.311 263.096 162.777 263.192 162.191 263.192ZM168.13 263V250.888H169.33V263H168.13ZM171.835 265.08V264.52C172.155 264.435 172.389 264.269 172.539 264.024C172.688 263.779 172.763 263.437 172.763 263H172.155V261.24H173.435V262.584C173.435 263.277 173.301 263.832 173.035 264.248C172.768 264.675 172.368 264.952 171.835 265.08ZM178.818 263V254.424H180.018V256.088L179.746 256.024C179.959 255.469 180.306 255.032 180.786 254.712C181.277 254.392 181.842 254.232 182.482 254.232C183.09 254.232 183.634 254.371 184.114 254.648C184.605 254.925 184.989 255.309 185.266 255.8C185.554 256.28 185.698 256.824 185.698 257.432V263H184.498V257.896C184.498 257.373 184.402 256.931 184.21 256.568C184.029 256.205 183.767 255.928 183.426 255.736C183.095 255.533 182.711 255.432 182.274 255.432C181.837 255.432 181.447 255.533 181.106 255.736C180.765 255.928 180.498 256.211 180.306 256.584C180.114 256.947 180.018 257.384 180.018 257.896V263H178.818ZM192.006 263.192C191.195 263.192 190.459 263 189.798 262.616C189.136 262.221 188.608 261.688 188.214 261.016C187.83 260.333 187.638 259.56 187.638 258.696C187.638 257.843 187.83 257.08 188.214 256.408C188.598 255.736 189.115 255.208 189.766 254.824C190.427 254.429 191.174 254.232 192.006 254.232C192.838 254.232 193.579 254.424 194.23 254.808C194.891 255.192 195.408 255.72 195.782 256.392C196.166 257.064 196.358 257.832 196.358 258.696C196.358 259.571 196.16 260.349 195.766 261.032C195.371 261.704 194.843 262.232 194.182 262.616C193.531 263 192.806 263.192 192.006 263.192ZM192.006 261.992C192.582 261.992 193.099 261.848 193.558 261.56C194.027 261.272 194.395 260.877 194.662 260.376C194.939 259.875 195.078 259.315 195.078 258.696C195.078 258.077 194.939 257.523 194.662 257.032C194.395 256.541 194.027 256.152 193.558 255.864C193.099 255.576 192.582 255.432 192.006 255.432C191.43 255.432 190.907 255.576 190.438 255.864C189.979 256.152 189.611 256.541 189.334 257.032C189.056 257.523 188.918 258.077 188.918 258.696C188.918 259.315 189.056 259.875 189.334 260.376C189.611 260.877 189.979 261.272 190.438 261.56C190.907 261.848 191.43 261.992 192.006 261.992ZM201.598 263.096C200.83 263.096 200.238 262.872 199.822 262.424C199.406 261.976 199.198 261.336 199.198 260.504V255.624H197.614V254.424H198.014C198.377 254.424 198.665 254.307 198.878 254.072C199.091 253.827 199.198 253.523 199.198 253.16V252.44H200.398V254.424H202.286V255.624H200.398V260.504C200.398 260.792 200.441 261.048 200.526 261.272C200.611 261.485 200.755 261.656 200.958 261.784C201.171 261.912 201.454 261.976 201.806 261.976C201.891 261.976 201.993 261.971 202.11 261.96C202.227 261.949 202.329 261.939 202.414 261.928V263C202.286 263.032 202.142 263.053 201.982 263.064C201.822 263.085 201.694 263.096 201.598 263.096ZM209.128 263L206.184 254.424H207.544L209.976 261.928H209.496L211.784 254.424H212.984L215.272 261.928H214.792L217.24 254.424H218.584L215.64 263H214.44L212.216 255.656H212.552L210.328 263H209.128ZM219.99 263V250.888H221.19V256.088L220.918 256.024C221.131 255.469 221.478 255.032 221.958 254.712C222.448 254.392 223.014 254.232 223.654 254.232C224.262 254.232 224.806 254.371 225.286 254.648C225.776 254.925 226.16 255.309 226.438 255.8C226.726 256.28 226.87 256.824 226.87 257.432V263H225.67V257.896C225.67 257.373 225.574 256.931 225.382 256.568C225.19 256.205 224.923 255.928 224.582 255.736C224.251 255.533 223.872 255.432 223.446 255.432C223.019 255.432 222.635 255.533 222.294 255.736C221.952 255.928 221.68 256.211 221.478 256.584C221.286 256.947 221.19 257.384 221.19 257.896V263H219.99ZM233.178 263.192C232.367 263.192 231.631 263 230.97 262.616C230.308 262.221 229.78 261.688 229.386 261.016C229.002 260.333 228.81 259.56 228.81 258.696C228.81 257.843 229.002 257.08 229.386 256.408C229.77 255.736 230.287 255.208 230.938 254.824C231.599 254.429 232.346 254.232 233.178 254.232C234.01 254.232 234.751 254.424 235.402 254.808C236.063 255.192 236.58 255.72 236.954 256.392C237.338 257.064 237.53 257.832 237.53 258.696C237.53 259.571 237.332 260.349 236.938 261.032C236.543 261.704 236.015 262.232 235.354 262.616C234.703 263 233.978 263.192 233.178 263.192ZM233.178 261.992C233.754 261.992 234.271 261.848 234.73 261.56C235.199 261.272 235.567 260.877 235.834 260.376C236.111 259.875 236.25 259.315 236.25 258.696C236.25 258.077 236.111 257.523 235.834 257.032C235.567 256.541 235.199 256.152 234.73 255.864C234.271 255.576 233.754 255.432 233.178 255.432C232.602 255.432 232.079 255.576 231.61 255.864C231.151 256.152 230.783 256.541 230.506 257.032C230.228 257.523 230.09 258.077 230.09 258.696C230.09 259.315 230.228 259.875 230.506 260.376C230.783 260.877 231.151 261.272 231.61 261.56C232.079 261.848 232.602 261.992 233.178 261.992ZM245.645 263.096C244.877 263.096 244.285 262.872 243.869 262.424C243.453 261.976 243.245 261.336 243.245 260.504V255.624H241.661V254.424H242.061C242.423 254.424 242.711 254.307 242.925 254.072C243.138 253.827 243.245 253.523 243.245 253.16V252.44H244.445V254.424H246.333V255.624H244.445V260.504C244.445 260.792 244.487 261.048 244.573 261.272C244.658 261.485 244.802 261.656 245.005 261.784C245.218 261.912 245.501 261.976 245.853 261.976C245.938 261.976 246.039 261.971 246.157 261.96C246.274 261.949 246.375 261.939 246.461 261.928V263C246.333 263.032 246.189 263.053 246.029 263.064C245.869 263.085 245.741 263.096 245.645 263.096ZM248.568 263V250.888H249.768V256.088L249.496 256.024C249.709 255.469 250.056 255.032 250.536 254.712C251.027 254.392 251.592 254.232 252.232 254.232C252.84 254.232 253.384 254.371 253.864 254.648C254.355 254.925 254.739 255.309 255.016 255.8C255.304 256.28 255.448 256.824 255.448 257.432V263H254.248V257.896C254.248 257.373 254.152 256.931 253.96 256.568C253.768 256.205 253.501 255.928 253.16 255.736C252.829 255.533 252.451 255.432 252.024 255.432C251.597 255.432 251.213 255.533 250.872 255.736C250.531 255.928 250.259 256.211 250.056 256.584C249.864 256.947 249.768 257.384 249.768 257.896V263H248.568ZM261.644 263.192C260.844 263.192 260.118 263 259.468 262.616C258.828 262.221 258.321 261.683 257.948 261C257.574 260.317 257.388 259.544 257.388 258.68C257.388 257.816 257.569 257.053 257.932 256.392C258.294 255.72 258.785 255.192 259.404 254.808C260.033 254.424 260.737 254.232 261.516 254.232C262.134 254.232 262.684 254.349 263.164 254.584C263.654 254.808 264.07 255.117 264.412 255.512C264.753 255.896 265.014 256.333 265.196 256.824C265.377 257.304 265.468 257.8 265.468 258.312C265.468 258.419 265.462 258.541 265.452 258.68C265.441 258.808 265.425 258.941 265.404 259.08H258.156V257.96H264.716L264.14 258.44C264.236 257.853 264.166 257.331 263.932 256.872C263.708 256.403 263.382 256.035 262.956 255.768C262.529 255.491 262.049 255.352 261.516 255.352C260.982 255.352 260.486 255.491 260.028 255.768C259.58 256.045 259.228 256.435 258.972 256.936C258.716 257.427 258.614 258.013 258.668 258.696C258.614 259.379 258.721 259.976 258.988 260.488C259.265 260.989 259.638 261.379 260.108 261.656C260.588 261.933 261.1 262.072 261.644 262.072C262.273 262.072 262.801 261.923 263.228 261.624C263.654 261.325 264.001 260.952 264.268 260.504L265.292 261.048C265.121 261.432 264.86 261.789 264.508 262.12C264.156 262.44 263.734 262.701 263.244 262.904C262.764 263.096 262.23 263.192 261.644 263.192ZM114.22 283.192C113.676 283.192 113.19 283.091 112.764 282.888C112.337 282.675 112.001 282.387 111.756 282.024C111.51 281.661 111.388 281.245 111.388 280.776C111.388 280.328 111.484 279.923 111.676 279.56C111.868 279.187 112.166 278.872 112.572 278.616C112.977 278.36 113.494 278.179 114.124 278.072L117.484 277.512V278.6L114.412 279.112C113.793 279.219 113.345 279.416 113.068 279.704C112.801 279.992 112.668 280.333 112.668 280.728C112.668 281.112 112.817 281.437 113.116 281.704C113.425 281.971 113.82 282.104 114.3 282.104C114.886 282.104 115.398 281.981 115.836 281.736C116.273 281.48 116.614 281.139 116.86 280.712C117.105 280.285 117.228 279.811 117.228 279.288V277.112C117.228 276.6 117.041 276.184 116.668 275.864C116.294 275.544 115.809 275.384 115.212 275.384C114.689 275.384 114.23 275.517 113.836 275.784C113.441 276.04 113.148 276.376 112.956 276.792L111.868 276.2C112.028 275.837 112.278 275.507 112.62 275.208C112.972 274.909 113.372 274.675 113.82 274.504C114.268 274.323 114.732 274.232 115.212 274.232C115.841 274.232 116.396 274.355 116.876 274.6C117.366 274.845 117.745 275.187 118.012 275.624C118.289 276.051 118.428 276.547 118.428 277.112V283H117.228V281.288L117.404 281.464C117.254 281.784 117.02 282.077 116.7 282.344C116.39 282.6 116.022 282.808 115.596 282.968C115.18 283.117 114.721 283.192 114.22 283.192ZM120.896 283V270.888H122.096V283H120.896ZM128.616 286.52C128.03 286.52 127.486 286.429 126.984 286.248C126.494 286.067 126.067 285.816 125.704 285.496C125.352 285.187 125.08 284.824 124.888 284.408L125.992 283.816C126.163 284.221 126.467 284.573 126.904 284.872C127.342 285.171 127.902 285.32 128.584 285.32C129.107 285.32 129.587 285.219 130.024 285.016C130.462 284.813 130.814 284.515 131.08 284.12C131.347 283.725 131.48 283.24 131.48 282.664V280.76L131.672 280.936C131.374 281.555 130.931 282.035 130.344 282.376C129.758 282.707 129.118 282.872 128.424 282.872C127.624 282.872 126.904 282.68 126.264 282.296C125.624 281.912 125.118 281.395 124.744 280.744C124.382 280.083 124.2 279.352 124.2 278.552C124.2 277.741 124.382 277.011 124.744 276.36C125.118 275.709 125.619 275.192 126.248 274.808C126.888 274.424 127.614 274.232 128.424 274.232C129.118 274.232 129.747 274.392 130.312 274.712C130.888 275.032 131.342 275.464 131.672 276.008L131.48 276.344V274.424H132.68V282.664C132.68 283.4 132.504 284.056 132.152 284.632C131.811 285.219 131.331 285.677 130.712 286.008C130.104 286.349 129.406 286.52 128.616 286.52ZM128.488 281.672C129.043 281.672 129.544 281.533 129.992 281.256C130.44 280.968 130.798 280.589 131.064 280.12C131.342 279.64 131.48 279.117 131.48 278.552C131.48 277.987 131.342 277.469 131.064 277C130.798 276.52 130.44 276.141 129.992 275.864C129.544 275.576 129.043 275.432 128.488 275.432C127.923 275.432 127.411 275.576 126.952 275.864C126.494 276.141 126.131 276.515 125.864 276.984C125.608 277.453 125.48 277.976 125.48 278.552C125.48 279.117 125.608 279.64 125.864 280.12C126.131 280.589 126.488 280.968 126.936 281.256C127.395 281.533 127.912 281.672 128.488 281.672ZM139.162 283.192C138.351 283.192 137.615 283 136.954 282.616C136.293 282.221 135.765 281.688 135.37 281.016C134.986 280.333 134.794 279.56 134.794 278.696C134.794 277.843 134.986 277.08 135.37 276.408C135.754 275.736 136.271 275.208 136.922 274.824C137.583 274.429 138.33 274.232 139.162 274.232C139.994 274.232 140.735 274.424 141.386 274.808C142.047 275.192 142.565 275.72 142.938 276.392C143.322 277.064 143.514 277.832 143.514 278.696C143.514 279.571 143.317 280.349 142.922 281.032C142.527 281.704 141.999 282.232 141.338 282.616C140.687 283 139.962 283.192 139.162 283.192ZM139.162 281.992C139.738 281.992 140.255 281.848 140.714 281.56C141.183 281.272 141.551 280.877 141.818 280.376C142.095 279.875 142.234 279.315 142.234 278.696C142.234 278.077 142.095 277.523 141.818 277.032C141.551 276.541 141.183 276.152 140.714 275.864C140.255 275.576 139.738 275.432 139.162 275.432C138.586 275.432 138.063 275.576 137.594 275.864C137.135 276.152 136.767 276.541 136.49 277.032C136.213 277.523 136.074 278.077 136.074 278.696C136.074 279.315 136.213 279.875 136.49 280.376C136.767 280.877 137.135 281.272 137.594 281.56C138.063 281.848 138.586 281.992 139.162 281.992ZM145.63 283V274.424H146.83V275.832L146.67 275.624C146.873 275.219 147.177 274.899 147.582 274.664C147.998 274.429 148.5 274.312 149.086 274.312H149.63V275.512H148.878C148.26 275.512 147.764 275.704 147.39 276.088C147.017 276.472 146.83 277.016 146.83 277.72V283H145.63ZM151.037 283V274.424H152.237V283H151.037ZM151.037 272.84V271.08H152.237V272.84H151.037ZM157.973 283.096C157.205 283.096 156.613 282.872 156.197 282.424C155.781 281.976 155.573 281.336 155.573 280.504V275.624H153.989V274.424H154.389C154.752 274.424 155.04 274.307 155.253 274.072C155.466 273.827 155.573 273.523 155.573 273.16V272.44H156.773V274.424H158.661V275.624H156.773V280.504C156.773 280.792 156.816 281.048 156.901 281.272C156.986 281.485 157.13 281.656 157.333 281.784C157.546 281.912 157.829 281.976 158.181 281.976C158.266 281.976 158.368 281.971 158.485 281.96C158.602 281.949 158.704 281.939 158.789 281.928V283C158.661 283.032 158.517 283.053 158.357 283.064C158.197 283.085 158.069 283.096 157.973 283.096ZM160.896 283V270.888H162.096V276.088L161.824 276.024C162.037 275.469 162.384 275.032 162.864 274.712C163.355 274.392 163.92 274.232 164.56 274.232C165.168 274.232 165.712 274.371 166.192 274.648C166.683 274.925 167.067 275.309 167.344 275.8C167.632 276.28 167.776 276.824 167.776 277.432V283H166.576V277.896C166.576 277.373 166.48 276.931 166.288 276.568C166.096 276.205 165.829 275.928 165.488 275.736C165.157 275.533 164.779 275.432 164.352 275.432C163.925 275.432 163.541 275.533 163.2 275.736C162.859 275.928 162.587 276.211 162.384 276.584C162.192 276.947 162.096 277.384 162.096 277.896V283H160.896ZM170.068 283V274.424H171.268V276.056L171.076 275.816C171.311 275.315 171.657 274.925 172.116 274.648C172.585 274.371 173.097 274.232 173.652 274.232C174.313 274.232 174.911 274.419 175.444 274.792C175.977 275.165 176.356 275.651 176.58 276.248L176.244 276.264C176.457 275.603 176.825 275.101 177.348 274.76C177.881 274.408 178.468 274.232 179.108 274.232C179.684 274.232 180.212 274.371 180.692 274.648C181.183 274.925 181.572 275.309 181.86 275.8C182.159 276.28 182.308 276.824 182.308 277.432V283H181.108V277.896C181.108 277.373 181.012 276.931 180.82 276.568C180.639 276.205 180.388 275.928 180.068 275.736C179.748 275.533 179.38 275.432 178.964 275.432C178.559 275.432 178.191 275.533 177.86 275.736C177.529 275.928 177.268 276.211 177.076 276.584C176.884 276.947 176.788 277.384 176.788 277.896V283H175.588V277.896C175.588 277.373 175.492 276.931 175.3 276.568C175.119 276.205 174.868 275.928 174.548 275.736C174.228 275.533 173.86 275.432 173.444 275.432C173.028 275.432 172.655 275.533 172.324 275.736C172.004 275.928 171.748 276.211 171.556 276.584C171.364 276.947 171.268 277.384 171.268 277.896V283H170.068ZM187.318 286.2V274.424H188.518V276.344L188.326 276.008C188.667 275.464 189.121 275.032 189.686 274.712C190.262 274.392 190.918 274.232 191.654 274.232C192.465 274.232 193.185 274.429 193.814 274.824C194.454 275.208 194.955 275.736 195.318 276.408C195.691 277.08 195.878 277.848 195.878 278.712C195.878 279.565 195.691 280.333 195.318 281.016C194.955 281.688 194.454 282.221 193.814 282.616C193.185 283 192.465 283.192 191.654 283.192C190.918 283.192 190.251 283.027 189.654 282.696C189.067 282.355 188.625 281.875 188.326 281.256L188.518 281.08V286.2H187.318ZM191.59 281.992C192.166 281.992 192.678 281.848 193.126 281.56C193.585 281.272 193.942 280.883 194.198 280.392C194.465 279.891 194.598 279.331 194.598 278.712C194.598 278.083 194.465 277.523 194.198 277.032C193.942 276.541 193.585 276.152 193.126 275.864C192.678 275.576 192.166 275.432 191.59 275.432C191.014 275.432 190.491 275.576 190.022 275.864C189.563 276.152 189.195 276.547 188.918 277.048C188.651 277.539 188.518 278.093 188.518 278.712C188.518 279.331 188.651 279.891 188.918 280.392C189.195 280.883 189.563 281.272 190.022 281.56C190.491 281.848 191.014 281.992 191.59 281.992ZM197.99 283V274.424H199.19V283H197.99ZM197.99 272.84V271.08H199.19V272.84H197.99ZM205.566 283.192C204.723 283.192 203.982 282.995 203.342 282.6C202.702 282.205 202.201 281.672 201.838 281C201.475 280.317 201.294 279.549 201.294 278.696C201.294 277.843 201.475 277.08 201.838 276.408C202.201 275.736 202.702 275.208 203.342 274.824C203.982 274.429 204.723 274.232 205.566 274.232C206.099 274.232 206.601 274.328 207.07 274.52C207.539 274.712 207.955 274.973 208.318 275.304C208.681 275.624 208.953 275.997 209.134 276.424L208.046 276.984C207.833 276.525 207.507 276.152 207.07 275.864C206.633 275.576 206.131 275.432 205.566 275.432C205.001 275.432 204.489 275.576 204.03 275.864C203.582 276.141 203.225 276.531 202.958 277.032C202.702 277.523 202.574 278.083 202.574 278.712C202.574 279.331 202.702 279.891 202.958 280.392C203.225 280.883 203.582 281.272 204.03 281.56C204.489 281.848 205.001 281.992 205.566 281.992C206.131 281.992 206.627 281.848 207.054 281.56C207.491 281.272 207.822 280.888 208.046 280.408L209.134 281C208.953 281.416 208.681 281.789 208.318 282.12C207.955 282.451 207.539 282.712 207.07 282.904C206.601 283.096 206.099 283.192 205.566 283.192ZM211.24 283V270.888H212.44V279.368L211.928 279.288L216.744 274.424H218.296L214.936 277.864L218.6 283H217.16L213.72 278.248L214.488 278.312L212.04 280.84L212.44 279.848V283H211.24ZM222.981 283.192C222.16 283.192 221.44 282.984 220.821 282.568C220.203 282.152 219.755 281.587 219.477 280.872L220.485 280.392C220.731 280.915 221.072 281.331 221.509 281.64C221.957 281.949 222.448 282.104 222.981 282.104C223.493 282.104 223.925 281.981 224.277 281.736C224.629 281.48 224.805 281.149 224.805 280.744C224.805 280.445 224.72 280.211 224.549 280.04C224.379 279.859 224.181 279.72 223.957 279.624C223.733 279.528 223.536 279.459 223.365 279.416L222.133 279.064C221.344 278.84 220.773 278.525 220.421 278.12C220.069 277.715 219.893 277.245 219.893 276.712C219.893 276.211 220.021 275.773 220.277 275.4C220.533 275.027 220.88 274.739 221.317 274.536C221.755 274.333 222.24 274.232 222.773 274.232C223.499 274.232 224.155 274.424 224.741 274.808C225.339 275.181 225.76 275.704 226.005 276.376L224.981 276.856C224.768 276.376 224.459 276.003 224.053 275.736C223.659 275.459 223.216 275.32 222.725 275.32C222.245 275.32 221.861 275.443 221.573 275.688C221.285 275.933 221.141 276.243 221.141 276.616C221.141 276.904 221.216 277.133 221.365 277.304C221.515 277.475 221.685 277.603 221.877 277.688C222.08 277.773 222.256 277.837 222.405 277.88L223.829 278.296C224.523 278.499 225.061 278.813 225.445 279.24C225.84 279.667 226.037 280.168 226.037 280.744C226.037 281.213 225.904 281.635 225.637 282.008C225.381 282.381 225.024 282.675 224.565 282.888C224.107 283.091 223.579 283.192 222.981 283.192ZM228.562 283V281.24H229.842V283H228.562Z" fill="#1E1E1E"/>
</g>
<rect x="0.5" y="0.5" width="341" height="343" rx="31.5" stroke="#FF4F93"/>
<defs>
<clipPath id="clip0_2366_3576">
<rect width="342" height="344" rx="32" fill="white"/>
</clipPath>
</defs>
</svg>
