<svg width="342" height="344" viewBox="0 0 342 344" fill="none" xmlns="http://www.w3.org/2000/svg">
<g clip-path="url(#clip0_2366_3613)">
<rect width="342" height="344" rx="32" fill="#FFD93D" fill-opacity="0.1"/>
<path d="M167.589 60.682C169.51 58.8901 172.49 58.8901 174.411 60.682L177.125 63.2145C178.512 64.5084 180.512 64.9061 182.288 64.2415L185.765 62.9406C188.226 62.0201 190.979 63.1605 192.068 65.5511L193.606 68.9296C194.393 70.6557 196.088 71.7884 197.983 71.8542L201.693 71.9829C204.319 72.074 206.426 74.1812 206.517 76.8065L206.646 80.5167C206.712 82.4123 207.844 84.1074 209.57 84.8936L212.949 86.4324C215.34 87.5212 216.48 90.2743 215.559 92.7347L214.259 96.2118C213.594 97.9882 213.992 99.9878 215.285 101.375L217.818 104.089C219.61 106.01 219.61 108.99 217.818 110.911L215.285 113.625C213.992 115.012 213.594 117.012 214.259 118.788L215.559 122.265C216.48 124.726 215.34 127.479 212.949 128.568L209.57 130.106C207.844 130.893 206.712 132.588 206.646 134.483L206.517 138.193C206.426 140.819 204.319 142.926 201.693 143.017L197.983 143.146C196.088 143.212 194.393 144.344 193.606 146.07L192.068 149.449C190.979 151.84 188.226 152.98 185.765 152.059L182.288 150.759C180.512 150.094 178.512 150.492 177.125 151.785L174.411 154.318C172.49 156.11 169.51 156.11 167.589 154.318L164.875 151.785C163.488 150.492 161.488 150.094 159.712 150.759L156.235 152.059C153.774 152.98 151.021 151.84 149.932 149.449L148.394 146.07C147.607 144.344 145.912 143.212 144.017 143.146L140.307 143.017C137.681 142.926 135.574 140.819 135.483 138.193L135.354 134.483C135.288 132.588 134.156 130.893 132.43 130.106L129.051 128.568C126.66 127.479 125.52 124.726 126.441 122.265L127.741 118.788C128.406 117.012 128.008 115.012 126.715 113.625L124.182 110.911C122.39 108.99 122.39 106.01 124.182 104.089L126.715 101.375C128.008 99.9878 128.406 97.9882 127.741 96.2118L126.441 92.7347C125.52 90.2743 126.66 87.5212 129.051 86.4324L132.43 84.8936C134.156 84.1074 135.288 82.4123 135.354 80.5167L135.483 76.8065C135.574 74.1812 137.681 72.074 140.307 71.9829L144.017 71.8542C145.912 71.7884 147.607 70.6557 148.394 68.9296L149.932 65.5511C151.021 63.1605 153.774 62.0201 156.235 62.9406L159.712 64.2415C161.488 64.9061 163.488 64.5084 164.875 63.2145L167.589 60.682Z" fill="#FFD93D"/>
<mask id="mask0_2366_3613" style="mask-type:luminance" maskUnits="userSpaceOnUse" x="145" y="81" width="52" height="53">
<path d="M197 81.5H145V133.5H197V81.5Z" fill="white"/>
</mask>
<g mask="url(#mask0_2366_3613)">
<path fill-rule="evenodd" clip-rule="evenodd" d="M165.268 109.943C163.975 108.046 162.627 107.203 161.131 106.727C159.352 106.163 157.328 106.19 154.83 105.436C151.684 104.489 149.443 102.286 148.091 100.553C152.698 102.257 157.598 101.454 161.083 99.6116C164.028 98.0556 165.934 95.7327 166.041 93.5788C166.083 92.7516 165.851 92.1301 165.456 91.6645C164.918 91.0316 164.017 90.6749 162.887 90.5961C160.823 90.4523 157.902 91.225 155.832 91.892C156.615 90.9918 157.714 89.9258 159.142 88.9873C159.518 88.7403 159.622 88.2366 159.376 87.862C159.129 87.4866 158.625 87.3826 158.25 87.6288C154.623 90.0127 152.915 93.1481 152.915 93.1481C152.75 93.4496 152.793 93.8225 153.022 94.0793C153.251 94.336 153.617 94.4205 153.935 94.2905C153.935 94.2905 159.507 91.9895 162.774 92.217C163.394 92.2601 163.922 92.3698 164.217 92.7167C164.377 92.9044 164.435 93.1644 164.419 93.4975C164.333 95.2119 162.669 96.936 160.325 98.1751C156.574 100.158 150.997 100.817 146.243 97.8452C145.935 97.6526 145.537 97.6876 145.268 97.9305C144.998 98.1743 144.924 98.5659 145.083 98.8917C145.083 98.8917 148.152 105.121 154.36 106.992C156.85 107.743 158.867 107.714 160.639 108.276C161.833 108.656 162.894 109.345 163.926 110.858C164.178 111.229 164.684 111.325 165.054 111.072C165.425 110.819 165.521 110.313 165.268 109.943ZM161.824 87.5939C163.767 86.8318 166.104 86.4101 168.853 86.6928C173.763 87.1966 177.709 90.2207 179.846 92.2276C180.173 92.5347 180.687 92.5185 180.995 92.1918C181.302 91.8644 181.285 91.3501 180.958 91.043C178.641 88.8671 174.344 85.622 169.019 85.076C165.972 84.7631 163.384 85.236 161.231 86.0818C160.813 86.246 160.607 86.7172 160.771 87.1348C160.935 87.5525 161.407 87.758 161.824 87.5939Z" fill="white"/>
<path fill-rule="evenodd" clip-rule="evenodd" d="M169.891 110.115C169.35 108.676 169.055 107.119 169.055 105.492C169.055 98.2282 174.952 92.3311 182.215 92.3311C189.478 92.3311 195.376 98.2282 195.376 105.492C195.376 112.756 189.478 118.653 182.215 118.653C180.755 118.653 179.349 118.414 178.036 117.974C177.61 117.831 177.15 118.061 177.007 118.486C176.864 118.912 177.094 119.373 177.519 119.515C178.995 120.01 180.574 120.278 182.215 120.278C190.375 120.278 197.001 113.653 197.001 105.492C197.001 97.332 190.375 90.7061 182.215 90.7061C174.055 90.7061 167.43 97.332 167.43 105.492C167.43 107.319 167.762 109.07 168.369 110.686C168.527 111.106 168.996 111.319 169.415 111.162C169.836 111.004 170.048 110.534 169.891 110.115Z" fill="white"/>
<path fill-rule="evenodd" clip-rule="evenodd" d="M183.027 105.492V96.1973C183.027 95.7488 182.663 95.3848 182.215 95.3848C181.766 95.3848 181.402 95.7488 181.402 96.1973V105.492C181.402 105.941 181.766 106.305 182.215 106.305C182.663 106.305 183.027 105.941 183.027 105.492Z" fill="white"/>
<path fill-rule="evenodd" clip-rule="evenodd" d="M182.789 106.066L188.582 100.273C188.899 99.9564 188.899 99.4412 188.582 99.1244C188.265 98.8075 187.75 98.8075 187.433 99.1244L181.64 104.918C181.323 105.234 181.323 105.75 181.64 106.066C181.957 106.383 182.472 106.383 182.789 106.066Z" fill="white"/>
<path fill-rule="evenodd" clip-rule="evenodd" d="M177.254 85.0283H187.173C187.621 85.0283 187.985 84.6643 187.985 84.2158C187.985 83.7673 187.621 83.4033 187.173 83.4033H177.254C176.805 83.4033 176.441 83.7673 176.441 84.2158C176.441 84.6643 176.805 85.0283 177.254 85.0283Z" fill="white"/>
<path fill-rule="evenodd" clip-rule="evenodd" d="M181.402 84.2158V91.5194C181.402 91.9671 181.766 92.3319 182.215 92.3319C182.663 92.3319 183.027 91.9671 183.027 91.5194V84.2158C183.027 83.7673 182.663 83.4033 182.215 83.4033C181.766 83.4033 181.402 83.7673 181.402 84.2158Z" fill="white"/>
<path fill-rule="evenodd" clip-rule="evenodd" d="M149.791 126.658V130.788C149.791 131.236 150.155 131.6 150.604 131.6H177.777C178.225 131.6 178.589 131.236 178.589 130.788V115.683C178.589 115.234 178.225 114.87 177.777 114.87H173.774C173.325 114.87 172.961 115.234 172.961 115.683C172.961 116.131 173.325 116.495 173.774 116.495H176.964V129.975H151.416V126.658C151.416 126.209 151.052 125.845 150.604 125.845C150.155 125.845 149.791 126.209 149.791 126.658Z" fill="white"/>
<path fill-rule="evenodd" clip-rule="evenodd" d="M146.455 109.589C146.006 109.589 145.643 109.952 145.643 110.401V126.659C145.643 127.107 146.006 127.471 146.455 127.471H173.628C174.077 127.471 174.441 127.107 174.441 126.659V116.156L179.105 110.942C179.318 110.704 179.371 110.362 179.24 110.069C179.109 109.777 178.819 109.589 178.499 109.589H146.455ZM147.268 111.214H176.682L173.022 115.304C172.889 115.453 172.816 115.646 172.816 115.846V125.846H147.268V111.214Z" fill="white"/>
<path fill-rule="evenodd" clip-rule="evenodd" d="M151.779 119.342H153.635C154.084 119.342 154.448 118.978 154.448 118.53C154.448 118.081 154.084 117.717 153.635 117.717H151.779C151.331 117.717 150.967 118.081 150.967 118.53C150.967 118.978 151.331 119.342 151.779 119.342Z" fill="white"/>
<path fill-rule="evenodd" clip-rule="evenodd" d="M159.203 119.342H161.059C161.507 119.342 161.871 118.978 161.871 118.53C161.871 118.081 161.507 117.717 161.059 117.717H159.203C158.755 117.717 158.391 118.081 158.391 118.53C158.391 118.978 158.755 119.342 159.203 119.342Z" fill="white"/>
<path fill-rule="evenodd" clip-rule="evenodd" d="M166.625 119.342H168.482C168.93 119.342 169.294 118.978 169.294 118.53C169.294 118.081 168.93 117.717 168.482 117.717H166.625C166.177 117.717 165.812 118.081 165.812 118.53C165.812 118.978 166.177 119.342 166.625 119.342Z" fill="white"/>
<path fill-rule="evenodd" clip-rule="evenodd" d="M190.092 121.72V125.779C190.092 126.228 190.456 126.592 190.904 126.592C191.353 126.592 191.717 126.228 191.717 125.779V121.72C191.717 121.272 191.353 120.908 190.904 120.908C190.456 120.908 190.092 121.272 190.092 121.72Z" fill="white"/>
<path fill-rule="evenodd" clip-rule="evenodd" d="M149.467 86.3765V90.4357C149.467 90.8842 149.831 91.2482 150.279 91.2482C150.728 91.2482 151.092 90.8842 151.092 90.4357V86.3765C151.092 85.928 150.728 85.564 150.279 85.564C149.831 85.564 149.467 85.928 149.467 86.3765Z" fill="white"/>
<path fill-rule="evenodd" clip-rule="evenodd" d="M188.875 124.562H192.934C193.383 124.562 193.747 124.199 193.747 123.75C193.747 123.302 193.383 122.938 192.934 122.938H188.875C188.427 122.938 188.062 123.302 188.062 123.75C188.062 124.199 188.427 124.562 188.875 124.562Z" fill="white"/>
<path fill-rule="evenodd" clip-rule="evenodd" d="M148.25 89.2188H152.309C152.758 89.2188 153.122 88.8548 153.122 88.4062C153.122 87.9578 152.758 87.5938 152.309 87.5938H148.25C147.802 87.5938 147.438 87.9578 147.438 88.4062C147.438 88.8548 147.802 89.2188 148.25 89.2188Z" fill="white"/>
<path fill-rule="evenodd" clip-rule="evenodd" d="M183.488 125.638C181.844 125.638 180.508 126.974 180.508 128.619C180.508 130.264 181.844 131.599 183.488 131.599C185.133 131.599 186.469 130.264 186.469 128.619C186.469 126.974 185.133 125.638 183.488 125.638ZM183.488 127.263C184.236 127.263 184.844 127.871 184.844 128.619C184.844 129.367 184.236 129.974 183.488 129.974C182.74 129.974 182.133 129.367 182.133 128.619C182.133 127.871 182.74 127.263 183.488 127.263Z" fill="white"/>
<path fill-rule="evenodd" clip-rule="evenodd" d="M191.702 85.4243C190.056 85.4243 188.721 86.7601 188.721 88.4054C188.721 90.0507 190.056 91.3856 191.702 91.3856C193.347 91.3856 194.682 90.0507 194.682 88.4054C194.682 86.7601 193.347 85.4243 191.702 85.4243ZM191.702 87.0493C192.45 87.0493 193.057 87.6571 193.057 88.4054C193.057 89.1537 192.45 89.7606 191.702 89.7606C190.953 89.7606 190.346 89.1537 190.346 88.4054C190.346 87.6571 190.953 87.0493 191.702 87.0493Z" fill="white"/>
</g>
<path d="M62.4655 210.74C61.3455 210.74 60.3055 210.547 59.3455 210.16C58.3855 209.773 57.5455 209.233 56.8255 208.54C56.1189 207.833 55.5655 207.013 55.1655 206.08C54.7655 205.147 54.5655 204.133 54.5655 203.04C54.5655 201.947 54.7589 200.933 55.1455 200C55.5455 199.067 56.0989 198.253 56.8055 197.56C57.5255 196.867 58.3655 196.327 59.3255 195.94C60.2855 195.553 61.3322 195.36 62.4655 195.36C63.5989 195.36 64.6455 195.553 65.6055 195.94C66.5655 196.327 67.3989 196.867 68.1055 197.56C68.8255 198.253 69.3789 199.067 69.7655 200C70.1655 200.933 70.3655 201.947 70.3655 203.04C70.3655 204.133 70.1655 205.147 69.7655 206.08C69.3655 207.013 68.8055 207.833 68.0855 208.54C67.3789 209.233 66.5455 209.773 65.5855 210.16C64.6255 210.547 63.5855 210.74 62.4655 210.74ZM62.4655 207.94C63.1455 207.94 63.7722 207.82 64.3455 207.58C64.9322 207.34 65.4455 207.007 65.8855 206.58C66.3255 206.14 66.6655 205.62 66.9055 205.02C67.1455 204.42 67.2655 203.76 67.2655 203.04C67.2655 202.32 67.1455 201.667 66.9055 201.08C66.6655 200.48 66.3255 199.96 65.8855 199.52C65.4455 199.08 64.9322 198.747 64.3455 198.52C63.7722 198.28 63.1455 198.16 62.4655 198.16C61.7855 198.16 61.1522 198.28 60.5655 198.52C59.9922 198.747 59.4855 199.08 59.0455 199.52C58.6055 199.96 58.2655 200.48 58.0255 201.08C57.7855 201.667 57.6655 202.32 57.6655 203.04C57.6655 203.76 57.7855 204.42 58.0255 205.02C58.2655 205.62 58.6055 206.14 59.0455 206.58C59.4855 207.007 59.9922 207.34 60.5655 207.58C61.1522 207.82 61.7855 207.94 62.4655 207.94ZM65.6255 212.3L61.1855 204.54H64.3855L68.8855 212.3H65.6255ZM76.2641 210.74C75.3841 210.74 74.6308 210.553 74.0041 210.18C73.3908 209.793 72.9241 209.26 72.6041 208.58C72.2841 207.9 72.1241 207.107 72.1241 206.2V199.58H75.1241V205.96C75.1241 206.373 75.2041 206.74 75.3641 207.06C75.5375 207.367 75.7775 207.607 76.0841 207.78C76.3908 207.953 76.7375 208.04 77.1241 208.04C77.5241 208.04 77.8708 207.953 78.1641 207.78C78.4708 207.607 78.7041 207.367 78.8641 207.06C79.0375 206.74 79.1241 206.373 79.1241 205.96V199.58H82.1241V210.5H79.3241V208.34L79.4841 208.82C79.2308 209.473 78.8175 209.96 78.2441 210.28C77.6841 210.587 77.0241 210.74 76.2641 210.74ZM84.3168 210.5V199.58H87.3168V210.5H84.3168ZM84.3168 198.6V195.6H87.3168V198.6H84.3168ZM94.8721 210.74C93.7788 210.74 92.7921 210.493 91.9121 210C91.0454 209.493 90.3521 208.807 89.8321 207.94C89.3254 207.073 89.0721 206.1 89.0721 205.02C89.0721 203.94 89.3254 202.973 89.8321 202.12C90.3388 201.253 91.0321 200.573 91.9121 200.08C92.7921 199.587 93.7788 199.34 94.8721 199.34C95.6854 199.34 96.4388 199.48 97.1321 199.76C97.8254 200.04 98.4188 200.433 98.9121 200.94C99.4054 201.433 99.7588 202.02 99.9721 202.7L97.3721 203.82C97.1854 203.273 96.8654 202.84 96.4121 202.52C95.9721 202.2 95.4588 202.04 94.8721 202.04C94.3521 202.04 93.8854 202.167 93.4721 202.42C93.0721 202.673 92.7521 203.027 92.5121 203.48C92.2854 203.933 92.1721 204.453 92.1721 205.04C92.1721 205.627 92.2854 206.147 92.5121 206.6C92.7521 207.053 93.0721 207.407 93.4721 207.66C93.8854 207.913 94.3521 208.04 94.8721 208.04C95.4721 208.04 95.9921 207.88 96.4321 207.56C96.8721 207.24 97.1854 206.807 97.3721 206.26L99.9721 207.4C99.7721 208.04 99.4254 208.613 98.9321 209.12C98.4388 209.627 97.8454 210.027 97.1521 210.32C96.4588 210.6 95.6988 210.74 94.8721 210.74ZM101.739 210.5V195.36H104.739V205.06L103.619 204.7L108.439 199.58H112.139L108.179 203.98L112.119 210.5H108.719L105.419 204.96L107.159 204.52L103.819 208.16L104.739 206.42V210.5H101.739ZM124.351 210.74C123.285 210.74 122.291 210.547 121.371 210.16C120.465 209.773 119.671 209.233 118.991 208.54C118.311 207.847 117.778 207.033 117.391 206.1C117.018 205.167 116.831 204.147 116.831 203.04C116.831 201.933 117.018 200.913 117.391 199.98C117.765 199.033 118.291 198.22 118.971 197.54C119.651 196.847 120.445 196.313 121.351 195.94C122.271 195.553 123.271 195.36 124.351 195.36C125.431 195.36 126.398 195.54 127.251 195.9C128.118 196.26 128.851 196.74 129.451 197.34C130.051 197.94 130.478 198.607 130.731 199.34L127.991 200.66C127.738 199.94 127.291 199.347 126.651 198.88C126.025 198.4 125.258 198.16 124.351 198.16C123.471 198.16 122.698 198.367 122.031 198.78C121.365 199.193 120.845 199.767 120.471 200.5C120.111 201.22 119.931 202.067 119.931 203.04C119.931 204.013 120.111 204.867 120.471 205.6C120.845 206.333 121.365 206.907 122.031 207.32C122.698 207.733 123.471 207.94 124.351 207.94C125.258 207.94 126.025 207.707 126.651 207.24C127.291 206.76 127.738 206.16 127.991 205.44L130.731 206.76C130.478 207.493 130.051 208.16 129.451 208.76C128.851 209.36 128.118 209.84 127.251 210.2C126.398 210.56 125.431 210.74 124.351 210.74ZM137.725 210.74C136.645 210.74 135.658 210.493 134.765 210C133.885 209.507 133.178 208.833 132.645 207.98C132.125 207.113 131.865 206.133 131.865 205.04C131.865 203.933 132.125 202.953 132.645 202.1C133.178 201.247 133.885 200.573 134.765 200.08C135.658 199.587 136.645 199.34 137.725 199.34C138.805 199.34 139.785 199.587 140.665 200.08C141.545 200.573 142.245 201.247 142.765 202.1C143.298 202.953 143.565 203.933 143.565 205.04C143.565 206.133 143.298 207.113 142.765 207.98C142.245 208.833 141.545 209.507 140.665 210C139.785 210.493 138.805 210.74 137.725 210.74ZM137.725 208.04C138.272 208.04 138.745 207.913 139.145 207.66C139.558 207.407 139.878 207.053 140.105 206.6C140.345 206.147 140.465 205.627 140.465 205.04C140.465 204.453 140.345 203.94 140.105 203.5C139.878 203.047 139.558 202.693 139.145 202.44C138.745 202.173 138.272 202.04 137.725 202.04C137.178 202.04 136.698 202.173 136.285 202.44C135.872 202.693 135.545 203.047 135.305 203.5C135.078 203.94 134.965 204.453 134.965 205.04C134.965 205.627 135.078 206.147 135.305 206.6C135.545 207.053 135.872 207.407 136.285 207.66C136.698 207.913 137.178 208.04 137.725 208.04ZM145.332 210.5V199.58H148.132V202.24L147.832 201.8C147.992 200.96 148.379 200.34 148.992 199.94C149.606 199.54 150.339 199.34 151.192 199.34C152.099 199.34 152.892 199.573 153.572 200.04C154.266 200.493 154.699 201.107 154.872 201.88L154.012 201.96C154.372 201.067 154.886 200.407 155.552 199.98C156.219 199.553 156.999 199.34 157.892 199.34C158.679 199.34 159.372 199.513 159.972 199.86C160.586 200.207 161.066 200.693 161.412 201.32C161.759 201.933 161.932 202.653 161.932 203.48V210.5H158.932V204.12C158.932 203.693 158.852 203.327 158.692 203.02C158.546 202.713 158.332 202.473 158.052 202.3C157.772 202.127 157.432 202.04 157.032 202.04C156.646 202.04 156.306 202.127 156.012 202.3C155.732 202.473 155.512 202.713 155.352 203.02C155.206 203.327 155.132 203.693 155.132 204.12V210.5H152.132V204.12C152.132 203.693 152.052 203.327 151.892 203.02C151.746 202.713 151.532 202.473 151.252 202.3C150.972 202.127 150.632 202.04 150.232 202.04C149.846 202.04 149.506 202.127 149.212 202.3C148.932 202.473 148.712 202.713 148.552 203.02C148.406 203.327 148.332 203.693 148.332 204.12V210.5H145.332ZM163.907 214.5V199.58H166.707V201.66L166.447 201.06C166.807 200.513 167.293 200.093 167.907 199.8C168.533 199.493 169.247 199.34 170.047 199.34C171.087 199.34 172.027 199.593 172.867 200.1C173.707 200.607 174.373 201.293 174.867 202.16C175.36 203.013 175.607 203.973 175.607 205.04C175.607 206.093 175.36 207.053 174.867 207.92C174.387 208.787 173.727 209.473 172.887 209.98C172.047 210.487 171.093 210.74 170.027 210.74C169.28 210.74 168.587 210.607 167.947 210.34C167.32 210.06 166.813 209.653 166.427 209.12L166.907 208.5V214.5H163.907ZM169.667 208.04C170.227 208.04 170.72 207.913 171.147 207.66C171.573 207.407 171.907 207.053 172.147 206.6C172.387 206.147 172.507 205.627 172.507 205.04C172.507 204.453 172.387 203.94 172.147 203.5C171.907 203.047 171.573 202.693 171.147 202.44C170.72 202.173 170.227 202.04 169.667 202.04C169.133 202.04 168.653 202.167 168.227 202.42C167.813 202.673 167.487 203.027 167.247 203.48C167.02 203.933 166.907 204.453 166.907 205.04C166.907 205.627 167.02 206.147 167.247 206.6C167.487 207.053 167.813 207.407 168.227 207.66C168.653 207.913 169.133 208.04 169.667 208.04ZM180.744 210.74C179.957 210.74 179.277 210.613 178.704 210.36C178.13 210.107 177.69 209.747 177.384 209.28C177.077 208.8 176.924 208.233 176.924 207.58C176.924 206.967 177.064 206.427 177.344 205.96C177.624 205.48 178.05 205.08 178.624 204.76C179.21 204.44 179.937 204.213 180.804 204.08L184.144 203.54V205.74L181.344 206.24C180.917 206.32 180.59 206.46 180.364 206.66C180.137 206.847 180.024 207.12 180.024 207.48C180.024 207.813 180.15 208.073 180.404 208.26C180.657 208.447 180.97 208.54 181.344 208.54C181.837 208.54 182.27 208.433 182.644 208.22C183.017 208.007 183.304 207.72 183.504 207.36C183.717 206.987 183.824 206.58 183.824 206.14V203.3C183.824 202.887 183.657 202.54 183.324 202.26C183.004 201.98 182.564 201.84 182.004 201.84C181.47 201.84 180.997 201.987 180.584 202.28C180.184 202.573 179.89 202.96 179.704 203.44L177.304 202.3C177.517 201.687 177.857 201.16 178.324 200.72C178.79 200.28 179.35 199.94 180.004 199.7C180.657 199.46 181.37 199.34 182.144 199.34C183.064 199.34 183.877 199.507 184.584 199.84C185.29 200.173 185.837 200.64 186.224 201.24C186.624 201.827 186.824 202.513 186.824 203.3V210.5H184.024V208.74L184.704 208.62C184.384 209.1 184.03 209.5 183.644 209.82C183.257 210.127 182.824 210.353 182.344 210.5C181.864 210.66 181.33 210.74 180.744 210.74ZM189.024 210.5V199.58H191.824V201.74L191.664 201.26C191.917 200.607 192.324 200.127 192.884 199.82C193.457 199.5 194.124 199.34 194.884 199.34C195.71 199.34 196.43 199.513 197.044 199.86C197.67 200.207 198.157 200.693 198.504 201.32C198.85 201.933 199.024 202.653 199.024 203.48V210.5H196.024V204.12C196.024 203.693 195.937 203.327 195.764 203.02C195.604 202.713 195.37 202.473 195.064 202.3C194.77 202.127 194.424 202.04 194.024 202.04C193.637 202.04 193.29 202.127 192.984 202.3C192.677 202.473 192.437 202.713 192.264 203.02C192.104 203.327 192.024 203.693 192.024 204.12V210.5H189.024ZM200.996 210.5V199.58H203.996V210.5H200.996ZM200.996 198.6V195.6H203.996V198.6H200.996ZM211.612 210.74C210.532 210.74 209.545 210.493 208.652 210C207.772 209.507 207.065 208.833 206.532 207.98C206.012 207.113 205.752 206.133 205.752 205.04C205.752 203.933 206.012 202.953 206.532 202.1C207.065 201.247 207.772 200.573 208.652 200.08C209.545 199.587 210.532 199.34 211.612 199.34C212.692 199.34 213.672 199.587 214.552 200.08C215.432 200.573 216.132 201.247 216.652 202.1C217.185 202.953 217.452 203.933 217.452 205.04C217.452 206.133 217.185 207.113 216.652 207.98C216.132 208.833 215.432 209.507 214.552 210C213.672 210.493 212.692 210.74 211.612 210.74ZM211.612 208.04C212.158 208.04 212.632 207.913 213.032 207.66C213.445 207.407 213.765 207.053 213.992 206.6C214.232 206.147 214.352 205.627 214.352 205.04C214.352 204.453 214.232 203.94 213.992 203.5C213.765 203.047 213.445 202.693 213.032 202.44C212.632 202.173 212.158 202.04 211.612 202.04C211.065 202.04 210.585 202.173 210.172 202.44C209.758 202.693 209.432 203.047 209.192 203.5C208.965 203.94 208.852 204.453 208.852 205.04C208.852 205.627 208.965 206.147 209.192 206.6C209.432 207.053 209.758 207.407 210.172 207.66C210.585 207.913 211.065 208.04 211.612 208.04ZM219.219 210.5V199.58H222.019V201.74L221.859 201.26C222.112 200.607 222.519 200.127 223.079 199.82C223.652 199.5 224.319 199.34 225.079 199.34C225.906 199.34 226.626 199.513 227.239 199.86C227.866 200.207 228.352 200.693 228.699 201.32C229.046 201.933 229.219 202.653 229.219 203.48V210.5H226.219V204.12C226.219 203.693 226.132 203.327 225.959 203.02C225.799 202.713 225.566 202.473 225.259 202.3C224.966 202.127 224.619 202.04 224.219 202.04C223.832 202.04 223.486 202.127 223.179 202.3C222.872 202.473 222.632 202.713 222.459 203.02C222.299 203.327 222.219 203.693 222.219 204.12V210.5H219.219ZM235.006 210.5V195.6H240.726C241.752 195.6 242.659 195.78 243.446 196.14C244.246 196.5 244.872 197.033 245.326 197.74C245.779 198.447 246.006 199.32 246.006 200.36C246.006 201.373 245.772 202.233 245.306 202.94C244.852 203.647 244.226 204.187 243.426 204.56C242.639 204.92 241.739 205.1 240.726 205.1H238.106V210.5H235.006ZM238.106 202.4H240.746C241.186 202.4 241.566 202.313 241.886 202.14C242.206 201.967 242.452 201.727 242.626 201.42C242.812 201.113 242.906 200.76 242.906 200.36C242.906 199.947 242.812 199.587 242.626 199.28C242.452 198.973 242.206 198.733 241.886 198.56C241.566 198.387 241.186 198.3 240.746 198.3H238.106V202.4ZM252.803 210.74C251.723 210.74 250.737 210.493 249.843 210C248.963 209.507 248.257 208.833 247.723 207.98C247.203 207.113 246.943 206.133 246.943 205.04C246.943 203.933 247.203 202.953 247.723 202.1C248.257 201.247 248.963 200.573 249.843 200.08C250.737 199.587 251.723 199.34 252.803 199.34C253.883 199.34 254.863 199.587 255.743 200.08C256.623 200.573 257.323 201.247 257.843 202.1C258.377 202.953 258.643 203.933 258.643 205.04C258.643 206.133 258.377 207.113 257.843 207.98C257.323 208.833 256.623 209.507 255.743 210C254.863 210.493 253.883 210.74 252.803 210.74ZM252.803 208.04C253.35 208.04 253.823 207.913 254.223 207.66C254.637 207.407 254.957 207.053 255.183 206.6C255.423 206.147 255.543 205.627 255.543 205.04C255.543 204.453 255.423 203.94 255.183 203.5C254.957 203.047 254.637 202.693 254.223 202.44C253.823 202.173 253.35 202.04 252.803 202.04C252.257 202.04 251.777 202.173 251.363 202.44C250.95 202.693 250.623 203.047 250.383 203.5C250.157 203.94 250.043 204.453 250.043 205.04C250.043 205.627 250.157 206.147 250.383 206.6C250.623 207.053 250.95 207.407 251.363 207.66C251.777 207.913 252.257 208.04 252.803 208.04ZM264.691 210.74C263.491 210.74 262.444 210.46 261.551 209.9C260.671 209.327 260.071 208.56 259.751 207.6L261.951 206.56C262.231 207.147 262.611 207.607 263.091 207.94C263.571 208.273 264.104 208.44 264.691 208.44C265.117 208.44 265.444 208.353 265.671 208.18C265.897 208.007 266.011 207.767 266.011 207.46C266.011 207.3 265.971 207.167 265.891 207.06C265.811 206.94 265.691 206.833 265.531 206.74C265.371 206.647 265.171 206.567 264.931 206.5L263.071 205.98C262.177 205.727 261.491 205.32 261.011 204.76C260.531 204.187 260.291 203.513 260.291 202.74C260.291 202.06 260.464 201.467 260.811 200.96C261.157 200.453 261.644 200.06 262.271 199.78C262.897 199.487 263.617 199.34 264.431 199.34C265.497 199.34 266.431 199.593 267.231 200.1C268.044 200.593 268.617 201.293 268.951 202.2L266.731 203.24C266.571 202.787 266.277 202.427 265.851 202.16C265.437 201.88 264.964 201.74 264.431 201.74C264.044 201.74 263.737 201.82 263.511 201.98C263.297 202.14 263.191 202.36 263.191 202.64C263.191 202.787 263.231 202.92 263.311 203.04C263.391 203.16 263.517 203.267 263.691 203.36C263.877 203.453 264.104 203.54 264.371 203.62L266.111 204.14C267.017 204.407 267.711 204.813 268.191 205.36C268.671 205.893 268.911 206.553 268.911 207.34C268.911 208.02 268.731 208.613 268.371 209.12C268.024 209.627 267.537 210.027 266.911 210.32C266.284 210.6 265.544 210.74 264.691 210.74ZM275.964 210.62C274.644 210.62 273.617 210.267 272.884 209.56C272.164 208.84 271.804 207.84 271.804 206.56V202.18H269.964V199.58H270.064C270.624 199.58 271.05 199.44 271.344 199.16C271.65 198.88 271.804 198.46 271.804 197.9V197.1H274.804V199.58H277.364V202.18H274.804V206.36C274.804 206.733 274.87 207.047 275.004 207.3C275.137 207.54 275.344 207.72 275.624 207.84C275.904 207.96 276.25 208.02 276.664 208.02C276.757 208.02 276.864 208.013 276.984 208C277.104 207.987 277.23 207.973 277.364 207.96V210.5C277.164 210.527 276.937 210.553 276.684 210.58C276.43 210.607 276.19 210.62 275.964 210.62ZM283.401 210.74C282.201 210.74 281.155 210.46 280.261 209.9C279.381 209.327 278.781 208.56 278.461 207.6L280.661 206.56C280.941 207.147 281.321 207.607 281.801 207.94C282.281 208.273 282.815 208.44 283.401 208.44C283.828 208.44 284.155 208.353 284.381 208.18C284.608 208.007 284.721 207.767 284.721 207.46C284.721 207.3 284.681 207.167 284.601 207.06C284.521 206.94 284.401 206.833 284.241 206.74C284.081 206.647 283.881 206.567 283.641 206.5L281.781 205.98C280.888 205.727 280.201 205.32 279.721 204.76C279.241 204.187 279.001 203.513 279.001 202.74C279.001 202.06 279.175 201.467 279.521 200.96C279.868 200.453 280.355 200.06 280.981 199.78C281.608 199.487 282.328 199.34 283.141 199.34C284.208 199.34 285.141 199.593 285.941 200.1C286.755 200.593 287.328 201.293 287.661 202.2L285.441 203.24C285.281 202.787 284.988 202.427 284.561 202.16C284.148 201.88 283.675 201.74 283.141 201.74C282.755 201.74 282.448 201.82 282.221 201.98C282.008 202.14 281.901 202.36 281.901 202.64C281.901 202.787 281.941 202.92 282.021 203.04C282.101 203.16 282.228 203.267 282.401 203.36C282.588 203.453 282.815 203.54 283.081 203.62L284.821 204.14C285.728 204.407 286.421 204.813 286.901 205.36C287.381 205.893 287.621 206.553 287.621 207.34C287.621 208.02 287.441 208.613 287.081 209.12C286.735 209.627 286.248 210.027 285.621 210.32C284.995 210.6 284.255 210.74 283.401 210.74Z" fill="#1E1E1E"/>
<path d="M66.6736 243.5V231.58H70.7696C71.5483 231.58 72.231 231.735 72.8176 232.044C73.4043 232.343 73.8576 232.769 74.1776 233.324C74.5083 233.868 74.6736 234.503 74.6736 235.228C74.6736 235.953 74.5083 236.588 74.1776 237.132C73.8576 237.676 73.4043 238.103 72.8176 238.412C72.2416 238.711 71.559 238.86 70.7696 238.86H67.9536V243.5H66.6736ZM67.9536 237.66H70.8336C71.3456 237.66 71.7936 237.564 72.1776 237.372C72.5616 237.169 72.8603 236.887 73.0736 236.524C73.287 236.151 73.3936 235.713 73.3936 235.212C73.3936 234.711 73.287 234.279 73.0736 233.916C72.8603 233.553 72.5616 233.276 72.1776 233.084C71.7936 232.881 71.3456 232.78 70.8336 232.78H67.9536V237.66ZM80.4824 243.692C79.6717 243.692 78.9357 243.5 78.2744 243.116C77.613 242.721 77.085 242.188 76.6904 241.516C76.3064 240.833 76.1144 240.06 76.1144 239.196C76.1144 238.343 76.3064 237.58 76.6904 236.908C77.0744 236.236 77.5917 235.708 78.2424 235.324C78.9037 234.929 79.6504 234.732 80.4824 234.732C81.3144 234.732 82.0557 234.924 82.7064 235.308C83.3677 235.692 83.885 236.22 84.2584 236.892C84.6424 237.564 84.8344 238.332 84.8344 239.196C84.8344 240.071 84.637 240.849 84.2424 241.532C83.8477 242.204 83.3197 242.732 82.6584 243.116C82.0077 243.5 81.2824 243.692 80.4824 243.692ZM80.4824 242.492C81.0584 242.492 81.5757 242.348 82.0344 242.06C82.5037 241.772 82.8717 241.377 83.1384 240.876C83.4157 240.375 83.5544 239.815 83.5544 239.196C83.5544 238.577 83.4157 238.023 83.1384 237.532C82.8717 237.041 82.5037 236.652 82.0344 236.364C81.5757 236.076 81.0584 235.932 80.4824 235.932C79.9064 235.932 79.3837 236.076 78.9144 236.364C78.4557 236.652 78.0877 237.041 77.8104 237.532C77.533 238.023 77.3944 238.577 77.3944 239.196C77.3944 239.815 77.533 240.375 77.8104 240.876C78.0877 241.377 78.4557 241.772 78.9144 242.06C79.3837 242.348 79.9064 242.492 80.4824 242.492ZM89.9268 243.692C89.1054 243.692 88.3854 243.484 87.7668 243.068C87.1481 242.652 86.7001 242.087 86.4228 241.372L87.4308 240.892C87.6761 241.415 88.0174 241.831 88.4548 242.14C88.9028 242.449 89.3934 242.604 89.9268 242.604C90.4388 242.604 90.8708 242.481 91.2228 242.236C91.5748 241.98 91.7508 241.649 91.7508 241.244C91.7508 240.945 91.6654 240.711 91.4948 240.54C91.3241 240.359 91.1268 240.22 90.9028 240.124C90.6788 240.028 90.4814 239.959 90.3108 239.916L89.0788 239.564C88.2894 239.34 87.7188 239.025 87.3668 238.62C87.0148 238.215 86.8388 237.745 86.8388 237.212C86.8388 236.711 86.9668 236.273 87.2228 235.9C87.4788 235.527 87.8254 235.239 88.2628 235.036C88.7001 234.833 89.1854 234.732 89.7188 234.732C90.4441 234.732 91.1001 234.924 91.6868 235.308C92.2841 235.681 92.7054 236.204 92.9508 236.876L91.9268 237.356C91.7134 236.876 91.4041 236.503 90.9988 236.236C90.6041 235.959 90.1614 235.82 89.6708 235.82C89.1908 235.82 88.8068 235.943 88.5188 236.188C88.2308 236.433 88.0868 236.743 88.0868 237.116C88.0868 237.404 88.1614 237.633 88.3108 237.804C88.4601 237.975 88.6308 238.103 88.8228 238.188C89.0254 238.273 89.2014 238.337 89.3508 238.38L90.7748 238.796C91.4681 238.999 92.0068 239.313 92.3908 239.74C92.7854 240.167 92.9828 240.668 92.9828 241.244C92.9828 241.713 92.8494 242.135 92.5828 242.508C92.3268 242.881 91.9694 243.175 91.5108 243.388C91.0521 243.591 90.5241 243.692 89.9268 243.692ZM98.3714 243.596C97.6034 243.596 97.0114 243.372 96.5954 242.924C96.1794 242.476 95.9714 241.836 95.9714 241.004V236.124H94.3874V234.924H94.7874C95.15 234.924 95.438 234.807 95.6514 234.572C95.8647 234.327 95.9714 234.023 95.9714 233.66V232.94H97.1714V234.924H99.0594V236.124H97.1714V241.004C97.1714 241.292 97.214 241.548 97.2994 241.772C97.3847 241.985 97.5287 242.156 97.7314 242.284C97.9447 242.412 98.2274 242.476 98.5794 242.476C98.6647 242.476 98.766 242.471 98.8834 242.46C99.0007 242.449 99.102 242.439 99.1874 242.428V243.5C99.0594 243.532 98.9154 243.553 98.7554 243.564C98.5954 243.585 98.4674 243.596 98.3714 243.596ZM104.189 247.02C104.019 247.02 103.843 247.004 103.661 246.972C103.491 246.951 103.32 246.908 103.149 246.844V245.724C103.256 245.735 103.389 245.751 103.549 245.772C103.72 245.804 103.891 245.82 104.061 245.82C104.584 245.82 104.984 245.708 105.261 245.484C105.539 245.271 105.811 244.855 106.077 244.236L106.621 242.956L106.589 244.012L102.957 234.924H104.253L107.229 242.428H106.893L109.853 234.924H111.181L107.261 244.588C107.091 245.004 106.872 245.399 106.605 245.772C106.349 246.145 106.024 246.444 105.629 246.668C105.235 246.903 104.755 247.02 104.189 247.02ZM116.451 243.692C115.64 243.692 114.904 243.5 114.243 243.116C113.582 242.721 113.054 242.188 112.659 241.516C112.275 240.833 112.083 240.06 112.083 239.196C112.083 238.343 112.275 237.58 112.659 236.908C113.043 236.236 113.56 235.708 114.211 235.324C114.872 234.929 115.619 234.732 116.451 234.732C117.283 234.732 118.024 234.924 118.675 235.308C119.336 235.692 119.854 236.22 120.227 236.892C120.611 237.564 120.803 238.332 120.803 239.196C120.803 240.071 120.606 240.849 120.211 241.532C119.816 242.204 119.288 242.732 118.627 243.116C117.976 243.5 117.251 243.692 116.451 243.692ZM116.451 242.492C117.027 242.492 117.544 242.348 118.003 242.06C118.472 241.772 118.84 241.377 119.107 240.876C119.384 240.375 119.523 239.815 119.523 239.196C119.523 238.577 119.384 238.023 119.107 237.532C118.84 237.041 118.472 236.652 118.003 236.364C117.544 236.076 117.027 235.932 116.451 235.932C115.875 235.932 115.352 236.076 114.883 236.364C114.424 236.652 114.056 237.041 113.779 237.532C113.502 238.023 113.363 238.577 113.363 239.196C113.363 239.815 113.502 240.375 113.779 240.876C114.056 241.377 114.424 241.772 114.883 242.06C115.352 242.348 115.875 242.492 116.451 242.492ZM125.96 243.692C125.362 243.692 124.818 243.553 124.328 243.276C123.837 242.988 123.448 242.593 123.16 242.092C122.882 241.58 122.743 240.993 122.743 240.332V234.924H123.944V240.188C123.944 240.647 124.034 241.052 124.216 241.404C124.408 241.745 124.669 242.012 125 242.204C125.341 242.396 125.73 242.492 126.168 242.492C126.605 242.492 126.994 242.396 127.336 242.204C127.677 242.001 127.944 241.719 128.136 241.356C128.328 240.983 128.424 240.54 128.424 240.028V234.924H129.624V243.5H128.424V241.836L128.696 241.9C128.493 242.455 128.146 242.892 127.656 243.212C127.165 243.532 126.6 243.692 125.96 243.692ZM132.091 243.5V234.924H133.291V236.332L133.131 236.124C133.334 235.719 133.638 235.399 134.043 235.164C134.459 234.929 134.961 234.812 135.547 234.812H136.091V236.012H135.339C134.721 236.012 134.225 236.204 133.851 236.588C133.478 236.972 133.291 237.516 133.291 238.22V243.5H132.091ZM140.216 243.5V234.924H141.416V236.588L141.144 236.524C141.358 235.969 141.704 235.532 142.184 235.212C142.675 234.892 143.24 234.732 143.88 234.732C144.488 234.732 145.032 234.871 145.512 235.148C146.003 235.425 146.387 235.809 146.664 236.3C146.952 236.78 147.096 237.324 147.096 237.932V243.5H145.896V238.396C145.896 237.873 145.8 237.431 145.608 237.068C145.427 236.705 145.166 236.428 144.824 236.236C144.494 236.033 144.11 235.932 143.672 235.932C143.235 235.932 142.846 236.033 142.504 236.236C142.163 236.428 141.896 236.711 141.704 237.084C141.512 237.447 141.416 237.884 141.416 238.396V243.5H140.216ZM153.292 243.692C152.492 243.692 151.767 243.5 151.116 243.116C150.476 242.721 149.97 242.183 149.596 241.5C149.223 240.817 149.036 240.044 149.036 239.18C149.036 238.316 149.218 237.553 149.58 236.892C149.943 236.22 150.434 235.692 151.052 235.308C151.682 234.924 152.386 234.732 153.164 234.732C153.783 234.732 154.332 234.849 154.812 235.084C155.303 235.308 155.719 235.617 156.06 236.012C156.402 236.396 156.663 236.833 156.844 237.324C157.026 237.804 157.116 238.3 157.116 238.812C157.116 238.919 157.111 239.041 157.1 239.18C157.09 239.308 157.074 239.441 157.052 239.58H149.804V238.46H156.364L155.788 238.94C155.884 238.353 155.815 237.831 155.58 237.372C155.356 236.903 155.031 236.535 154.604 236.268C154.178 235.991 153.698 235.852 153.164 235.852C152.631 235.852 152.135 235.991 151.676 236.268C151.228 236.545 150.876 236.935 150.62 237.436C150.364 237.927 150.263 238.513 150.316 239.196C150.263 239.879 150.37 240.476 150.636 240.988C150.914 241.489 151.287 241.879 151.756 242.156C152.236 242.433 152.748 242.572 153.292 242.572C153.922 242.572 154.45 242.423 154.876 242.124C155.303 241.825 155.65 241.452 155.916 241.004L156.94 241.548C156.77 241.932 156.508 242.289 156.156 242.62C155.804 242.94 155.383 243.201 154.892 243.404C154.412 243.596 153.879 243.692 153.292 243.692ZM163.136 243.692C162.336 243.692 161.611 243.5 160.96 243.116C160.32 242.721 159.813 242.183 159.44 241.5C159.067 240.817 158.88 240.044 158.88 239.18C158.88 238.316 159.061 237.553 159.424 236.892C159.787 236.22 160.277 235.692 160.896 235.308C161.525 234.924 162.229 234.732 163.008 234.732C163.627 234.732 164.176 234.849 164.656 235.084C165.147 235.308 165.563 235.617 165.904 236.012C166.245 236.396 166.507 236.833 166.688 237.324C166.869 237.804 166.96 238.3 166.96 238.812C166.96 238.919 166.955 239.041 166.944 239.18C166.933 239.308 166.917 239.441 166.896 239.58H159.648V238.46H166.208L165.632 238.94C165.728 238.353 165.659 237.831 165.424 237.372C165.2 236.903 164.875 236.535 164.448 236.268C164.021 235.991 163.541 235.852 163.008 235.852C162.475 235.852 161.979 235.991 161.52 236.268C161.072 236.545 160.72 236.935 160.464 237.436C160.208 237.927 160.107 238.513 160.16 239.196C160.107 239.879 160.213 240.476 160.48 240.988C160.757 241.489 161.131 241.879 161.6 242.156C162.08 242.433 162.592 242.572 163.136 242.572C163.765 242.572 164.293 242.423 164.72 242.124C165.147 241.825 165.493 241.452 165.76 241.004L166.784 241.548C166.613 241.932 166.352 242.289 166 242.62C165.648 242.94 165.227 243.201 164.736 243.404C164.256 243.596 163.723 243.692 163.136 243.692ZM172.948 243.692C172.148 243.692 171.428 243.5 170.788 243.116C170.148 242.721 169.641 242.188 169.268 241.516C168.905 240.833 168.724 240.065 168.724 239.212C168.724 238.348 168.905 237.58 169.268 236.908C169.641 236.236 170.142 235.708 170.772 235.324C171.412 234.929 172.137 234.732 172.948 234.732C173.684 234.732 174.34 234.892 174.916 235.212C175.492 235.532 175.945 235.964 176.276 236.508L176.084 236.844V231.388H177.284V243.5H176.084V241.58L176.276 241.756C175.977 242.375 175.529 242.855 174.932 243.196C174.345 243.527 173.684 243.692 172.948 243.692ZM173.012 242.492C173.588 242.492 174.105 242.348 174.564 242.06C175.033 241.772 175.401 241.383 175.668 240.892C175.945 240.391 176.084 239.831 176.084 239.212C176.084 238.593 175.945 238.039 175.668 237.548C175.401 237.047 175.033 236.652 174.564 236.364C174.105 236.076 173.588 235.932 173.012 235.932C172.446 235.932 171.934 236.076 171.476 236.364C171.017 236.652 170.654 237.041 170.388 237.532C170.132 238.023 170.004 238.583 170.004 239.212C170.004 239.831 170.132 240.391 170.388 240.892C170.654 241.383 171.012 241.772 171.46 242.06C171.918 242.348 172.436 242.492 173.012 242.492ZM182.466 243.5V234.924H183.666V243.5H182.466ZM182.466 233.34V231.58H183.666V233.34H182.466ZM186.123 243.5V234.924H187.323V236.588L187.051 236.524C187.264 235.969 187.611 235.532 188.091 235.212C188.581 234.892 189.147 234.732 189.787 234.732C190.395 234.732 190.939 234.871 191.419 235.148C191.909 235.425 192.293 235.809 192.571 236.3C192.859 236.78 193.003 237.324 193.003 237.932V243.5H191.803V238.396C191.803 237.873 191.707 237.431 191.515 237.068C191.333 236.705 191.072 236.428 190.731 236.236C190.4 236.033 190.016 235.932 189.579 235.932C189.141 235.932 188.752 236.033 188.411 236.236C188.069 236.428 187.803 236.711 187.611 237.084C187.419 237.447 187.323 237.884 187.323 238.396V243.5H186.123ZM198.271 243.692C197.449 243.692 196.729 243.484 196.111 243.068C195.492 242.652 195.044 242.087 194.767 241.372L195.775 240.892C196.02 241.415 196.361 241.831 196.799 242.14C197.247 242.449 197.737 242.604 198.271 242.604C198.783 242.604 199.215 242.481 199.567 242.236C199.919 241.98 200.095 241.649 200.095 241.244C200.095 240.945 200.009 240.711 199.839 240.54C199.668 240.359 199.471 240.22 199.247 240.124C199.023 240.028 198.825 239.959 198.655 239.916L197.423 239.564C196.633 239.34 196.063 239.025 195.711 238.62C195.359 238.215 195.183 237.745 195.183 237.212C195.183 236.711 195.311 236.273 195.567 235.9C195.823 235.527 196.169 235.239 196.607 235.036C197.044 234.833 197.529 234.732 198.062 234.732C198.788 234.732 199.444 234.924 200.031 235.308C200.628 235.681 201.049 236.204 201.295 236.876L200.271 237.356C200.057 236.876 199.748 236.503 199.343 236.236C198.948 235.959 198.505 235.82 198.015 235.82C197.535 235.82 197.151 235.943 196.863 236.188C196.575 236.433 196.431 236.743 196.431 237.116C196.431 237.404 196.505 237.633 196.655 237.804C196.804 237.975 196.975 238.103 197.167 238.188C197.369 238.273 197.545 238.337 197.695 238.38L199.119 238.796C199.812 238.999 200.351 239.313 200.735 239.74C201.129 240.167 201.327 240.668 201.327 241.244C201.327 241.713 201.193 242.135 200.927 242.508C200.671 242.881 200.313 243.175 199.855 243.388C199.396 243.591 198.868 243.692 198.271 243.692ZM206.715 243.596C205.947 243.596 205.355 243.372 204.939 242.924C204.523 242.476 204.315 241.836 204.315 241.004V236.124H202.731V234.924H203.131C203.494 234.924 203.782 234.807 203.995 234.572C204.208 234.327 204.315 234.023 204.315 233.66V232.94H205.515V234.924H207.403V236.124H205.515V241.004C205.515 241.292 205.558 241.548 205.643 241.772C205.728 241.985 205.872 242.156 206.075 242.284C206.288 242.412 206.571 242.476 206.923 242.476C207.008 242.476 207.11 242.471 207.227 242.46C207.344 242.449 207.446 242.439 207.531 242.428V243.5C207.403 243.532 207.259 243.553 207.099 243.564C206.939 243.585 206.811 243.596 206.715 243.596ZM211.962 243.692C211.418 243.692 210.933 243.591 210.506 243.388C210.079 243.175 209.743 242.887 209.498 242.524C209.253 242.161 209.13 241.745 209.13 241.276C209.13 240.828 209.226 240.423 209.418 240.06C209.61 239.687 209.909 239.372 210.314 239.116C210.719 238.86 211.237 238.679 211.866 238.572L215.226 238.012V239.1L212.154 239.612C211.535 239.719 211.087 239.916 210.81 240.204C210.543 240.492 210.41 240.833 210.41 241.228C210.41 241.612 210.559 241.937 210.858 242.204C211.167 242.471 211.562 242.604 212.042 242.604C212.629 242.604 213.141 242.481 213.578 242.236C214.015 241.98 214.357 241.639 214.602 241.212C214.847 240.785 214.97 240.311 214.97 239.788V237.612C214.97 237.1 214.783 236.684 214.41 236.364C214.037 236.044 213.551 235.884 212.954 235.884C212.431 235.884 211.973 236.017 211.578 236.284C211.183 236.54 210.89 236.876 210.698 237.292L209.61 236.7C209.77 236.337 210.021 236.007 210.362 235.708C210.714 235.409 211.114 235.175 211.562 235.004C212.01 234.823 212.474 234.732 212.954 234.732C213.583 234.732 214.138 234.855 214.618 235.1C215.109 235.345 215.487 235.687 215.754 236.124C216.031 236.551 216.17 237.047 216.17 237.612V243.5H214.97V241.788L215.146 241.964C214.997 242.284 214.762 242.577 214.442 242.844C214.133 243.1 213.765 243.308 213.338 243.468C212.922 243.617 212.463 243.692 211.962 243.692ZM218.638 243.5V234.924H219.838V236.588L219.566 236.524C219.78 235.969 220.126 235.532 220.606 235.212C221.097 234.892 221.662 234.732 222.302 234.732C222.91 234.732 223.454 234.871 223.934 235.148C224.425 235.425 224.809 235.809 225.086 236.3C225.374 236.78 225.518 237.324 225.518 237.932V243.5H224.318V238.396C224.318 237.873 224.222 237.431 224.03 237.068C223.849 236.705 223.588 236.428 223.246 236.236C222.916 236.033 222.532 235.932 222.094 235.932C221.657 235.932 221.268 236.033 220.926 236.236C220.585 236.428 220.318 236.711 220.126 237.084C219.934 237.447 219.838 237.884 219.838 238.396V243.5H218.638ZM231.09 243.596C230.322 243.596 229.73 243.372 229.314 242.924C228.898 242.476 228.69 241.836 228.69 241.004V236.124H227.106V234.924H227.506C227.869 234.924 228.157 234.807 228.37 234.572C228.583 234.327 228.69 234.023 228.69 233.66V232.94H229.89V234.924H231.778V236.124H229.89V241.004C229.89 241.292 229.933 241.548 230.018 241.772C230.103 241.985 230.247 242.156 230.45 242.284C230.663 242.412 230.946 242.476 231.298 242.476C231.383 242.476 231.485 242.471 231.602 242.46C231.719 242.449 231.821 242.439 231.906 242.428V243.5C231.778 243.532 231.634 243.553 231.474 243.564C231.314 243.585 231.186 243.596 231.09 243.596ZM234.013 243.5V231.388H235.213V243.5H234.013ZM237.846 247.02C237.675 247.02 237.499 247.004 237.318 246.972C237.147 246.951 236.976 246.908 236.806 246.844V245.724C236.912 245.735 237.046 245.751 237.206 245.772C237.376 245.804 237.547 245.82 237.718 245.82C238.24 245.82 238.64 245.708 238.918 245.484C239.195 245.271 239.467 244.855 239.734 244.236L240.278 242.956L240.246 244.012L236.614 234.924H237.91L240.886 242.428H240.549L243.51 234.924H244.838L240.918 244.588C240.747 245.004 240.528 245.399 240.262 245.772C240.006 246.145 239.68 246.444 239.286 246.668C238.891 246.903 238.411 247.02 237.846 247.02ZM251.446 243.692C250.902 243.692 250.417 243.591 249.99 243.388C249.564 243.175 249.228 242.887 248.982 242.524C248.737 242.161 248.614 241.745 248.614 241.276C248.614 240.828 248.71 240.423 248.902 240.06C249.094 239.687 249.393 239.372 249.798 239.116C250.204 238.86 250.721 238.679 251.35 238.572L254.71 238.012V239.1L251.638 239.612C251.02 239.719 250.572 239.916 250.294 240.204C250.028 240.492 249.894 240.833 249.894 241.228C249.894 241.612 250.044 241.937 250.342 242.204C250.652 242.471 251.046 242.604 251.526 242.604C252.113 242.604 252.625 242.481 253.062 242.236C253.5 241.98 253.841 241.639 254.086 241.212C254.332 240.785 254.454 240.311 254.454 239.788V237.612C254.454 237.1 254.268 236.684 253.894 236.364C253.521 236.044 253.036 235.884 252.438 235.884C251.916 235.884 251.457 236.017 251.062 236.284C250.668 236.54 250.374 236.876 250.182 237.292L249.094 236.7C249.254 236.337 249.505 236.007 249.846 235.708C250.198 235.409 250.598 235.175 251.046 235.004C251.494 234.823 251.958 234.732 252.438 234.732C253.068 234.732 253.622 234.855 254.102 235.1C254.593 235.345 254.972 235.687 255.238 236.124C255.516 236.551 255.654 237.047 255.654 237.612V243.5H254.454V241.788L254.63 241.964C254.481 242.284 254.246 242.577 253.926 242.844C253.617 243.1 253.249 243.308 252.822 243.468C252.406 243.617 251.948 243.692 251.446 243.692ZM258.123 243.5V234.924H259.323V236.588L259.051 236.524C259.264 235.969 259.611 235.532 260.091 235.212C260.581 234.892 261.147 234.732 261.787 234.732C262.395 234.732 262.939 234.871 263.419 235.148C263.909 235.425 264.293 235.809 264.571 236.3C264.859 236.78 265.003 237.324 265.003 237.932V243.5H263.803V238.396C263.803 237.873 263.707 237.431 263.515 237.068C263.333 236.705 263.072 236.428 262.731 236.236C262.4 236.033 262.016 235.932 261.579 235.932C261.141 235.932 260.752 236.033 260.411 236.236C260.069 236.428 259.803 236.711 259.611 237.084C259.419 237.447 259.323 237.884 259.323 238.396V243.5H258.123ZM271.167 243.692C270.367 243.692 269.647 243.5 269.007 243.116C268.367 242.721 267.86 242.188 267.487 241.516C267.124 240.833 266.943 240.065 266.943 239.212C266.943 238.348 267.124 237.58 267.487 236.908C267.86 236.236 268.361 235.708 268.991 235.324C269.631 234.929 270.356 234.732 271.167 234.732C271.903 234.732 272.559 234.892 273.135 235.212C273.711 235.532 274.164 235.964 274.495 236.508L274.303 236.844V231.388H275.503V243.5H274.303V241.58L274.495 241.756C274.196 242.375 273.748 242.855 273.151 243.196C272.564 243.527 271.903 243.692 271.167 243.692ZM271.231 242.492C271.807 242.492 272.324 242.348 272.783 242.06C273.252 241.772 273.62 241.383 273.887 240.892C274.164 240.391 274.303 239.831 274.303 239.212C274.303 238.593 274.164 238.039 273.887 237.548C273.62 237.047 273.252 236.652 272.783 236.364C272.324 236.076 271.807 235.932 271.231 235.932C270.665 235.932 270.153 236.076 269.695 236.364C269.236 236.652 268.873 237.041 268.607 237.532C268.351 238.023 268.223 238.583 268.223 239.212C268.223 239.831 268.351 240.391 268.607 240.892C268.873 241.383 269.231 241.772 269.679 242.06C270.137 242.348 270.655 242.492 271.231 242.492ZM74.2526 263.5V256.124H72.5406V254.924H74.2526V254.156C74.2526 253.559 74.386 253.057 74.6526 252.652C74.9193 252.236 75.2713 251.921 75.7086 251.708C76.146 251.495 76.6153 251.388 77.1166 251.388C77.2233 251.388 77.346 251.399 77.4846 251.42C77.6233 251.431 77.7353 251.447 77.8206 251.468V252.556C77.746 252.535 77.6446 252.524 77.5166 252.524C77.3886 252.513 77.298 252.508 77.2446 252.508C76.7326 252.508 76.306 252.631 75.9646 252.876C75.6233 253.121 75.4526 253.548 75.4526 254.156V254.924H80.2686V256.124H75.4526V263.5H74.2526ZM79.2606 263.5V254.924H80.4606V263.5H79.2606ZM82.6851 263.5V254.924H83.8851V256.588L83.6131 256.524C83.8265 255.969 84.1731 255.532 84.6531 255.212C85.1438 254.892 85.7091 254.732 86.3491 254.732C86.9571 254.732 87.5011 254.871 87.9811 255.148C88.4718 255.425 88.8558 255.809 89.1331 256.3C89.4211 256.78 89.5651 257.324 89.5651 257.932V263.5H88.3651V258.396C88.3651 257.873 88.2691 257.431 88.0771 257.068C87.8958 256.705 87.6345 256.428 87.2931 256.236C86.9625 256.033 86.5785 255.932 86.1411 255.932C85.7038 255.932 85.3145 256.033 84.9731 256.236C84.6318 256.428 84.3651 256.711 84.1731 257.084C83.9811 257.447 83.8851 257.884 83.8851 258.396V263.5H82.6851ZM95.729 263.692C94.929 263.692 94.209 263.5 93.569 263.116C92.929 262.721 92.4223 262.188 92.049 261.516C91.6863 260.833 91.505 260.065 91.505 259.212C91.505 258.348 91.6863 257.58 92.049 256.908C92.4223 256.236 92.9237 255.708 93.553 255.324C94.193 254.929 94.9183 254.732 95.729 254.732C96.465 254.732 97.121 254.892 97.697 255.212C98.273 255.532 98.7263 255.964 99.057 256.508L98.865 256.844V251.388H100.065V263.5H98.865V261.58L99.057 261.756C98.7583 262.375 98.3103 262.855 97.713 263.196C97.1263 263.527 96.465 263.692 95.729 263.692ZM95.793 262.492C96.369 262.492 96.8863 262.348 97.345 262.06C97.8143 261.772 98.1823 261.383 98.449 260.892C98.7263 260.391 98.865 259.831 98.865 259.212C98.865 258.593 98.7263 258.039 98.449 257.548C98.1823 257.047 97.8143 256.652 97.345 256.364C96.8863 256.076 96.369 255.932 95.793 255.932C95.2277 255.932 94.7157 256.076 94.257 256.364C93.7983 256.652 93.4357 257.041 93.169 257.532C92.913 258.023 92.785 258.583 92.785 259.212C92.785 259.831 92.913 260.391 93.169 260.892C93.4357 261.383 93.793 261.772 94.241 262.06C94.6997 262.348 95.217 262.492 95.793 262.492ZM109.168 263.692C108.325 263.692 107.584 263.495 106.944 263.1C106.304 262.705 105.802 262.172 105.44 261.5C105.077 260.817 104.896 260.049 104.896 259.196C104.896 258.343 105.077 257.58 105.44 256.908C105.802 256.236 106.304 255.708 106.944 255.324C107.584 254.929 108.325 254.732 109.168 254.732C109.701 254.732 110.202 254.828 110.672 255.02C111.141 255.212 111.557 255.473 111.92 255.804C112.282 256.124 112.554 256.497 112.736 256.924L111.648 257.484C111.434 257.025 111.109 256.652 110.672 256.364C110.234 256.076 109.733 255.932 109.168 255.932C108.602 255.932 108.09 256.076 107.632 256.364C107.184 256.641 106.826 257.031 106.56 257.532C106.304 258.023 106.176 258.583 106.176 259.212C106.176 259.831 106.304 260.391 106.56 260.892C106.826 261.383 107.184 261.772 107.632 262.06C108.09 262.348 108.602 262.492 109.168 262.492C109.733 262.492 110.229 262.348 110.656 262.06C111.093 261.772 111.424 261.388 111.648 260.908L112.736 261.5C112.554 261.916 112.282 262.289 111.92 262.62C111.557 262.951 111.141 263.212 110.672 263.404C110.202 263.596 109.701 263.692 109.168 263.692ZM118.857 263.692C118.047 263.692 117.311 263.5 116.649 263.116C115.988 262.721 115.46 262.188 115.065 261.516C114.681 260.833 114.489 260.06 114.489 259.196C114.489 258.343 114.681 257.58 115.065 256.908C115.449 256.236 115.967 255.708 116.617 255.324C117.279 254.929 118.025 254.732 118.857 254.732C119.689 254.732 120.431 254.924 121.081 255.308C121.743 255.692 122.26 256.22 122.633 256.892C123.017 257.564 123.209 258.332 123.209 259.196C123.209 260.071 123.012 260.849 122.617 261.532C122.223 262.204 121.695 262.732 121.033 263.116C120.383 263.5 119.657 263.692 118.857 263.692ZM118.857 262.492C119.433 262.492 119.951 262.348 120.409 262.06C120.879 261.772 121.247 261.377 121.513 260.876C121.791 260.375 121.929 259.815 121.929 259.196C121.929 258.577 121.791 258.023 121.513 257.532C121.247 257.041 120.879 256.652 120.409 256.364C119.951 256.076 119.433 255.932 118.857 255.932C118.281 255.932 117.759 256.076 117.289 256.364C116.831 256.652 116.463 257.041 116.185 257.532C115.908 258.023 115.769 258.577 115.769 259.196C115.769 259.815 115.908 260.375 116.185 260.876C116.463 261.377 116.831 261.772 117.289 262.06C117.759 262.348 118.281 262.492 118.857 262.492ZM125.326 263.5V254.924H126.526V256.556L126.334 256.316C126.568 255.815 126.915 255.425 127.374 255.148C127.843 254.871 128.355 254.732 128.91 254.732C129.571 254.732 130.168 254.919 130.702 255.292C131.235 255.665 131.614 256.151 131.838 256.748L131.502 256.764C131.715 256.103 132.083 255.601 132.606 255.26C133.139 254.908 133.726 254.732 134.366 254.732C134.942 254.732 135.47 254.871 135.95 255.148C136.44 255.425 136.83 255.809 137.118 256.3C137.416 256.78 137.566 257.324 137.566 257.932V263.5H136.366V258.396C136.366 257.873 136.27 257.431 136.078 257.068C135.896 256.705 135.646 256.428 135.326 256.236C135.006 256.033 134.638 255.932 134.222 255.932C133.816 255.932 133.448 256.033 133.118 256.236C132.787 256.428 132.526 256.711 132.334 257.084C132.142 257.447 132.046 257.884 132.046 258.396V263.5H130.846V258.396C130.846 257.873 130.75 257.431 130.558 257.068C130.376 256.705 130.126 256.428 129.806 256.236C129.486 256.033 129.118 255.932 128.702 255.932C128.286 255.932 127.912 256.033 127.582 256.236C127.262 256.428 127.006 256.711 126.814 257.084C126.622 257.447 126.526 257.884 126.526 258.396V263.5H125.326ZM139.857 266.7V254.924H141.057V256.844L140.865 256.508C141.206 255.964 141.66 255.532 142.225 255.212C142.801 254.892 143.457 254.732 144.193 254.732C145.004 254.732 145.724 254.929 146.353 255.324C146.993 255.708 147.494 256.236 147.857 256.908C148.23 257.58 148.417 258.348 148.417 259.212C148.417 260.065 148.23 260.833 147.857 261.516C147.494 262.188 146.993 262.721 146.353 263.116C145.724 263.5 145.004 263.692 144.193 263.692C143.457 263.692 142.79 263.527 142.193 263.196C141.606 262.855 141.164 262.375 140.865 261.756L141.057 261.58V266.7H139.857ZM144.129 262.492C144.705 262.492 145.217 262.348 145.665 262.06C146.124 261.772 146.481 261.383 146.737 260.892C147.004 260.391 147.137 259.831 147.137 259.212C147.137 258.583 147.004 258.023 146.737 257.532C146.481 257.041 146.124 256.652 145.665 256.364C145.217 256.076 144.705 255.932 144.129 255.932C143.553 255.932 143.03 256.076 142.561 256.364C142.102 256.652 141.734 257.047 141.457 257.548C141.19 258.039 141.057 258.593 141.057 259.212C141.057 259.831 141.19 260.391 141.457 260.892C141.734 261.383 142.102 261.772 142.561 262.06C143.03 262.348 143.553 262.492 144.129 262.492ZM153.009 263.692C152.465 263.692 151.98 263.591 151.553 263.388C151.126 263.175 150.79 262.887 150.545 262.524C150.3 262.161 150.177 261.745 150.177 261.276C150.177 260.828 150.273 260.423 150.465 260.06C150.657 259.687 150.956 259.372 151.361 259.116C151.766 258.86 152.284 258.679 152.913 258.572L156.273 258.012V259.1L153.201 259.612C152.582 259.719 152.134 259.916 151.857 260.204C151.59 260.492 151.457 260.833 151.457 261.228C151.457 261.612 151.606 261.937 151.905 262.204C152.214 262.471 152.609 262.604 153.089 262.604C153.676 262.604 154.188 262.481 154.625 262.236C155.062 261.98 155.404 261.639 155.649 261.212C155.894 260.785 156.017 260.311 156.017 259.788V257.612C156.017 257.1 155.83 256.684 155.457 256.364C155.084 256.044 154.598 255.884 154.001 255.884C153.478 255.884 153.02 256.017 152.625 256.284C152.23 256.54 151.937 256.876 151.745 257.292L150.657 256.7C150.817 256.337 151.068 256.007 151.409 255.708C151.761 255.409 152.161 255.175 152.609 255.004C153.057 254.823 153.521 254.732 154.001 254.732C154.63 254.732 155.185 254.855 155.665 255.1C156.156 255.345 156.534 255.687 156.801 256.124C157.078 256.551 157.217 257.047 157.217 257.612V263.5H156.017V261.788L156.193 261.964C156.044 262.284 155.809 262.577 155.489 262.844C155.18 263.1 154.812 263.308 154.385 263.468C153.969 263.617 153.51 263.692 153.009 263.692ZM159.685 263.5V254.924H160.885V256.588L160.613 256.524C160.826 255.969 161.173 255.532 161.653 255.212C162.144 254.892 162.709 254.732 163.349 254.732C163.957 254.732 164.501 254.871 164.981 255.148C165.472 255.425 165.856 255.809 166.133 256.3C166.421 256.78 166.565 257.324 166.565 257.932V263.5H165.365V258.396C165.365 257.873 165.269 257.431 165.077 257.068C164.896 256.705 164.634 256.428 164.293 256.236C163.962 256.033 163.578 255.932 163.141 255.932C162.704 255.932 162.314 256.033 161.973 256.236C161.632 256.428 161.365 256.711 161.173 257.084C160.981 257.447 160.885 257.884 160.885 258.396V263.5H159.685ZM168.857 263.5V254.924H170.057V263.5H168.857ZM168.857 253.34V251.58H170.057V253.34H168.857ZM176.529 263.692C175.719 263.692 174.983 263.5 174.321 263.116C173.66 262.721 173.132 262.188 172.737 261.516C172.353 260.833 172.161 260.06 172.161 259.196C172.161 258.343 172.353 257.58 172.737 256.908C173.121 256.236 173.639 255.708 174.289 255.324C174.951 254.929 175.697 254.732 176.529 254.732C177.361 254.732 178.103 254.924 178.753 255.308C179.415 255.692 179.932 256.22 180.305 256.892C180.689 257.564 180.881 258.332 180.881 259.196C180.881 260.071 180.684 260.849 180.289 261.532C179.895 262.204 179.367 262.732 178.705 263.116C178.055 263.5 177.329 263.692 176.529 263.692ZM176.529 262.492C177.105 262.492 177.623 262.348 178.081 262.06C178.551 261.772 178.919 261.377 179.185 260.876C179.463 260.375 179.601 259.815 179.601 259.196C179.601 258.577 179.463 258.023 179.185 257.532C178.919 257.041 178.551 256.652 178.081 256.364C177.623 256.076 177.105 255.932 176.529 255.932C175.953 255.932 175.431 256.076 174.961 256.364C174.503 256.652 174.135 257.041 173.857 257.532C173.58 258.023 173.441 258.577 173.441 259.196C173.441 259.815 173.58 260.375 173.857 260.876C174.135 261.377 174.503 261.772 174.961 262.06C175.431 262.348 175.953 262.492 176.529 262.492ZM182.998 263.5V254.924H184.198V256.588L183.926 256.524C184.139 255.969 184.486 255.532 184.966 255.212C185.456 254.892 186.022 254.732 186.662 254.732C187.27 254.732 187.814 254.871 188.294 255.148C188.784 255.425 189.168 255.809 189.446 256.3C189.734 256.78 189.878 257.324 189.878 257.932V263.5H188.678V258.396C188.678 257.873 188.582 257.431 188.39 257.068C188.208 256.705 187.947 256.428 187.606 256.236C187.275 256.033 186.891 255.932 186.454 255.932C186.016 255.932 185.627 256.033 185.286 256.236C184.944 256.428 184.678 256.711 184.486 257.084C184.294 257.447 184.198 257.884 184.198 258.396V263.5H182.998ZM195.146 263.692C194.324 263.692 193.604 263.484 192.986 263.068C192.367 262.652 191.919 262.087 191.642 261.372L192.65 260.892C192.895 261.415 193.236 261.831 193.674 262.14C194.122 262.449 194.612 262.604 195.146 262.604C195.658 262.604 196.09 262.481 196.442 262.236C196.794 261.98 196.97 261.649 196.97 261.244C196.97 260.945 196.884 260.711 196.714 260.54C196.543 260.359 196.346 260.22 196.122 260.124C195.898 260.028 195.7 259.959 195.53 259.916L194.298 259.564C193.508 259.34 192.938 259.025 192.586 258.62C192.234 258.215 192.058 257.745 192.058 257.212C192.058 256.711 192.186 256.273 192.442 255.9C192.698 255.527 193.044 255.239 193.482 255.036C193.919 254.833 194.404 254.732 194.938 254.732C195.663 254.732 196.319 254.924 196.906 255.308C197.503 255.681 197.924 256.204 198.17 256.876L197.146 257.356C196.932 256.876 196.623 256.503 196.218 256.236C195.823 255.959 195.38 255.82 194.89 255.82C194.41 255.82 194.026 255.943 193.738 256.188C193.45 256.433 193.306 256.743 193.306 257.116C193.306 257.404 193.38 257.633 193.53 257.804C193.679 257.975 193.85 258.103 194.042 258.188C194.244 258.273 194.42 258.337 194.57 258.38L195.994 258.796C196.687 258.999 197.226 259.313 197.61 259.74C198.004 260.167 198.202 260.668 198.202 261.244C198.202 261.713 198.068 262.135 197.802 262.508C197.546 262.881 197.188 263.175 196.73 263.388C196.271 263.591 195.743 263.692 195.146 263.692ZM203.029 263.5V254.924H204.229V256.588L203.957 256.524C204.17 255.969 204.517 255.532 204.997 255.212C205.488 254.892 206.053 254.732 206.693 254.732C207.301 254.732 207.845 254.871 208.325 255.148C208.816 255.425 209.2 255.809 209.477 256.3C209.765 256.78 209.909 257.324 209.909 257.932V263.5H208.709V258.396C208.709 257.873 208.613 257.431 208.421 257.068C208.24 256.705 207.978 256.428 207.637 256.236C207.306 256.033 206.922 255.932 206.485 255.932C206.048 255.932 205.658 256.033 205.317 256.236C204.976 256.428 204.709 256.711 204.517 257.084C204.325 257.447 204.229 257.884 204.229 258.396V263.5H203.029ZM216.105 263.692C215.305 263.692 214.579 263.5 213.929 263.116C213.289 262.721 212.782 262.183 212.409 261.5C212.035 260.817 211.849 260.044 211.849 259.18C211.849 258.316 212.03 257.553 212.393 256.892C212.755 256.22 213.246 255.692 213.865 255.308C214.494 254.924 215.198 254.732 215.977 254.732C216.595 254.732 217.145 254.849 217.625 255.084C218.115 255.308 218.531 255.617 218.873 256.012C219.214 256.396 219.475 256.833 219.657 257.324C219.838 257.804 219.929 258.3 219.929 258.812C219.929 258.919 219.923 259.041 219.913 259.18C219.902 259.308 219.886 259.441 219.865 259.58H212.617V258.46H219.177L218.601 258.94C218.697 258.353 218.627 257.831 218.393 257.372C218.169 256.903 217.843 256.535 217.417 256.268C216.99 255.991 216.51 255.852 215.977 255.852C215.443 255.852 214.947 255.991 214.489 256.268C214.041 256.545 213.689 256.935 213.433 257.436C213.177 257.927 213.075 258.513 213.129 259.196C213.075 259.879 213.182 260.476 213.449 260.988C213.726 261.489 214.099 261.879 214.569 262.156C215.049 262.433 215.561 262.572 216.105 262.572C216.734 262.572 217.262 262.423 217.689 262.124C218.115 261.825 218.462 261.452 218.729 261.004L219.753 261.548C219.582 261.932 219.321 262.289 218.969 262.62C218.617 262.94 218.195 263.201 217.705 263.404C217.225 263.596 216.691 263.692 216.105 263.692ZM224.368 263.692C223.824 263.692 223.339 263.591 222.912 263.388C222.486 263.175 222.15 262.887 221.904 262.524C221.659 262.161 221.536 261.745 221.536 261.276C221.536 260.828 221.632 260.423 221.824 260.06C222.016 259.687 222.315 259.372 222.72 259.116C223.126 258.86 223.643 258.679 224.272 258.572L227.632 258.012V259.1L224.56 259.612C223.942 259.719 223.494 259.916 223.216 260.204C222.95 260.492 222.816 260.833 222.816 261.228C222.816 261.612 222.966 261.937 223.264 262.204C223.574 262.471 223.968 262.604 224.448 262.604C225.035 262.604 225.547 262.481 225.984 262.236C226.422 261.98 226.763 261.639 227.008 261.212C227.254 260.785 227.376 260.311 227.376 259.788V257.612C227.376 257.1 227.19 256.684 226.816 256.364C226.443 256.044 225.958 255.884 225.36 255.884C224.838 255.884 224.379 256.017 223.984 256.284C223.59 256.54 223.296 256.876 223.104 257.292L222.016 256.7C222.176 256.337 222.427 256.007 222.768 255.708C223.12 255.409 223.52 255.175 223.968 255.004C224.416 254.823 224.88 254.732 225.36 254.732C225.99 254.732 226.544 254.855 227.024 255.1C227.515 255.345 227.894 255.687 228.16 256.124C228.438 256.551 228.576 257.047 228.576 257.612V263.5H227.376V261.788L227.552 261.964C227.403 262.284 227.168 262.577 226.848 262.844C226.539 263.1 226.171 263.308 225.744 263.468C225.328 263.617 224.87 263.692 224.368 263.692ZM231.045 263.5V254.924H232.245V256.332L232.085 256.124C232.287 255.719 232.591 255.399 232.997 255.164C233.413 254.929 233.914 254.812 234.501 254.812H235.045V256.012H234.293C233.674 256.012 233.178 256.204 232.805 256.588C232.431 256.972 232.245 257.516 232.245 258.22V263.5H231.045ZM240.787 263.692C240.051 263.692 239.384 263.527 238.787 263.196C238.2 262.855 237.757 262.375 237.459 261.756L237.651 261.58V263.5H236.451V251.388H237.651V256.844L237.459 256.508C237.8 255.964 238.253 255.532 238.819 255.212C239.395 254.892 240.051 254.732 240.787 254.732C241.597 254.732 242.317 254.929 242.947 255.324C243.587 255.708 244.088 256.236 244.451 256.908C244.824 257.58 245.011 258.348 245.011 259.212C245.011 260.065 244.824 260.833 244.451 261.516C244.088 262.188 243.587 262.721 242.947 263.116C242.317 263.5 241.597 263.692 240.787 263.692ZM240.723 262.492C241.299 262.492 241.811 262.348 242.259 262.06C242.717 261.772 243.075 261.383 243.331 260.892C243.597 260.391 243.731 259.831 243.731 259.212C243.731 258.583 243.597 258.023 243.331 257.532C243.075 257.041 242.717 256.652 242.259 256.364C241.811 256.076 241.299 255.932 240.723 255.932C240.147 255.932 239.624 256.076 239.155 256.364C238.696 256.652 238.328 257.047 238.051 257.548C237.784 258.039 237.651 258.593 237.651 259.212C237.651 259.831 237.784 260.391 238.051 260.892C238.328 261.383 238.696 261.772 239.155 262.06C239.624 262.348 240.147 262.492 240.723 262.492ZM247.142 267.02C246.972 267.02 246.796 267.004 246.614 266.972C246.444 266.951 246.273 266.908 246.102 266.844V265.724C246.209 265.735 246.342 265.751 246.502 265.772C246.673 265.804 246.844 265.82 247.014 265.82C247.537 265.82 247.937 265.708 248.214 265.484C248.492 265.271 248.764 264.855 249.03 264.236L249.574 262.956L249.542 264.012L245.91 254.924H247.206L250.182 262.428H249.846L252.806 254.924H254.134L250.214 264.588C250.044 265.004 249.825 265.399 249.558 265.772C249.302 266.145 248.977 266.444 248.582 266.668C248.188 266.903 247.708 267.02 247.142 267.02ZM258.263 263.5V254.924H259.463V263.5H258.263ZM258.263 253.34V251.58H259.463V253.34H258.263ZM261.92 263.5V254.924H263.12V256.588L262.848 256.524C263.061 255.969 263.408 255.532 263.888 255.212C264.378 254.892 264.944 254.732 265.584 254.732C266.192 254.732 266.736 254.871 267.216 255.148C267.706 255.425 268.09 255.809 268.368 256.3C268.656 256.78 268.8 257.324 268.8 257.932V263.5H267.6V258.396C267.6 257.873 267.504 257.431 267.312 257.068C267.13 256.705 266.869 256.428 266.528 256.236C266.197 256.033 265.813 255.932 265.376 255.932C264.938 255.932 264.549 256.033 264.208 256.236C263.866 256.428 263.6 256.711 263.408 257.084C263.216 257.447 263.12 257.884 263.12 258.396V263.5H261.92ZM139.896 283.692C139.074 283.692 138.354 283.484 137.736 283.068C137.117 282.652 136.669 282.087 136.392 281.372L137.4 280.892C137.645 281.415 137.986 281.831 138.424 282.14C138.872 282.449 139.362 282.604 139.896 282.604C140.408 282.604 140.84 282.481 141.192 282.236C141.544 281.98 141.72 281.649 141.72 281.244C141.72 280.945 141.634 280.711 141.464 280.54C141.293 280.359 141.096 280.22 140.872 280.124C140.648 280.028 140.45 279.959 140.28 279.916L139.048 279.564C138.258 279.34 137.688 279.025 137.336 278.62C136.984 278.215 136.808 277.745 136.808 277.212C136.808 276.711 136.936 276.273 137.192 275.9C137.448 275.527 137.794 275.239 138.232 275.036C138.669 274.833 139.154 274.732 139.688 274.732C140.413 274.732 141.069 274.924 141.656 275.308C142.253 275.681 142.674 276.204 142.92 276.876L141.896 277.356C141.682 276.876 141.373 276.503 140.968 276.236C140.573 275.959 140.13 275.82 139.64 275.82C139.16 275.82 138.776 275.943 138.488 276.188C138.2 276.433 138.056 276.743 138.056 277.116C138.056 277.404 138.13 277.633 138.28 277.804C138.429 277.975 138.6 278.103 138.792 278.188C138.994 278.273 139.17 278.337 139.32 278.38L140.744 278.796C141.437 278.999 141.976 279.313 142.36 279.74C142.754 280.167 142.952 280.668 142.952 281.244C142.952 281.713 142.818 282.135 142.552 282.508C142.296 282.881 141.938 283.175 141.48 283.388C141.021 283.591 140.493 283.692 139.896 283.692ZM148.964 283.692C148.164 283.692 147.439 283.5 146.788 283.116C146.148 282.721 145.641 282.183 145.268 281.5C144.895 280.817 144.708 280.044 144.708 279.18C144.708 278.316 144.889 277.553 145.252 276.892C145.615 276.22 146.105 275.692 146.724 275.308C147.353 274.924 148.057 274.732 148.836 274.732C149.455 274.732 150.004 274.849 150.484 275.084C150.975 275.308 151.391 275.617 151.732 276.012C152.073 276.396 152.335 276.833 152.516 277.324C152.697 277.804 152.788 278.3 152.788 278.812C152.788 278.919 152.783 279.041 152.772 279.18C152.761 279.308 152.745 279.441 152.724 279.58H145.476V278.46H152.036L151.46 278.94C151.556 278.353 151.487 277.831 151.252 277.372C151.028 276.903 150.703 276.535 150.276 276.268C149.849 275.991 149.369 275.852 148.836 275.852C148.303 275.852 147.807 275.991 147.348 276.268C146.9 276.545 146.548 276.935 146.292 277.436C146.036 277.927 145.935 278.513 145.988 279.196C145.935 279.879 146.041 280.476 146.308 280.988C146.585 281.489 146.959 281.879 147.428 282.156C147.908 282.433 148.42 282.572 148.964 282.572C149.593 282.572 150.121 282.423 150.548 282.124C150.975 281.825 151.321 281.452 151.588 281.004L152.612 281.548C152.441 281.932 152.18 282.289 151.828 282.62C151.476 282.94 151.055 283.201 150.564 283.404C150.084 283.596 149.551 283.692 148.964 283.692ZM158.824 283.692C157.981 283.692 157.24 283.495 156.6 283.1C155.96 282.705 155.459 282.172 155.096 281.5C154.733 280.817 154.552 280.049 154.552 279.196C154.552 278.343 154.733 277.58 155.096 276.908C155.459 276.236 155.96 275.708 156.6 275.324C157.24 274.929 157.981 274.732 158.824 274.732C159.357 274.732 159.859 274.828 160.328 275.02C160.797 275.212 161.213 275.473 161.576 275.804C161.939 276.124 162.211 276.497 162.392 276.924L161.304 277.484C161.091 277.025 160.765 276.652 160.328 276.364C159.891 276.076 159.389 275.932 158.824 275.932C158.259 275.932 157.747 276.076 157.288 276.364C156.84 276.641 156.483 277.031 156.216 277.532C155.96 278.023 155.832 278.583 155.832 279.212C155.832 279.831 155.96 280.391 156.216 280.892C156.483 281.383 156.84 281.772 157.288 282.06C157.747 282.348 158.259 282.492 158.824 282.492C159.389 282.492 159.885 282.348 160.312 282.06C160.749 281.772 161.08 281.388 161.304 280.908L162.392 281.5C162.211 281.916 161.939 282.289 161.576 282.62C161.213 282.951 160.797 283.212 160.328 283.404C159.859 283.596 159.357 283.692 158.824 283.692ZM168.514 283.692C167.703 283.692 166.967 283.5 166.306 283.116C165.644 282.721 165.116 282.188 164.722 281.516C164.338 280.833 164.146 280.06 164.146 279.196C164.146 278.343 164.338 277.58 164.722 276.908C165.106 276.236 165.623 275.708 166.274 275.324C166.935 274.929 167.682 274.732 168.514 274.732C169.346 274.732 170.087 274.924 170.738 275.308C171.399 275.692 171.916 276.22 172.29 276.892C172.674 277.564 172.866 278.332 172.866 279.196C172.866 280.071 172.668 280.849 172.274 281.532C171.879 282.204 171.351 282.732 170.69 283.116C170.039 283.5 169.314 283.692 168.514 283.692ZM168.514 282.492C169.09 282.492 169.607 282.348 170.066 282.06C170.535 281.772 170.903 281.377 171.17 280.876C171.447 280.375 171.586 279.815 171.586 279.196C171.586 278.577 171.447 278.023 171.17 277.532C170.903 277.041 170.535 276.652 170.066 276.364C169.607 276.076 169.09 275.932 168.514 275.932C167.938 275.932 167.415 276.076 166.946 276.364C166.487 276.652 166.119 277.041 165.842 277.532C165.564 278.023 165.426 278.577 165.426 279.196C165.426 279.815 165.564 280.375 165.842 280.876C166.119 281.377 166.487 281.772 166.946 282.06C167.415 282.348 167.938 282.492 168.514 282.492ZM174.982 283.5V274.924H176.182V276.588L175.91 276.524C176.123 275.969 176.47 275.532 176.95 275.212C177.441 274.892 178.006 274.732 178.646 274.732C179.254 274.732 179.798 274.871 180.278 275.148C180.769 275.425 181.153 275.809 181.43 276.3C181.718 276.78 181.862 277.324 181.862 277.932V283.5H180.662V278.396C180.662 277.873 180.566 277.431 180.374 277.068C180.193 276.705 179.931 276.428 179.59 276.236C179.259 276.033 178.875 275.932 178.438 275.932C178.001 275.932 177.611 276.033 177.27 276.236C176.929 276.428 176.662 276.711 176.47 277.084C176.278 277.447 176.182 277.884 176.182 278.396V283.5H174.982ZM188.026 283.692C187.226 283.692 186.506 283.5 185.866 283.116C185.226 282.721 184.719 282.188 184.346 281.516C183.983 280.833 183.802 280.065 183.802 279.212C183.802 278.348 183.983 277.58 184.346 276.908C184.719 276.236 185.221 275.708 185.85 275.324C186.49 274.929 187.215 274.732 188.026 274.732C188.762 274.732 189.418 274.892 189.994 275.212C190.57 275.532 191.023 275.964 191.354 276.508L191.162 276.844V271.388H192.362V283.5H191.162V281.58L191.354 281.756C191.055 282.375 190.607 282.855 190.01 283.196C189.423 283.527 188.762 283.692 188.026 283.692ZM188.09 282.492C188.666 282.492 189.183 282.348 189.642 282.06C190.111 281.772 190.479 281.383 190.746 280.892C191.023 280.391 191.162 279.831 191.162 279.212C191.162 278.593 191.023 278.039 190.746 277.548C190.479 277.047 190.111 276.652 189.642 276.364C189.183 276.076 188.666 275.932 188.09 275.932C187.525 275.932 187.013 276.076 186.554 276.364C186.095 276.652 185.733 277.041 185.466 277.532C185.21 278.023 185.082 278.583 185.082 279.212C185.082 279.831 185.21 280.391 185.466 280.892C185.733 281.383 186.09 281.772 186.538 282.06C186.997 282.348 187.514 282.492 188.09 282.492ZM197.802 283.692C196.98 283.692 196.26 283.484 195.642 283.068C195.023 282.652 194.575 282.087 194.298 281.372L195.306 280.892C195.551 281.415 195.892 281.831 196.33 282.14C196.778 282.449 197.268 282.604 197.802 282.604C198.314 282.604 198.746 282.481 199.098 282.236C199.45 281.98 199.626 281.649 199.626 281.244C199.626 280.945 199.54 280.711 199.37 280.54C199.199 280.359 199.002 280.22 198.778 280.124C198.554 280.028 198.356 279.959 198.186 279.916L196.954 279.564C196.164 279.34 195.594 279.025 195.242 278.62C194.89 278.215 194.714 277.745 194.714 277.212C194.714 276.711 194.842 276.273 195.098 275.9C195.354 275.527 195.7 275.239 196.138 275.036C196.575 274.833 197.06 274.732 197.594 274.732C198.319 274.732 198.975 274.924 199.562 275.308C200.159 275.681 200.58 276.204 200.826 276.876L199.802 277.356C199.588 276.876 199.279 276.503 198.874 276.236C198.479 275.959 198.036 275.82 197.546 275.82C197.066 275.82 196.682 275.943 196.394 276.188C196.106 276.433 195.962 276.743 195.962 277.116C195.962 277.404 196.036 277.633 196.186 277.804C196.335 277.975 196.506 278.103 196.698 278.188C196.9 278.273 197.076 278.337 197.226 278.38L198.65 278.796C199.343 278.999 199.882 279.313 200.266 279.74C200.66 280.167 200.858 280.668 200.858 281.244C200.858 281.713 200.724 282.135 200.458 282.508C200.202 282.881 199.844 283.175 199.386 283.388C198.927 283.591 198.399 283.692 197.802 283.692ZM203.382 283.5V281.74H204.662V283.5H203.382Z" fill="#1E1E1E"/>
<path d="M37.0659 75.4252C36.6722 75.7659 36.2077 76.0249 35.6744 76.1735C33.8051 76.7004 31.8372 75.667 31.2077 73.8238L13.9977 23.5538L19.4968 72.6735C19.7099 74.5729 18.4245 76.3117 16.544 76.6605C14.6731 77.01 12.8388 75.8519 12.334 74.0081L2.13542 36.3533L5.44474 67.9506C5.63783 69.7959 4.41817 71.4867 2.61057 71.8886C0.798536 72.2855 -1.02627 71.2623 -1.64289 69.5064L-24.7632 3.45001C-25.4261 1.53732 -24.4276 -0.543366 -22.5201 -1.2018C-20.6169 -1.86535 -18.5281 -0.847142 -17.8601 1.06112L-5.08522 37.5591L-9.87527 -8.1583C-10.0745 -10.052 -8.78528 -11.7761 -6.90991 -12.1205C-5.03966 -12.4604 -3.2105 -11.2979 -2.71011 -9.45921L6.9364 26.1423L3.03079 -8.75804C2.82374 -10.6091 4.04477 -12.319 5.86192 -12.7203C7.68349 -13.1164 9.51715 -12.0831 10.1184 -10.3138L15.0539 4.09829L11.6245 -10.7231C11.2004 -12.5563 12.2301 -14.4046 14.0037 -15.0008C15.7774 -15.5969 17.7253 -14.7519 18.5082 -13.0415L36.5708 26.455L29.1845 -5.78113C28.7693 -7.60407 29.7887 -9.44353 31.5579 -10.0448C33.322 -10.6417 35.2618 -9.81639 36.06 -8.11927L60.2601 43.4788C61.1207 45.3099 60.3361 47.4827 58.5057 48.3336C56.6798 49.1897 54.5033 48.3905 53.6428 46.5595L43.9138 25.8141L51.66 59.6439C52.0745 61.4764 51.05 63.3203 49.2719 63.9113C47.4982 64.5075 45.5503 63.6624 44.777 61.9527L26.8841 22.828L38.225 71.8459C38.5441 73.2064 38.0527 74.5709 37.0659 75.4252Z" fill="#FFD93D" fill-opacity="0.08"/>
<mask id="mask1_2366_3613" style="mask-type:luminance" maskUnits="userSpaceOnUse" x="30" y="-83" width="140" height="142">
<path d="M30.416 -21.0972L101.098 -82.2811L169.904 -2.79436L99.2214 58.3896L30.416 -21.0972Z" fill="white"/>
</mask>
<g mask="url(#mask1_2366_3613)">
<path d="M148.501 13.8818C148.184 14.1562 147.814 14.3788 147.399 14.5407C145.512 15.2438 143.395 14.2859 142.678 12.3932L130.946 -18.5498L136.31 22.2613C136.545 24.0616 135.43 25.76 133.688 26.2482C131.946 26.7364 130.1 25.8747 129.352 24.2147L111.865 -14.5452L123.186 26.556C123.707 28.4393 122.65 30.4007 120.795 30.9958C118.936 31.5858 116.934 30.6171 116.242 28.7838L98.3702 -18.758L106.773 28.0538C107.118 29.9915 105.881 31.8489 103.962 32.2668C102.044 32.6752 100.139 31.4976 99.6383 29.5966L89.171 -10.3836L92.8574 29.2232C93.0301 31.0862 91.7723 32.7743 89.9439 33.1316C88.1104 33.4933 86.2949 32.4085 85.7331 30.623L74.0614 -6.48113L77.5775 22.3792C77.808 24.2368 76.5952 25.9664 74.7678 26.3765C72.9455 26.7822 71.1023 25.7481 70.4915 23.9782L51.0301 -32.8398C50.3717 -34.7474 51.3892 -36.8267 53.2961 -37.4756C55.2074 -38.1194 57.286 -37.0923 57.9438 -35.1752L66.1041 -11.3547L61.9998 -45.0276C61.7706 -46.9043 63.0084 -48.6465 64.8535 -49.0362C66.6985 -49.4258 68.5478 -48.3434 69.1126 -46.5336L82.3958 -4.3131L77.7476 -54.1961C77.5726 -56.0928 78.8795 -57.7965 80.7535 -58.1217C82.025 -58.337 83.2669 -57.8736 84.084 -56.9709C83.8037 -58.8033 84.9365 -60.5531 86.7313 -61.0423C88.5502 -61.5346 90.4547 -60.5536 91.1228 -58.7796L94.7841 -49.0425L92.3447 -57.9053C91.8303 -59.7498 92.8266 -61.6676 94.6228 -62.3101C96.4138 -62.9481 98.4094 -62.0997 99.1991 -60.3504L125.841 -1.31326L119.613 -48.7115C119.372 -50.5507 120.546 -52.2735 122.342 -52.7194C124.143 -53.1602 125.996 -52.1878 126.657 -50.4526L149.517 9.82717C150.073 11.3054 149.621 12.9125 148.496 13.8862L148.501 13.8818Z" fill="#FFD93D" fill-opacity="0.08"/>
</g>
<path d="M213.144 -20.0456C212.73 -19.6871 212.222 -19.4169 211.655 -19.2755C209.8 -18.8051 207.89 -19.8536 207.278 -21.6763L195.351 -57.4229L202.378 -17.211C202.711 -15.3078 201.51 -13.4813 199.642 -13.0358C197.979 -12.6426 196.297 -13.4494 195.535 -14.9185C195.256 -14.7133 194.942 -14.5394 194.593 -14.4159C192.835 -13.7802 190.874 -14.5783 190.052 -16.2723L170.342 -56.7936L181.023 -20.7724C181.571 -18.9303 180.596 -16.9774 178.789 -16.3165C176.991 -15.655 174.977 -16.5048 174.188 -18.2636L157.266 -55.8945L163.801 -25.4887C164.208 -23.6136 163.09 -21.7429 161.245 -21.219C159.4 -20.6951 157.454 -21.6934 156.793 -23.5005L138.193 -74.5178C137.501 -76.423 138.477 -78.5197 140.372 -79.203C142.267 -79.8864 144.367 -78.8961 145.065 -76.9953L145.532 -75.7007L142.864 -88.1133C142.474 -89.9489 143.521 -91.7767 145.298 -92.3487C147.07 -92.9258 149.003 -92.0675 149.771 -90.3533L158.611 -70.7076L150.753 -97.1959C150.213 -99.0182 151.158 -100.954 152.933 -101.632C154.703 -102.314 156.712 -101.522 157.547 -99.8035L181.027 -51.5174L167.539 -104.669C167.045 -106.594 168.178 -108.55 170.081 -109.079C171.988 -109.603 173.982 -108.52 174.569 -106.622L185.44 -71.714L179.733 -104.376C179.404 -106.264 180.58 -108.078 182.435 -108.539C184.29 -109 186.194 -107.947 186.802 -106.129L198.004 -72.5636L193.046 -99.8355C192.706 -101.706 193.852 -103.512 195.681 -104.004C197.509 -104.495 199.418 -103.5 200.075 -101.717L215.399 -60.0012L213.452 -85.5507C213.295 -87.5708 214.807 -89.3173 216.821 -89.4598C218.831 -89.6075 220.591 -88.0904 220.743 -86.0755L224.686 -34.3208C224.828 -32.5032 223.603 -30.8607 221.821 -30.4809C220.039 -30.1011 218.246 -31.098 217.611 -32.8121L207.791 -59.5424L214.344 -23.4542C214.585 -22.1424 214.095 -20.8593 213.149 -20.0405L213.144 -20.0456Z" fill="#FFD93D" fill-opacity="0.08"/>
<path d="M35.2297 181.92C34.7233 182.358 34.1382 182.705 33.4791 182.927C31.1683 183.713 28.8716 182.654 28.2664 180.52L11.7115 122.311L14.1709 180.157C14.2666 182.394 12.5597 184.568 10.2507 185.143C7.95311 185.718 5.82907 184.5 5.37507 182.355L-3.7619 138.523L-2.45627 175.753C-2.38023 177.927 -4.00327 180.039 -6.22857 180.671C-8.45879 181.297 -10.5829 180.239 -11.1799 178.207L-33.5468 101.762C-34.1864 99.5477 -32.7981 96.992 -30.4297 96.0469C-28.0662 95.0962 -25.6216 96.1262 -24.9754 98.3346L-12.6168 140.573L-14.5082 86.7053C-14.5874 84.4741 -12.8773 82.3167 -10.5748 81.7473C-8.27888 81.1837 -6.16142 82.4072 -5.71234 84.5473L2.93133 125.989L1.18579 84.8882C1.09333 82.7082 2.71967 80.5737 4.95646 79.9417C7.19819 79.3154 9.33217 80.3853 9.90947 82.4343L14.6575 99.1223L11.77 81.8194C11.4129 79.6793 12.8191 77.3967 15.0199 76.5371C17.2207 75.6774 19.5092 76.5139 20.3117 78.4775L38.8225 123.823L32.6301 86.1832C32.2829 84.0545 33.676 81.7833 35.8719 80.918C38.0611 80.0583 40.3415 80.8721 41.1637 82.8186L66.0772 142.006C66.9634 144.106 65.8265 146.753 63.5351 147.92C61.2487 149.093 58.6791 148.33 57.7929 146.23L47.7773 122.433L54.2694 161.934C54.615 164.074 53.2153 166.351 51.0096 167.205C48.8088 168.064 46.5203 167.228 45.7293 165.264L27.3924 120.346L36.9411 177.571C37.2113 179.159 36.4989 180.821 35.2297 181.92Z" fill="#FFD93D" fill-opacity="0.08"/>
<mask id="mask2_2366_3613" style="mask-type:luminance" maskUnits="userSpaceOnUse" x="35" y="-11" width="168" height="168">
<path d="M35.4336 67.895L126.341 -10.7967L202.93 77.6818L112.022 156.374L35.4336 67.895Z" fill="white"/>
</mask>
<g mask="url(#mask2_2366_3613)">
<path d="M175.561 99.313C175.153 99.6659 174.685 99.962 174.169 100.19C171.822 101.186 169.338 100.23 168.631 98.0443L157.06 62.312L160.067 110.305C160.198 112.423 158.701 114.534 156.548 115.263C154.395 115.992 152.231 115.127 151.467 113.22L133.59 68.7003L143.793 116.528C144.263 118.719 142.814 121.138 140.515 122.004C138.21 122.863 135.868 121.885 135.185 119.767L117.595 64.854L123.771 119.711C124.023 121.982 122.365 124.293 120.004 124.954C117.644 125.603 115.436 124.368 114.992 122.154L105.728 75.5842L106.805 122.291C106.855 124.488 105.186 126.6 102.939 127.181C100.686 127.767 98.5783 126.635 98.0503 124.563L87.0807 81.511L88.8712 115.474C88.9916 117.66 87.3735 119.817 85.1235 120.46C82.8802 121.098 80.7347 120.028 80.1459 117.979L61.4228 52.1889C60.7881 49.9805 62.1994 47.4248 64.5662 46.4911C66.9379 45.5632 69.3693 46.6045 70.0024 48.8243L77.8534 76.4062L75.762 36.7799C75.6449 34.5715 77.2943 32.397 79.5639 31.7764C81.8336 31.1558 83.9823 32.2826 84.5119 34.3829L96.9966 83.3714L95.6339 24.5464C95.5841 22.3095 97.314 20.175 99.6132 19.6283C101.173 19.2639 102.638 19.7078 103.551 20.7094C103.369 18.5579 104.891 16.3835 107.109 15.6491C109.355 14.909 111.58 15.9105 112.237 17.9595L115.842 29.2063L113.644 18.8929C113.178 16.7471 114.55 14.3849 116.782 13.4683C119.007 12.5574 121.353 13.3939 122.161 15.403L149.396 83.2131L145.907 27.4733C145.772 25.3105 147.342 23.1645 149.558 22.4813C151.778 21.8038 153.94 22.7996 154.593 24.8031L177.14 94.4122C177.686 96.1197 177.001 98.0664 175.554 99.3187L175.561 99.313Z" fill="#FFD93D" fill-opacity="0.08"/>
</g>
<path d="M256.816 53.4976C256.284 53.9587 255.644 54.323 254.946 54.5394C252.656 55.2568 250.432 54.1755 249.846 52.0639L238.45 10.6454L243.525 57.7847C243.765 60.0159 242.154 62.2871 239.851 62.976C237.802 63.5852 235.832 62.7714 235.034 61.0924C234.679 61.36 234.283 61.5934 233.849 61.7699C231.665 62.675 229.356 61.8955 228.505 59.9546L208.085 13.5338L217.946 55.385C218.453 57.5251 217.104 59.9272 214.857 60.8665C212.622 61.8059 210.253 60.9694 209.447 58.9488L192.159 15.7209L197.477 51.2602C197.809 53.4515 196.295 55.7682 194.013 56.5482C191.732 57.3282 189.458 56.3096 188.812 54.2207L170.637 -4.75643C169.962 -6.95911 171.324 -9.53193 173.679 -10.5054C176.034 -11.4789 178.495 -10.4831 179.178 -8.2861L179.634 -6.78919L177.463 -21.2975C177.147 -23.4433 178.573 -25.703 180.775 -26.5342C182.972 -27.3711 185.241 -26.5176 186.026 -24.5483L195.058 -1.98094L187.802 -32.756C187.303 -34.8733 188.614 -37.2526 190.823 -38.2091C193.027 -39.1712 195.395 -38.403 196.26 -36.4337L220.584 18.8831L208.787 -43.0658C208.352 -45.3083 209.893 -47.7275 212.245 -48.5188C214.602 -49.3045 216.925 -48.1891 217.474 -45.9864L227.661 -5.47288L223.542 -43.7614C223.305 -45.9756 224.885 -48.2297 227.173 -48.9356C229.46 -49.6416 231.678 -48.5547 232.259 -46.4488L242.963 -7.55742L239.288 -39.511C239.036 -41.7024 240.58 -43.9451 242.839 -44.6852C245.097 -45.4253 247.325 -44.4067 247.969 -42.3463L262.97 5.86787L262.798 -24.2988C262.781 -26.6837 264.762 -28.8866 267.216 -29.2283C269.664 -29.5757 271.668 -27.9253 271.68 -25.5461L272.028 35.5613C272.045 37.7072 270.418 39.7621 268.226 40.3656C266.034 40.9691 263.946 39.9391 263.324 37.9584L253.71 7.06396L258.562 49.3481C258.742 50.8849 258.038 52.4502 256.821 53.5033L256.816 53.4976Z" fill="#FFD93D" fill-opacity="0.08"/>
</g>
<rect x="0.5" y="0.5" width="341" height="343" rx="31.5" stroke="#FFD93D"/>
<defs>
<clipPath id="clip0_2366_3613">
<rect width="342" height="344" rx="32" fill="white"/>
</clipPath>
</defs>
</svg>
