<svg width="342" height="344" viewBox="0 0 342 344" fill="none" xmlns="http://www.w3.org/2000/svg">
<g clip-path="url(#clip0_2366_3687)">
<rect width="342" height="344" rx="32" fill="#FFD93D" fill-opacity="0.1"/>
<path d="M167.589 60.182C169.51 58.3901 172.49 58.3901 174.411 60.182L177.125 62.7145C178.512 64.0084 180.512 64.4061 182.288 63.7415L185.765 62.4406C188.226 61.5201 190.979 62.6605 192.068 65.0511L193.606 68.4296C194.393 70.1557 196.088 71.2884 197.983 71.3542L201.693 71.4829C204.319 71.574 206.426 73.6812 206.517 76.3065L206.646 80.0167C206.712 81.9123 207.844 83.6074 209.57 84.3936L212.949 85.9324C215.34 87.0212 216.48 89.7743 215.559 92.2347L214.259 95.7118C213.594 97.4882 213.992 99.4878 215.285 100.875L217.818 103.589C219.61 105.51 219.61 108.49 217.818 110.411L215.285 113.125C213.992 114.512 213.594 116.512 214.259 118.288L215.559 121.765C216.48 124.226 215.34 126.979 212.949 128.068L209.57 129.606C207.844 130.393 206.712 132.088 206.646 133.983L206.517 137.693C206.426 140.319 204.319 142.426 201.693 142.517L197.983 142.646C196.088 142.712 194.393 143.844 193.606 145.57L192.068 148.949C190.979 151.34 188.226 152.48 185.765 151.559L182.288 150.259C180.512 149.594 178.512 149.992 177.125 151.285L174.411 153.818C172.49 155.61 169.51 155.61 167.589 153.818L164.875 151.285C163.488 149.992 161.488 149.594 159.712 150.259L156.235 151.559C153.774 152.48 151.021 151.34 149.932 148.949L148.394 145.57C147.607 143.844 145.912 142.712 144.017 142.646L140.307 142.517C137.681 142.426 135.574 140.319 135.483 137.693L135.354 133.983C135.288 132.088 134.156 130.393 132.43 129.606L129.051 128.068C126.66 126.979 125.52 124.226 126.441 121.765L127.741 118.288C128.406 116.512 128.008 114.512 126.715 113.125L124.182 110.411C122.39 108.49 122.39 105.51 124.182 103.589L126.715 100.875C128.008 99.4878 128.406 97.4882 127.741 95.7118L126.441 92.2347C125.52 89.7743 126.66 87.0212 129.051 85.9324L132.43 84.3936C134.156 83.6074 135.288 81.9123 135.354 80.0167L135.483 76.3065C135.574 73.6812 137.681 71.574 140.307 71.4829L144.017 71.3542C145.912 71.2884 147.607 70.1557 148.394 68.4296L149.932 65.0511C151.021 62.6605 153.774 61.5201 156.235 62.4406L159.712 63.7415C161.488 64.4061 163.488 64.0084 164.875 62.7145L167.589 60.182Z" fill="#FFD93D"/>
<path d="M189.579 95.6996L192.39 93.1708L197.137 88.854V86.6637C195.628 87.9834 192.271 91.0507 191.852 91.4104C190.043 92.9579 188.278 94.5437 186.522 96.1615L183.738 98.7179L181.918 100.38C180.414 99.7801 178.862 99.3395 177.28 99.0734C176.306 98.9266 175.356 99.0032 174.426 99.314C173.762 99.5375 173.119 99.778 172.46 100.061C171.178 99.4396 169.778 99.1841 168.345 99.2267C166.977 99.2651 165.621 99.4673 164.28 99.8142L162.46 98.2071L160.553 96.566L157.986 94.3969L148.098 86.1953V88.375L155.317 94.4073L157.972 96.6423L162.537 100.516C162.618 100.587 162.69 100.621 162.767 100.691C162.428 100.848 161.569 101.453 161.83 101.879C161.977 102.109 162.245 102.124 162.473 102.047L163.863 101.611C164.648 101.366 165.438 101.223 166.245 101.072C167.547 100.876 168.795 100.768 170.129 101.002C169.567 101.232 169.061 101.442 168.592 101.791C168.075 102.183 167.667 102.679 167.388 103.269L166.675 104.761C166.298 105.551 165.864 106.287 165.406 107.028C165.259 107.279 165.134 107.502 165.015 107.769C164.563 108.778 164.759 109.959 165.521 110.766C166.143 111.43 166.949 111.855 167.847 112.03C168.288 112.117 168.72 112.156 169.178 112.111C170.644 111.968 172 111.3 173.069 110.285C173.582 109.795 174.005 109.233 174.392 108.643C174.448 108.556 174.671 108.448 174.769 108.507C176.361 109.503 177.864 110.617 179.33 111.798C180.763 112.954 182.159 114.152 183.521 115.389C184.824 116.56 188.049 119.644 188.006 121.432C187.978 122.522 187.216 123.486 186.193 123.803C185.729 123.95 185.282 123.869 184.89 123.601C184.415 123.28 183.985 122.926 183.545 122.55L180.22 119.699L177.032 117.003C176.753 116.762 176.329 116.426 175.98 116.709C175.627 117.003 175.948 117.526 176.187 117.816C176.502 118.186 176.83 118.524 177.189 118.857L180.78 122.181L182.578 123.806C182.993 124.176 183.423 124.493 183.87 124.819C184.062 126.275 182.802 127.68 181.359 127.778C180.771 127.82 180.22 127.575 179.731 127.288C179 126.858 178.351 126.345 177.698 125.817C176.346 124.727 175.054 123.582 173.758 122.433C173.43 122.143 173.132 121.866 172.783 121.609C172.609 121.473 172.353 121.375 172.14 121.451C171.813 121.571 171.753 121.964 171.934 122.252C172.2 122.677 172.545 123.027 172.898 123.391C174.243 124.763 175.65 126.06 177.121 127.299C177.698 127.784 178.298 128.21 178.958 128.591C178.619 129.687 177.623 130.417 176.506 130.481C175.437 130.541 174.431 130.006 174.431 130.006C174.431 130.006 174.616 128.459 173.373 127.292C172.37 126.349 171.291 126.464 171.291 126.464C171.298 125.44 170.948 124.476 170.24 123.729C169.825 123.293 169.307 122.961 168.735 122.769C168.445 122.675 168.141 122.616 167.83 122.601C167.749 122.601 166.894 122.612 166.894 122.682C166.883 122.388 166.824 122.099 166.702 121.822C166.027 120.281 164.435 119.261 162.745 119.314C162.071 119.331 161.596 119.566 161.596 119.566C161.596 119.566 161.519 119.206 161.324 118.842C160.636 117.567 159.274 116.76 157.814 116.777C157.084 116.788 156.386 116.994 155.749 117.343C155.051 116.417 154.708 115.342 154.523 114.227C154.447 113.895 154.442 113.12 153.985 113.12C153.461 113.12 153.429 114.178 153.478 114.608L151.826 113.588L149.168 111.894L148.106 111.181V113.29L150.16 114.593C151.179 115.236 152.203 115.836 153.255 116.419C153.314 116.451 153.353 116.517 153.374 116.573C153.527 116.981 153.717 117.362 153.951 117.729C153.978 117.771 153.968 117.837 153.934 117.875C153.487 118.525 153.242 119.276 153.225 120.072C153.208 120.764 153.306 121.441 153.606 122.067C154.108 123.135 155.011 123.936 156.113 124.34C156.326 124.417 156.515 124.487 156.745 124.508C156.462 126.988 158.925 129.353 161.387 129.129L161.468 129.385C161.72 130.202 162.356 130.817 163.043 131.33C164.091 132.109 165.402 132.41 166.683 132.067C166.879 132.427 167.147 132.71 167.458 132.972C169.55 134.736 172.885 134.159 174.226 131.773C176.312 132.688 178.764 132.116 180.09 130.243C180.286 129.992 180.433 129.736 180.542 129.425C182.71 129.855 184.922 128.167 185.484 126.134C185.539 125.939 185.577 125.758 185.565 125.541C185.767 125.562 185.946 125.558 186.152 125.53C187.236 125.362 188.185 124.768 188.845 123.895C189.694 122.833 189.951 121.432 189.477 120.147C190.398 119.361 191.122 118.397 191.601 117.292L193.644 116.024L197.143 113.637V111.485L196.626 111.877C195.302 112.873 193.919 113.778 192.54 114.7L191.482 115.402C191.552 115 191.601 113.761 191.018 113.761C190.811 113.761 190.686 113.991 190.637 114.197L190.371 115.406C190.098 116.632 189.592 117.722 188.676 118.644C188.017 117.495 186.067 115.451 185.079 114.585L182.547 112.356C183.221 112.241 184.181 111.818 184.486 111.179C184.528 111.06 184.528 110.934 184.454 110.841C184.383 110.76 184.251 110.715 184.132 110.747L183.332 110.96C182.672 111.134 181.997 111.226 181.31 111.145C181.118 111.124 180.944 110.96 180.793 110.845C179.267 109.689 177.741 108.561 176.123 107.505C176.353 107.32 176.761 106.781 176.51 106.551C176.429 106.475 176.308 106.471 176.189 106.513C175.427 106.824 173.845 107.226 173.845 107.226C173.845 107.226 171.715 110.534 168.756 110.572C168.069 110.583 167.405 110.342 166.905 109.874C166.59 109.58 166.366 109.144 166.426 108.714C166.468 108.386 166.656 108.11 166.824 107.827C167.303 107.041 167.771 106.279 168.169 105.445L169.025 103.646C169.227 103.227 169.542 102.958 169.961 102.769C170.649 102.454 171.345 102.213 172.06 101.958L174.054 101.245C175.15 100.847 175.857 100.487 177.051 100.711C178.784 101.038 180.463 101.556 182.081 102.258C182.653 102.509 183.177 102.797 183.722 103.092C184.037 103.261 184.49 103.605 184.779 103.316C184.905 103.19 184.943 103.001 184.867 102.826C184.611 102.303 183.805 101.715 183.281 101.426L185.286 99.6377L189.59 95.7083L189.579 95.6996ZM158.014 122.558C157.818 122.722 157.584 122.869 157.322 122.873C156.858 122.884 156.466 122.694 156.096 122.458C156.064 122.441 156.03 122.42 156.002 122.403C154.919 121.662 154.308 119.57 155.674 118.795C156.324 118.429 157.054 118.305 157.794 118.32C158.829 118.341 159.919 119.159 160.089 120.195C160.11 120.349 160.072 120.485 159.963 120.611C159.352 121.302 158.727 121.966 158.014 122.556L158.014 122.558ZM162.247 126.962C161.964 127.192 161.643 127.382 161.283 127.437C160.732 127.514 160.199 127.333 159.725 127.035C158.842 126.479 158.303 125.547 158.418 124.506C158.435 124.359 158.488 124.244 158.593 124.146C159.169 123.601 159.71 123.05 160.244 122.473C160.555 122.135 160.849 121.824 161.181 121.513C161.628 121.098 162.194 120.832 162.822 120.843C163.814 120.87 164.722 121.485 165.137 122.369C165.372 122.882 165.333 123.399 165.033 123.861C164.358 124.908 163.22 126.183 162.249 126.962L162.247 126.962ZM167.419 129.855C166.983 130.236 166.455 130.466 165.855 130.509C164.535 130.606 163.347 129.708 162.983 128.459C164.303 127.379 165.376 125.996 166.357 124.634C166.461 124.491 166.559 124.344 166.723 124.28C167.796 123.816 169.018 124.438 169.503 125.485C169.754 126.019 169.754 126.585 169.497 127.13C169.007 128.171 168.288 129.093 167.421 129.855L167.419 129.855ZM172.215 131.494C171.638 132.148 170.727 132.469 169.867 132.301C169.158 132.158 168.598 131.798 168.183 131.243C169.301 130.415 170.184 129.129 170.81 127.907C171.931 127.803 172.853 128.697 172.798 129.825C172.77 130.43 172.596 131.009 172.215 131.492V131.494Z" fill="white"/>
<path d="M194.712 125.478C194.712 124.295 193.75 123.332 192.566 123.332C191.383 123.332 190.42 124.295 190.42 125.478C190.42 126.662 191.383 127.624 192.566 127.624C193.75 127.622 194.712 126.659 194.712 125.478ZM192.569 126.327C192.101 126.327 191.72 125.946 191.72 125.478C191.72 125.01 192.101 124.629 192.569 124.629C193.037 124.629 193.417 125.01 193.417 125.478C193.417 125.946 193.037 126.327 192.569 126.327Z" fill="white"/>
<path d="M176.689 90.2659C174.766 90.2659 173.205 88.7054 173.205 86.7819C173.205 86.4531 172.947 86.1958 172.619 86.1958C172.29 86.1958 172.033 86.4542 172.033 86.7819C172.033 88.7054 170.472 90.2659 168.549 90.2659C168.22 90.2659 167.963 90.5243 167.963 90.852C167.963 91.1809 168.221 91.4382 168.549 91.4382C170.472 91.4382 172.033 92.9987 172.033 94.9221C172.033 95.251 172.291 95.5083 172.619 95.5083C172.948 95.5083 173.205 95.2499 173.205 94.9221C173.205 92.9987 174.766 91.4382 176.689 91.4382C177.018 91.4382 177.275 91.1798 177.275 90.852C177.276 90.5232 177.018 90.2659 176.689 90.2659ZM172.619 92.6589C172.197 91.8968 171.563 91.2743 170.812 90.852C171.574 90.4297 172.197 89.7963 172.619 89.0452C173.041 89.8073 173.675 90.4297 174.426 90.852C173.675 91.2743 173.041 91.8957 172.619 92.6589Z" fill="white"/>
<path d="M147.899 123.885C148.258 123.885 148.547 123.594 148.547 123.238V122.416C148.547 122.057 148.256 121.768 147.899 121.768C147.541 121.768 147.252 122.059 147.252 122.416V123.238C147.252 123.594 147.541 123.885 147.899 123.885Z" fill="white"/>
<path d="M147.252 127.599C147.252 127.958 147.543 128.247 147.899 128.247C148.258 128.247 148.547 127.956 148.547 127.599V126.777C148.547 126.418 148.256 126.129 147.899 126.129C147.541 126.129 147.252 126.42 147.252 126.777V127.599Z" fill="white"/>
<path d="M150.797 125.008C150.797 124.649 150.506 124.36 150.149 124.36H149.327C148.968 124.36 148.68 124.651 148.68 125.008C148.68 125.367 148.971 125.655 149.327 125.655H150.149C150.506 125.655 150.797 125.364 150.797 125.008Z" fill="white"/>
<path d="M146.47 125.655C146.829 125.655 147.117 125.364 147.117 125.008C147.117 124.649 146.826 124.36 146.47 124.36H145.648C145.289 124.36 145 124.651 145 125.008C145 125.367 145.291 125.655 145.648 125.655H146.47Z" fill="white"/>
<path d="M189.46 83.1172C189.819 83.1172 190.108 82.8261 190.108 82.4696V81.6475C190.108 81.2886 189.817 81 189.46 81C189.101 81 188.812 81.291 188.812 81.6475V82.4696C188.812 82.8261 189.101 83.1172 189.46 83.1172Z" fill="white"/>
<path d="M189.46 87.4824C189.819 87.4824 190.108 87.1914 190.108 86.8349V86.0128C190.108 85.6538 189.817 85.3652 189.46 85.3652C189.101 85.3652 188.812 85.6562 188.812 86.0128V86.8349C188.812 87.1914 189.101 87.4824 189.46 87.4824Z" fill="white"/>
<path d="M190.888 84.8869H191.71C192.069 84.8869 192.357 84.5958 192.357 84.2393C192.357 83.8804 192.066 83.5918 191.71 83.5918H190.888C190.529 83.5918 190.24 83.8828 190.24 84.2393C190.238 84.5982 190.529 84.8869 190.888 84.8869Z" fill="white"/>
<path d="M187.212 84.8869H188.034C188.393 84.8869 188.682 84.5958 188.682 84.2393C188.682 83.8804 188.391 83.5918 188.034 83.5918H187.212C186.853 83.5918 186.564 83.8828 186.564 84.2393C186.562 84.5982 186.853 84.8869 187.212 84.8869Z" fill="white"/>
<path d="M156.801 88.5654C157.984 88.5654 158.947 87.6026 158.947 86.4192C158.947 85.2357 157.984 84.2729 156.801 84.2729C155.617 84.2729 154.654 85.2357 154.654 86.4192C154.654 87.6026 155.617 88.5654 156.801 88.5654ZM156.801 85.5728C157.269 85.5728 157.649 85.9535 157.649 86.4216C157.649 86.8896 157.269 87.2704 156.801 87.2704C156.332 87.2704 155.952 86.8896 155.952 86.4216C155.952 85.9535 156.332 85.5728 156.801 85.5728Z" fill="white"/>
<path d="M44.6735 210V195.1H54.8735V197.8H47.7735V201.58H53.8735V204.28H47.7735V210H44.6735ZM55.5863 210V199.08H58.3863V201.7L58.1863 201.32C58.4263 200.4 58.8197 199.78 59.3663 199.46C59.9263 199.127 60.5863 198.96 61.3463 198.96H61.9863V201.56H61.0463C60.313 201.56 59.7197 201.787 59.2663 202.24C58.813 202.68 58.5863 203.307 58.5863 204.12V210H55.5863ZM68.5612 210.24C67.4012 210.24 66.3945 209.987 65.5412 209.48C64.6878 208.96 64.0278 208.267 63.5612 207.4C63.0945 206.533 62.8612 205.573 62.8612 204.52C62.8612 203.427 63.1012 202.453 63.5812 201.6C64.0745 200.747 64.7345 200.073 65.5612 199.58C66.3878 199.087 67.3212 198.84 68.3612 198.84C69.2278 198.84 69.9945 198.98 70.6612 199.26C71.3278 199.527 71.8878 199.907 72.3412 200.4C72.8078 200.893 73.1612 201.467 73.4012 202.12C73.6412 202.76 73.7612 203.46 73.7612 204.22C73.7612 204.433 73.7478 204.647 73.7212 204.86C73.7078 205.06 73.6745 205.233 73.6212 205.38H65.4412V203.18H71.9212L70.5012 204.22C70.6345 203.647 70.6278 203.14 70.4812 202.7C70.3345 202.247 70.0745 201.893 69.7012 201.64C69.3412 201.373 68.8945 201.24 68.3612 201.24C67.8412 201.24 67.3945 201.367 67.0212 201.62C66.6478 201.873 66.3678 202.247 66.1812 202.74C65.9945 203.233 65.9212 203.833 65.9612 204.54C65.9078 205.153 65.9812 205.693 66.1812 206.16C66.3812 206.627 66.6878 206.993 67.1012 207.26C67.5145 207.513 68.0145 207.64 68.6012 207.64C69.1345 207.64 69.5878 207.533 69.9612 207.32C70.3478 207.107 70.6478 206.813 70.8612 206.44L73.2612 207.58C73.0478 208.113 72.7078 208.58 72.2412 208.98C71.7878 209.38 71.2478 209.693 70.6212 209.92C69.9945 210.133 69.3078 210.24 68.5612 210.24ZM80.7877 210.24C79.6277 210.24 78.6211 209.987 77.7677 209.48C76.9144 208.96 76.2544 208.267 75.7877 207.4C75.3211 206.533 75.0877 205.573 75.0877 204.52C75.0877 203.427 75.3277 202.453 75.8077 201.6C76.3011 200.747 76.9611 200.073 77.7877 199.58C78.6144 199.087 79.5477 198.84 80.5877 198.84C81.4544 198.84 82.2211 198.98 82.8877 199.26C83.5544 199.527 84.1144 199.907 84.5677 200.4C85.0344 200.893 85.3877 201.467 85.6277 202.12C85.8677 202.76 85.9877 203.46 85.9877 204.22C85.9877 204.433 85.9744 204.647 85.9477 204.86C85.9344 205.06 85.9011 205.233 85.8477 205.38H77.6677V203.18H84.1477L82.7277 204.22C82.8611 203.647 82.8544 203.14 82.7077 202.7C82.5611 202.247 82.3011 201.893 81.9277 201.64C81.5677 201.373 81.1211 201.24 80.5877 201.24C80.0677 201.24 79.6211 201.367 79.2477 201.62C78.8744 201.873 78.5944 202.247 78.4077 202.74C78.2211 203.233 78.1477 203.833 78.1877 204.54C78.1344 205.153 78.2077 205.693 78.4077 206.16C78.6077 206.627 78.9144 206.993 79.3277 207.26C79.7411 207.513 80.2411 207.64 80.8277 207.64C81.3611 207.64 81.8144 207.533 82.1877 207.32C82.5744 207.107 82.8744 206.813 83.0877 206.44L85.4877 207.58C85.2744 208.113 84.9344 208.58 84.4677 208.98C84.0144 209.38 83.4744 209.693 82.8477 209.92C82.2211 210.133 81.5344 210.24 80.7877 210.24ZM87.0543 212.4L93.6543 195.9H96.8943L90.2943 212.4H87.0543ZM98.6188 210V195.1H104.339C105.365 195.1 106.272 195.28 107.059 195.64C107.859 196 108.485 196.533 108.939 197.24C109.392 197.947 109.619 198.82 109.619 199.86C109.619 200.873 109.385 201.733 108.919 202.44C108.465 203.147 107.839 203.687 107.039 204.06C106.252 204.42 105.352 204.6 104.339 204.6H101.719V210H98.6188ZM101.719 201.9H104.359C104.799 201.9 105.179 201.813 105.499 201.64C105.819 201.467 106.065 201.227 106.239 200.92C106.425 200.613 106.519 200.26 106.519 199.86C106.519 199.447 106.425 199.087 106.239 198.78C106.065 198.473 105.819 198.233 105.499 198.06C105.179 197.887 104.799 197.8 104.359 197.8H101.719V201.9ZM114.162 210.24C113.375 210.24 112.695 210.113 112.122 209.86C111.548 209.607 111.108 209.247 110.802 208.78C110.495 208.3 110.342 207.733 110.342 207.08C110.342 206.467 110.482 205.927 110.762 205.46C111.042 204.98 111.468 204.58 112.042 204.26C112.628 203.94 113.355 203.713 114.222 203.58L117.562 203.04V205.24L114.762 205.74C114.335 205.82 114.008 205.96 113.782 206.16C113.555 206.347 113.442 206.62 113.442 206.98C113.442 207.313 113.568 207.573 113.822 207.76C114.075 207.947 114.388 208.04 114.762 208.04C115.255 208.04 115.688 207.933 116.062 207.72C116.435 207.507 116.722 207.22 116.922 206.86C117.135 206.487 117.242 206.08 117.242 205.64V202.8C117.242 202.387 117.075 202.04 116.742 201.76C116.422 201.48 115.982 201.34 115.422 201.34C114.888 201.34 114.415 201.487 114.002 201.78C113.602 202.073 113.308 202.46 113.122 202.94L110.722 201.8C110.935 201.187 111.275 200.66 111.742 200.22C112.208 199.78 112.768 199.44 113.422 199.2C114.075 198.96 114.788 198.84 115.562 198.84C116.482 198.84 117.295 199.007 118.002 199.34C118.708 199.673 119.255 200.14 119.642 200.74C120.042 201.327 120.242 202.013 120.242 202.8V210H117.442V208.24L118.122 208.12C117.802 208.6 117.448 209 117.062 209.32C116.675 209.627 116.242 209.853 115.762 210C115.282 210.16 114.748 210.24 114.162 210.24ZM122.442 210V199.08H125.442V210H122.442ZM122.442 198.1V195.1H125.442V198.1H122.442ZM132.777 210.24C131.71 210.24 130.757 209.987 129.917 209.48C129.077 208.973 128.41 208.287 127.917 207.42C127.437 206.553 127.197 205.593 127.197 204.54C127.197 203.473 127.444 202.513 127.937 201.66C128.43 200.793 129.097 200.107 129.937 199.6C130.777 199.093 131.717 198.84 132.757 198.84C133.557 198.84 134.264 198.993 134.877 199.3C135.504 199.593 135.997 200.013 136.357 200.56L135.897 201.16V194.86H138.897V210H136.097V208L136.377 208.62C136.004 209.153 135.497 209.56 134.857 209.84C134.217 210.107 133.524 210.24 132.777 210.24ZM133.137 207.54C133.684 207.54 134.164 207.413 134.577 207.16C134.99 206.907 135.31 206.553 135.537 206.1C135.777 205.647 135.897 205.127 135.897 204.54C135.897 203.953 135.777 203.433 135.537 202.98C135.31 202.527 134.99 202.173 134.577 201.92C134.164 201.667 133.684 201.54 133.137 201.54C132.59 201.54 132.097 201.673 131.657 201.94C131.23 202.193 130.897 202.547 130.657 203C130.417 203.44 130.297 203.953 130.297 204.54C130.297 205.127 130.417 205.647 130.657 206.1C130.897 206.553 131.23 206.907 131.657 207.16C132.097 207.413 132.59 207.54 133.137 207.54ZM151.988 210.24C150.921 210.24 149.928 210.047 149.008 209.66C148.101 209.273 147.308 208.733 146.628 208.04C145.948 207.347 145.415 206.533 145.028 205.6C144.655 204.667 144.468 203.647 144.468 202.54C144.468 201.433 144.655 200.413 145.028 199.48C145.401 198.533 145.928 197.72 146.608 197.04C147.288 196.347 148.081 195.813 148.988 195.44C149.908 195.053 150.908 194.86 151.988 194.86C153.068 194.86 154.035 195.04 154.888 195.4C155.755 195.76 156.488 196.24 157.088 196.84C157.688 197.44 158.115 198.107 158.368 198.84L155.628 200.16C155.375 199.44 154.928 198.847 154.288 198.38C153.661 197.9 152.895 197.66 151.988 197.66C151.108 197.66 150.335 197.867 149.668 198.28C149.001 198.693 148.481 199.267 148.108 200C147.748 200.72 147.568 201.567 147.568 202.54C147.568 203.513 147.748 204.367 148.108 205.1C148.481 205.833 149.001 206.407 149.668 206.82C150.335 207.233 151.108 207.44 151.988 207.44C152.895 207.44 153.661 207.207 154.288 206.74C154.928 206.26 155.375 205.66 155.628 204.94L158.368 206.26C158.115 206.993 157.688 207.66 157.088 208.26C156.488 208.86 155.755 209.34 154.888 209.7C154.035 210.06 153.068 210.24 151.988 210.24ZM165.362 210.24C164.282 210.24 163.295 209.993 162.402 209.5C161.522 209.007 160.815 208.333 160.282 207.48C159.762 206.613 159.502 205.633 159.502 204.54C159.502 203.433 159.762 202.453 160.282 201.6C160.815 200.747 161.522 200.073 162.402 199.58C163.295 199.087 164.282 198.84 165.362 198.84C166.442 198.84 167.422 199.087 168.302 199.58C169.182 200.073 169.882 200.747 170.402 201.6C170.935 202.453 171.202 203.433 171.202 204.54C171.202 205.633 170.935 206.613 170.402 207.48C169.882 208.333 169.182 209.007 168.302 209.5C167.422 209.993 166.442 210.24 165.362 210.24ZM165.362 207.54C165.908 207.54 166.382 207.413 166.782 207.16C167.195 206.907 167.515 206.553 167.742 206.1C167.982 205.647 168.102 205.127 168.102 204.54C168.102 203.953 167.982 203.44 167.742 203C167.515 202.547 167.195 202.193 166.782 201.94C166.382 201.673 165.908 201.54 165.362 201.54C164.815 201.54 164.335 201.673 163.922 201.94C163.508 202.193 163.182 202.547 162.942 203C162.715 203.44 162.602 203.953 162.602 204.54C162.602 205.127 162.715 205.647 162.942 206.1C163.182 206.553 163.508 206.907 163.922 207.16C164.335 207.413 164.815 207.54 165.362 207.54ZM172.969 210V199.08H175.769V201.74L175.469 201.3C175.629 200.46 176.016 199.84 176.629 199.44C177.242 199.04 177.976 198.84 178.829 198.84C179.736 198.84 180.529 199.073 181.209 199.54C181.902 199.993 182.336 200.607 182.509 201.38L181.649 201.46C182.009 200.567 182.522 199.907 183.189 199.48C183.856 199.053 184.636 198.84 185.529 198.84C186.316 198.84 187.009 199.013 187.609 199.36C188.222 199.707 188.702 200.193 189.049 200.82C189.396 201.433 189.569 202.153 189.569 202.98V210H186.569V203.62C186.569 203.193 186.489 202.827 186.329 202.52C186.182 202.213 185.969 201.973 185.689 201.8C185.409 201.627 185.069 201.54 184.669 201.54C184.282 201.54 183.942 201.627 183.649 201.8C183.369 201.973 183.149 202.213 182.989 202.52C182.842 202.827 182.769 203.193 182.769 203.62V210H179.769V203.62C179.769 203.193 179.689 202.827 179.529 202.52C179.382 202.213 179.169 201.973 178.889 201.8C178.609 201.627 178.269 201.54 177.869 201.54C177.482 201.54 177.142 201.627 176.849 201.8C176.569 201.973 176.349 202.213 176.189 202.52C176.042 202.827 175.969 203.193 175.969 203.62V210H172.969ZM191.543 214V199.08H194.343V201.16L194.083 200.56C194.443 200.013 194.93 199.593 195.543 199.3C196.17 198.993 196.883 198.84 197.683 198.84C198.723 198.84 199.663 199.093 200.503 199.6C201.343 200.107 202.01 200.793 202.503 201.66C202.997 202.513 203.243 203.473 203.243 204.54C203.243 205.593 202.997 206.553 202.503 207.42C202.023 208.287 201.363 208.973 200.523 209.48C199.683 209.987 198.73 210.24 197.663 210.24C196.917 210.24 196.223 210.107 195.583 209.84C194.957 209.56 194.45 209.153 194.063 208.62L194.543 208V214H191.543ZM197.303 207.54C197.863 207.54 198.357 207.413 198.783 207.16C199.21 206.907 199.543 206.553 199.783 206.1C200.023 205.647 200.143 205.127 200.143 204.54C200.143 203.953 200.023 203.44 199.783 203C199.543 202.547 199.21 202.193 198.783 201.94C198.357 201.673 197.863 201.54 197.303 201.54C196.77 201.54 196.29 201.667 195.863 201.92C195.45 202.173 195.123 202.527 194.883 202.98C194.657 203.433 194.543 203.953 194.543 204.54C194.543 205.127 194.657 205.647 194.883 206.1C195.123 206.553 195.45 206.907 195.863 207.16C196.29 207.413 196.77 207.54 197.303 207.54ZM208.38 210.24C207.594 210.24 206.914 210.113 206.34 209.86C205.767 209.607 205.327 209.247 205.02 208.78C204.714 208.3 204.56 207.733 204.56 207.08C204.56 206.467 204.7 205.927 204.98 205.46C205.26 204.98 205.687 204.58 206.26 204.26C206.847 203.94 207.574 203.713 208.44 203.58L211.78 203.04V205.24L208.98 205.74C208.554 205.82 208.227 205.96 208 206.16C207.774 206.347 207.66 206.62 207.66 206.98C207.66 207.313 207.787 207.573 208.04 207.76C208.294 207.947 208.607 208.04 208.98 208.04C209.474 208.04 209.907 207.933 210.28 207.72C210.654 207.507 210.94 207.22 211.14 206.86C211.354 206.487 211.46 206.08 211.46 205.64V202.8C211.46 202.387 211.294 202.04 210.96 201.76C210.64 201.48 210.2 201.34 209.64 201.34C209.107 201.34 208.634 201.487 208.22 201.78C207.82 202.073 207.527 202.46 207.34 202.94L204.94 201.8C205.154 201.187 205.494 200.66 205.96 200.22C206.427 199.78 206.987 199.44 207.64 199.2C208.294 198.96 209.007 198.84 209.78 198.84C210.7 198.84 211.514 199.007 212.22 199.34C212.927 199.673 213.474 200.14 213.86 200.74C214.26 201.327 214.46 202.013 214.46 202.8V210H211.66V208.24L212.34 208.12C212.02 208.6 211.667 209 211.28 209.32C210.894 209.627 210.46 209.853 209.98 210C209.5 210.16 208.967 210.24 208.38 210.24ZM216.661 210V199.08H219.461V201.24L219.301 200.76C219.554 200.107 219.961 199.627 220.521 199.32C221.094 199 221.761 198.84 222.521 198.84C223.347 198.84 224.067 199.013 224.681 199.36C225.307 199.707 225.794 200.193 226.141 200.82C226.487 201.433 226.661 202.153 226.661 202.98V210H223.661V203.62C223.661 203.193 223.574 202.827 223.401 202.52C223.241 202.213 223.007 201.973 222.701 201.8C222.407 201.627 222.061 201.54 221.661 201.54C221.274 201.54 220.927 201.627 220.621 201.8C220.314 201.973 220.074 202.213 219.901 202.52C219.741 202.827 219.661 203.193 219.661 203.62V210H216.661ZM228.633 210V199.08H231.633V210H228.633ZM228.633 198.1V195.1H231.633V198.1H228.633ZM239.249 210.24C238.169 210.24 237.182 209.993 236.289 209.5C235.409 209.007 234.702 208.333 234.169 207.48C233.649 206.613 233.389 205.633 233.389 204.54C233.389 203.433 233.649 202.453 234.169 201.6C234.702 200.747 235.409 200.073 236.289 199.58C237.182 199.087 238.169 198.84 239.249 198.84C240.329 198.84 241.309 199.087 242.189 199.58C243.069 200.073 243.769 200.747 244.289 201.6C244.822 202.453 245.089 203.433 245.089 204.54C245.089 205.633 244.822 206.613 244.289 207.48C243.769 208.333 243.069 209.007 242.189 209.5C241.309 209.993 240.329 210.24 239.249 210.24ZM239.249 207.54C239.795 207.54 240.269 207.413 240.669 207.16C241.082 206.907 241.402 206.553 241.629 206.1C241.869 205.647 241.989 205.127 241.989 204.54C241.989 203.953 241.869 203.44 241.629 203C241.402 202.547 241.082 202.193 240.669 201.94C240.269 201.673 239.795 201.54 239.249 201.54C238.702 201.54 238.222 201.673 237.809 201.94C237.395 202.193 237.069 202.547 236.829 203C236.602 203.44 236.489 203.953 236.489 204.54C236.489 205.127 236.602 205.647 236.829 206.1C237.069 206.553 237.395 206.907 237.809 207.16C238.222 207.413 238.702 207.54 239.249 207.54ZM246.856 210V199.08H249.656V201.24L249.496 200.76C249.749 200.107 250.156 199.627 250.716 199.32C251.289 199 251.956 198.84 252.716 198.84C253.543 198.84 254.263 199.013 254.876 199.36C255.503 199.707 255.989 200.193 256.336 200.82C256.683 201.433 256.856 202.153 256.856 202.98V210H253.856V203.62C253.856 203.193 253.769 202.827 253.596 202.52C253.436 202.213 253.203 201.973 252.896 201.8C252.603 201.627 252.256 201.54 251.856 201.54C251.469 201.54 251.123 201.627 250.816 201.8C250.509 201.973 250.269 202.213 250.096 202.52C249.936 202.827 249.856 203.193 249.856 203.62V210H246.856ZM263.109 210.24C261.909 210.24 260.862 209.96 259.969 209.4C259.089 208.827 258.489 208.06 258.169 207.1L260.369 206.06C260.649 206.647 261.029 207.107 261.509 207.44C261.989 207.773 262.522 207.94 263.109 207.94C263.535 207.94 263.862 207.853 264.089 207.68C264.315 207.507 264.429 207.267 264.429 206.96C264.429 206.8 264.389 206.667 264.309 206.56C264.229 206.44 264.109 206.333 263.949 206.24C263.789 206.147 263.589 206.067 263.349 206L261.489 205.48C260.595 205.227 259.909 204.82 259.429 204.26C258.949 203.687 258.709 203.013 258.709 202.24C258.709 201.56 258.882 200.967 259.229 200.46C259.575 199.953 260.062 199.56 260.689 199.28C261.315 198.987 262.035 198.84 262.849 198.84C263.915 198.84 264.849 199.093 265.649 199.6C266.462 200.093 267.035 200.793 267.369 201.7L265.149 202.74C264.989 202.287 264.695 201.927 264.269 201.66C263.855 201.38 263.382 201.24 262.849 201.24C262.462 201.24 262.155 201.32 261.929 201.48C261.715 201.64 261.609 201.86 261.609 202.14C261.609 202.287 261.649 202.42 261.729 202.54C261.809 202.66 261.935 202.767 262.109 202.86C262.295 202.953 262.522 203.04 262.789 203.12L264.529 203.64C265.435 203.907 266.129 204.313 266.609 204.86C267.089 205.393 267.329 206.053 267.329 206.84C267.329 207.52 267.149 208.113 266.789 208.62C266.442 209.127 265.955 209.527 265.329 209.82C264.702 210.1 263.962 210.24 263.109 210.24ZM269.121 210V194.86H272.121V201.24L271.761 200.76C272.015 200.107 272.421 199.627 272.981 199.32C273.555 199 274.221 198.84 274.981 198.84C275.808 198.84 276.528 199.013 277.141 199.36C277.768 199.707 278.255 200.193 278.601 200.82C278.948 201.433 279.121 202.153 279.121 202.98V210H276.121V203.62C276.121 203.193 276.035 202.827 275.861 202.52C275.701 202.213 275.468 201.973 275.161 201.8C274.868 201.627 274.521 201.54 274.121 201.54C273.735 201.54 273.388 201.627 273.081 201.8C272.775 201.973 272.535 202.213 272.361 202.52C272.201 202.827 272.121 203.193 272.121 203.62V210H269.121ZM281.094 210V199.08H284.094V210H281.094ZM281.094 198.1V195.1H284.094V198.1H281.094ZM286.289 214V199.08H289.089V201.16L288.829 200.56C289.189 200.013 289.676 199.593 290.289 199.3C290.916 198.993 291.629 198.84 292.429 198.84C293.469 198.84 294.409 199.093 295.249 199.6C296.089 200.107 296.756 200.793 297.249 201.66C297.743 202.513 297.989 203.473 297.989 204.54C297.989 205.593 297.743 206.553 297.249 207.42C296.769 208.287 296.109 208.973 295.269 209.48C294.429 209.987 293.476 210.24 292.409 210.24C291.663 210.24 290.969 210.107 290.329 209.84C289.703 209.56 289.196 209.153 288.809 208.62L289.289 208V214H286.289ZM292.049 207.54C292.609 207.54 293.103 207.413 293.529 207.16C293.956 206.907 294.289 206.553 294.529 206.1C294.769 205.647 294.889 205.127 294.889 204.54C294.889 203.953 294.769 203.44 294.529 203C294.289 202.547 293.956 202.193 293.529 201.94C293.103 201.673 292.609 201.54 292.049 201.54C291.516 201.54 291.036 201.667 290.609 201.92C290.196 202.173 289.869 202.527 289.629 202.98C289.403 203.433 289.289 203.953 289.289 204.54C289.289 205.127 289.403 205.647 289.629 206.1C289.869 206.553 290.196 206.907 290.609 207.16C291.036 207.413 291.516 207.54 292.049 207.54Z" fill="#1E1E1E"/>
<path d="M73.6683 243.192C72.8256 243.192 72.0523 243.043 71.3483 242.744C70.6443 242.435 70.031 242.008 69.5083 241.464C68.9963 240.909 68.5963 240.259 68.3083 239.512C68.0203 238.765 67.8763 237.944 67.8763 237.048C67.8763 236.152 68.0203 235.331 68.3083 234.584C68.5963 233.837 68.9963 233.187 69.5083 232.632C70.031 232.077 70.6443 231.651 71.3483 231.352C72.0523 231.043 72.8256 230.888 73.6683 230.888C74.479 230.888 75.2043 231.032 75.8443 231.32C76.495 231.608 77.039 231.981 77.4763 232.44C77.9243 232.888 78.2443 233.363 78.4363 233.864L77.2363 234.392C76.9376 233.699 76.479 233.144 75.8603 232.728C75.2523 232.301 74.5216 232.088 73.6683 232.088C72.7936 232.088 72.015 232.296 71.3323 232.712C70.6496 233.128 70.1163 233.709 69.7323 234.456C69.3483 235.192 69.1563 236.056 69.1563 237.048C69.1563 238.029 69.3483 238.893 69.7323 239.64C70.1163 240.387 70.6496 240.968 71.3323 241.384C72.015 241.789 72.7936 241.992 73.6683 241.992C74.5216 241.992 75.2523 241.784 75.8603 241.368C76.479 240.952 76.9376 240.397 77.2363 239.704L78.4363 240.232C78.2443 240.723 77.9243 241.197 77.4763 241.656C77.039 242.104 76.495 242.472 75.8443 242.76C75.2043 243.048 74.479 243.192 73.6683 243.192ZM80.5523 243V230.888H81.7523V236.088L81.4803 236.024C81.6936 235.469 82.0403 235.032 82.5203 234.712C83.011 234.392 83.5763 234.232 84.2163 234.232C84.8243 234.232 85.3683 234.371 85.8483 234.648C86.339 234.925 86.723 235.309 87.0003 235.8C87.2883 236.28 87.4323 236.824 87.4323 237.432V243H86.2323V237.896C86.2323 237.373 86.1363 236.931 85.9443 236.568C85.7523 236.205 85.4856 235.928 85.1443 235.736C84.8136 235.533 84.435 235.432 84.0083 235.432C83.5816 235.432 83.1976 235.533 82.8563 235.736C82.515 235.928 82.243 236.211 82.0403 236.584C81.8483 236.947 81.7523 237.384 81.7523 237.896V243H80.5523ZM93.7402 243.192C92.9295 243.192 92.1935 243 91.5322 242.616C90.8709 242.221 90.3429 241.688 89.9482 241.016C89.5642 240.333 89.3722 239.56 89.3722 238.696C89.3722 237.843 89.5642 237.08 89.9482 236.408C90.3322 235.736 90.8495 235.208 91.5002 234.824C92.1615 234.429 92.9082 234.232 93.7402 234.232C94.5722 234.232 95.3135 234.424 95.9642 234.808C96.6255 235.192 97.1429 235.72 97.5162 236.392C97.9002 237.064 98.0922 237.832 98.0922 238.696C98.0922 239.571 97.8949 240.349 97.5002 241.032C97.1055 241.704 96.5775 242.232 95.9162 242.616C95.2655 243 94.5402 243.192 93.7402 243.192ZM93.7402 241.992C94.3162 241.992 94.8335 241.848 95.2922 241.56C95.7615 241.272 96.1295 240.877 96.3962 240.376C96.6735 239.875 96.8122 239.315 96.8122 238.696C96.8122 238.077 96.6735 237.523 96.3962 237.032C96.1295 236.541 95.7615 236.152 95.2922 235.864C94.8335 235.576 94.3162 235.432 93.7402 235.432C93.1642 235.432 92.6415 235.576 92.1722 235.864C91.7135 236.152 91.3455 236.541 91.0682 237.032C90.7909 237.523 90.6522 238.077 90.6522 238.696C90.6522 239.315 90.7909 239.875 91.0682 240.376C91.3455 240.877 91.7135 241.272 92.1722 241.56C92.6415 241.848 93.1642 241.992 93.7402 241.992ZM104.225 243.192C103.414 243.192 102.678 243 102.017 242.616C101.355 242.221 100.827 241.688 100.433 241.016C100.049 240.333 99.8566 239.56 99.8566 238.696C99.8566 237.843 100.049 237.08 100.433 236.408C100.817 235.736 101.334 235.208 101.985 234.824C102.646 234.429 103.393 234.232 104.225 234.232C105.057 234.232 105.798 234.424 106.449 234.808C107.11 235.192 107.627 235.72 108.001 236.392C108.385 237.064 108.577 237.832 108.577 238.696C108.577 239.571 108.379 240.349 107.985 241.032C107.59 241.704 107.062 242.232 106.401 242.616C105.75 243 105.025 243.192 104.225 243.192ZM104.225 241.992C104.801 241.992 105.318 241.848 105.777 241.56C106.246 241.272 106.614 240.877 106.881 240.376C107.158 239.875 107.297 239.315 107.297 238.696C107.297 238.077 107.158 237.523 106.881 237.032C106.614 236.541 106.246 236.152 105.777 235.864C105.318 235.576 104.801 235.432 104.225 235.432C103.649 235.432 103.126 235.576 102.657 235.864C102.198 236.152 101.83 236.541 101.553 237.032C101.275 237.523 101.137 238.077 101.137 238.696C101.137 239.315 101.275 239.875 101.553 240.376C101.83 240.877 102.198 241.272 102.657 241.56C103.126 241.848 103.649 241.992 104.225 241.992ZM113.669 243.192C112.848 243.192 112.128 242.984 111.509 242.568C110.89 242.152 110.442 241.587 110.165 240.872L111.173 240.392C111.418 240.915 111.76 241.331 112.197 241.64C112.645 241.949 113.136 242.104 113.669 242.104C114.181 242.104 114.613 241.981 114.965 241.736C115.317 241.48 115.493 241.149 115.493 240.744C115.493 240.445 115.408 240.211 115.237 240.04C115.066 239.859 114.869 239.72 114.645 239.624C114.421 239.528 114.224 239.459 114.053 239.416L112.821 239.064C112.032 238.84 111.461 238.525 111.109 238.12C110.757 237.715 110.581 237.245 110.581 236.712C110.581 236.211 110.709 235.773 110.965 235.4C111.221 235.027 111.568 234.739 112.005 234.536C112.442 234.333 112.928 234.232 113.461 234.232C114.186 234.232 114.842 234.424 115.429 234.808C116.026 235.181 116.448 235.704 116.693 236.376L115.669 236.856C115.456 236.376 115.146 236.003 114.741 235.736C114.346 235.459 113.904 235.32 113.413 235.32C112.933 235.32 112.549 235.443 112.261 235.688C111.973 235.933 111.829 236.243 111.829 236.616C111.829 236.904 111.904 237.133 112.053 237.304C112.202 237.475 112.373 237.603 112.565 237.688C112.768 237.773 112.944 237.837 113.093 237.88L114.517 238.296C115.21 238.499 115.749 238.813 116.133 239.24C116.528 239.667 116.725 240.168 116.725 240.744C116.725 241.213 116.592 241.635 116.325 242.008C116.069 242.381 115.712 242.675 115.253 242.888C114.794 243.091 114.266 243.192 113.669 243.192ZM122.738 243.192C121.938 243.192 121.212 243 120.562 242.616C119.922 242.221 119.415 241.683 119.042 241C118.668 240.317 118.482 239.544 118.482 238.68C118.482 237.816 118.663 237.053 119.026 236.392C119.388 235.72 119.879 235.192 120.498 234.808C121.127 234.424 121.831 234.232 122.61 234.232C123.228 234.232 123.778 234.349 124.258 234.584C124.748 234.808 125.164 235.117 125.506 235.512C125.847 235.896 126.108 236.333 126.29 236.824C126.471 237.304 126.562 237.8 126.562 238.312C126.562 238.419 126.556 238.541 126.546 238.68C126.535 238.808 126.519 238.941 126.498 239.08H119.25V237.96H125.81L125.234 238.44C125.33 237.853 125.26 237.331 125.026 236.872C124.802 236.403 124.476 236.035 124.05 235.768C123.623 235.491 123.143 235.352 122.61 235.352C122.076 235.352 121.58 235.491 121.122 235.768C120.674 236.045 120.322 236.435 120.066 236.936C119.81 237.427 119.708 238.013 119.762 238.696C119.708 239.379 119.815 239.976 120.082 240.488C120.359 240.989 120.732 241.379 121.202 241.656C121.682 241.933 122.194 242.072 122.738 242.072C123.367 242.072 123.895 241.923 124.322 241.624C124.748 241.325 125.095 240.952 125.362 240.504L126.386 241.048C126.215 241.432 125.954 241.789 125.602 242.12C125.25 242.44 124.828 242.701 124.338 242.904C123.858 243.096 123.324 243.192 122.738 243.192ZM133.284 243L130.34 234.424H131.7L134.132 241.928H133.652L135.94 234.424H137.14L139.428 241.928H138.948L141.396 234.424H142.74L139.796 243H138.596L136.372 235.656H136.708L134.484 243H133.284ZM144.146 243V230.888H145.346V236.088L145.074 236.024C145.287 235.469 145.634 235.032 146.114 234.712C146.605 234.392 147.17 234.232 147.81 234.232C148.418 234.232 148.962 234.371 149.442 234.648C149.933 234.925 150.317 235.309 150.594 235.8C150.882 236.28 151.026 236.824 151.026 237.432V243H149.826V237.896C149.826 237.373 149.73 236.931 149.538 236.568C149.346 236.205 149.079 235.928 148.738 235.736C148.407 235.533 148.029 235.432 147.602 235.432C147.175 235.432 146.791 235.533 146.45 235.736C146.109 235.928 145.837 236.211 145.634 236.584C145.442 236.947 145.346 237.384 145.346 237.896V243H144.146ZM155.798 243.192C155.254 243.192 154.769 243.091 154.342 242.888C153.915 242.675 153.579 242.387 153.334 242.024C153.089 241.661 152.966 241.245 152.966 240.776C152.966 240.328 153.062 239.923 153.254 239.56C153.446 239.187 153.745 238.872 154.15 238.616C154.555 238.36 155.073 238.179 155.702 238.072L159.062 237.512V238.6L155.99 239.112C155.371 239.219 154.923 239.416 154.646 239.704C154.379 239.992 154.246 240.333 154.246 240.728C154.246 241.112 154.395 241.437 154.694 241.704C155.003 241.971 155.398 242.104 155.878 242.104C156.465 242.104 156.977 241.981 157.414 241.736C157.851 241.48 158.193 241.139 158.438 240.712C158.683 240.285 158.806 239.811 158.806 239.288V237.112C158.806 236.6 158.619 236.184 158.246 235.864C157.873 235.544 157.387 235.384 156.79 235.384C156.267 235.384 155.809 235.517 155.414 235.784C155.019 236.04 154.726 236.376 154.534 236.792L153.446 236.2C153.606 235.837 153.857 235.507 154.198 235.208C154.55 234.909 154.95 234.675 155.398 234.504C155.846 234.323 156.31 234.232 156.79 234.232C157.419 234.232 157.974 234.355 158.454 234.6C158.945 234.845 159.323 235.187 159.59 235.624C159.867 236.051 160.006 236.547 160.006 237.112V243H158.806V241.288L158.982 241.464C158.833 241.784 158.598 242.077 158.278 242.344C157.969 242.6 157.601 242.808 157.174 242.968C156.758 243.117 156.299 243.192 155.798 243.192ZM165.598 243.096C164.83 243.096 164.238 242.872 163.822 242.424C163.406 241.976 163.198 241.336 163.198 240.504V235.624H161.614V234.424H162.014C162.377 234.424 162.665 234.307 162.878 234.072C163.091 233.827 163.198 233.523 163.198 233.16V232.44H164.398V234.424H166.286V235.624H164.398V240.504C164.398 240.792 164.441 241.048 164.526 241.272C164.611 241.485 164.755 241.656 164.958 241.784C165.171 241.912 165.454 241.976 165.806 241.976C165.891 241.976 165.993 241.971 166.11 241.96C166.227 241.949 166.329 241.939 166.414 241.928V243C166.286 243.032 166.142 243.053 165.982 243.064C165.822 243.085 165.694 243.096 165.598 243.096ZM173.128 243L170.184 234.424H171.544L173.976 241.928H173.496L175.784 234.424H176.984L179.272 241.928H178.792L181.24 234.424H182.584L179.64 243H178.44L176.216 235.656H176.552L174.328 243H173.128ZM187.85 243.192C187.039 243.192 186.303 243 185.642 242.616C184.98 242.221 184.452 241.688 184.058 241.016C183.674 240.333 183.482 239.56 183.482 238.696C183.482 237.843 183.674 237.08 184.058 236.408C184.442 235.736 184.959 235.208 185.61 234.824C186.271 234.429 187.018 234.232 187.85 234.232C188.682 234.232 189.423 234.424 190.074 234.808C190.735 235.192 191.252 235.72 191.626 236.392C192.01 237.064 192.202 237.832 192.202 238.696C192.202 239.571 192.004 240.349 191.61 241.032C191.215 241.704 190.687 242.232 190.026 242.616C189.375 243 188.65 243.192 187.85 243.192ZM187.85 241.992C188.426 241.992 188.943 241.848 189.402 241.56C189.871 241.272 190.239 240.877 190.506 240.376C190.783 239.875 190.922 239.315 190.922 238.696C190.922 238.077 190.783 237.523 190.506 237.032C190.239 236.541 189.871 236.152 189.402 235.864C188.943 235.576 188.426 235.432 187.85 235.432C187.274 235.432 186.751 235.576 186.282 235.864C185.823 236.152 185.455 236.541 185.178 237.032C184.9 237.523 184.762 238.077 184.762 238.696C184.762 239.315 184.9 239.875 185.178 240.376C185.455 240.877 185.823 241.272 186.282 241.56C186.751 241.848 187.274 241.992 187.85 241.992ZM194.318 243V234.424H195.518V235.832L195.358 235.624C195.561 235.219 195.865 234.899 196.27 234.664C196.686 234.429 197.187 234.312 197.774 234.312H198.318V235.512H197.566C196.947 235.512 196.451 235.704 196.078 236.088C195.705 236.472 195.518 237.016 195.518 237.72V243H194.318ZM199.724 243V230.888H200.924V239.368L200.412 239.288L205.228 234.424H206.78L203.42 237.864L207.084 243H205.644L202.204 238.248L202.972 238.312L200.524 240.84L200.924 239.848V243H199.724ZM211.466 243.192C210.644 243.192 209.924 242.984 209.306 242.568C208.687 242.152 208.239 241.587 207.962 240.872L208.97 240.392C209.215 240.915 209.556 241.331 209.994 241.64C210.442 241.949 210.932 242.104 211.466 242.104C211.978 242.104 212.41 241.981 212.762 241.736C213.114 241.48 213.29 241.149 213.29 240.744C213.29 240.445 213.204 240.211 213.034 240.04C212.863 239.859 212.666 239.72 212.442 239.624C212.218 239.528 212.02 239.459 211.85 239.416L210.618 239.064C209.828 238.84 209.258 238.525 208.906 238.12C208.554 237.715 208.378 237.245 208.378 236.712C208.378 236.211 208.506 235.773 208.762 235.4C209.018 235.027 209.364 234.739 209.802 234.536C210.239 234.333 210.724 234.232 211.258 234.232C211.983 234.232 212.639 234.424 213.226 234.808C213.823 235.181 214.244 235.704 214.49 236.376L213.466 236.856C213.252 236.376 212.943 236.003 212.538 235.736C212.143 235.459 211.7 235.32 211.21 235.32C210.73 235.32 210.346 235.443 210.058 235.688C209.77 235.933 209.626 236.243 209.626 236.616C209.626 236.904 209.7 237.133 209.85 237.304C209.999 237.475 210.17 237.603 210.362 237.688C210.564 237.773 210.74 237.837 210.89 237.88L212.314 238.296C213.007 238.499 213.546 238.813 213.93 239.24C214.324 239.667 214.522 240.168 214.522 240.744C214.522 241.213 214.388 241.635 214.122 242.008C213.866 242.381 213.508 242.675 213.05 242.888C212.591 243.091 212.063 243.192 211.466 243.192ZM220.229 243V235.624H218.517V234.424H220.229V233.656C220.229 233.059 220.363 232.557 220.629 232.152C220.896 231.736 221.248 231.421 221.685 231.208C222.123 230.995 222.592 230.888 223.093 230.888C223.2 230.888 223.323 230.899 223.461 230.92C223.6 230.931 223.712 230.947 223.797 230.968V232.056C223.723 232.035 223.621 232.024 223.493 232.024C223.365 232.013 223.275 232.008 223.221 232.008C222.709 232.008 222.283 232.131 221.941 232.376C221.6 232.621 221.429 233.048 221.429 233.656V234.424H223.525V235.624H221.429V243H220.229ZM229.162 243.192C228.351 243.192 227.615 243 226.954 242.616C226.293 242.221 225.765 241.688 225.37 241.016C224.986 240.333 224.794 239.56 224.794 238.696C224.794 237.843 224.986 237.08 225.37 236.408C225.754 235.736 226.271 235.208 226.922 234.824C227.583 234.429 228.33 234.232 229.162 234.232C229.994 234.232 230.735 234.424 231.386 234.808C232.047 235.192 232.565 235.72 232.938 236.392C233.322 237.064 233.514 237.832 233.514 238.696C233.514 239.571 233.317 240.349 232.922 241.032C232.527 241.704 231.999 242.232 231.338 242.616C230.687 243 229.962 243.192 229.162 243.192ZM229.162 241.992C229.738 241.992 230.255 241.848 230.714 241.56C231.183 241.272 231.551 240.877 231.818 240.376C232.095 239.875 232.234 239.315 232.234 238.696C232.234 238.077 232.095 237.523 231.818 237.032C231.551 236.541 231.183 236.152 230.714 235.864C230.255 235.576 229.738 235.432 229.162 235.432C228.586 235.432 228.063 235.576 227.594 235.864C227.135 236.152 226.767 236.541 226.49 237.032C226.213 237.523 226.074 238.077 226.074 238.696C226.074 239.315 226.213 239.875 226.49 240.376C226.767 240.877 227.135 241.272 227.594 241.56C228.063 241.848 228.586 241.992 229.162 241.992ZM235.63 243V234.424H236.83V235.832L236.67 235.624C236.873 235.219 237.177 234.899 237.582 234.664C237.998 234.429 238.5 234.312 239.086 234.312H239.63V235.512H238.878C238.26 235.512 237.764 235.704 237.39 236.088C237.017 236.472 236.83 237.016 236.83 237.72V243H235.63ZM243.931 246.52C243.761 246.52 243.585 246.504 243.403 246.472C243.233 246.451 243.062 246.408 242.891 246.344V245.224C242.998 245.235 243.131 245.251 243.291 245.272C243.462 245.304 243.633 245.32 243.803 245.32C244.326 245.32 244.726 245.208 245.003 244.984C245.281 244.771 245.553 244.355 245.819 243.736L246.363 242.456L246.331 243.512L242.699 234.424H243.995L246.971 241.928H246.635L249.595 234.424H250.923L247.003 244.088C246.833 244.504 246.614 244.899 246.347 245.272C246.091 245.645 245.766 245.944 245.371 246.168C244.977 246.403 244.497 246.52 243.931 246.52ZM256.193 243.192C255.383 243.192 254.647 243 253.985 242.616C253.324 242.221 252.796 241.688 252.401 241.016C252.017 240.333 251.825 239.56 251.825 238.696C251.825 237.843 252.017 237.08 252.401 236.408C252.785 235.736 253.303 235.208 253.953 234.824C254.615 234.429 255.361 234.232 256.193 234.232C257.025 234.232 257.767 234.424 258.417 234.808C259.079 235.192 259.596 235.72 259.969 236.392C260.353 237.064 260.545 237.832 260.545 238.696C260.545 239.571 260.348 240.349 259.953 241.032C259.559 241.704 259.031 242.232 258.369 242.616C257.719 243 256.993 243.192 256.193 243.192ZM256.193 241.992C256.769 241.992 257.287 241.848 257.745 241.56C258.215 241.272 258.583 240.877 258.849 240.376C259.127 239.875 259.265 239.315 259.265 238.696C259.265 238.077 259.127 237.523 258.849 237.032C258.583 236.541 258.215 236.152 257.745 235.864C257.287 235.576 256.769 235.432 256.193 235.432C255.617 235.432 255.095 235.576 254.625 235.864C254.167 236.152 253.799 236.541 253.521 237.032C253.244 237.523 253.105 238.077 253.105 238.696C253.105 239.315 253.244 239.875 253.521 240.376C253.799 240.877 254.167 241.272 254.625 241.56C255.095 241.848 255.617 241.992 256.193 241.992ZM265.702 243.192C265.104 243.192 264.56 243.053 264.07 242.776C263.579 242.488 263.19 242.093 262.902 241.592C262.624 241.08 262.486 240.493 262.486 239.832V234.424H263.686V239.688C263.686 240.147 263.776 240.552 263.958 240.904C264.15 241.245 264.411 241.512 264.742 241.704C265.083 241.896 265.472 241.992 265.91 241.992C266.347 241.992 266.736 241.896 267.078 241.704C267.419 241.501 267.686 241.219 267.878 240.856C268.07 240.483 268.166 240.04 268.166 239.528V234.424H269.366V243H268.166V241.336L268.438 241.4C268.235 241.955 267.888 242.392 267.398 242.712C266.907 243.032 266.342 243.192 265.702 243.192ZM272.25 243V241.24H273.53V243H272.25ZM75.6971 263V251.08H83.0571V252.28H76.9771V256.424H82.5771V257.624H76.9771V263H75.6971ZM84.8179 263V250.888H86.0179V263H84.8179ZM92.3782 263.192C91.5782 263.192 90.8529 263 90.2022 262.616C89.5622 262.221 89.0555 261.683 88.6822 261C88.3089 260.317 88.1222 259.544 88.1222 258.68C88.1222 257.816 88.3035 257.053 88.6662 256.392C89.0289 255.72 89.5195 255.192 90.1382 254.808C90.7675 254.424 91.4715 254.232 92.2502 254.232C92.8689 254.232 93.4182 254.349 93.8982 254.584C94.3889 254.808 94.8049 255.117 95.1462 255.512C95.4875 255.896 95.7489 256.333 95.9302 256.824C96.1115 257.304 96.2022 257.8 96.2022 258.312C96.2022 258.419 96.1969 258.541 96.1862 258.68C96.1755 258.808 96.1595 258.941 96.1382 259.08H88.8902V257.96H95.4502L94.8742 258.44C94.9702 257.853 94.9009 257.331 94.6662 256.872C94.4422 256.403 94.1169 256.035 93.6902 255.768C93.2635 255.491 92.7835 255.352 92.2502 255.352C91.7169 255.352 91.2209 255.491 90.7622 255.768C90.3142 256.045 89.9622 256.435 89.7062 256.936C89.4502 257.427 89.3489 258.013 89.4022 258.696C89.3489 259.379 89.4555 259.976 89.7222 260.488C89.9995 260.989 90.3729 261.379 90.8422 261.656C91.3222 261.933 91.8342 262.072 92.3782 262.072C93.0075 262.072 93.5355 261.923 93.9622 261.624C94.3889 261.325 94.7355 260.952 95.0022 260.504L96.0262 261.048C95.8555 261.432 95.5942 261.789 95.2422 262.12C94.8902 262.44 94.4689 262.701 93.9782 262.904C93.4982 263.096 92.9649 263.192 92.3782 263.192ZM97.1057 263L100.114 258.712L97.1217 254.424H98.5937L101.25 258.28H100.434L103.074 254.424H104.546L101.554 258.712L104.546 263H103.074L100.434 259.144H101.25L98.5937 263H97.1057ZM105.959 263V254.424H107.159V263H105.959ZM105.959 252.84V251.08H107.159V252.84H105.959ZM113.951 263.192C113.215 263.192 112.548 263.027 111.951 262.696C111.364 262.355 110.921 261.875 110.623 261.256L110.815 261.08V263H109.615V250.888H110.815V256.344L110.623 256.008C110.964 255.464 111.417 255.032 111.983 254.712C112.559 254.392 113.215 254.232 113.951 254.232C114.761 254.232 115.481 254.429 116.111 254.824C116.751 255.208 117.252 255.736 117.615 256.408C117.988 257.08 118.175 257.848 118.175 258.712C118.175 259.565 117.988 260.333 117.615 261.016C117.252 261.688 116.751 262.221 116.111 262.616C115.481 263 114.761 263.192 113.951 263.192ZM113.887 261.992C114.463 261.992 114.975 261.848 115.423 261.56C115.881 261.272 116.239 260.883 116.495 260.392C116.761 259.891 116.895 259.331 116.895 258.712C116.895 258.083 116.761 257.523 116.495 257.032C116.239 256.541 115.881 256.152 115.423 255.864C114.975 255.576 114.463 255.432 113.887 255.432C113.311 255.432 112.788 255.576 112.319 255.864C111.86 256.152 111.492 256.547 111.215 257.048C110.948 257.539 110.815 258.093 110.815 258.712C110.815 259.331 110.948 259.891 111.215 260.392C111.492 260.883 111.86 261.272 112.319 261.56C112.788 261.848 113.311 261.992 113.887 261.992ZM120.287 263V254.424H121.487V263H120.287ZM120.287 252.84V251.08H121.487V252.84H120.287ZM123.943 263V250.888H125.143V263H123.943ZM127.599 263V254.424H128.799V263H127.599ZM127.599 252.84V251.08H128.799V252.84H127.599ZM134.535 263.096C133.767 263.096 133.175 262.872 132.759 262.424C132.343 261.976 132.135 261.336 132.135 260.504V255.624H130.551V254.424H130.951C131.314 254.424 131.602 254.307 131.815 254.072C132.029 253.827 132.135 253.523 132.135 253.16V252.44H133.335V254.424H135.223V255.624H133.335V260.504C133.335 260.792 133.378 261.048 133.463 261.272C133.549 261.485 133.693 261.656 133.895 261.784C134.109 261.912 134.391 261.976 134.743 261.976C134.829 261.976 134.93 261.971 135.047 261.96C135.165 261.949 135.266 261.939 135.351 261.928V263C135.223 263.032 135.079 263.053 134.919 263.064C134.759 263.085 134.631 263.096 134.535 263.096ZM137.635 266.52C137.464 266.52 137.288 266.504 137.107 266.472C136.936 266.451 136.765 266.408 136.595 266.344V265.224C136.701 265.235 136.835 265.251 136.995 265.272C137.165 265.304 137.336 265.32 137.507 265.32C138.029 265.32 138.429 265.208 138.707 264.984C138.984 264.771 139.256 264.355 139.523 263.736L140.067 262.456L140.035 263.512L136.403 254.424H137.699L140.675 261.928H140.339L143.299 254.424H144.627L140.707 264.088C140.536 264.504 140.317 264.899 140.051 265.272C139.795 265.645 139.469 265.944 139.075 266.168C138.68 266.403 138.2 266.52 137.635 266.52ZM149.635 263V255.624H147.923V254.424H149.635V253.656C149.635 253.059 149.769 252.557 150.035 252.152C150.302 251.736 150.654 251.421 151.091 251.208C151.529 250.995 151.998 250.888 152.499 250.888C152.606 250.888 152.729 250.899 152.867 250.92C153.006 250.931 153.118 250.947 153.203 250.968V252.056C153.129 252.035 153.027 252.024 152.899 252.024C152.771 252.013 152.681 252.008 152.627 252.008C152.115 252.008 151.689 252.131 151.347 252.376C151.006 252.621 150.835 253.048 150.835 253.656V254.424H152.931V255.624H150.835V263H149.635ZM158.568 263.192C157.758 263.192 157.022 263 156.36 262.616C155.699 262.221 155.171 261.688 154.776 261.016C154.392 260.333 154.2 259.56 154.2 258.696C154.2 257.843 154.392 257.08 154.776 256.408C155.16 255.736 155.678 255.208 156.328 254.824C156.99 254.429 157.736 254.232 158.568 254.232C159.4 254.232 160.142 254.424 160.792 254.808C161.454 255.192 161.971 255.72 162.344 256.392C162.728 257.064 162.92 257.832 162.92 258.696C162.92 259.571 162.723 260.349 162.328 261.032C161.934 261.704 161.406 262.232 160.744 262.616C160.094 263 159.368 263.192 158.568 263.192ZM158.568 261.992C159.144 261.992 159.662 261.848 160.12 261.56C160.59 261.272 160.958 260.877 161.224 260.376C161.502 259.875 161.64 259.315 161.64 258.696C161.64 258.077 161.502 257.523 161.224 257.032C160.958 256.541 160.59 256.152 160.12 255.864C159.662 255.576 159.144 255.432 158.568 255.432C157.992 255.432 157.47 255.576 157 255.864C156.542 256.152 156.174 256.541 155.896 257.032C155.619 257.523 155.48 258.077 155.48 258.696C155.48 259.315 155.619 259.875 155.896 260.376C156.174 260.877 156.542 261.272 157 261.56C157.47 261.848 157.992 261.992 158.568 261.992ZM165.037 263V254.424H166.237V255.832L166.077 255.624C166.279 255.219 166.583 254.899 166.989 254.664C167.405 254.429 167.906 254.312 168.493 254.312H169.037V255.512H168.285C167.666 255.512 167.17 255.704 166.797 256.088C166.423 256.472 166.237 257.016 166.237 257.72V263H165.037ZM177.066 263.192C176.266 263.192 175.54 263 174.89 262.616C174.25 262.221 173.743 261.683 173.37 261C172.996 260.317 172.81 259.544 172.81 258.68C172.81 257.816 172.991 257.053 173.354 256.392C173.716 255.72 174.207 255.192 174.826 254.808C175.455 254.424 176.159 254.232 176.938 254.232C177.556 254.232 178.106 254.349 178.586 254.584C179.076 254.808 179.492 255.117 179.834 255.512C180.175 255.896 180.436 256.333 180.618 256.824C180.799 257.304 180.89 257.8 180.89 258.312C180.89 258.419 180.884 258.541 180.874 258.68C180.863 258.808 180.847 258.941 180.826 259.08H173.578V257.96H180.138L179.562 258.44C179.658 257.853 179.588 257.331 179.354 256.872C179.13 256.403 178.804 256.035 178.378 255.768C177.951 255.491 177.471 255.352 176.938 255.352C176.404 255.352 175.908 255.491 175.45 255.768C175.002 256.045 174.65 256.435 174.394 256.936C174.138 257.427 174.036 258.013 174.09 258.696C174.036 259.379 174.143 259.976 174.41 260.488C174.687 260.989 175.06 261.379 175.53 261.656C176.01 261.933 176.522 262.072 177.066 262.072C177.695 262.072 178.223 261.923 178.65 261.624C179.076 261.325 179.423 260.952 179.69 260.504L180.714 261.048C180.543 261.432 180.282 261.789 179.93 262.12C179.578 262.44 179.156 262.701 178.666 262.904C178.186 263.096 177.652 263.192 177.066 263.192ZM185.137 263L181.793 254.424H183.137L185.953 261.944H185.521L188.353 254.424H189.713L186.337 263H185.137ZM194.863 263.192C194.063 263.192 193.337 263 192.687 262.616C192.047 262.221 191.54 261.683 191.167 261C190.793 260.317 190.607 259.544 190.607 258.68C190.607 257.816 190.788 257.053 191.151 256.392C191.513 255.72 192.004 255.192 192.623 254.808C193.252 254.424 193.956 254.232 194.735 254.232C195.353 254.232 195.903 254.349 196.383 254.584C196.873 254.808 197.289 255.117 197.631 255.512C197.972 255.896 198.233 256.333 198.415 256.824C198.596 257.304 198.687 257.8 198.687 258.312C198.687 258.419 198.681 258.541 198.671 258.68C198.66 258.808 198.644 258.941 198.623 259.08H191.375V257.96H197.935L197.359 258.44C197.455 257.853 197.385 257.331 197.151 256.872C196.927 256.403 196.601 256.035 196.175 255.768C195.748 255.491 195.268 255.352 194.735 255.352C194.201 255.352 193.705 255.491 193.247 255.768C192.799 256.045 192.447 256.435 192.191 256.936C191.935 257.427 191.833 258.013 191.887 258.696C191.833 259.379 191.94 259.976 192.207 260.488C192.484 260.989 192.857 261.379 193.327 261.656C193.807 261.933 194.319 262.072 194.863 262.072C195.492 262.072 196.02 261.923 196.447 261.624C196.873 261.325 197.22 260.952 197.487 260.504L198.511 261.048C198.34 261.432 198.079 261.789 197.727 262.12C197.375 262.44 196.953 262.701 196.463 262.904C195.983 263.096 195.449 263.192 194.863 263.192ZM200.802 263V254.424H202.002V255.832L201.842 255.624C202.045 255.219 202.349 254.899 202.754 254.664C203.17 254.429 203.672 254.312 204.258 254.312H204.802V255.512H204.05C203.432 255.512 202.936 255.704 202.562 256.088C202.189 256.472 202.002 257.016 202.002 257.72V263H200.802ZM206.385 266.52C206.214 266.52 206.038 266.504 205.857 266.472C205.686 266.451 205.515 266.408 205.345 266.344V265.224C205.451 265.235 205.585 265.251 205.745 265.272C205.915 265.304 206.086 265.32 206.257 265.32C206.779 265.32 207.179 265.208 207.457 264.984C207.734 264.771 208.006 264.355 208.273 263.736L208.817 262.456L208.785 263.512L205.153 254.424H206.449L209.425 261.928H209.089L212.049 254.424H213.377L209.457 264.088C209.286 264.504 209.067 264.899 208.801 265.272C208.545 265.645 208.219 265.944 207.825 266.168C207.43 266.403 206.95 266.52 206.385 266.52ZM217.505 263V250.888H218.705V259.368L218.193 259.288L223.009 254.424H224.561L221.201 257.864L224.865 263H223.425L219.985 258.248L220.753 258.312L218.305 260.84L218.705 259.848V263H217.505ZM226.271 263V254.424H227.471V263H226.271ZM226.271 252.84V251.08H227.471V252.84H226.271ZM229.927 263V254.424H231.127V256.088L230.855 256.024C231.069 255.469 231.415 255.032 231.895 254.712C232.386 254.392 232.951 254.232 233.591 254.232C234.199 254.232 234.743 254.371 235.223 254.648C235.714 254.925 236.098 255.309 236.375 255.8C236.663 256.28 236.807 256.824 236.807 257.432V263H235.607V257.896C235.607 257.373 235.511 256.931 235.319 256.568C235.138 256.205 234.877 255.928 234.535 255.736C234.205 255.533 233.821 255.432 233.383 255.432C232.946 255.432 232.557 255.533 232.215 255.736C231.874 255.928 231.607 256.211 231.415 256.584C231.223 256.947 231.127 257.384 231.127 257.896V263H229.927ZM242.971 263.192C242.171 263.192 241.451 263 240.811 262.616C240.171 262.221 239.665 261.688 239.291 261.016C238.929 260.333 238.747 259.565 238.747 258.712C238.747 257.848 238.929 257.08 239.291 256.408C239.665 255.736 240.166 255.208 240.795 254.824C241.435 254.429 242.161 254.232 242.971 254.232C243.707 254.232 244.363 254.392 244.939 254.712C245.515 255.032 245.969 255.464 246.299 256.008L246.107 256.344V250.888H247.307V263H246.107V261.08L246.299 261.256C246.001 261.875 245.553 262.355 244.955 262.696C244.369 263.027 243.707 263.192 242.971 263.192ZM243.035 261.992C243.611 261.992 244.129 261.848 244.587 261.56C245.057 261.272 245.425 260.883 245.691 260.392C245.969 259.891 246.107 259.331 246.107 258.712C246.107 258.093 245.969 257.539 245.691 257.048C245.425 256.547 245.057 256.152 244.587 255.864C244.129 255.576 243.611 255.432 243.035 255.432C242.47 255.432 241.958 255.576 241.499 255.864C241.041 256.152 240.678 256.541 240.411 257.032C240.155 257.523 240.027 258.083 240.027 258.712C240.027 259.331 240.155 259.891 240.411 260.392C240.678 260.883 241.035 261.272 241.483 261.56C241.942 261.848 242.459 261.992 243.035 261.992ZM256.506 263.192C255.695 263.192 254.959 263 254.298 262.616C253.636 262.221 253.108 261.688 252.714 261.016C252.33 260.333 252.138 259.56 252.138 258.696C252.138 257.843 252.33 257.08 252.714 256.408C253.098 255.736 253.615 255.208 254.266 254.824C254.927 254.429 255.674 254.232 256.506 254.232C257.338 254.232 258.079 254.424 258.73 254.808C259.391 255.192 259.908 255.72 260.282 256.392C260.666 257.064 260.858 257.832 260.858 258.696C260.858 259.571 260.66 260.349 260.266 261.032C259.871 261.704 259.343 262.232 258.682 262.616C258.031 263 257.306 263.192 256.506 263.192ZM256.506 261.992C257.082 261.992 257.599 261.848 258.058 261.56C258.527 261.272 258.895 260.877 259.162 260.376C259.439 259.875 259.578 259.315 259.578 258.696C259.578 258.077 259.439 257.523 259.162 257.032C258.895 256.541 258.527 256.152 258.058 255.864C257.599 255.576 257.082 255.432 256.506 255.432C255.93 255.432 255.407 255.576 254.938 255.864C254.479 256.152 254.111 256.541 253.834 257.032C253.556 257.523 253.418 258.077 253.418 258.696C253.418 259.315 253.556 259.875 253.834 260.376C254.111 260.877 254.479 261.272 254.938 261.56C255.407 261.848 255.93 261.992 256.506 261.992ZM263.542 263V255.624H261.83V254.424H263.542V253.656C263.542 253.059 263.675 252.557 263.942 252.152C264.208 251.736 264.56 251.421 264.998 251.208C265.435 250.995 265.904 250.888 266.406 250.888C266.512 250.888 266.635 250.899 266.774 250.92C266.912 250.931 267.024 250.947 267.11 250.968V252.056C267.035 252.035 266.934 252.024 266.806 252.024C266.678 252.013 266.587 252.008 266.534 252.008C266.022 252.008 265.595 252.131 265.254 252.376C264.912 252.621 264.742 253.048 264.742 253.656V254.424H266.838V255.624H264.742V263H263.542ZM139.81 283V274.424H141.01V276.056L140.818 275.816C141.053 275.315 141.399 274.925 141.858 274.648C142.327 274.371 142.839 274.232 143.394 274.232C144.055 274.232 144.653 274.419 145.186 274.792C145.719 275.165 146.098 275.651 146.322 276.248L145.986 276.264C146.199 275.603 146.567 275.101 147.09 274.76C147.623 274.408 148.21 274.232 148.85 274.232C149.426 274.232 149.954 274.371 150.434 274.648C150.925 274.925 151.314 275.309 151.602 275.8C151.901 276.28 152.05 276.824 152.05 277.432V283H150.85V277.896C150.85 277.373 150.754 276.931 150.562 276.568C150.381 276.205 150.13 275.928 149.81 275.736C149.49 275.533 149.122 275.432 148.706 275.432C148.301 275.432 147.933 275.533 147.602 275.736C147.271 275.928 147.01 276.211 146.818 276.584C146.626 276.947 146.53 277.384 146.53 277.896V283H145.33V277.896C145.33 277.373 145.234 276.931 145.042 276.568C144.861 276.205 144.61 275.928 144.29 275.736C143.97 275.533 143.602 275.432 143.186 275.432C142.77 275.432 142.397 275.533 142.066 275.736C141.746 275.928 141.49 276.211 141.298 276.584C141.106 276.947 141.01 277.384 141.01 277.896V283H139.81ZM158.245 283.192C157.445 283.192 156.72 283 156.069 282.616C155.429 282.221 154.923 281.683 154.549 281C154.176 280.317 153.989 279.544 153.989 278.68C153.989 277.816 154.171 277.053 154.533 276.392C154.896 275.72 155.387 275.192 156.005 274.808C156.635 274.424 157.339 274.232 158.117 274.232C158.736 274.232 159.285 274.349 159.765 274.584C160.256 274.808 160.672 275.117 161.013 275.512C161.355 275.896 161.616 276.333 161.797 276.824C161.979 277.304 162.069 277.8 162.069 278.312C162.069 278.419 162.064 278.541 162.053 278.68C162.043 278.808 162.027 278.941 162.005 279.08H154.757V277.96H161.317L160.741 278.44C160.837 277.853 160.768 277.331 160.533 276.872C160.309 276.403 159.984 276.035 159.557 275.768C159.131 275.491 158.651 275.352 158.117 275.352C157.584 275.352 157.088 275.491 156.629 275.768C156.181 276.045 155.829 276.435 155.573 276.936C155.317 277.427 155.216 278.013 155.269 278.696C155.216 279.379 155.323 279.976 155.589 280.488C155.867 280.989 156.24 281.379 156.709 281.656C157.189 281.933 157.701 282.072 158.245 282.072C158.875 282.072 159.403 281.923 159.829 281.624C160.256 281.325 160.603 280.952 160.869 280.504L161.893 281.048C161.723 281.432 161.461 281.789 161.109 282.12C160.757 282.44 160.336 282.701 159.845 282.904C159.365 283.096 158.832 283.192 158.245 283.192ZM168.089 283.192C167.289 283.192 166.564 283 165.913 282.616C165.273 282.221 164.766 281.683 164.393 281C164.02 280.317 163.833 279.544 163.833 278.68C163.833 277.816 164.014 277.053 164.377 276.392C164.74 275.72 165.23 275.192 165.849 274.808C166.478 274.424 167.182 274.232 167.961 274.232C168.58 274.232 169.129 274.349 169.609 274.584C170.1 274.808 170.516 275.117 170.857 275.512C171.198 275.896 171.46 276.333 171.641 276.824C171.822 277.304 171.913 277.8 171.913 278.312C171.913 278.419 171.908 278.541 171.897 278.68C171.886 278.808 171.87 278.941 171.849 279.08H164.601V277.96H171.161L170.585 278.44C170.681 277.853 170.612 277.331 170.377 276.872C170.153 276.403 169.828 276.035 169.401 275.768C168.974 275.491 168.494 275.352 167.961 275.352C167.428 275.352 166.932 275.491 166.473 275.768C166.025 276.045 165.673 276.435 165.417 276.936C165.161 277.427 165.06 278.013 165.113 278.696C165.06 279.379 165.166 279.976 165.433 280.488C165.71 280.989 166.084 281.379 166.553 281.656C167.033 281.933 167.545 282.072 168.089 282.072C168.718 282.072 169.246 281.923 169.673 281.624C170.1 281.325 170.446 280.952 170.713 280.504L171.737 281.048C171.566 281.432 171.305 281.789 170.953 282.12C170.601 282.44 170.18 282.701 169.689 282.904C169.209 283.096 168.676 283.192 168.089 283.192ZM177.309 283.096C176.541 283.096 175.949 282.872 175.533 282.424C175.117 281.976 174.909 281.336 174.909 280.504V275.624H173.325V274.424H173.725C174.088 274.424 174.376 274.307 174.589 274.072C174.802 273.827 174.909 273.523 174.909 273.16V272.44H176.109V274.424H177.997V275.624H176.109V280.504C176.109 280.792 176.152 281.048 176.237 281.272C176.322 281.485 176.466 281.656 176.669 281.784C176.882 281.912 177.165 281.976 177.517 281.976C177.602 281.976 177.704 281.971 177.821 281.96C177.938 281.949 178.04 281.939 178.125 281.928V283C177.997 283.032 177.853 283.053 177.693 283.064C177.533 283.085 177.405 283.096 177.309 283.096ZM183.272 283.192C182.675 283.192 182.131 283.053 181.64 282.776C181.149 282.488 180.76 282.093 180.472 281.592C180.195 281.08 180.056 280.493 180.056 279.832V274.424H181.256V279.688C181.256 280.147 181.347 280.552 181.528 280.904C181.72 281.245 181.981 281.512 182.312 281.704C182.653 281.896 183.043 281.992 183.48 281.992C183.917 281.992 184.307 281.896 184.648 281.704C184.989 281.501 185.256 281.219 185.448 280.856C185.64 280.483 185.736 280.04 185.736 279.528V274.424H186.936V283H185.736V281.336L186.008 281.4C185.805 281.955 185.459 282.392 184.968 282.712C184.477 283.032 183.912 283.192 183.272 283.192ZM189.404 286.2V274.424H190.604V276.344L190.412 276.008C190.753 275.464 191.207 275.032 191.772 274.712C192.348 274.392 193.004 274.232 193.74 274.232C194.551 274.232 195.271 274.429 195.9 274.824C196.54 275.208 197.041 275.736 197.404 276.408C197.777 277.08 197.964 277.848 197.964 278.712C197.964 279.565 197.777 280.333 197.404 281.016C197.041 281.688 196.54 282.221 195.9 282.616C195.271 283 194.551 283.192 193.74 283.192C193.004 283.192 192.337 283.027 191.74 282.696C191.153 282.355 190.711 281.875 190.412 281.256L190.604 281.08V286.2H189.404ZM193.676 281.992C194.252 281.992 194.764 281.848 195.212 281.56C195.671 281.272 196.028 280.883 196.284 280.392C196.551 279.891 196.684 279.331 196.684 278.712C196.684 278.083 196.551 277.523 196.284 277.032C196.028 276.541 195.671 276.152 195.212 275.864C194.764 275.576 194.252 275.432 193.676 275.432C193.1 275.432 192.577 275.576 192.108 275.864C191.649 276.152 191.281 276.547 191.004 277.048C190.737 277.539 190.604 278.093 190.604 278.712C190.604 279.331 190.737 279.891 191.004 280.392C191.281 280.883 191.649 281.272 192.108 281.56C192.577 281.848 193.1 281.992 193.676 281.992ZM200.492 283V281.24H201.772V283H200.492Z" fill="#1E1E1E"/>
<path d="M191.703 139.224C176.183 114.309 158.315 90.6173 137.07 70.3229C167.278 34.17 197.531 -2.01965 227.482 -38.4016C234.351 -46.7376 223.618 -61.6094 213.704 -55.7534C169.123 -29.4348 125.048 -0.127178 87.4495 35.6975C78.3791 44.3498 89.4884 59.149 99.7594 51.201C119.917 35.6289 139.963 20.2962 160.525 5.68414C144.734 24.57 129.016 43.4538 113.214 62.3488C108.832 67.6171 110.382 73.2992 114.224 76.8788C125.361 89.7164 136.177 102.507 146.449 115.729C131.921 106.96 118.2 96.7583 105.285 85.1257C101.164 81.4093 96.7365 81.5347 93.1966 83.705C92.4805 83.991 91.6743 84.3298 90.939 84.7818C71.7362 96.6385 52.9445 109.393 34.3363 122.379C46.3599 105.995 59.5096 90.5057 73.7338 75.5386C78.8954 70.0651 75.2811 62.4246 69.6415 59.1232C63.2282 44.0612 55.4023 29.3108 47.0379 14.8561C51.8259 19.3421 56.4951 24.1297 61.246 29.2103C71.1884 39.8315 86.8059 27.3557 78.8902 15.2006C63.2873 -8.63174 38.6494 -25.5728 13.2427 -37.5901C4.13479 -41.8858 -7.82337 -30.432 -2.62248 -21.2447C14.1658 8.33322 29.7246 40.6391 49.7212 68.4607C23.6779 95.7695 2.28403 126.582 -15.8552 159.783C-21.8156 170.712 -6.34101 178.655 1.99482 172.903C33.1012 151.519 64.9721 130.885 95.3271 108.365C119.944 129.579 147.616 145.995 178.096 157.582C189.956 162.065 197.565 148.603 191.666 139.178L191.703 139.224Z" fill="#FFD93D" fill-opacity="0.06"/>
</g>
<rect x="0.5" y="0.5" width="341" height="343" rx="31.5" stroke="#FFD93D"/>
<defs>
<clipPath id="clip0_2366_3687">
<rect width="342" height="344" rx="32" fill="white"/>
</clipPath>
</defs>
</svg>
