<svg width="256" height="64" viewBox="0 0 256 64" fill="none" xmlns="http://www.w3.org/2000/svg">
<path d="M21.4514 64.715C21.4514 64.715 70.3892 59.2667 79.8609 63.7712C89.3325 68.2757 77.8869 75.5898 108.202 77.6429C138.516 79.6871 162.819 65.3396 162.819 65.3396C162.819 65.3396 175.294 78.6824 205.533 76.0702C235.781 73.4579 241.331 59.0922 241.331 59.0922C241.331 59.0922 328.594 59.6898 333.612 57.6012C338.621 55.5127 279.292 43.6764 279.292 43.6764C279.292 43.6764 284.81 27.8836 262.978 15.9947C241.146 4.11467 229.097 16.5421 229.097 16.5421C229.097 16.5421 212.972 1.09905 170.406 0.0380031C127.84 -1.01412 116.635 20.117 116.635 20.117C116.635 20.117 77.573 12.6019 58.9937 23.3682C40.4233 34.1344 49.3254 49.7031 49.3254 49.7031C49.3254 49.7031 3.59695 58.5882 0.306424 64.4588C-2.99302 70.3296 21.4514 64.715 21.4514 64.715Z" fill="url(#paint0_linear_2366_11637)" fill-opacity="0.4"/>
<defs>
<linearGradient id="paint0_linear_2366_11637" x1="-0.391682" y1="41.2001" x2="333.565" y2="35.8041" gradientUnits="userSpaceOnUse">
<stop stop-color="#FF4F93" stop-opacity="0.2"/>
<stop offset="1" stop-color="#FF4F93" stop-opacity="0.27"/>
</linearGradient>
</defs>
</svg>
