<svg width="599" height="189" viewBox="0 0 599 189" fill="none" xmlns="http://www.w3.org/2000/svg">
<rect y="19.0921" width="593.502" height="169.76" rx="24" transform="rotate(-1.84344 0 19.0921)" fill="white"/>
<rect x="0.515825" y="19.5757" width="592.502" height="168.76" rx="23.5" transform="rotate(-1.84344 0.515825 19.5757)" stroke="#FF4F93" stroke-opacity="0.3"/>
<rect x="33.2832" y="58.4217" width="40" height="40" rx="14" transform="rotate(-1.84344 33.2832 58.4217)" fill="#FF4F93" fill-opacity="0.1"/>
<path d="M53.7278 71.916L53.2488 72.408C53.315 72.4724 53.3935 72.5228 53.4796 72.5562C53.5657 72.5895 53.6576 72.6052 53.7499 72.6022C53.8422 72.5993 53.933 72.5777 54.0168 72.5389C54.1005 72.5 54.1756 72.4447 54.2375 72.3762L53.7278 71.916ZM51.7492 83.7304C50.326 82.6811 48.7747 81.6615 47.5272 80.3453C46.3052 79.054 45.4314 77.5305 45.3666 75.5183L43.9934 75.5625C44.0719 78.0032 45.1481 79.8326 46.5303 81.2902C47.8869 82.722 49.5947 83.8493 50.9334 84.8363L51.7492 83.7304ZM45.3666 75.5183C45.3033 73.5499 46.3625 71.8626 47.8589 71.1188C49.313 70.3966 51.3017 70.5113 53.2488 72.408L54.2069 71.425C51.8983 69.1743 49.2896 68.8742 47.2474 69.8885C45.2504 70.8811 43.9135 73.0796 43.9934 75.5625L45.3666 75.5183ZM50.9334 84.8363C51.4149 85.191 51.9311 85.5685 52.4507 85.8505C52.9702 86.1326 53.5602 86.3555 54.1919 86.3352L54.1477 84.9619C53.8639 84.9711 53.5271 84.8719 53.1055 84.6426C52.683 84.4143 52.2429 84.0949 51.7492 83.7304L50.9334 84.8363ZM57.3474 84.6298C58.6197 83.5579 60.2516 82.325 61.5133 80.808C62.7989 79.2636 63.7552 77.3697 63.6766 74.929L62.3034 74.9732C62.3682 76.9854 61.5941 78.5619 60.4577 79.9291C59.2974 81.3228 57.8148 82.4401 56.4621 83.5787L57.3474 84.6298ZM63.6766 74.929C63.5967 72.4461 62.1221 70.3381 60.0644 69.476C57.9613 68.5951 55.3791 69.0622 53.2182 71.4559L54.2375 72.3762C56.0587 70.3591 58.0359 70.1159 59.5334 70.7431C61.0745 71.3891 62.24 73.0039 62.3034 74.9732L63.6766 74.929ZM56.4621 83.5787C55.9928 83.9742 55.5742 84.3212 55.1672 84.5763C54.7603 84.8313 54.4315 84.9528 54.1477 84.9619L54.1919 86.3352C54.8236 86.3148 55.3981 86.0535 55.8984 85.7395C56.3997 85.4247 56.8896 85.0148 57.3474 84.6298L56.4621 83.5787Z" fill="#FF4F93"/>
<path d="M41.3346 143.206L41.1184 136.49L35.7579 128.478L38.4165 128.393L42.7074 134.878L41.7679 134.908L45.6128 128.161L48.2714 128.075L43.4572 136.415L43.6734 143.131L41.3346 143.206ZM53.6302 143.051C52.5907 143.084 51.6299 142.868 50.7478 142.403C49.8791 141.938 49.1778 141.286 48.6439 140.45C48.1101 139.613 47.8258 138.655 47.791 137.576C47.7558 136.483 47.9779 135.509 48.4573 134.653C48.9363 133.784 49.5945 133.096 50.4319 132.588C51.269 132.068 52.2139 131.791 53.2667 131.757C54.3328 131.722 55.2935 131.938 56.149 132.404C57.0173 132.857 57.7117 133.501 58.2323 134.338C58.7657 135.162 59.05 136.12 59.0852 137.212C59.1203 138.305 58.8984 139.286 58.4195 140.155C57.9405 141.024 57.2826 141.719 56.4455 142.24C55.6081 142.747 54.6696 143.017 53.6302 143.051ZM53.5626 140.952C54.2023 140.931 54.7637 140.76 55.2469 140.437C55.7301 140.115 56.1031 139.683 56.3658 139.141C56.6414 138.585 56.7683 137.967 56.7464 137.288C56.7245 136.608 56.5584 136.006 56.2481 135.483C55.951 134.959 55.5511 134.551 55.0481 134.261C54.5452 133.97 53.9739 133.835 53.3342 133.856C52.7079 133.876 52.1464 134.047 51.6499 134.37C51.1667 134.692 50.7871 135.125 50.511 135.667C50.2483 136.209 50.1279 136.82 50.1498 137.5C50.1717 138.18 50.3313 138.788 50.6288 139.325C50.9391 139.849 51.3457 140.256 51.8487 140.547C52.365 140.837 52.9363 140.972 53.5626 140.952ZM65.3305 142.674C64.5176 142.7 63.7988 142.543 63.1742 142.203C62.5492 141.85 62.053 141.352 61.6854 140.71C61.3308 140.055 61.1396 139.294 61.1117 138.428L60.8968 131.751L63.1557 131.679L63.3641 138.155C63.38 138.648 63.4939 139.078 63.7058 139.445C63.9177 139.812 64.207 140.096 64.5737 140.297C64.9399 140.486 65.3562 140.572 65.8227 140.557C66.3024 140.542 66.7188 140.422 67.0717 140.197C67.4247 139.972 67.6949 139.663 67.8823 139.27C68.0831 138.877 68.1751 138.421 68.1584 137.901L67.9532 131.524L70.192 131.452L70.5401 142.266L68.4012 142.335L68.333 140.216L68.5819 140.489C68.3501 141.163 67.9469 141.69 67.3721 142.068C66.7973 142.447 66.1168 142.649 65.3305 142.674ZM79.2904 141.985L75.2243 131.29L77.623 131.213L80.7388 139.737L79.8993 139.764L82.5205 131.055L84.5794 130.989L87.7352 139.512L86.8957 139.539L89.4769 130.831L91.8756 130.754L88.4856 141.689L86.4467 141.755L83.2445 133.033L83.9841 133.009L81.3493 141.919L79.2904 141.985ZM96.6279 141.667C95.8949 141.691 95.2445 141.585 94.6767 141.35C94.1217 141.101 93.6837 140.755 93.3626 140.311C93.0411 139.855 92.8702 139.313 92.8501 138.687C92.8312 138.101 92.9409 137.57 93.1791 137.096C93.4306 136.621 93.8244 136.214 94.3605 135.877C94.8966 135.539 95.5756 135.291 96.3975 135.131L100.136 134.39L100.193 136.169L96.8933 136.856C96.297 136.982 95.8635 137.189 95.5926 137.478C95.3213 137.754 95.1926 138.105 95.2063 138.531C95.2196 138.944 95.3838 139.279 95.6989 139.536C96.0268 139.779 96.4374 139.892 96.9304 139.876C97.5435 139.857 98.0722 139.706 98.5168 139.425C98.9746 139.143 99.323 138.779 99.5621 138.331C99.8007 137.87 99.9112 137.366 99.8936 136.819L99.8042 134.041C99.7871 133.508 99.5732 133.081 99.1627 132.761C98.7651 132.427 98.2398 132.27 97.5868 132.291C96.9871 132.311 96.4659 132.487 96.023 132.822C95.5931 133.142 95.2795 133.553 95.0822 134.053L93.1729 133.174C93.3556 132.634 93.6671 132.157 94.1073 131.743C94.5471 131.315 95.0632 130.978 95.6556 130.733C96.2614 130.486 96.9041 130.352 97.5837 130.33C98.4366 130.303 99.1947 130.439 99.858 130.737C100.535 131.036 101.062 131.466 101.44 132.027C101.831 132.575 102.039 133.222 102.063 133.968L102.297 141.244L100.138 141.314L100.075 139.355L100.537 139.4C100.298 139.848 99.9837 140.238 99.5942 140.571C99.218 140.903 98.7795 141.164 98.2787 141.354C97.7912 141.543 97.2409 141.647 96.6279 141.667ZM104.938 141.159L104.59 130.345L106.749 130.275L106.817 132.394L106.549 132.123C106.793 131.435 107.203 130.908 107.778 130.542C108.353 130.164 109.027 129.962 109.8 129.937C110.599 129.911 111.311 130.062 111.936 130.389C112.56 130.715 113.055 131.18 113.421 131.782C113.787 132.383 113.983 133.084 114.009 133.884L114.234 140.86L111.995 140.932L111.789 134.556C111.772 134.009 111.657 133.553 111.445 133.186C111.233 132.806 110.937 132.522 110.557 132.334C110.191 132.132 109.774 132.039 109.308 132.054C108.841 132.069 108.425 132.189 108.059 132.414C107.705 132.626 107.435 132.928 107.247 133.321C107.06 133.714 106.975 134.177 106.992 134.71L107.197 141.087L104.938 141.159ZM121.332 140.752C120.2 140.788 119.31 140.497 118.663 139.877C118.016 139.258 117.674 138.368 117.637 137.209L117.468 131.972L115.569 132.033L115.503 129.994L115.803 129.984C116.31 129.968 116.698 129.809 116.968 129.506C117.239 129.204 117.366 128.8 117.35 128.293L117.323 127.454L119.581 127.381L119.661 129.86L122.12 129.781L122.186 131.82L119.727 131.899L119.892 137.036C119.904 137.409 119.974 137.727 120.103 137.99C120.231 138.239 120.431 138.433 120.702 138.571C120.973 138.696 121.321 138.751 121.748 138.737C121.855 138.734 121.974 138.723 122.107 138.706C122.24 138.688 122.366 138.671 122.486 138.654L122.548 140.593C122.362 140.625 122.157 140.659 121.931 140.692C121.705 140.726 121.506 140.746 121.332 140.752ZM133.392 140.484C132.312 140.518 131.345 140.303 130.489 139.837C129.647 139.357 128.965 138.698 128.445 137.861C127.938 137.024 127.667 136.066 127.632 134.986C127.598 133.92 127.807 132.953 128.259 132.084C128.711 131.216 129.349 130.529 130.173 130.022C130.997 129.502 131.949 129.224 133.028 129.19C133.761 129.166 134.452 129.277 135.1 129.523C135.748 129.756 136.312 130.091 136.793 130.529C137.288 130.967 137.658 131.482 137.903 132.074L135.954 133.057C135.71 132.505 135.329 132.07 134.812 131.754C134.307 131.423 133.735 131.268 133.096 131.288C132.483 131.308 131.935 131.479 131.451 131.802C130.981 132.11 130.615 132.542 130.352 133.098C130.09 133.64 129.969 134.251 129.991 134.93C130.013 135.61 130.173 136.218 130.47 136.756C130.767 137.28 131.161 137.687 131.65 137.978C132.153 138.269 132.711 138.405 133.324 138.385C133.977 138.364 134.538 138.179 135.007 137.83C135.489 137.468 135.841 136.996 136.062 136.416L138.071 137.292C137.877 137.871 137.547 138.402 137.082 138.884C136.63 139.352 136.089 139.73 135.458 140.017C134.827 140.304 134.138 140.46 133.392 140.484ZM145.594 140.091C144.555 140.124 143.594 139.909 142.712 139.443C141.843 138.978 141.142 138.327 140.608 137.49C140.074 136.653 139.79 135.695 139.755 134.616C139.72 133.523 139.942 132.549 140.421 131.693C140.9 130.824 141.559 130.136 142.396 129.628C143.233 129.108 144.178 128.831 145.231 128.797C146.297 128.762 147.258 128.978 148.113 129.444C148.981 129.897 149.676 130.541 150.196 131.378C150.73 132.202 151.014 133.16 151.049 134.252C151.084 135.345 150.863 136.326 150.384 137.195C149.905 138.065 149.247 138.759 148.41 139.28C147.572 139.787 146.634 140.058 145.594 140.091ZM145.527 137.992C146.166 137.971 146.728 137.8 147.211 137.478C147.694 137.155 148.067 136.723 148.33 136.181C148.605 135.625 148.732 135.007 148.71 134.328C148.689 133.648 148.522 133.046 148.212 132.523C147.915 131.999 147.515 131.591 147.012 131.301C146.509 131.01 145.938 130.875 145.298 130.896C144.672 130.916 144.111 131.087 143.614 131.41C143.131 131.733 142.751 132.165 142.475 132.707C142.212 133.25 142.092 133.86 142.114 134.54C142.136 135.22 142.295 135.828 142.593 136.366C142.903 136.889 143.31 137.296 143.813 137.587C144.329 137.877 144.9 138.012 145.527 137.992ZM153.429 139.599L153.081 128.784L155.24 128.715L155.315 131.054L155.024 130.703C155.226 129.963 155.622 129.396 156.209 129.004C156.797 128.611 157.477 128.403 158.25 128.378C159.117 128.35 159.89 128.558 160.572 129.003C161.266 129.435 161.739 130.026 161.99 130.779L161.352 130.859C161.644 129.983 162.109 129.321 162.749 128.873C163.401 128.425 164.154 128.188 165.007 128.16C165.753 128.136 166.432 128.288 167.043 128.615C167.667 128.942 168.169 129.406 168.548 130.007C168.928 130.609 169.13 131.303 169.155 132.089L169.381 139.085L167.122 139.158L166.917 132.781C166.899 132.235 166.784 131.778 166.572 131.412C166.373 131.031 166.097 130.747 165.744 130.558C165.404 130.355 165.008 130.261 164.555 130.276C164.102 130.291 163.705 130.41 163.366 130.634C163.026 130.845 162.762 131.147 162.574 131.54C162.387 131.933 162.302 132.396 162.319 132.929L162.524 139.306L160.285 139.378L160.08 133.001C160.063 132.455 159.948 131.998 159.736 131.632C159.537 131.251 159.261 130.967 158.908 130.778C158.568 130.575 158.165 130.482 157.698 130.497C157.245 130.511 156.849 130.631 156.509 130.855C156.169 131.066 155.905 131.368 155.718 131.761C155.544 132.153 155.465 132.616 155.482 133.149L155.688 139.526L153.429 139.599ZM171.927 143.005L171.45 128.193L173.609 128.124L173.681 130.362L173.405 129.851C173.785 129.225 174.302 128.728 174.957 128.36C175.613 127.992 176.367 127.795 177.22 127.767C178.246 127.734 179.173 127.951 180.002 128.418C180.844 128.885 181.512 129.537 182.006 130.375C182.513 131.212 182.784 132.164 182.818 133.23C182.852 134.296 182.643 135.263 182.191 136.132C181.752 137 181.134 137.7 180.338 138.232C179.541 138.752 178.622 139.028 177.583 139.061C176.743 139.088 175.972 138.94 175.267 138.616C174.577 138.291 174.034 137.808 173.64 137.167L173.986 136.736L174.186 142.933L171.927 143.005ZM177.296 136.97C177.935 136.949 178.497 136.777 178.98 136.455C179.463 136.133 179.836 135.701 180.099 135.158C180.374 134.603 180.501 133.985 180.479 133.305C180.457 132.626 180.291 132.024 179.981 131.5C179.684 130.976 179.284 130.569 178.781 130.278C178.278 129.988 177.707 129.853 177.067 129.873C176.441 129.893 175.879 130.065 175.383 130.388C174.9 130.71 174.52 131.142 174.244 131.685C173.981 132.227 173.861 132.838 173.883 133.518C173.905 134.197 174.064 134.806 174.362 135.343C174.672 135.867 175.079 136.274 175.582 136.564C176.098 136.855 176.669 136.99 177.296 136.97ZM188.436 138.712C187.703 138.736 187.052 138.63 186.485 138.395C185.93 138.146 185.492 137.8 185.171 137.356C184.849 136.9 184.678 136.358 184.658 135.732C184.639 135.146 184.749 134.615 184.987 134.141C185.238 133.666 185.632 133.259 186.168 132.922C186.704 132.585 187.384 132.336 188.205 132.176L191.944 131.435L192.001 133.215L188.701 133.901C188.105 134.027 187.671 134.234 187.401 134.523C187.129 134.799 187 135.15 187.014 135.576C187.028 135.989 187.192 136.324 187.507 136.581C187.835 136.824 188.245 136.937 188.738 136.921C189.351 136.902 189.88 136.751 190.325 136.47C190.783 136.189 191.131 135.824 191.37 135.376C191.609 134.915 191.719 134.411 191.702 133.865L191.612 131.086C191.595 130.553 191.381 130.126 190.971 129.806C190.573 129.472 190.048 129.315 189.395 129.336C188.795 129.356 188.274 129.533 187.831 129.867C187.401 130.188 187.087 130.598 186.89 131.098L184.981 130.219C185.164 129.679 185.475 129.202 185.915 128.788C186.355 128.36 186.871 128.024 187.464 127.778C188.069 127.531 188.712 127.397 189.392 127.375C190.245 127.348 191.003 127.484 191.666 127.783C192.343 128.081 192.87 128.511 193.248 129.072C193.639 129.62 193.847 130.267 193.871 131.013L194.105 138.289L191.946 138.359L191.883 136.4L192.345 136.445C192.106 136.893 191.792 137.283 191.402 137.616C191.026 137.948 190.587 138.209 190.087 138.399C189.599 138.588 189.049 138.692 188.436 138.712ZM196.746 138.204L196.398 127.39L198.557 127.321L198.625 129.44L198.356 129.168C198.601 128.48 199.011 127.953 199.586 127.588C200.161 127.209 200.835 127.007 201.608 126.982C202.407 126.957 203.119 127.107 203.743 127.434C204.368 127.761 204.863 128.225 205.229 128.827C205.595 129.429 205.791 130.129 205.817 130.929L206.041 137.905L203.803 137.977L203.597 131.601C203.58 131.054 203.465 130.598 203.253 130.231C203.041 129.851 202.745 129.567 202.365 129.379C201.999 129.178 201.582 129.084 201.116 129.099C200.649 129.114 200.233 129.234 199.867 129.46C199.513 129.671 199.243 129.973 199.055 130.366C198.868 130.759 198.783 131.222 198.8 131.755L199.005 138.132L196.746 138.204ZM209.365 142.201C209.098 142.209 208.831 142.191 208.563 142.146C208.308 142.115 208.073 142.055 207.857 141.969L207.794 140.03C207.955 140.065 208.15 140.092 208.377 140.111C208.605 140.144 208.825 140.157 209.039 140.15C209.665 140.13 210.12 139.975 210.404 139.686C210.702 139.41 210.962 138.988 211.184 138.42L211.851 136.758L211.872 138.658L206.816 127.055L209.235 126.977L212.983 135.881L212.164 135.907L215.312 126.781L217.751 126.703L213.359 138.85C213.126 139.498 212.825 140.068 212.454 140.56C212.096 141.066 211.662 141.46 211.151 141.743C210.653 142.026 210.058 142.178 209.365 142.201ZM219.519 140.413L219.483 139.314C219.919 139.193 220.253 138.975 220.483 138.661C220.713 138.36 220.847 137.949 220.883 137.428L219.824 137.462L219.74 134.863L222.039 134.789L222.094 136.488C222.128 137.554 221.929 138.421 221.497 139.089C221.065 139.756 220.405 140.198 219.519 140.413ZM228.898 137.17L228.55 126.355L230.708 126.286L230.777 128.405L230.508 128.133C230.752 127.445 231.162 126.918 231.738 126.553C232.312 126.174 232.986 125.972 233.759 125.948C234.559 125.922 235.271 126.072 235.895 126.399C236.519 126.726 237.014 127.19 237.38 127.792C237.747 128.394 237.943 129.095 237.968 129.894L238.193 136.871L235.954 136.943L235.749 130.566C235.731 130.02 235.616 129.563 235.404 129.196C235.192 128.816 234.896 128.532 234.517 128.344C234.15 128.143 233.733 128.049 233.267 128.064C232.801 128.079 232.384 128.2 232.018 128.425C231.665 128.636 231.394 128.938 231.207 129.331C231.019 129.724 230.934 130.187 230.951 130.72L231.156 137.097L228.898 137.17ZM245.835 136.865C244.796 136.898 243.835 136.682 242.953 136.217C242.084 135.751 241.383 135.1 240.849 134.264C240.315 133.427 240.031 132.469 239.996 131.39C239.961 130.297 240.183 129.323 240.662 128.467C241.141 127.598 241.8 126.909 242.637 126.402C243.474 125.882 244.419 125.604 245.472 125.571C246.538 125.536 247.499 125.752 248.354 126.218C249.222 126.67 249.917 127.315 250.437 128.152C250.971 128.975 251.255 129.933 251.29 131.026C251.325 132.119 251.104 133.1 250.625 133.969C250.146 134.838 249.488 135.533 248.651 136.054C247.813 136.561 246.875 136.831 245.835 136.865ZM245.768 134.766C246.407 134.745 246.969 134.574 247.452 134.251C247.935 133.929 248.308 133.497 248.571 132.955C248.847 132.399 248.973 131.781 248.952 131.101C248.93 130.422 248.764 129.82 248.453 129.297C248.156 128.772 247.756 128.365 247.253 128.075C246.75 127.784 246.179 127.649 245.539 127.669C244.913 127.69 244.352 127.861 243.855 128.184C243.372 128.506 242.992 128.939 242.716 129.481C242.453 130.023 242.333 130.634 242.355 131.314C242.377 131.993 242.536 132.602 242.834 133.139C243.144 133.663 243.551 134.07 244.054 134.361C244.57 134.651 245.141 134.786 245.768 134.766ZM258.156 136.348C257.023 136.385 256.134 136.093 255.487 135.473C254.84 134.854 254.498 133.965 254.46 132.805L254.292 127.568L252.393 127.629L252.327 125.59L252.627 125.58C253.133 125.564 253.522 125.405 253.792 125.103C254.063 124.8 254.19 124.396 254.173 123.89L254.146 123.05L256.405 122.977L256.485 125.456L258.944 125.377L259.009 127.416L256.551 127.495L256.716 132.632C256.728 133.006 256.798 133.324 256.927 133.586C257.055 133.836 257.254 134.029 257.526 134.167C257.797 134.292 258.145 134.347 258.572 134.334C258.678 134.33 258.798 134.32 258.931 134.302C259.064 134.284 259.19 134.267 259.309 134.25L259.372 136.189C259.186 136.222 258.98 136.255 258.755 136.289C258.529 136.323 258.329 136.342 258.156 136.348ZM265.07 136.005L264.722 125.191L266.881 125.122L266.951 127.3L266.741 126.987C266.958 126.273 267.328 125.754 267.852 125.431C268.374 125.094 269.009 124.913 269.755 124.889L270.415 124.868L270.481 126.927L269.542 126.957C268.795 126.981 268.196 127.234 267.745 127.715C267.306 128.183 267.101 128.843 267.128 129.696L267.329 135.933L265.07 136.005ZM277.538 135.844C276.498 135.878 275.537 135.662 274.655 135.197C273.787 134.731 273.085 134.08 272.551 133.243C272.018 132.407 271.733 131.449 271.699 130.369C271.663 129.277 271.885 128.302 272.365 127.446C272.844 126.577 273.502 125.889 274.339 125.382C275.176 124.861 276.121 124.584 277.174 124.55C278.24 124.516 279.201 124.732 280.056 125.198C280.925 125.65 281.619 126.295 282.14 127.132C282.673 127.955 282.957 128.913 282.993 130.006C283.028 131.099 282.806 132.08 282.327 132.949C281.848 133.818 281.19 134.513 280.353 135.033C279.516 135.541 278.577 135.811 277.538 135.844ZM277.47 133.745C278.11 133.725 278.671 133.553 279.154 133.231C279.638 132.909 280.011 132.476 280.273 131.934C280.549 131.378 280.676 130.761 280.654 130.081C280.632 129.401 280.466 128.8 280.156 128.276C279.859 127.752 279.459 127.345 278.956 127.054C278.453 126.764 277.881 126.629 277.242 126.649C276.615 126.669 276.054 126.841 275.557 127.164C275.074 127.486 274.695 127.918 274.419 128.461C274.156 129.003 274.035 129.614 274.057 130.293C274.079 130.973 274.239 131.582 274.536 132.119C274.847 132.643 275.253 133.05 275.756 133.34C276.272 133.631 276.844 133.766 277.47 133.745ZM285.372 135.352L285.024 124.538L287.183 124.468L287.258 126.807L286.967 126.456C287.17 125.716 287.565 125.15 288.153 124.757C288.741 124.365 289.421 124.156 290.194 124.131C291.06 124.103 291.834 124.312 292.515 124.757C293.209 125.188 293.682 125.78 293.933 126.532L293.295 126.613C293.587 125.736 294.053 125.074 294.692 124.627C295.345 124.179 296.097 123.941 296.95 123.914C297.697 123.89 298.375 124.041 298.986 124.368C299.61 124.695 300.112 125.159 300.492 125.761C300.871 126.362 301.074 127.056 301.099 127.842L301.324 134.839L299.065 134.911L298.86 128.535C298.842 127.988 298.728 127.532 298.516 127.165C298.317 126.785 298.041 126.5 297.688 126.311C297.348 126.109 296.951 126.015 296.498 126.029C296.045 126.044 295.649 126.163 295.309 126.388C294.969 126.599 294.705 126.901 294.518 127.294C294.33 127.687 294.245 128.15 294.262 128.683L294.468 135.059L292.229 135.131L292.023 128.755C292.006 128.208 291.891 127.752 291.679 127.385C291.48 127.005 291.204 126.72 290.851 126.531C290.511 126.329 290.108 126.235 289.642 126.25C289.189 126.265 288.792 126.384 288.453 126.608C288.113 126.819 287.849 127.121 287.661 127.514C287.487 127.907 287.409 128.37 287.426 128.903L287.631 135.279L285.372 135.352ZM306.988 134.896C306.255 134.92 305.604 134.814 305.036 134.579C304.482 134.33 304.044 133.984 303.722 133.541C303.401 133.084 303.23 132.543 303.21 131.916C303.191 131.33 303.301 130.8 303.539 130.325C303.79 129.85 304.184 129.444 304.72 129.106C305.256 128.769 305.935 128.52 306.757 128.361L310.495 127.62L310.553 129.399L307.253 130.085C306.657 130.211 306.223 130.419 305.952 130.708C305.681 130.983 305.552 131.334 305.566 131.761C305.579 132.174 305.744 132.509 306.059 132.765C306.387 133.008 306.797 133.122 307.29 133.106C307.903 133.086 308.432 132.936 308.877 132.655C309.334 132.373 309.683 132.008 309.922 131.56C310.161 131.099 310.271 130.595 310.253 130.049L310.164 127.27C310.147 126.737 309.933 126.311 309.523 125.99C309.125 125.656 308.6 125.5 307.947 125.521C307.347 125.54 306.826 125.717 306.383 126.051C305.953 126.372 305.639 126.782 305.442 127.282L303.533 126.403C303.715 125.864 304.027 125.387 304.467 124.972C304.907 124.545 305.423 124.208 306.015 123.962C306.621 123.716 307.264 123.582 307.944 123.56C308.796 123.532 309.555 123.668 310.218 123.967C310.894 124.265 311.422 124.695 311.8 125.257C312.191 125.804 312.399 126.451 312.423 127.198L312.657 134.474L310.498 134.543L310.435 132.584L310.897 132.63C310.658 133.077 310.343 133.468 309.954 133.8C309.578 134.133 309.139 134.394 308.638 134.583C308.151 134.772 307.601 134.877 306.988 134.896ZM315.298 134.389L314.95 123.574L317.109 123.505L317.177 125.624L316.908 125.352C317.153 124.664 317.563 124.137 318.138 123.772C318.713 123.393 319.387 123.192 320.16 123.167C320.959 123.141 321.671 123.291 322.295 123.618C322.92 123.945 323.415 124.409 323.781 125.011C324.147 125.613 324.343 126.314 324.369 127.113L324.593 134.09L322.355 134.162L322.149 127.785C322.132 127.239 322.017 126.782 321.805 126.415C321.593 126.035 321.297 125.751 320.917 125.564C320.551 125.362 320.134 125.269 319.668 125.284C319.201 125.299 318.785 125.419 318.418 125.644C318.065 125.855 317.795 126.158 317.607 126.551C317.42 126.943 317.335 127.406 317.352 127.939L317.557 134.316L315.298 134.389ZM332.156 134.086C331.076 134.121 330.109 133.906 329.254 133.439C328.411 132.96 327.73 132.301 327.209 131.464C326.702 130.627 326.431 129.668 326.396 128.589C326.362 127.523 326.571 126.556 327.023 125.687C327.475 124.819 328.114 124.131 328.938 123.625C329.761 123.104 330.713 122.827 331.792 122.792C332.525 122.769 333.216 122.88 333.864 123.126C334.512 123.358 335.076 123.694 335.557 124.132C336.052 124.57 336.422 125.085 336.668 125.677L334.718 126.66C334.474 126.108 334.093 125.673 333.576 125.356C333.072 125.026 332.5 124.871 331.86 124.891C331.247 124.911 330.699 125.082 330.216 125.404C329.745 125.713 329.379 126.145 329.117 126.7C328.854 127.242 328.734 127.853 328.756 128.533C328.777 129.213 328.937 129.821 329.234 130.358C329.532 130.883 329.925 131.29 330.414 131.581C330.917 131.872 331.475 132.007 332.088 131.988C332.741 131.967 333.302 131.782 333.771 131.433C334.253 131.071 334.605 130.599 334.826 130.018L336.836 130.894C336.641 131.474 336.311 132.005 335.846 132.487C335.395 132.955 334.853 133.333 334.222 133.62C333.591 133.907 332.902 134.062 332.156 134.086ZM344.219 133.698C343.139 133.733 342.172 133.517 341.316 133.051C340.474 132.571 339.806 131.913 339.312 131.075C338.817 130.223 338.553 129.265 338.519 128.199C338.484 127.106 338.686 126.132 339.125 125.278C339.578 124.423 340.196 123.742 340.98 123.237C341.764 122.718 342.662 122.442 343.675 122.41C344.488 122.384 345.219 122.5 345.868 122.759C346.516 123.019 347.068 123.388 347.524 123.867C347.979 124.332 348.33 124.875 348.577 125.494C348.837 126.112 348.978 126.775 349.001 127.481C349.007 127.654 349.006 127.835 348.998 128.021C348.991 128.208 348.97 128.383 348.935 128.544L340.32 128.821L340.262 127.022L347.598 126.786L346.545 127.64C346.657 126.983 346.592 126.405 346.349 125.906C346.119 125.393 345.773 124.997 345.31 124.718C344.861 124.426 344.336 124.29 343.736 124.309C343.137 124.328 342.608 124.499 342.152 124.82C341.695 125.128 341.349 125.566 341.114 126.134C340.878 126.689 340.8 127.358 340.878 128.143C340.835 128.878 340.956 129.514 341.24 130.052C341.537 130.59 341.937 131.004 342.44 131.294C342.957 131.584 343.535 131.719 344.174 131.699C344.827 131.678 345.376 131.513 345.819 131.205C346.276 130.897 346.63 130.506 346.882 130.031L348.75 130.871C348.553 131.384 348.235 131.855 347.795 132.282C347.368 132.696 346.845 133.033 346.227 133.293C345.621 133.54 344.952 133.675 344.219 133.698ZM352.392 133.195L352.309 130.596L354.607 130.522L354.691 133.121L352.392 133.195ZM360.3 137.363C360.154 137.367 359.993 137.359 359.819 137.338C359.632 137.331 359.478 137.316 359.357 137.293L359.294 135.334C359.549 135.366 359.803 135.378 360.056 135.37C360.616 135.352 361.057 135.191 361.381 134.887C361.705 134.596 361.858 134.164 361.84 133.591L361.469 122.077L363.728 122.005L364.098 133.519C364.124 134.305 363.979 134.983 363.664 135.554C363.349 136.124 362.902 136.559 362.325 136.857C361.748 137.169 361.073 137.338 360.3 137.363ZM361.421 120.598L361.338 117.999L363.597 117.927L363.68 120.525L361.421 120.598ZM370.583 132.85C369.77 132.876 369.051 132.719 368.426 132.379C367.801 132.025 367.305 131.528 366.938 130.886C366.583 130.23 366.392 129.469 366.364 128.603L366.149 121.927L368.408 121.854L368.616 128.331C368.632 128.824 368.746 129.254 368.958 129.62C369.17 129.987 369.459 130.271 369.826 130.473C370.192 130.661 370.608 130.748 371.075 130.733C371.555 130.717 371.971 130.597 372.324 130.372C372.677 130.148 372.947 129.839 373.134 129.446C373.335 129.052 373.427 128.596 373.411 128.076L373.205 121.7L375.444 121.627L375.792 132.442L373.653 132.511L373.585 130.392L373.834 130.664C373.602 131.338 373.199 131.865 372.624 132.244C372.049 132.622 371.369 132.824 370.583 132.85ZM382.435 132.468C381.329 132.504 380.347 132.262 379.49 131.743C378.647 131.223 378.043 130.508 377.68 129.6L379.393 128.724C379.706 129.328 380.122 129.801 380.64 130.145C381.171 130.488 381.75 130.649 382.376 130.629C382.909 130.612 383.338 130.478 383.664 130.228C383.989 129.977 384.145 129.645 384.132 129.232C384.123 128.965 384.043 128.755 383.892 128.599C383.739 128.431 383.548 128.297 383.318 128.198C383.102 128.098 382.879 128.025 382.651 127.979L380.936 127.554C379.995 127.317 379.282 126.94 378.799 126.422C378.328 125.89 378.081 125.265 378.058 124.545C378.037 123.892 378.185 123.32 378.503 122.83C378.82 122.326 379.268 121.931 379.846 121.646C380.424 121.36 381.079 121.206 381.812 121.182C382.798 121.151 383.685 121.369 384.474 121.837C385.263 122.292 385.831 122.947 386.178 123.803L384.466 124.679C384.236 124.166 383.883 123.764 383.406 123.472C382.943 123.18 382.425 123.044 381.852 123.062C381.359 123.078 380.97 123.211 380.685 123.46C380.399 123.696 380.262 124 380.274 124.374C380.282 124.627 380.355 124.838 380.494 125.007C380.633 125.162 380.81 125.29 381.027 125.39C381.243 125.476 381.465 125.549 381.694 125.608L383.47 126.072C384.371 126.296 385.07 126.674 385.568 127.205C386.064 127.722 386.325 128.354 386.349 129.101C386.369 129.74 386.214 130.312 385.884 130.816C385.566 131.307 385.112 131.702 384.521 132.001C383.93 132.287 383.235 132.442 382.435 132.468ZM393.34 131.997C392.207 132.034 391.317 131.742 390.671 131.123C390.024 130.503 389.682 129.614 389.644 128.454L389.476 123.217L387.577 123.278L387.511 121.239L387.811 121.229C388.317 121.213 388.706 121.054 388.976 120.752C389.246 120.45 389.374 120.045 389.357 119.539L389.33 118.699L391.589 118.627L391.669 121.105L394.128 121.026L394.193 123.065L391.734 123.144L391.9 128.282C391.912 128.655 391.982 128.973 392.111 129.235C392.239 129.485 392.438 129.678 392.71 129.816C392.98 129.941 393.329 129.996 393.755 129.983C393.862 129.979 393.982 129.969 394.115 129.951C394.247 129.934 394.374 129.916 394.493 129.899L394.556 131.838C394.37 131.871 394.164 131.904 393.938 131.938C393.713 131.972 393.513 131.992 393.34 131.997ZM400.383 135.652L399.906 120.84L402.065 120.771L402.137 123.01L401.86 122.498C402.241 121.872 402.758 121.375 403.413 121.007C404.068 120.639 404.823 120.442 405.675 120.414C406.702 120.381 407.629 120.598 408.458 121.065C409.3 121.532 409.968 122.184 410.462 123.022C410.969 123.859 411.24 124.811 411.274 125.877C411.308 126.943 411.099 127.91 410.647 128.779C410.208 129.647 409.59 130.347 408.794 130.879C407.997 131.399 407.078 131.675 406.039 131.709C405.199 131.736 404.428 131.587 403.723 131.263C403.033 130.938 402.49 130.455 402.096 129.814L402.442 129.383L402.642 135.58L400.383 135.652ZM405.751 129.617C406.391 129.596 406.953 129.425 407.436 129.102C407.919 128.78 408.292 128.348 408.555 127.806C408.83 127.25 408.957 126.632 408.935 125.952C408.913 125.273 408.747 124.671 408.437 124.147C408.14 123.623 407.74 123.216 407.237 122.925C406.734 122.635 406.163 122.5 405.523 122.52C404.897 122.54 404.335 122.712 403.839 123.035C403.356 123.357 402.976 123.79 402.7 124.332C402.437 124.874 402.317 125.485 402.339 126.165C402.361 126.844 402.52 127.453 402.818 127.99C403.128 128.514 403.535 128.921 404.038 129.212C404.554 129.502 405.125 129.637 405.751 129.617ZM417.511 131.339C416.699 131.365 415.98 131.208 415.355 130.868C414.73 130.515 414.234 130.017 413.866 129.375C413.512 128.72 413.321 127.959 413.293 127.093L413.078 120.416L415.337 120.344L415.545 126.82C415.561 127.313 415.675 127.743 415.887 128.11C416.099 128.477 416.388 128.761 416.755 128.962C417.121 129.151 417.537 129.237 418.004 129.222C418.483 129.207 418.9 129.087 419.253 128.862C419.606 128.637 419.876 128.328 420.063 127.935C420.264 127.542 420.356 127.086 420.339 126.566L420.134 120.189L422.373 120.117L422.721 130.931L420.582 131L420.514 128.881L420.763 129.154C420.531 129.828 420.128 130.355 419.553 130.733C418.978 131.112 418.298 131.314 417.511 131.339ZM425.358 130.847L425.01 120.032L427.169 119.963L427.239 122.142L427.029 121.828C427.246 121.114 427.616 120.595 428.14 120.272C428.662 119.935 429.297 119.754 430.043 119.73L430.703 119.709L430.769 121.768L429.83 121.798C429.083 121.822 428.484 122.075 428.033 122.556C427.595 123.024 427.389 123.684 427.416 124.537L427.617 130.774L425.358 130.847ZM437.686 130.69C436.606 130.725 435.639 130.509 434.784 130.043C433.941 129.563 433.273 128.904 432.779 128.066C432.285 127.215 432.02 126.257 431.986 125.19C431.951 124.098 432.153 123.124 432.592 122.269C433.045 121.414 433.663 120.734 434.448 120.229C435.231 119.71 436.13 119.434 437.142 119.402C437.955 119.375 438.686 119.492 439.335 119.751C439.983 120.011 440.536 120.38 440.991 120.859C441.446 121.324 441.797 121.866 442.044 122.485C442.304 123.104 442.446 123.767 442.468 124.473C442.474 124.646 442.473 124.826 442.466 125.013C442.458 125.2 442.437 125.374 442.402 125.536L433.787 125.813L433.729 124.014L441.065 123.778L440.012 124.632C440.124 123.975 440.059 123.396 439.816 122.897C439.586 122.385 439.24 121.989 438.778 121.71C438.328 121.418 437.803 121.281 437.204 121.301C436.604 121.32 436.076 121.49 435.619 121.812C435.162 122.12 434.816 122.558 434.581 123.126C434.345 123.68 434.267 124.35 434.345 125.135C434.302 125.87 434.423 126.506 434.707 127.044C435.004 127.581 435.405 127.995 435.908 128.286C436.424 128.576 437.002 128.711 437.641 128.69C438.294 128.669 438.843 128.505 439.286 128.197C439.743 127.889 440.098 127.497 440.349 127.022L442.217 127.863C442.02 128.376 441.702 128.846 441.262 129.274C440.835 129.688 440.312 130.025 439.694 130.285C439.088 130.531 438.419 130.666 437.686 130.69ZM453.499 130.181C452.42 130.216 451.452 130 450.597 129.534C449.754 129.054 449.073 128.396 448.552 127.559C448.045 126.721 447.774 125.763 447.74 124.683C447.705 123.617 447.914 122.65 448.367 121.782C448.819 120.913 449.457 120.226 450.281 119.719C451.105 119.199 452.056 118.922 453.136 118.887C453.869 118.863 454.559 118.974 455.208 119.22C455.855 119.453 456.42 119.788 456.901 120.226C457.395 120.664 457.765 121.179 458.011 121.771L456.062 122.755C455.817 122.202 455.436 121.768 454.919 121.451C454.415 121.12 453.843 120.965 453.203 120.986C452.59 121.005 452.042 121.177 451.559 121.499C451.089 121.808 450.722 122.24 450.46 122.795C450.197 123.337 450.077 123.948 450.099 124.627C450.121 125.307 450.28 125.916 450.578 126.453C450.875 126.977 451.268 127.385 451.758 127.676C452.261 127.966 452.819 128.102 453.432 128.082C454.085 128.061 454.646 127.876 455.115 127.528C455.597 127.165 455.948 126.694 456.17 126.113L458.179 126.989C457.984 127.569 457.655 128.1 457.19 128.581C456.738 129.05 456.196 129.427 455.565 129.714C454.934 130.001 454.246 130.157 453.499 130.181ZM465.702 129.788C464.662 129.822 463.702 129.606 462.82 129.141C461.951 128.675 461.25 128.024 460.716 127.187C460.182 126.351 459.898 125.393 459.863 124.313C459.828 123.22 460.05 122.246 460.529 121.39C461.008 120.521 461.666 119.833 462.504 119.326C463.341 118.805 464.286 118.528 465.338 118.494C466.405 118.46 467.365 118.676 468.221 119.142C469.089 119.594 469.784 120.239 470.304 121.076C470.837 121.899 471.122 122.857 471.157 123.95C471.192 125.043 470.97 126.023 470.491 126.893C470.012 127.762 469.354 128.457 468.517 128.977C467.68 129.484 466.741 129.755 465.702 129.788ZM465.634 127.689C466.274 127.669 466.835 127.497 467.319 127.175C467.802 126.852 468.175 126.42 468.438 125.878C468.713 125.322 468.84 124.705 468.818 124.025C468.796 123.345 468.63 122.744 468.32 122.22C468.023 121.696 467.623 121.289 467.12 120.998C466.617 120.707 466.046 120.572 465.406 120.593C464.78 120.613 464.218 120.785 463.722 121.107C463.238 121.43 462.859 121.862 462.583 122.405C462.32 122.947 462.2 123.558 462.222 124.237C462.243 124.917 462.403 125.525 462.701 126.063C463.011 126.586 463.418 126.994 463.92 127.284C464.437 127.574 465.008 127.709 465.634 127.689ZM473.537 129.296L473.188 118.482L475.347 118.412L475.416 120.531L475.147 120.259C475.391 119.571 475.801 119.044 476.377 118.679C476.951 118.3 477.625 118.099 478.398 118.074C479.198 118.048 479.91 118.199 480.534 118.525C481.158 118.852 481.653 119.316 482.019 119.918C482.386 120.52 482.581 121.221 482.607 122.02L482.832 128.997L480.593 129.069L480.388 122.692C480.37 122.146 480.255 121.689 480.043 121.323C479.831 120.942 479.535 120.659 479.156 120.471C478.789 120.269 478.372 120.176 477.906 120.191C477.439 120.206 477.023 120.326 476.657 120.551C476.303 120.763 476.033 121.065 475.846 121.458C475.658 121.851 475.573 122.313 475.59 122.847L475.795 129.223L473.537 129.296ZM485.249 128.919L484.901 118.105L487.06 118.035L487.128 120.154L486.859 119.883C487.104 119.194 487.514 118.667 488.089 118.302C488.664 117.923 489.338 117.722 490.111 117.697C490.91 117.671 491.622 117.822 492.246 118.148C492.871 118.475 493.366 118.939 493.732 119.541C494.098 120.143 494.294 120.844 494.32 121.643L494.544 128.62L492.306 128.692L492.1 122.315C492.083 121.769 491.968 121.312 491.756 120.946C491.544 120.566 491.248 120.282 490.868 120.094C490.502 119.892 490.085 119.799 489.619 119.814C489.152 119.829 488.736 119.949 488.37 120.174C488.016 120.386 487.746 120.688 487.558 121.081C487.371 121.474 487.286 121.937 487.303 122.47L487.508 128.846L485.249 128.919ZM502.047 128.618C500.968 128.653 500 128.438 499.145 127.971C498.302 127.492 497.634 126.833 497.14 125.995C496.646 125.144 496.381 124.185 496.347 123.119C496.312 122.026 496.514 121.053 496.954 120.198C497.406 119.343 498.025 118.663 498.809 118.157C499.593 117.638 500.491 117.363 501.504 117.33C502.317 117.304 503.047 117.42 503.696 117.68C504.345 117.939 504.897 118.308 505.352 118.787C505.808 119.253 506.159 119.795 506.405 120.414C506.665 121.033 506.807 121.695 506.83 122.401C506.835 122.575 506.834 122.755 506.827 122.942C506.82 123.129 506.798 123.303 506.764 123.464L498.148 123.741L498.09 121.942L505.426 121.706L504.373 122.56C504.486 121.903 504.42 121.325 504.177 120.826C503.948 120.313 503.601 119.917 503.139 119.639C502.689 119.346 502.164 119.21 501.565 119.229C500.965 119.248 500.437 119.419 499.98 119.74C499.523 120.049 499.177 120.487 498.942 121.054C498.706 121.609 498.628 122.279 498.707 123.063C498.664 123.798 498.784 124.435 499.068 124.972C499.366 125.51 499.766 125.924 500.269 126.214C500.785 126.505 501.363 126.639 502.003 126.619C502.656 126.598 503.204 126.433 503.648 126.126C504.105 125.817 504.459 125.426 504.71 124.951L506.578 125.791C506.381 126.304 506.063 126.775 505.623 127.203C505.196 127.617 504.674 127.954 504.055 128.214C503.449 128.46 502.78 128.595 502.047 128.618ZM514.366 128.222C513.287 128.257 512.319 128.041 511.464 127.575C510.621 127.095 509.94 126.437 509.419 125.6C508.912 124.762 508.641 123.804 508.606 122.724C508.572 121.658 508.781 120.691 509.233 119.823C509.686 118.954 510.324 118.267 511.148 117.76C511.972 117.24 512.923 116.963 514.003 116.928C514.736 116.904 515.426 117.015 516.075 117.261C516.722 117.494 517.287 117.829 517.768 118.267C518.262 118.705 518.632 119.22 518.878 119.812L516.929 120.796C516.684 120.243 516.303 119.809 515.786 119.492C515.282 119.161 514.71 119.006 514.07 119.027C513.457 119.046 512.909 119.218 512.426 119.54C511.956 119.849 511.589 120.281 511.327 120.836C511.064 121.378 510.944 121.989 510.966 122.668C510.988 123.348 511.147 123.957 511.445 124.494C511.742 125.018 512.135 125.426 512.625 125.717C513.128 126.007 513.686 126.143 514.299 126.123C514.952 126.102 515.513 125.917 515.982 125.569C516.464 125.206 516.815 124.735 517.037 124.154L519.046 125.03C518.851 125.61 518.521 126.141 518.057 126.622C517.605 127.091 517.063 127.468 516.432 127.755C515.801 128.042 515.113 128.198 514.366 128.222ZM526.025 127.727C524.893 127.763 524.003 127.472 523.356 126.852C522.709 126.233 522.367 125.343 522.329 124.184L522.161 118.946L520.262 119.008L520.196 116.969L520.496 116.959C521.002 116.943 521.391 116.783 521.661 116.481C521.932 116.179 522.059 115.775 522.042 115.268L522.015 114.429L524.274 114.356L524.354 116.835L526.813 116.756L526.878 118.795L524.42 118.874L524.585 124.011C524.597 124.384 524.667 124.702 524.796 124.965C524.924 125.214 525.124 125.408 525.395 125.546C525.666 125.67 526.014 125.726 526.441 125.712C526.547 125.709 526.667 125.698 526.8 125.681C526.933 125.663 527.059 125.646 527.178 125.628L527.241 127.567C527.055 127.6 526.849 127.633 526.624 127.667C526.398 127.701 526.199 127.721 526.025 127.727ZM529.445 127.497L529.097 116.682L531.356 116.609L531.704 127.424L529.445 127.497ZM529.049 115.203L528.966 112.604L531.225 112.532L531.308 115.13L529.049 115.203ZM539.57 127.411C538.53 127.444 537.57 127.228 536.688 126.763C535.819 126.298 535.118 125.646 534.584 124.81C534.05 123.973 533.766 123.015 533.731 121.936C533.696 120.843 533.918 119.869 534.397 119.013C534.876 118.144 535.534 117.455 536.372 116.948C537.209 116.428 538.154 116.151 539.206 116.117C540.273 116.082 541.233 116.298 542.089 116.764C542.957 117.217 543.652 117.861 544.172 118.698C544.705 119.521 544.99 120.48 545.025 121.572C545.06 122.665 544.838 123.646 544.359 124.515C543.88 125.384 543.222 126.079 542.385 126.6C541.548 127.107 540.609 127.377 539.57 127.411ZM539.502 125.312C540.142 125.291 540.703 125.12 541.187 124.797C541.67 124.475 542.043 124.043 542.306 123.501C542.581 122.945 542.708 122.327 542.686 121.648C542.664 120.968 542.498 120.366 542.188 119.843C541.891 119.319 541.491 118.911 540.988 118.621C540.485 118.33 539.914 118.195 539.274 118.216C538.648 118.236 538.086 118.407 537.59 118.73C537.106 119.052 536.727 119.485 536.451 120.027C536.188 120.569 536.068 121.18 536.09 121.86C536.111 122.54 536.271 123.148 536.569 123.685C536.879 124.209 537.286 124.616 537.788 124.907C538.305 125.197 538.876 125.332 539.502 125.312ZM547.405 126.919L547.056 116.104L549.215 116.035L549.284 118.154L549.015 117.882C549.259 117.194 549.669 116.667 550.245 116.302C550.819 115.923 551.493 115.721 552.266 115.696C553.066 115.671 553.778 115.821 554.402 116.148C555.026 116.475 555.521 116.939 555.887 117.541C556.254 118.143 556.449 118.843 556.475 119.643L556.7 126.619L554.461 126.691L554.256 120.315C554.238 119.768 554.123 119.312 553.911 118.945C553.699 118.565 553.403 118.281 553.024 118.093C552.657 117.892 552.24 117.798 551.774 117.813C551.307 117.828 550.891 117.948 550.525 118.174C550.171 118.385 549.901 118.687 549.714 119.08C549.526 119.473 549.441 119.936 549.458 120.469L549.663 126.846L547.405 126.919ZM560.117 126.509L560.033 123.911L562.332 123.837L562.416 126.435L560.117 126.509Z" fill="#3D3D3D"/>
</svg>
