<svg width="278" height="170" viewBox="0 0 278 170" fill="none" xmlns="http://www.w3.org/2000/svg">
<rect width="278" height="170" rx="24" fill="white"/>
<rect x="0.5" y="0.5" width="277" height="169" rx="23.5" stroke="#FFD93D" stroke-opacity="0.3"/>
<rect x="32" y="28" width="40" height="40" rx="14" fill="#FFD93D" fill-opacity="0.1"/>
<path d="M55 52.5715V54.9915C54.9995 55.5241 54.7876 56.0347 54.4109 56.4111C54.0343 56.7876 53.5236 56.9992 52.991 56.9995H45.01C44.4771 56.9995 43.966 56.7879 43.5891 56.4111C43.2121 56.0344 43.0003 55.5234 43 54.9905V47.0095C43 46.4766 43.2116 45.9655 43.5884 45.5886C43.9651 45.2117 44.4761 44.9998 45.009 44.9995H47.963" stroke="#FFD93D" stroke-width="1.5" stroke-linecap="round" stroke-linejoin="round"/>
<path d="M49.167 40.5105C49.3074 39.9887 49.649 39.5439 50.117 39.2738C50.5849 39.0036 51.1409 38.9302 51.663 39.0695L59.489 41.1665C60.0108 41.3069 60.4555 41.6485 60.7257 42.1165C60.9959 42.5844 61.0693 43.1404 60.93 43.6625L58.833 51.4885C58.6926 52.0103 58.351 52.455 57.883 52.7252C57.4151 52.9953 56.8591 53.0688 56.337 52.9295L48.51 50.8325C47.9882 50.6921 47.5435 50.3505 47.2733 49.8825C47.0031 49.4146 46.9297 48.8585 47.069 48.3365L49.167 40.5105Z" stroke="#FFD93D" stroke-width="1.5" stroke-linecap="round" stroke-linejoin="round"/>
<path d="M37.32 113V106.28L32.22 98.1H34.88L38.96 104.72H38.02L42.08 98.1H44.74L39.66 106.28V113H37.32ZM49.6142 113.24C48.5742 113.24 47.6209 112.993 46.7542 112.5C45.9009 112.007 45.2209 111.333 44.7142 110.48C44.2076 109.627 43.9542 108.66 43.9542 107.58C43.9542 106.487 44.2076 105.52 44.7142 104.68C45.2209 103.827 45.9009 103.16 46.7542 102.68C47.6076 102.187 48.5609 101.94 49.6142 101.94C50.6809 101.94 51.6342 102.187 52.4742 102.68C53.3276 103.16 54.0009 103.827 54.4942 104.68C55.0009 105.52 55.2542 106.487 55.2542 107.58C55.2542 108.673 55.0009 109.647 54.4942 110.5C53.9876 111.353 53.3076 112.027 52.4542 112.52C51.6009 113 50.6542 113.24 49.6142 113.24ZM49.6142 111.14C50.2542 111.14 50.8209 110.987 51.3142 110.68C51.8076 110.373 52.1942 109.953 52.4742 109.42C52.7676 108.873 52.9142 108.26 52.9142 107.58C52.9142 106.9 52.7676 106.293 52.4742 105.76C52.1942 105.227 51.8076 104.807 51.3142 104.5C50.8209 104.193 50.2542 104.04 49.6142 104.04C48.9876 104.04 48.4209 104.193 47.9142 104.5C47.4209 104.807 47.0276 105.227 46.7342 105.76C46.4542 106.293 46.3142 106.9 46.3142 107.58C46.3142 108.26 46.4542 108.873 46.7342 109.42C47.0276 109.953 47.4209 110.373 47.9142 110.68C48.4209 110.987 48.9876 111.14 49.6142 111.14ZM61.3206 113.24C60.5073 113.24 59.794 113.06 59.1806 112.7C58.5673 112.327 58.0873 111.813 57.7406 111.16C57.4073 110.493 57.2406 109.727 57.2406 108.86V102.18H59.5006V108.66C59.5006 109.153 59.6006 109.587 59.8006 109.96C60.0006 110.333 60.2806 110.627 60.6406 110.84C61.0006 111.04 61.414 111.14 61.8806 111.14C62.3606 111.14 62.7806 111.033 63.1406 110.82C63.5006 110.607 63.7806 110.307 63.9806 109.92C64.194 109.533 64.3006 109.08 64.3006 108.56V102.18H66.5406V113H64.4006V110.88L64.6406 111.16C64.3873 111.827 63.9673 112.34 63.3806 112.7C62.794 113.06 62.1073 113.24 61.3206 113.24ZM69.1794 113V102.18H71.3394V104.36L71.1394 104.04C71.3794 103.333 71.766 102.827 72.2994 102.52C72.8327 102.2 73.4727 102.04 74.2194 102.04H74.8794V104.1H73.9394C73.1927 104.1 72.586 104.333 72.1194 104.8C71.666 105.253 71.4394 105.907 71.4394 106.76V113H69.1794ZM82.5416 113L78.8216 102.18H81.2216L84.0616 110.8H83.2216L86.1216 102.18H88.1816L91.0616 110.8H90.2216L93.0816 102.18H95.4816L91.7416 113H89.7016L86.7816 104.18H87.5216L84.6016 113H82.5416ZM99.8803 113.24C99.147 113.24 98.5003 113.113 97.9403 112.86C97.3936 112.593 96.967 112.233 96.6603 111.78C96.3536 111.313 96.2003 110.767 96.2003 110.14C96.2003 109.553 96.327 109.027 96.5803 108.56C96.847 108.093 97.2536 107.7 97.8003 107.38C98.347 107.06 99.0336 106.833 99.8603 106.7L103.62 106.08V107.86L100.3 108.44C99.7003 108.547 99.2603 108.74 98.9803 109.02C98.7003 109.287 98.5603 109.633 98.5603 110.06C98.5603 110.473 98.7136 110.813 99.0203 111.08C99.3403 111.333 99.747 111.46 100.24 111.46C100.854 111.46 101.387 111.327 101.84 111.06C102.307 110.793 102.667 110.44 102.92 110C103.174 109.547 103.3 109.047 103.3 108.5V105.72C103.3 105.187 103.1 104.753 102.7 104.42C102.314 104.073 101.794 103.9 101.14 103.9C100.54 103.9 100.014 104.06 99.5603 104.38C99.1203 104.687 98.7936 105.087 98.5803 105.58L96.7003 104.64C96.9003 104.107 97.227 103.64 97.6803 103.24C98.1336 102.827 98.6603 102.507 99.2603 102.28C99.8736 102.053 100.52 101.94 101.2 101.94C102.054 101.94 102.807 102.1 103.46 102.42C104.127 102.74 104.64 103.187 105 103.76C105.374 104.32 105.56 104.973 105.56 105.72V113H103.4V111.04L103.86 111.1C103.607 111.54 103.28 111.92 102.88 112.24C102.494 112.56 102.047 112.807 101.54 112.98C101.047 113.153 100.494 113.24 99.8803 113.24ZM108.203 113V102.18H110.363V104.3L110.103 104.02C110.369 103.34 110.796 102.827 111.383 102.48C111.969 102.12 112.649 101.94 113.423 101.94C114.223 101.94 114.929 102.113 115.543 102.46C116.156 102.807 116.636 103.287 116.983 103.9C117.329 104.513 117.503 105.22 117.503 106.02V113H115.263V106.62C115.263 106.073 115.163 105.613 114.963 105.24C114.763 104.853 114.476 104.56 114.103 104.36C113.743 104.147 113.329 104.04 112.863 104.04C112.396 104.04 111.976 104.147 111.603 104.36C111.243 104.56 110.963 104.853 110.763 105.24C110.563 105.627 110.463 106.087 110.463 106.62V113H108.203ZM124.602 113.12C123.468 113.12 122.588 112.8 121.962 112.16C121.335 111.52 121.022 110.62 121.022 109.46V104.22H119.122V102.18H119.422C119.928 102.18 120.322 102.033 120.602 101.74C120.882 101.447 121.022 101.047 121.022 100.54V99.7H123.282V102.18H125.742V104.22H123.282V109.36C123.282 109.733 123.342 110.053 123.462 110.32C123.582 110.573 123.775 110.773 124.042 110.92C124.308 111.053 124.655 111.12 125.082 111.12C125.188 111.12 125.308 111.113 125.442 111.1C125.575 111.087 125.702 111.073 125.822 111.06V113C125.635 113.027 125.428 113.053 125.202 113.08C124.975 113.107 124.775 113.12 124.602 113.12ZM136.203 113.12C135.07 113.12 134.19 112.8 133.563 112.16C132.936 111.52 132.623 110.62 132.623 109.46V104.22H130.723V102.18H131.023C131.53 102.18 131.923 102.033 132.203 101.74C132.483 101.447 132.623 101.047 132.623 100.54V99.7H134.883V102.18H137.343V104.22H134.883V109.36C134.883 109.733 134.943 110.053 135.063 110.32C135.183 110.573 135.376 110.773 135.643 110.92C135.91 111.053 136.256 111.12 136.683 111.12C136.79 111.12 136.91 111.113 137.043 111.1C137.176 111.087 137.303 111.073 137.423 111.06V113C137.236 113.027 137.03 113.053 136.803 113.08C136.576 113.107 136.376 113.12 136.203 113.12ZM144.653 113.24C143.613 113.24 142.66 112.993 141.793 112.5C140.94 112.007 140.26 111.333 139.753 110.48C139.247 109.627 138.993 108.66 138.993 107.58C138.993 106.487 139.247 105.52 139.753 104.68C140.26 103.827 140.94 103.16 141.793 102.68C142.647 102.187 143.6 101.94 144.653 101.94C145.72 101.94 146.673 102.187 147.513 102.68C148.367 103.16 149.04 103.827 149.533 104.68C150.04 105.52 150.293 106.487 150.293 107.58C150.293 108.673 150.04 109.647 149.533 110.5C149.027 111.353 148.347 112.027 147.493 112.52C146.64 113 145.693 113.24 144.653 113.24ZM144.653 111.14C145.293 111.14 145.86 110.987 146.353 110.68C146.847 110.373 147.233 109.953 147.513 109.42C147.807 108.873 147.953 108.26 147.953 107.58C147.953 106.9 147.807 106.293 147.513 105.76C147.233 105.227 146.847 104.807 146.353 104.5C145.86 104.193 145.293 104.04 144.653 104.04C144.027 104.04 143.46 104.193 142.953 104.5C142.46 104.807 142.067 105.227 141.773 105.76C141.493 106.293 141.353 106.9 141.353 107.58C141.353 108.26 141.493 108.873 141.773 109.42C142.067 109.953 142.46 110.373 142.953 110.68C143.46 110.987 144.027 111.14 144.653 111.14ZM159.996 113.24C158.889 113.24 157.916 112.967 157.076 112.42C156.249 111.873 155.669 111.14 155.336 110.22L157.076 109.4C157.369 110.013 157.769 110.5 158.276 110.86C158.796 111.22 159.369 111.4 159.996 111.4C160.529 111.4 160.962 111.28 161.296 111.04C161.629 110.8 161.796 110.473 161.796 110.06C161.796 109.793 161.722 109.58 161.576 109.42C161.429 109.247 161.242 109.107 161.016 109C160.802 108.893 160.582 108.813 160.356 108.76L158.656 108.28C157.722 108.013 157.022 107.613 156.556 107.08C156.102 106.533 155.876 105.9 155.876 105.18C155.876 104.527 156.042 103.96 156.376 103.48C156.709 102.987 157.169 102.607 157.756 102.34C158.342 102.073 159.002 101.94 159.736 101.94C160.722 101.94 161.602 102.187 162.376 102.68C163.149 103.16 163.696 103.833 164.016 104.7L162.276 105.52C162.062 105 161.722 104.587 161.256 104.28C160.802 103.973 160.289 103.82 159.716 103.82C159.222 103.82 158.829 103.94 158.536 104.18C158.242 104.407 158.096 104.707 158.096 105.08C158.096 105.333 158.162 105.547 158.296 105.72C158.429 105.88 158.602 106.013 158.816 106.12C159.029 106.213 159.249 106.293 159.476 106.36L161.236 106.88C162.129 107.133 162.816 107.533 163.296 108.08C163.776 108.613 164.016 109.253 164.016 110C164.016 110.64 163.842 111.207 163.496 111.7C163.162 112.18 162.696 112.56 162.096 112.84C161.496 113.107 160.796 113.24 159.996 113.24ZM170.91 113.12C169.777 113.12 168.897 112.8 168.27 112.16C167.643 111.52 167.33 110.62 167.33 109.46V104.22H165.43V102.18H165.73C166.237 102.18 166.63 102.033 166.91 101.74C167.19 101.447 167.33 101.047 167.33 100.54V99.7H169.59V102.18H172.05V104.22H169.59V109.36C169.59 109.733 169.65 110.053 169.77 110.32C169.89 110.573 170.083 110.773 170.35 110.92C170.617 111.053 170.963 111.12 171.39 111.12C171.497 111.12 171.617 111.113 171.75 111.1C171.883 111.087 172.01 111.073 172.13 111.06V113C171.943 113.027 171.737 113.053 171.51 113.08C171.283 113.107 171.083 113.12 170.91 113.12ZM179.22 113.24C178.14 113.24 177.18 112.993 176.34 112.5C175.514 111.993 174.867 111.313 174.4 110.46C173.934 109.593 173.7 108.627 173.7 107.56C173.7 106.467 173.934 105.5 174.4 104.66C174.88 103.82 175.52 103.16 176.32 102.68C177.12 102.187 178.027 101.94 179.04 101.94C179.854 101.94 180.58 102.08 181.22 102.36C181.86 102.64 182.4 103.027 182.84 103.52C183.28 104 183.614 104.553 183.84 105.18C184.08 105.807 184.2 106.473 184.2 107.18C184.2 107.353 184.194 107.533 184.18 107.72C184.167 107.907 184.14 108.08 184.1 108.24H175.48V106.44H182.82L181.74 107.26C181.874 106.607 181.827 106.027 181.6 105.52C181.387 105 181.054 104.593 180.6 104.3C180.16 103.993 179.64 103.84 179.04 103.84C178.44 103.84 177.907 103.993 177.44 104.3C176.974 104.593 176.614 105.02 176.36 105.58C176.107 106.127 176.007 106.793 176.06 107.58C175.994 108.313 176.094 108.953 176.36 109.5C176.64 110.047 177.027 110.473 177.52 110.78C178.027 111.087 178.6 111.24 179.24 111.24C179.894 111.24 180.447 111.093 180.9 110.8C181.367 110.507 181.734 110.127 182 109.66L183.84 110.56C183.627 111.067 183.294 111.527 182.84 111.94C182.4 112.34 181.867 112.66 181.24 112.9C180.627 113.127 179.954 113.24 179.22 113.24ZM186.406 117V102.18H188.566V104.42L188.306 103.9C188.706 103.287 189.239 102.807 189.906 102.46C190.573 102.113 191.333 101.94 192.186 101.94C193.213 101.94 194.133 102.187 194.946 102.68C195.773 103.173 196.419 103.847 196.886 104.7C197.366 105.553 197.606 106.513 197.606 107.58C197.606 108.647 197.366 109.607 196.886 110.46C196.419 111.313 195.779 111.993 194.966 112.5C194.153 112.993 193.226 113.24 192.186 113.24C191.346 113.24 190.579 113.067 189.886 112.72C189.206 112.373 188.679 111.873 188.306 111.22L188.666 110.8V117H186.406ZM191.966 111.14C192.606 111.14 193.173 110.987 193.666 110.68C194.159 110.373 194.546 109.953 194.826 109.42C195.119 108.873 195.266 108.26 195.266 107.58C195.266 106.9 195.119 106.293 194.826 105.76C194.546 105.227 194.159 104.807 193.666 104.5C193.173 104.193 192.606 104.04 191.966 104.04C191.339 104.04 190.773 104.193 190.266 104.5C189.773 104.807 189.379 105.227 189.086 105.76C188.806 106.293 188.666 106.9 188.666 107.58C188.666 108.26 188.806 108.873 189.086 109.42C189.379 109.953 189.773 110.373 190.266 110.68C190.773 110.987 191.339 111.14 191.966 111.14ZM208.52 113.24C207.48 113.24 206.527 112.993 205.66 112.5C204.807 112.007 204.127 111.333 203.62 110.48C203.114 109.627 202.86 108.66 202.86 107.58C202.86 106.487 203.114 105.52 203.62 104.68C204.127 103.827 204.807 103.16 205.66 102.68C206.514 102.187 207.467 101.94 208.52 101.94C209.587 101.94 210.54 102.187 211.38 102.68C212.234 103.16 212.907 103.827 213.4 104.68C213.907 105.52 214.16 106.487 214.16 107.58C214.16 108.673 213.907 109.647 213.4 110.5C212.894 111.353 212.214 112.027 211.36 112.52C210.507 113 209.56 113.24 208.52 113.24ZM208.52 111.14C209.16 111.14 209.727 110.987 210.22 110.68C210.714 110.373 211.1 109.953 211.38 109.42C211.674 108.873 211.82 108.26 211.82 107.58C211.82 106.9 211.674 106.293 211.38 105.76C211.1 105.227 210.714 104.807 210.22 104.5C209.727 104.193 209.16 104.04 208.52 104.04C207.894 104.04 207.327 104.193 206.82 104.5C206.327 104.807 205.934 105.227 205.64 105.76C205.36 106.293 205.22 106.9 205.22 107.58C205.22 108.26 205.36 108.873 205.64 109.42C205.934 109.953 206.327 110.373 206.82 110.68C207.327 110.987 207.894 111.14 208.52 111.14ZM220.227 113.24C219.414 113.24 218.7 113.06 218.087 112.7C217.474 112.327 216.994 111.813 216.647 111.16C216.314 110.493 216.147 109.727 216.147 108.86V102.18H218.407V108.66C218.407 109.153 218.507 109.587 218.707 109.96C218.907 110.333 219.187 110.627 219.547 110.84C219.907 111.04 220.32 111.14 220.787 111.14C221.267 111.14 221.687 111.033 222.047 110.82C222.407 110.607 222.687 110.307 222.887 109.92C223.1 109.533 223.207 109.08 223.207 108.56V102.18H225.447V113H223.307V110.88L223.547 111.16C223.294 111.827 222.874 112.34 222.287 112.7C221.7 113.06 221.014 113.24 220.227 113.24ZM232.766 113.12C231.632 113.12 230.752 112.8 230.126 112.16C229.499 111.52 229.186 110.62 229.186 109.46V104.22H227.286V102.18H227.586C228.092 102.18 228.486 102.033 228.766 101.74C229.046 101.447 229.186 101.047 229.186 100.54V99.7H231.446V102.18H233.906V104.22H231.446V109.36C231.446 109.733 231.506 110.053 231.626 110.32C231.746 110.573 231.939 110.773 232.206 110.92C232.472 111.053 232.819 111.12 233.246 111.12C233.352 111.12 233.472 111.113 233.606 111.1C233.739 111.087 233.866 111.073 233.986 111.06V113C233.799 113.027 233.592 113.053 233.366 113.08C233.139 113.107 232.939 113.12 232.766 113.12ZM236.771 115.94V114.84C237.211 114.733 237.551 114.527 237.791 114.22C238.031 113.927 238.178 113.52 238.231 113H237.171V110.4H239.471V112.1C239.471 113.167 239.244 114.027 238.791 114.68C238.338 115.333 237.664 115.753 236.771 115.94ZM33.32 138V127.18H35.48V129.3L35.22 129.02C35.4867 128.34 35.9133 127.827 36.5 127.48C37.0867 127.12 37.7667 126.94 38.54 126.94C39.34 126.94 40.0467 127.113 40.66 127.46C41.2733 127.807 41.7533 128.287 42.1 128.9C42.4467 129.513 42.62 130.22 42.62 131.02V138H40.38V131.62C40.38 131.073 40.28 130.613 40.08 130.24C39.88 129.853 39.5933 129.56 39.22 129.36C38.86 129.147 38.4467 129.04 37.98 129.04C37.5133 129.04 37.0933 129.147 36.72 129.36C36.36 129.56 36.08 129.853 35.88 130.24C35.68 130.627 35.58 131.087 35.58 131.62V138H33.32ZM50.2588 138.24C49.2188 138.24 48.2654 137.993 47.3988 137.5C46.5454 137.007 45.8654 136.333 45.3588 135.48C44.8521 134.627 44.5988 133.66 44.5988 132.58C44.5988 131.487 44.8521 130.52 45.3588 129.68C45.8654 128.827 46.5454 128.16 47.3988 127.68C48.2521 127.187 49.2054 126.94 50.2588 126.94C51.3254 126.94 52.2788 127.187 53.1188 127.68C53.9721 128.16 54.6454 128.827 55.1388 129.68C55.6454 130.52 55.8988 131.487 55.8988 132.58C55.8988 133.673 55.6454 134.647 55.1388 135.5C54.6321 136.353 53.9521 137.027 53.0988 137.52C52.2454 138 51.2988 138.24 50.2588 138.24ZM50.2588 136.14C50.8988 136.14 51.4654 135.987 51.9588 135.68C52.4521 135.373 52.8388 134.953 53.1188 134.42C53.4121 133.873 53.5588 133.26 53.5588 132.58C53.5588 131.9 53.4121 131.293 53.1188 130.76C52.8388 130.227 52.4521 129.807 51.9588 129.5C51.4654 129.193 50.8988 129.04 50.2588 129.04C49.6321 129.04 49.0654 129.193 48.5588 129.5C48.0654 129.807 47.6721 130.227 47.3788 130.76C47.0988 131.293 46.9588 131.9 46.9588 132.58C46.9588 133.26 47.0988 133.873 47.3788 134.42C47.6721 134.953 48.0654 135.373 48.5588 135.68C49.0654 135.987 49.6321 136.14 50.2588 136.14ZM62.5898 138.12C61.4565 138.12 60.5765 137.8 59.9498 137.16C59.3232 136.52 59.0098 135.62 59.0098 134.46V129.22H57.1098V127.18H57.4098C57.9165 127.18 58.3098 127.033 58.5898 126.74C58.8698 126.447 59.0098 126.047 59.0098 125.54V124.7H61.2698V127.18H63.7298V129.22H61.2698V134.36C61.2698 134.733 61.3298 135.053 61.4498 135.32C61.5698 135.573 61.7632 135.773 62.0298 135.92C62.2965 136.053 62.6432 136.12 63.0698 136.12C63.1765 136.12 63.2965 136.113 63.4298 136.1C63.5632 136.087 63.6898 136.073 63.8098 136.06V138C63.6232 138.027 63.4165 138.053 63.1898 138.08C62.9632 138.107 62.7632 138.12 62.5898 138.12ZM73.5114 138.24C72.4047 138.24 71.4314 137.967 70.5914 137.42C69.7647 136.873 69.1847 136.14 68.8514 135.22L70.5914 134.4C70.8847 135.013 71.2847 135.5 71.7914 135.86C72.3114 136.22 72.8847 136.4 73.5114 136.4C74.0447 136.4 74.4781 136.28 74.8114 136.04C75.1447 135.8 75.3114 135.473 75.3114 135.06C75.3114 134.793 75.2381 134.58 75.0914 134.42C74.9447 134.247 74.7581 134.107 74.5314 134C74.3181 133.893 74.0981 133.813 73.8714 133.76L72.1714 133.28C71.2381 133.013 70.5381 132.613 70.0714 132.08C69.6181 131.533 69.3914 130.9 69.3914 130.18C69.3914 129.527 69.5581 128.96 69.8914 128.48C70.2247 127.987 70.6847 127.607 71.2714 127.34C71.8581 127.073 72.5181 126.94 73.2514 126.94C74.2381 126.94 75.1181 127.187 75.8914 127.68C76.6647 128.16 77.2114 128.833 77.5314 129.7L75.7914 130.52C75.5781 130 75.2381 129.587 74.7714 129.28C74.3181 128.973 73.8047 128.82 73.2314 128.82C72.7381 128.82 72.3447 128.94 72.0514 129.18C71.7581 129.407 71.6114 129.707 71.6114 130.08C71.6114 130.333 71.6781 130.547 71.8114 130.72C71.9447 130.88 72.1181 131.013 72.3314 131.12C72.5447 131.213 72.7647 131.293 72.9914 131.36L74.7514 131.88C75.6447 132.133 76.3314 132.533 76.8114 133.08C77.2914 133.613 77.5314 134.253 77.5314 135C77.5314 135.64 77.3581 136.207 77.0114 136.7C76.6781 137.18 76.2114 137.56 75.6114 137.84C75.0114 138.107 74.3114 138.24 73.5114 138.24ZM84.8858 138.24C83.8058 138.24 82.8458 137.993 82.0058 137.5C81.1791 136.993 80.5191 136.313 80.0258 135.46C79.5458 134.607 79.3058 133.64 79.3058 132.56C79.3058 131.493 79.5458 130.533 80.0258 129.68C80.5058 128.827 81.1658 128.16 82.0058 127.68C82.8458 127.187 83.8058 126.94 84.8858 126.94C85.6191 126.94 86.3058 127.073 86.9458 127.34C87.5858 127.593 88.1391 127.947 88.6058 128.4C89.0858 128.853 89.4391 129.38 89.6658 129.98L87.6858 130.9C87.4591 130.34 87.0924 129.893 86.5858 129.56C86.0924 129.213 85.5258 129.04 84.8858 129.04C84.2724 129.04 83.7191 129.193 83.2258 129.5C82.7458 129.793 82.3658 130.213 82.0858 130.76C81.8058 131.293 81.6658 131.9 81.6658 132.58C81.6658 133.26 81.8058 133.873 82.0858 134.42C82.3658 134.953 82.7458 135.373 83.2258 135.68C83.7191 135.987 84.2724 136.14 84.8858 136.14C85.5391 136.14 86.1058 135.973 86.5858 135.64C87.0791 135.293 87.4458 134.833 87.6858 134.26L89.6658 135.2C89.4524 135.773 89.1058 136.293 88.6258 136.76C88.1591 137.213 87.6058 137.573 86.9658 137.84C86.3258 138.107 85.6324 138.24 84.8858 138.24ZM91.8747 138V127.18H94.0347V129.36L93.8347 129.04C94.0747 128.333 94.4614 127.827 94.9947 127.52C95.528 127.2 96.168 127.04 96.9147 127.04H97.5747V129.1H96.6347C95.888 129.1 95.2814 129.333 94.8147 129.8C94.3614 130.253 94.1347 130.907 94.1347 131.76V138H91.8747ZM104.341 138.24C103.301 138.24 102.347 137.993 101.481 137.5C100.627 137.007 99.9474 136.333 99.4408 135.48C98.9341 134.627 98.6808 133.66 98.6808 132.58C98.6808 131.487 98.9341 130.52 99.4408 129.68C99.9474 128.827 100.627 128.16 101.481 127.68C102.334 127.187 103.287 126.94 104.341 126.94C105.407 126.94 106.361 127.187 107.201 127.68C108.054 128.16 108.727 128.827 109.221 129.68C109.727 130.52 109.981 131.487 109.981 132.58C109.981 133.673 109.727 134.647 109.221 135.5C108.714 136.353 108.034 137.027 107.181 137.52C106.327 138 105.381 138.24 104.341 138.24ZM104.341 136.14C104.981 136.14 105.547 135.987 106.041 135.68C106.534 135.373 106.921 134.953 107.201 134.42C107.494 133.873 107.641 133.26 107.641 132.58C107.641 131.9 107.494 131.293 107.201 130.76C106.921 130.227 106.534 129.807 106.041 129.5C105.547 129.193 104.981 129.04 104.341 129.04C103.714 129.04 103.147 129.193 102.641 129.5C102.147 129.807 101.754 130.227 101.461 130.76C101.181 131.293 101.041 131.9 101.041 132.58C101.041 133.26 101.181 133.873 101.461 134.42C101.754 134.953 102.147 135.373 102.641 135.68C103.147 135.987 103.714 136.14 104.341 136.14ZM112.187 138V122.86H114.447V138H112.187ZM117.09 138V122.86H119.35V138H117.09ZM130.568 138.24C129.488 138.24 128.528 137.993 127.688 137.5C126.861 136.993 126.215 136.313 125.748 135.46C125.281 134.593 125.048 133.627 125.048 132.56C125.048 131.467 125.281 130.5 125.748 129.66C126.228 128.82 126.868 128.16 127.668 127.68C128.468 127.187 129.375 126.94 130.388 126.94C131.201 126.94 131.928 127.08 132.568 127.36C133.208 127.64 133.748 128.027 134.188 128.52C134.628 129 134.961 129.553 135.188 130.18C135.428 130.807 135.548 131.473 135.548 132.18C135.548 132.353 135.541 132.533 135.528 132.72C135.515 132.907 135.488 133.08 135.448 133.24H126.828V131.44H134.168L133.088 132.26C133.221 131.607 133.175 131.027 132.948 130.52C132.735 130 132.401 129.593 131.948 129.3C131.508 128.993 130.988 128.84 130.388 128.84C129.788 128.84 129.255 128.993 128.788 129.3C128.321 129.593 127.961 130.02 127.708 130.58C127.455 131.127 127.355 131.793 127.408 132.58C127.341 133.313 127.441 133.953 127.708 134.5C127.988 135.047 128.375 135.473 128.868 135.78C129.375 136.087 129.948 136.24 130.588 136.24C131.241 136.24 131.795 136.093 132.248 135.8C132.715 135.507 133.081 135.127 133.348 134.66L135.188 135.56C134.975 136.067 134.641 136.527 134.188 136.94C133.748 137.34 133.215 137.66 132.588 137.9C131.975 138.127 131.301 138.24 130.568 138.24ZM137.754 138V127.18H139.914V129.3L139.654 129.02C139.92 128.34 140.347 127.827 140.934 127.48C141.52 127.12 142.2 126.94 142.974 126.94C143.774 126.94 144.48 127.113 145.094 127.46C145.707 127.807 146.187 128.287 146.534 128.9C146.88 129.513 147.054 130.22 147.054 131.02V138H144.814V131.62C144.814 131.073 144.714 130.613 144.514 130.24C144.314 129.853 144.027 129.56 143.654 129.36C143.294 129.147 142.88 129.04 142.414 129.04C141.947 129.04 141.527 129.147 141.154 129.36C140.794 129.56 140.514 129.853 140.314 130.24C140.114 130.627 140.014 131.087 140.014 131.62V138H137.754ZM154.472 138.24C153.432 138.24 152.499 137.993 151.672 137.5C150.859 136.993 150.212 136.313 149.732 135.46C149.266 134.607 149.032 133.647 149.032 132.58C149.032 131.513 149.272 130.553 149.752 129.7C150.232 128.847 150.879 128.173 151.692 127.68C152.506 127.187 153.426 126.94 154.452 126.94C155.319 126.94 156.086 127.113 156.752 127.46C157.419 127.807 157.946 128.287 158.332 128.9L157.992 129.42V122.86H160.232V138H158.092V135.8L158.352 136.22C157.979 136.873 157.446 137.373 156.752 137.72C156.059 138.067 155.299 138.24 154.472 138.24ZM154.692 136.14C155.319 136.14 155.879 135.987 156.372 135.68C156.879 135.373 157.272 134.953 157.552 134.42C157.846 133.873 157.992 133.26 157.992 132.58C157.992 131.9 157.846 131.293 157.552 130.76C157.272 130.227 156.879 129.807 156.372 129.5C155.879 129.193 155.319 129.04 154.692 129.04C154.066 129.04 153.499 129.193 152.992 129.5C152.486 129.807 152.092 130.227 151.812 130.76C151.532 131.293 151.392 131.9 151.392 132.58C151.392 133.26 151.532 133.873 151.812 134.42C152.092 134.953 152.479 135.373 152.972 135.68C153.479 135.987 154.052 136.14 154.692 136.14ZM162.871 138V122.86H165.131V138H162.871ZM172.853 138.24C171.773 138.24 170.813 137.993 169.973 137.5C169.146 136.993 168.5 136.313 168.033 135.46C167.566 134.593 167.333 133.627 167.333 132.56C167.333 131.467 167.566 130.5 168.033 129.66C168.513 128.82 169.153 128.16 169.953 127.68C170.753 127.187 171.66 126.94 172.673 126.94C173.486 126.94 174.213 127.08 174.853 127.36C175.493 127.64 176.033 128.027 176.473 128.52C176.913 129 177.246 129.553 177.473 130.18C177.713 130.807 177.833 131.473 177.833 132.18C177.833 132.353 177.826 132.533 177.813 132.72C177.8 132.907 177.773 133.08 177.733 133.24H169.113V131.44H176.453L175.373 132.26C175.506 131.607 175.46 131.027 175.233 130.52C175.02 130 174.686 129.593 174.233 129.3C173.793 128.993 173.273 128.84 172.673 128.84C172.073 128.84 171.54 128.993 171.073 129.3C170.606 129.593 170.246 130.02 169.993 130.58C169.74 131.127 169.64 131.793 169.693 132.58C169.626 133.313 169.726 133.953 169.993 134.5C170.273 135.047 170.66 135.473 171.153 135.78C171.66 136.087 172.233 136.24 172.873 136.24C173.526 136.24 174.08 136.093 174.533 135.8C175 135.507 175.366 135.127 175.633 134.66L177.473 135.56C177.26 136.067 176.926 136.527 176.473 136.94C176.033 137.34 175.5 137.66 174.873 137.9C174.26 138.127 173.586 138.24 172.853 138.24ZM184.039 138.24C182.932 138.24 181.959 137.967 181.119 137.42C180.292 136.873 179.712 136.14 179.379 135.22L181.119 134.4C181.412 135.013 181.812 135.5 182.319 135.86C182.839 136.22 183.412 136.4 184.039 136.4C184.572 136.4 185.005 136.28 185.339 136.04C185.672 135.8 185.839 135.473 185.839 135.06C185.839 134.793 185.765 134.58 185.619 134.42C185.472 134.247 185.285 134.107 185.059 134C184.845 133.893 184.625 133.813 184.399 133.76L182.699 133.28C181.765 133.013 181.065 132.613 180.599 132.08C180.145 131.533 179.919 130.9 179.919 130.18C179.919 129.527 180.085 128.96 180.419 128.48C180.752 127.987 181.212 127.607 181.799 127.34C182.385 127.073 183.045 126.94 183.779 126.94C184.765 126.94 185.645 127.187 186.419 127.68C187.192 128.16 187.739 128.833 188.059 129.7L186.319 130.52C186.105 130 185.765 129.587 185.299 129.28C184.845 128.973 184.332 128.82 183.759 128.82C183.265 128.82 182.872 128.94 182.579 129.18C182.285 129.407 182.139 129.707 182.139 130.08C182.139 130.333 182.205 130.547 182.339 130.72C182.472 130.88 182.645 131.013 182.859 131.12C183.072 131.213 183.292 131.293 183.519 131.36L185.279 131.88C186.172 132.133 186.859 132.533 187.339 133.08C187.819 133.613 188.059 134.253 188.059 135C188.059 135.64 187.885 136.207 187.539 136.7C187.205 137.18 186.739 137.56 186.139 137.84C185.539 138.107 184.839 138.24 184.039 138.24ZM194.273 138.24C193.166 138.24 192.193 137.967 191.353 137.42C190.526 136.873 189.946 136.14 189.613 135.22L191.353 134.4C191.646 135.013 192.046 135.5 192.553 135.86C193.073 136.22 193.646 136.4 194.273 136.4C194.806 136.4 195.24 136.28 195.573 136.04C195.906 135.8 196.073 135.473 196.073 135.06C196.073 134.793 196 134.58 195.853 134.42C195.706 134.247 195.52 134.107 195.293 134C195.08 133.893 194.86 133.813 194.633 133.76L192.933 133.28C192 133.013 191.3 132.613 190.833 132.08C190.38 131.533 190.153 130.9 190.153 130.18C190.153 129.527 190.32 128.96 190.653 128.48C190.986 127.987 191.446 127.607 192.033 127.34C192.62 127.073 193.28 126.94 194.013 126.94C195 126.94 195.88 127.187 196.653 127.68C197.426 128.16 197.973 128.833 198.293 129.7L196.553 130.52C196.34 130 196 129.587 195.533 129.28C195.08 128.973 194.566 128.82 193.993 128.82C193.5 128.82 193.106 128.94 192.813 129.18C192.52 129.407 192.373 129.707 192.373 130.08C192.373 130.333 192.44 130.547 192.573 130.72C192.706 130.88 192.88 131.013 193.093 131.12C193.306 131.213 193.526 131.293 193.753 131.36L195.513 131.88C196.406 132.133 197.093 132.533 197.573 133.08C198.053 133.613 198.293 134.253 198.293 135C198.293 135.64 198.12 136.207 197.773 136.7C197.44 137.18 196.973 137.56 196.373 137.84C195.773 138.107 195.073 138.24 194.273 138.24ZM200.507 138V122.86H202.768V138H200.507ZM206.37 142.4C206.103 142.4 205.837 142.373 205.57 142.32C205.317 142.28 205.083 142.213 204.87 142.12V140.18C205.03 140.22 205.223 140.253 205.45 140.28C205.677 140.32 205.897 140.34 206.11 140.34C206.737 140.34 207.197 140.2 207.49 139.92C207.797 139.653 208.07 139.24 208.31 138.68L209.03 137.04L208.99 138.94L204.31 127.18H206.73L210.19 136.2H209.37L212.81 127.18H215.25L210.47 139.18C210.217 139.82 209.897 140.38 209.51 140.86C209.137 141.353 208.69 141.733 208.17 142C207.663 142.267 207.063 142.4 206.37 142.4ZM216.996 138V135.4H219.296V138H216.996Z" fill="#3D3D3D"/>
</svg>
