<svg width="316" height="198" viewBox="0 0 316 198" fill="none" xmlns="http://www.w3.org/2000/svg">
<rect width="316" height="198" rx="24" fill="white"/>
<rect x="0.5" y="0.5" width="315" height="197" rx="23.5" stroke="#FFD93D" stroke-opacity="0.3"/>
<rect x="32" y="29.5" width="40" height="40" rx="14" fill="#FFD93D" fill-opacity="0.1"/>
<path d="M45.5294 44.8333C45.5294 44.0377 45.8083 43.2746 46.3047 42.712C46.8011 42.1494 47.4744 41.8333 48.1765 41.8333C48.8785 41.8333 49.5518 42.1494 50.0482 42.712C50.5446 43.2746 50.8235 44.0377 50.8235 44.8333C50.8235 45.629 50.5446 46.392 50.0482 46.9547C49.5518 47.5173 48.8785 47.8333 48.1765 47.8333C47.4744 47.8333 46.8011 47.5173 46.3047 46.9547C45.8083 46.392 45.5294 45.629 45.5294 44.8333ZM48.1765 40.5C47.1624 40.5 46.1899 40.9565 45.4728 41.7692C44.7558 42.5819 44.3529 43.6841 44.3529 44.8333C44.3529 45.9826 44.7558 47.0848 45.4728 47.8975C46.1899 48.7101 47.1624 49.1667 48.1765 49.1667C49.1905 49.1667 50.1631 48.7101 50.8801 47.8975C51.5972 47.0848 52 45.9826 52 44.8333C52 43.6841 51.5972 42.5819 50.8801 41.7692C50.1631 40.9565 49.1905 40.5 48.1765 40.5ZM54.8671 56.0267C55.5 56.32 56.2965 56.5 57.2941 56.5C59.5071 56.5 60.7306 55.6093 61.3753 54.588C61.7124 54.0525 61.9233 53.4284 61.9882 52.7747C61.994 52.7139 61.9979 52.653 62 52.592V52.5C62 52.2374 61.9544 51.9773 61.8657 51.7346C61.777 51.492 61.647 51.2715 61.4831 51.0858C61.3193 50.9001 61.1247 50.7528 60.9106 50.6522C60.6965 50.5517 60.467 50.5 60.2353 50.5H54.7882C55.0706 50.8867 55.2824 51.3387 55.4059 51.8333H60.2353C60.3913 51.8333 60.5409 51.9036 60.6512 52.0286C60.7616 52.1536 60.8235 52.3232 60.8235 52.5V52.572L60.8176 52.6387C60.7735 53.0617 60.6359 53.4652 60.4176 53.812C60.0329 54.424 59.1976 55.1667 57.2941 55.1667C56.4329 55.1667 55.7906 55.0147 55.3094 54.792C55.2129 55.1653 55.0729 55.5867 54.8671 56.0267ZM42 53.1667C42 52.4594 42.2479 51.7811 42.6892 51.281C43.1304 50.781 43.7289 50.5 44.3529 50.5H52C52.624 50.5 53.2225 50.781 53.6638 51.281C54.105 51.7811 54.3529 52.4594 54.3529 53.1667V53.2787L54.3506 53.332L54.3388 53.512C54.2554 54.3761 53.9846 55.2034 53.5506 55.92C52.7259 57.2733 51.1329 58.5 48.1765 58.5C45.22 58.5 43.6271 57.2733 42.8024 55.9213C42.3681 55.2043 42.0973 54.3766 42.0141 53.512C42.0074 53.4344 42.0027 53.3566 42 53.2787V53.1667ZM43.1765 53.2467V53.2707L43.1847 53.3813C43.2485 54.0205 43.4497 54.6321 43.7706 55.1627C44.3435 56.1013 45.5447 57.1667 48.1765 57.1667C50.8082 57.1667 52.0094 56.1013 52.5824 55.1627C52.9032 54.6321 53.1044 54.0205 53.1682 53.3813C53.1729 53.3307 53.1753 53.2938 53.1753 53.2707L53.1765 53.248V53.1667C53.1765 52.813 53.0525 52.4739 52.8319 52.2239C52.6113 51.9738 52.312 51.8333 52 51.8333H44.3529C44.0409 51.8333 43.7417 51.9738 43.5211 52.2239C43.3004 52.4739 43.1765 52.813 43.1765 53.1667V53.2467ZM55.5294 45.8333C55.5294 45.3029 55.7153 44.7942 56.0463 44.4191C56.3772 44.044 56.8261 43.8333 57.2941 43.8333C57.7621 43.8333 58.211 44.044 58.542 44.4191C58.8729 44.7942 59.0588 45.3029 59.0588 45.8333C59.0588 46.3638 58.8729 46.8725 58.542 47.2475C58.211 47.6226 57.7621 47.8333 57.2941 47.8333C56.8261 47.8333 56.3772 47.6226 56.0463 47.2475C55.7153 46.8725 55.5294 46.3638 55.5294 45.8333ZM57.2941 42.5C56.5141 42.5 55.766 42.8512 55.2144 43.4763C54.6628 44.1014 54.3529 44.9493 54.3529 45.8333C54.3529 46.7174 54.6628 47.5652 55.2144 48.1904C55.766 48.8155 56.5141 49.1667 57.2941 49.1667C58.0742 49.1667 58.8223 48.8155 59.3738 48.1904C59.9254 47.5652 60.2353 46.7174 60.2353 45.8333C60.2353 44.9493 59.9254 44.1014 59.3738 43.4763C58.8223 42.8512 58.0742 42.5 57.2941 42.5Z" fill="#FFD93D"/>
<path d="M37.32 114.5V107.78L32.22 99.6H34.88L38.96 106.22H38.02L42.08 99.6H44.74L39.66 107.78V114.5H37.32ZM49.6142 114.74C48.5742 114.74 47.6209 114.493 46.7542 114C45.9009 113.507 45.2209 112.833 44.7142 111.98C44.2076 111.127 43.9542 110.16 43.9542 109.08C43.9542 107.987 44.2076 107.02 44.7142 106.18C45.2209 105.327 45.9009 104.66 46.7542 104.18C47.6076 103.687 48.5609 103.44 49.6142 103.44C50.6809 103.44 51.6342 103.687 52.4742 104.18C53.3276 104.66 54.0009 105.327 54.4942 106.18C55.0009 107.02 55.2542 107.987 55.2542 109.08C55.2542 110.173 55.0009 111.147 54.4942 112C53.9876 112.853 53.3076 113.527 52.4542 114.02C51.6009 114.5 50.6542 114.74 49.6142 114.74ZM49.6142 112.64C50.2542 112.64 50.8209 112.487 51.3142 112.18C51.8076 111.873 52.1942 111.453 52.4742 110.92C52.7676 110.373 52.9142 109.76 52.9142 109.08C52.9142 108.4 52.7676 107.793 52.4742 107.26C52.1942 106.727 51.8076 106.307 51.3142 106C50.8209 105.693 50.2542 105.54 49.6142 105.54C48.9876 105.54 48.4209 105.693 47.9142 106C47.4209 106.307 47.0276 106.727 46.7342 107.26C46.4542 107.793 46.3142 108.4 46.3142 109.08C46.3142 109.76 46.4542 110.373 46.7342 110.92C47.0276 111.453 47.4209 111.873 47.9142 112.18C48.4209 112.487 48.9876 112.64 49.6142 112.64ZM61.3206 114.74C60.5073 114.74 59.794 114.56 59.1806 114.2C58.5673 113.827 58.0873 113.313 57.7406 112.66C57.4073 111.993 57.2406 111.227 57.2406 110.36V103.68H59.5006V110.16C59.5006 110.653 59.6006 111.087 59.8006 111.46C60.0006 111.833 60.2806 112.127 60.6406 112.34C61.0006 112.54 61.414 112.64 61.8806 112.64C62.3606 112.64 62.7806 112.533 63.1406 112.32C63.5006 112.107 63.7806 111.807 63.9806 111.42C64.194 111.033 64.3006 110.58 64.3006 110.06V103.68H66.5406V114.5H64.4006V112.38L64.6406 112.66C64.3873 113.327 63.9673 113.84 63.3806 114.2C62.794 114.56 62.1073 114.74 61.3206 114.74ZM75.2955 114.5L71.5755 103.68H73.9755L76.8155 112.3H75.9755L78.8755 103.68H80.9355L83.8155 112.3H82.9755L85.8355 103.68H88.2355L84.4955 114.5H82.4555L79.5355 105.68H80.2755L77.3555 114.5H75.2955ZM92.6342 114.74C91.9009 114.74 91.2542 114.613 90.6942 114.36C90.1476 114.093 89.7209 113.733 89.4142 113.28C89.1076 112.813 88.9542 112.267 88.9542 111.64C88.9542 111.053 89.0809 110.527 89.3342 110.06C89.6009 109.593 90.0076 109.2 90.5542 108.88C91.1009 108.56 91.7876 108.333 92.6142 108.2L96.3742 107.58V109.36L93.0542 109.94C92.4542 110.047 92.0142 110.24 91.7342 110.52C91.4542 110.787 91.3142 111.133 91.3142 111.56C91.3142 111.973 91.4676 112.313 91.7742 112.58C92.0942 112.833 92.5009 112.96 92.9942 112.96C93.6076 112.96 94.1409 112.827 94.5942 112.56C95.0609 112.293 95.4209 111.94 95.6742 111.5C95.9276 111.047 96.0542 110.547 96.0542 110V107.22C96.0542 106.687 95.8542 106.253 95.4542 105.92C95.0676 105.573 94.5476 105.4 93.8942 105.4C93.2942 105.4 92.7676 105.56 92.3142 105.88C91.8742 106.187 91.5476 106.587 91.3342 107.08L89.4542 106.14C89.6542 105.607 89.9809 105.14 90.4342 104.74C90.8876 104.327 91.4142 104.007 92.0142 103.78C92.6276 103.553 93.2742 103.44 93.9542 103.44C94.8076 103.44 95.5609 103.6 96.2142 103.92C96.8809 104.24 97.3942 104.687 97.7542 105.26C98.1276 105.82 98.3142 106.473 98.3142 107.22V114.5H96.1542V112.54L96.6142 112.6C96.3609 113.04 96.0342 113.42 95.6342 113.74C95.2476 114.06 94.8009 114.307 94.2942 114.48C93.8009 114.653 93.2476 114.74 92.6342 114.74ZM100.957 114.5V103.68H103.117V105.8L102.857 105.52C103.123 104.84 103.55 104.327 104.137 103.98C104.723 103.62 105.403 103.44 106.177 103.44C106.977 103.44 107.683 103.613 108.297 103.96C108.91 104.307 109.39 104.787 109.737 105.4C110.083 106.013 110.257 106.72 110.257 107.52V114.5H108.017V108.12C108.017 107.573 107.917 107.113 107.717 106.74C107.517 106.353 107.23 106.06 106.857 105.86C106.497 105.647 106.083 105.54 105.617 105.54C105.15 105.54 104.73 105.647 104.357 105.86C103.997 106.06 103.717 106.353 103.517 106.74C103.317 107.127 103.217 107.587 103.217 108.12V114.5H100.957ZM117.355 114.62C116.222 114.62 115.342 114.3 114.715 113.66C114.089 113.02 113.775 112.12 113.775 110.96V105.72H111.875V103.68H112.175C112.682 103.68 113.075 103.533 113.355 103.24C113.635 102.947 113.775 102.547 113.775 102.04V101.2H116.035V103.68H118.495V105.72H116.035V110.86C116.035 111.233 116.095 111.553 116.215 111.82C116.335 112.073 116.529 112.273 116.795 112.42C117.062 112.553 117.409 112.62 117.835 112.62C117.942 112.62 118.062 112.613 118.195 112.6C118.329 112.587 118.455 112.573 118.575 112.56V114.5C118.389 114.527 118.182 114.553 117.955 114.58C117.729 114.607 117.529 114.62 117.355 114.62ZM128.957 114.62C127.824 114.62 126.944 114.3 126.317 113.66C125.69 113.02 125.377 112.12 125.377 110.96V105.72H123.477V103.68H123.777C124.284 103.68 124.677 103.533 124.957 103.24C125.237 102.947 125.377 102.547 125.377 102.04V101.2H127.637V103.68H130.097V105.72H127.637V110.86C127.637 111.233 127.697 111.553 127.817 111.82C127.937 112.073 128.13 112.273 128.397 112.42C128.664 112.553 129.01 112.62 129.437 112.62C129.544 112.62 129.664 112.613 129.797 112.6C129.93 112.587 130.057 112.573 130.177 112.56V114.5C129.99 114.527 129.784 114.553 129.557 114.58C129.33 114.607 129.13 114.62 128.957 114.62ZM137.407 114.74C136.367 114.74 135.414 114.493 134.547 114C133.694 113.507 133.014 112.833 132.507 111.98C132.001 111.127 131.747 110.16 131.747 109.08C131.747 107.987 132.001 107.02 132.507 106.18C133.014 105.327 133.694 104.66 134.547 104.18C135.401 103.687 136.354 103.44 137.407 103.44C138.474 103.44 139.427 103.687 140.267 104.18C141.121 104.66 141.794 105.327 142.287 106.18C142.794 107.02 143.047 107.987 143.047 109.08C143.047 110.173 142.794 111.147 142.287 112C141.781 112.853 141.101 113.527 140.247 114.02C139.394 114.5 138.447 114.74 137.407 114.74ZM137.407 112.64C138.047 112.64 138.614 112.487 139.107 112.18C139.601 111.873 139.987 111.453 140.267 110.92C140.561 110.373 140.707 109.76 140.707 109.08C140.707 108.4 140.561 107.793 140.267 107.26C139.987 106.727 139.601 106.307 139.107 106C138.614 105.693 138.047 105.54 137.407 105.54C136.781 105.54 136.214 105.693 135.707 106C135.214 106.307 134.821 106.727 134.527 107.26C134.247 107.793 134.107 108.4 134.107 109.08C134.107 109.76 134.247 110.373 134.527 110.92C134.821 111.453 135.214 111.873 135.707 112.18C136.214 112.487 136.781 112.64 137.407 112.64ZM153.43 114.62C152.296 114.62 151.416 114.3 150.79 113.66C150.163 113.02 149.85 112.12 149.85 110.96V105.72H147.95V103.68H148.25C148.756 103.68 149.15 103.533 149.43 103.24C149.71 102.947 149.85 102.547 149.85 102.04V101.2H152.11V103.68H154.57V105.72H152.11V110.86C152.11 111.233 152.17 111.553 152.29 111.82C152.41 112.073 152.603 112.273 152.87 112.42C153.136 112.553 153.483 112.62 153.91 112.62C154.016 112.62 154.136 112.613 154.27 112.6C154.403 112.587 154.53 112.573 154.65 112.56V114.5C154.463 114.527 154.256 114.553 154.03 114.58C153.803 114.607 153.603 114.62 153.43 114.62ZM159.998 114.74C159.264 114.74 158.618 114.613 158.058 114.36C157.511 114.093 157.084 113.733 156.778 113.28C156.471 112.813 156.318 112.267 156.318 111.64C156.318 111.053 156.444 110.527 156.698 110.06C156.964 109.593 157.371 109.2 157.918 108.88C158.464 108.56 159.151 108.333 159.978 108.2L163.738 107.58V109.36L160.418 109.94C159.818 110.047 159.378 110.24 159.098 110.52C158.818 110.787 158.678 111.133 158.678 111.56C158.678 111.973 158.831 112.313 159.138 112.58C159.458 112.833 159.864 112.96 160.358 112.96C160.971 112.96 161.504 112.827 161.958 112.56C162.424 112.293 162.784 111.94 163.038 111.5C163.291 111.047 163.418 110.547 163.418 110V107.22C163.418 106.687 163.218 106.253 162.818 105.92C162.431 105.573 161.911 105.4 161.258 105.4C160.658 105.4 160.131 105.56 159.678 105.88C159.238 106.187 158.911 106.587 158.698 107.08L156.818 106.14C157.018 105.607 157.344 105.14 157.798 104.74C158.251 104.327 158.778 104.007 159.378 103.78C159.991 103.553 160.638 103.44 161.317 103.44C162.171 103.44 162.924 103.6 163.578 103.92C164.244 104.24 164.758 104.687 165.118 105.26C165.491 105.82 165.678 106.473 165.678 107.22V114.5H163.518V112.54L163.978 112.6C163.724 113.04 163.398 113.42 162.998 113.74C162.611 114.06 162.164 114.307 161.658 114.48C161.164 114.653 160.611 114.74 159.998 114.74ZM168.32 114.5V99.36H170.58V114.5H168.32ZM173.222 114.5V99.36H175.482V109.5L174.602 109.28L180.022 103.68H182.842L178.762 108.02L183.022 114.5H180.422L176.622 108.76L177.962 108.58L174.762 111.98L175.482 110.48V114.5H173.222ZM185.15 117.44V116.34C185.59 116.233 185.93 116.027 186.17 115.72C186.41 115.427 186.557 115.02 186.61 114.5H185.55V111.9H187.85V113.6C187.85 114.667 187.623 115.527 187.17 116.18C186.717 116.833 186.043 117.253 185.15 117.44ZM194.629 118.5V103.68H196.789V105.92L196.529 105.4C196.929 104.787 197.462 104.307 198.129 103.96C198.795 103.613 199.555 103.44 200.409 103.44C201.435 103.44 202.355 103.687 203.169 104.18C203.995 104.673 204.642 105.347 205.109 106.2C205.589 107.053 205.829 108.013 205.829 109.08C205.829 110.147 205.589 111.107 205.109 111.96C204.642 112.813 204.002 113.493 203.189 114C202.375 114.493 201.449 114.74 200.409 114.74C199.569 114.74 198.802 114.567 198.109 114.22C197.429 113.873 196.902 113.373 196.529 112.72L196.889 112.3V118.5H194.629ZM200.189 112.64C200.829 112.64 201.395 112.487 201.889 112.18C202.382 111.873 202.769 111.453 203.049 110.92C203.342 110.373 203.489 109.76 203.489 109.08C203.489 108.4 203.342 107.793 203.049 107.26C202.769 106.727 202.382 106.307 201.889 106C201.395 105.693 200.829 105.54 200.189 105.54C199.562 105.54 198.995 105.693 198.489 106C197.995 106.307 197.602 106.727 197.309 107.26C197.029 107.793 196.889 108.4 196.889 109.08C196.889 109.76 197.029 110.373 197.309 110.92C197.602 111.453 197.995 111.873 198.489 112.18C198.995 112.487 199.562 112.64 200.189 112.64ZM208.027 114.5V99.36H210.287V114.5H208.027ZM216.169 114.74C215.436 114.74 214.789 114.613 214.229 114.36C213.683 114.093 213.256 113.733 212.949 113.28C212.643 112.813 212.489 112.267 212.489 111.64C212.489 111.053 212.616 110.527 212.869 110.06C213.136 109.593 213.543 109.2 214.089 108.88C214.636 108.56 215.323 108.333 216.149 108.2L219.909 107.58V109.36L216.589 109.94C215.989 110.047 215.549 110.24 215.269 110.52C214.989 110.787 214.849 111.133 214.849 111.56C214.849 111.973 215.003 112.313 215.309 112.58C215.629 112.833 216.036 112.96 216.529 112.96C217.143 112.96 217.676 112.827 218.129 112.56C218.596 112.293 218.956 111.94 219.209 111.5C219.463 111.047 219.589 110.547 219.589 110V107.22C219.589 106.687 219.389 106.253 218.989 105.92C218.603 105.573 218.083 105.4 217.429 105.4C216.829 105.4 216.303 105.56 215.849 105.88C215.409 106.187 215.083 106.587 214.869 107.08L212.989 106.14C213.189 105.607 213.516 105.14 213.969 104.74C214.423 104.327 214.949 104.007 215.549 103.78C216.163 103.553 216.809 103.44 217.489 103.44C218.343 103.44 219.096 103.6 219.749 103.92C220.416 104.24 220.929 104.687 221.289 105.26C221.663 105.82 221.849 106.473 221.849 107.22V114.5H219.689V112.54L220.149 112.6C219.896 113.04 219.569 113.42 219.169 113.74C218.783 114.06 218.336 114.307 217.829 114.48C217.336 114.653 216.783 114.74 216.169 114.74ZM225.452 118.9C225.185 118.9 224.919 118.873 224.652 118.82C224.399 118.78 224.165 118.713 223.952 118.62V116.68C224.112 116.72 224.305 116.753 224.532 116.78C224.759 116.82 224.979 116.84 225.192 116.84C225.819 116.84 226.279 116.7 226.572 116.42C226.879 116.153 227.152 115.74 227.392 115.18L228.112 113.54L228.072 115.44L223.392 103.68H225.812L229.272 112.7H228.452L231.892 103.68H234.332L229.552 115.68C229.299 116.32 228.979 116.88 228.592 117.36C228.219 117.853 227.772 118.233 227.252 118.5C226.745 118.767 226.145 118.9 225.452 118.9ZM235.658 117.44V116.34C236.098 116.233 236.438 116.027 236.678 115.72C236.918 115.427 237.064 115.02 237.118 114.5H236.058V111.9H238.358V113.6C238.358 114.667 238.131 115.527 237.678 116.18C237.224 116.833 236.551 117.253 235.658 117.44ZM38.46 139.74C37.38 139.74 36.42 139.493 35.58 139C34.7533 138.493 34.0933 137.813 33.6 136.96C33.12 136.107 32.88 135.14 32.88 134.06C32.88 132.993 33.12 132.033 33.6 131.18C34.08 130.327 34.74 129.66 35.58 129.18C36.42 128.687 37.38 128.44 38.46 128.44C39.1933 128.44 39.88 128.573 40.52 128.84C41.16 129.093 41.7133 129.447 42.18 129.9C42.66 130.353 43.0133 130.88 43.24 131.48L41.26 132.4C41.0333 131.84 40.6667 131.393 40.16 131.06C39.6667 130.713 39.1 130.54 38.46 130.54C37.8467 130.54 37.2933 130.693 36.8 131C36.32 131.293 35.94 131.713 35.66 132.26C35.38 132.793 35.24 133.4 35.24 134.08C35.24 134.76 35.38 135.373 35.66 135.92C35.94 136.453 36.32 136.873 36.8 137.18C37.2933 137.487 37.8467 137.64 38.46 137.64C39.1133 137.64 39.68 137.473 40.16 137.14C40.6533 136.793 41.02 136.333 41.26 135.76L43.24 136.7C43.0267 137.273 42.68 137.793 42.2 138.26C41.7333 138.713 41.18 139.073 40.54 139.34C39.9 139.607 39.2067 139.74 38.46 139.74ZM45.4489 139.5V124.36H47.7089V130.8L47.3489 130.52C47.6156 129.84 48.0422 129.327 48.6289 128.98C49.2156 128.62 49.8956 128.44 50.6689 128.44C51.4689 128.44 52.1756 128.613 52.7889 128.96C53.4022 129.307 53.8822 129.787 54.2289 130.4C54.5756 131.013 54.7489 131.713 54.7489 132.5V139.5H52.5089V133.12C52.5089 132.573 52.4022 132.113 52.1889 131.74C51.9889 131.353 51.7089 131.06 51.3489 130.86C50.9889 130.647 50.5756 130.54 50.1089 130.54C49.6556 130.54 49.2422 130.647 48.8689 130.86C48.5089 131.06 48.2222 131.353 48.0089 131.74C47.8089 132.127 47.7089 132.587 47.7089 133.12V139.5H45.4489ZM57.1677 139.5V128.68H59.4277V139.5H57.1677ZM57.1677 127.2V124.6H59.4277V127.2H57.1677ZM62.07 139.5V124.36H64.33V139.5H62.07ZM66.9723 139.5V124.36H69.2323V139.5H66.9723ZM72.4547 142.44V141.34C72.8947 141.233 73.2347 141.027 73.4747 140.72C73.7147 140.427 73.8614 140.02 73.9147 139.5H72.8547V136.9H75.1547V138.6C75.1547 139.667 74.928 140.527 74.4747 141.18C74.0214 141.833 73.348 142.253 72.4547 142.44ZM87.1533 139.74C86.1133 139.74 85.1599 139.493 84.2933 139C83.4399 138.507 82.7599 137.833 82.2533 136.98C81.7466 136.127 81.4933 135.16 81.4933 134.08C81.4933 132.987 81.7466 132.02 82.2533 131.18C82.7599 130.327 83.4399 129.66 84.2933 129.18C85.1466 128.687 86.0999 128.44 87.1533 128.44C88.2199 128.44 89.1733 128.687 90.0133 129.18C90.8666 129.66 91.5399 130.327 92.0333 131.18C92.5399 132.02 92.7933 132.987 92.7933 134.08C92.7933 135.173 92.5399 136.147 92.0333 137C91.5266 137.853 90.8466 138.527 89.9933 139.02C89.1399 139.5 88.1933 139.74 87.1533 139.74ZM87.1533 137.64C87.7933 137.64 88.3599 137.487 88.8533 137.18C89.3466 136.873 89.7333 136.453 90.0133 135.92C90.3066 135.373 90.4533 134.76 90.4533 134.08C90.4533 133.4 90.3066 132.793 90.0133 132.26C89.7333 131.727 89.3466 131.307 88.8533 131C88.3599 130.693 87.7933 130.54 87.1533 130.54C86.5266 130.54 85.9599 130.693 85.4533 131C84.9599 131.307 84.5666 131.727 84.2733 132.26C83.9933 132.793 83.8533 133.4 83.8533 134.08C83.8533 134.76 83.9933 135.373 84.2733 135.92C84.5666 136.453 84.9599 136.873 85.4533 137.18C85.9599 137.487 86.5266 137.64 87.1533 137.64ZM94.9997 139.5V128.68H97.1597V130.86L96.9597 130.54C97.1997 129.833 97.5864 129.327 98.1197 129.02C98.653 128.7 99.293 128.54 100.04 128.54H100.7V130.6H99.7597C99.013 130.6 98.4064 130.833 97.9397 131.3C97.4864 131.753 97.2597 132.407 97.2597 133.26V139.5H94.9997ZM108.982 139.74C108.249 139.74 107.602 139.613 107.042 139.36C106.495 139.093 106.069 138.733 105.762 138.28C105.455 137.813 105.302 137.267 105.302 136.64C105.302 136.053 105.429 135.527 105.682 135.06C105.949 134.593 106.355 134.2 106.902 133.88C107.449 133.56 108.135 133.333 108.962 133.2L112.722 132.58V134.36L109.402 134.94C108.802 135.047 108.362 135.24 108.082 135.52C107.802 135.787 107.662 136.133 107.662 136.56C107.662 136.973 107.815 137.313 108.122 137.58C108.442 137.833 108.849 137.96 109.342 137.96C109.955 137.96 110.489 137.827 110.942 137.56C111.409 137.293 111.769 136.94 112.022 136.5C112.275 136.047 112.402 135.547 112.402 135V132.22C112.402 131.687 112.202 131.253 111.802 130.92C111.415 130.573 110.895 130.4 110.242 130.4C109.642 130.4 109.115 130.56 108.662 130.88C108.222 131.187 107.895 131.587 107.682 132.08L105.802 131.14C106.002 130.607 106.329 130.14 106.782 129.74C107.235 129.327 107.762 129.007 108.362 128.78C108.975 128.553 109.622 128.44 110.302 128.44C111.155 128.44 111.909 128.6 112.562 128.92C113.229 129.24 113.742 129.687 114.102 130.26C114.475 130.82 114.662 131.473 114.662 132.22V139.5H112.502V137.54L112.962 137.6C112.709 138.04 112.382 138.42 111.982 138.74C111.595 139.06 111.149 139.307 110.642 139.48C110.149 139.653 109.595 139.74 108.982 139.74ZM121.789 139.62C120.656 139.62 119.776 139.3 119.149 138.66C118.522 138.02 118.209 137.12 118.209 135.96V130.72H116.309V128.68H116.609C117.116 128.68 117.509 128.533 117.789 128.24C118.069 127.947 118.209 127.547 118.209 127.04V126.2H120.469V128.68H122.929V130.72H120.469V135.86C120.469 136.233 120.529 136.553 120.649 136.82C120.769 137.073 120.962 137.273 121.229 137.42C121.496 137.553 121.842 137.62 122.269 137.62C122.376 137.62 122.496 137.613 122.629 137.6C122.762 137.587 122.889 137.573 123.009 137.56V139.5C122.822 139.527 122.616 139.553 122.389 139.58C122.162 139.607 121.962 139.62 121.789 139.62ZM129.895 139.62C128.761 139.62 127.881 139.3 127.255 138.66C126.628 138.02 126.315 137.12 126.315 135.96V130.72H124.415V128.68H124.715C125.221 128.68 125.615 128.533 125.895 128.24C126.175 127.947 126.315 127.547 126.315 127.04V126.2H128.575V128.68H131.035V130.72H128.575V135.86C128.575 136.233 128.635 136.553 128.755 136.82C128.875 137.073 129.068 137.273 129.335 137.42C129.601 137.553 129.948 137.62 130.375 137.62C130.481 137.62 130.601 137.613 130.735 137.6C130.868 137.587 130.995 137.573 131.115 137.56V139.5C130.928 139.527 130.721 139.553 130.495 139.58C130.268 139.607 130.068 139.62 129.895 139.62ZM138.205 139.74C137.125 139.74 136.165 139.493 135.325 139C134.498 138.493 133.851 137.813 133.385 136.96C132.918 136.093 132.685 135.127 132.685 134.06C132.685 132.967 132.918 132 133.385 131.16C133.865 130.32 134.505 129.66 135.305 129.18C136.105 128.687 137.011 128.44 138.025 128.44C138.838 128.44 139.565 128.58 140.205 128.86C140.845 129.14 141.385 129.527 141.825 130.02C142.265 130.5 142.598 131.053 142.825 131.68C143.065 132.307 143.185 132.973 143.185 133.68C143.185 133.853 143.178 134.033 143.165 134.22C143.151 134.407 143.125 134.58 143.085 134.74H134.465V132.94H141.805L140.725 133.76C140.858 133.107 140.811 132.527 140.585 132.02C140.371 131.5 140.038 131.093 139.585 130.8C139.145 130.493 138.625 130.34 138.025 130.34C137.425 130.34 136.891 130.493 136.425 130.8C135.958 131.093 135.598 131.52 135.345 132.08C135.091 132.627 134.991 133.293 135.045 134.08C134.978 134.813 135.078 135.453 135.345 136C135.625 136.547 136.011 136.973 136.505 137.28C137.011 137.587 137.585 137.74 138.225 137.74C138.878 137.74 139.431 137.593 139.885 137.3C140.351 137.007 140.718 136.627 140.985 136.16L142.825 137.06C142.611 137.567 142.278 138.027 141.825 138.44C141.385 138.84 140.851 139.16 140.225 139.4C139.611 139.627 138.938 139.74 138.205 139.74ZM145.39 139.5V128.68H147.55V130.8L147.29 130.52C147.557 129.84 147.984 129.327 148.57 128.98C149.157 128.62 149.837 128.44 150.61 128.44C151.41 128.44 152.117 128.613 152.73 128.96C153.344 129.307 153.824 129.787 154.17 130.4C154.517 131.013 154.69 131.72 154.69 132.52V139.5H152.45V133.12C152.45 132.573 152.35 132.113 152.15 131.74C151.95 131.353 151.664 131.06 151.29 130.86C150.93 130.647 150.517 130.54 150.05 130.54C149.584 130.54 149.164 130.647 148.79 130.86C148.43 131.06 148.15 131.353 147.95 131.74C147.75 132.127 147.65 132.587 147.65 133.12V139.5H145.39ZM162.109 139.74C161.069 139.74 160.136 139.493 159.309 139C158.496 138.493 157.849 137.813 157.369 136.96C156.902 136.107 156.669 135.147 156.669 134.08C156.669 133.013 156.909 132.053 157.389 131.2C157.869 130.347 158.516 129.673 159.329 129.18C160.142 128.687 161.062 128.44 162.089 128.44C162.956 128.44 163.722 128.613 164.389 128.96C165.056 129.307 165.582 129.787 165.969 130.4L165.629 130.92V124.36H167.869V139.5H165.729V137.3L165.989 137.72C165.616 138.373 165.082 138.873 164.389 139.22C163.696 139.567 162.936 139.74 162.109 139.74ZM162.329 137.64C162.956 137.64 163.516 137.487 164.009 137.18C164.516 136.873 164.909 136.453 165.189 135.92C165.482 135.373 165.629 134.76 165.629 134.08C165.629 133.4 165.482 132.793 165.189 132.26C164.909 131.727 164.516 131.307 164.009 131C163.516 130.693 162.956 130.54 162.329 130.54C161.702 130.54 161.136 130.693 160.629 131C160.122 131.307 159.729 131.727 159.449 132.26C159.169 132.793 159.029 133.4 159.029 134.08C159.029 134.76 159.169 135.373 159.449 135.92C159.729 136.453 160.116 136.873 160.609 137.18C161.116 137.487 161.689 137.64 162.329 137.64ZM178.004 139.74C176.897 139.74 175.924 139.467 175.084 138.92C174.257 138.373 173.677 137.64 173.344 136.72L175.084 135.9C175.377 136.513 175.777 137 176.284 137.36C176.804 137.72 177.377 137.9 178.004 137.9C178.537 137.9 178.97 137.78 179.304 137.54C179.637 137.3 179.804 136.973 179.804 136.56C179.804 136.293 179.73 136.08 179.584 135.92C179.437 135.747 179.25 135.607 179.024 135.5C178.81 135.393 178.59 135.313 178.364 135.26L176.664 134.78C175.73 134.513 175.03 134.113 174.564 133.58C174.11 133.033 173.884 132.4 173.884 131.68C173.884 131.027 174.05 130.46 174.384 129.98C174.717 129.487 175.177 129.107 175.764 128.84C176.35 128.573 177.01 128.44 177.744 128.44C178.73 128.44 179.61 128.687 180.384 129.18C181.157 129.66 181.704 130.333 182.024 131.2L180.284 132.02C180.07 131.5 179.73 131.087 179.264 130.78C178.81 130.473 178.297 130.32 177.724 130.32C177.23 130.32 176.837 130.44 176.544 130.68C176.25 130.907 176.104 131.207 176.104 131.58C176.104 131.833 176.17 132.047 176.304 132.22C176.437 132.38 176.61 132.513 176.824 132.62C177.037 132.713 177.257 132.793 177.484 132.86L179.244 133.38C180.137 133.633 180.824 134.033 181.304 134.58C181.784 135.113 182.024 135.753 182.024 136.5C182.024 137.14 181.85 137.707 181.504 138.2C181.17 138.68 180.704 139.06 180.104 139.34C179.504 139.607 178.804 139.74 178.004 139.74ZM189.458 139.74C188.418 139.74 187.465 139.493 186.598 139C185.745 138.507 185.065 137.833 184.558 136.98C184.051 136.127 183.798 135.16 183.798 134.08C183.798 132.987 184.051 132.02 184.558 131.18C185.065 130.327 185.745 129.66 186.598 129.18C187.451 128.687 188.405 128.44 189.458 128.44C190.525 128.44 191.478 128.687 192.318 129.18C193.171 129.66 193.845 130.327 194.338 131.18C194.845 132.02 195.098 132.987 195.098 134.08C195.098 135.173 194.845 136.147 194.338 137C193.831 137.853 193.151 138.527 192.298 139.02C191.445 139.5 190.498 139.74 189.458 139.74ZM189.458 137.64C190.098 137.64 190.665 137.487 191.158 137.18C191.651 136.873 192.038 136.453 192.318 135.92C192.611 135.373 192.758 134.76 192.758 134.08C192.758 133.4 192.611 132.793 192.318 132.26C192.038 131.727 191.651 131.307 191.158 131C190.665 130.693 190.098 130.54 189.458 130.54C188.831 130.54 188.265 130.693 187.758 131C187.265 131.307 186.871 131.727 186.578 132.26C186.298 132.793 186.158 133.4 186.158 134.08C186.158 134.76 186.298 135.373 186.578 135.92C186.871 136.453 187.265 136.873 187.758 137.18C188.265 137.487 188.831 137.64 189.458 137.64ZM197.304 139.5V128.68H199.464V131.02L199.184 130.66C199.411 129.927 199.824 129.373 200.424 129C201.024 128.627 201.711 128.44 202.484 128.44C203.351 128.44 204.118 128.673 204.784 129.14C205.464 129.593 205.918 130.2 206.144 130.96L205.504 131.02C205.824 130.153 206.311 129.507 206.964 129.08C207.631 128.653 208.391 128.44 209.244 128.44C209.991 128.44 210.664 128.613 211.264 128.96C211.878 129.307 212.364 129.787 212.724 130.4C213.084 131.013 213.264 131.713 213.264 132.5V139.5H211.004V133.12C211.004 132.573 210.904 132.113 210.704 131.74C210.518 131.353 210.251 131.06 209.904 130.86C209.571 130.647 209.178 130.54 208.724 130.54C208.271 130.54 207.871 130.647 207.524 130.86C207.178 131.06 206.904 131.353 206.704 131.74C206.504 132.127 206.404 132.587 206.404 133.12V139.5H204.164V133.12C204.164 132.573 204.064 132.113 203.864 131.74C203.678 131.353 203.411 131.06 203.064 130.86C202.731 130.647 202.331 130.54 201.864 130.54C201.411 130.54 201.011 130.647 200.664 130.86C200.318 131.06 200.044 131.353 199.844 131.74C199.658 132.127 199.564 132.587 199.564 133.12V139.5H197.304ZM220.763 139.74C219.683 139.74 218.723 139.493 217.883 139C217.057 138.493 216.41 137.813 215.943 136.96C215.477 136.093 215.243 135.127 215.243 134.06C215.243 132.967 215.477 132 215.943 131.16C216.423 130.32 217.063 129.66 217.863 129.18C218.663 128.687 219.57 128.44 220.583 128.44C221.397 128.44 222.123 128.58 222.763 128.86C223.403 129.14 223.943 129.527 224.383 130.02C224.823 130.5 225.157 131.053 225.383 131.68C225.623 132.307 225.743 132.973 225.743 133.68C225.743 133.853 225.737 134.033 225.723 134.22C225.71 134.407 225.683 134.58 225.643 134.74H217.023V132.94H224.363L223.283 133.76C223.417 133.107 223.37 132.527 223.143 132.02C222.93 131.5 222.597 131.093 222.143 130.8C221.703 130.493 221.183 130.34 220.583 130.34C219.983 130.34 219.45 130.493 218.983 130.8C218.517 131.093 218.157 131.52 217.903 132.08C217.65 132.627 217.55 133.293 217.603 134.08C217.537 134.813 217.637 135.453 217.903 136C218.183 136.547 218.57 136.973 219.063 137.28C219.57 137.587 220.143 137.74 220.783 137.74C221.437 137.74 221.99 137.593 222.443 137.3C222.91 137.007 223.277 136.627 223.543 136.16L225.383 137.06C225.17 137.567 224.837 138.027 224.383 138.44C223.943 138.84 223.41 139.16 222.783 139.4C222.17 139.627 221.497 139.74 220.763 139.74ZM232.629 139.62C231.496 139.62 230.616 139.3 229.989 138.66C229.362 138.02 229.049 137.12 229.049 135.96V130.72H227.149V128.68H227.449C227.956 128.68 228.349 128.533 228.629 128.24C228.909 127.947 229.049 127.547 229.049 127.04V126.2H231.309V128.68H233.769V130.72H231.309V135.86C231.309 136.233 231.369 136.553 231.489 136.82C231.609 137.073 231.802 137.273 232.069 137.42C232.336 137.553 232.682 137.62 233.109 137.62C233.216 137.62 233.336 137.613 233.469 137.6C233.602 137.587 233.729 137.573 233.849 137.56V139.5C233.662 139.527 233.456 139.553 233.229 139.58C233.002 139.607 232.802 139.62 232.629 139.62ZM236.054 139.5V124.36H238.314V130.8L237.954 130.52C238.221 129.84 238.648 129.327 239.234 128.98C239.821 128.62 240.501 128.44 241.274 128.44C242.074 128.44 242.781 128.613 243.394 128.96C244.008 129.307 244.488 129.787 244.834 130.4C245.181 131.013 245.354 131.713 245.354 132.5V139.5H243.114V133.12C243.114 132.573 243.008 132.113 242.794 131.74C242.594 131.353 242.314 131.06 241.954 130.86C241.594 130.647 241.181 130.54 240.714 130.54C240.261 130.54 239.848 130.647 239.474 130.86C239.114 131.06 238.828 131.353 238.614 131.74C238.414 132.127 238.314 132.587 238.314 133.12V139.5H236.054ZM247.773 139.5V128.68H250.033V139.5H247.773ZM247.773 127.2V124.6H250.033V127.2H247.773ZM252.675 139.5V128.68H254.835V130.8L254.575 130.52C254.842 129.84 255.269 129.327 255.855 128.98C256.442 128.62 257.122 128.44 257.895 128.44C258.695 128.44 259.402 128.613 260.015 128.96C260.629 129.307 261.109 129.787 261.455 130.4C261.802 131.013 261.975 131.72 261.975 132.52V139.5H259.735V133.12C259.735 132.573 259.635 132.113 259.435 131.74C259.235 131.353 258.949 131.06 258.575 130.86C258.215 130.647 257.802 130.54 257.335 130.54C256.869 130.54 256.449 130.647 256.075 130.86C255.715 131.06 255.435 131.353 255.235 131.74C255.035 132.127 254.935 132.587 254.935 133.12V139.5H252.675ZM269.614 143.9C268.828 143.9 268.101 143.773 267.434 143.52C266.768 143.267 266.194 142.913 265.714 142.46C265.234 142.02 264.874 141.5 264.634 140.9L266.714 140.04C266.901 140.547 267.241 140.967 267.734 141.3C268.241 141.633 268.861 141.8 269.594 141.8C270.168 141.8 270.681 141.687 271.134 141.46C271.588 141.247 271.948 140.927 272.214 140.5C272.481 140.087 272.614 139.587 272.614 139V136.56L273.014 137.02C272.641 137.713 272.121 138.24 271.454 138.6C270.801 138.96 270.061 139.14 269.234 139.14C268.234 139.14 267.334 138.907 266.534 138.44C265.734 137.973 265.101 137.333 264.634 136.52C264.181 135.707 263.954 134.793 263.954 133.78C263.954 132.753 264.181 131.84 264.634 131.04C265.101 130.24 265.728 129.607 266.514 129.14C267.301 128.673 268.201 128.44 269.214 128.44C270.041 128.44 270.774 128.62 271.414 128.98C272.068 129.327 272.601 129.833 273.014 130.5L272.714 131.06V128.68H274.854V139C274.854 139.933 274.628 140.767 274.174 141.5C273.734 142.247 273.121 142.833 272.334 143.26C271.548 143.687 270.641 143.9 269.614 143.9ZM269.494 137.04C270.094 137.04 270.628 136.9 271.094 136.62C271.561 136.327 271.928 135.94 272.194 135.46C272.474 134.967 272.614 134.413 272.614 133.8C272.614 133.187 272.474 132.633 272.194 132.14C271.914 131.647 271.541 131.26 271.074 130.98C270.608 130.687 270.081 130.54 269.494 130.54C268.881 130.54 268.334 130.687 267.854 130.98C267.374 131.26 266.994 131.647 266.714 132.14C266.448 132.62 266.314 133.173 266.314 133.8C266.314 134.4 266.448 134.947 266.714 135.44C266.994 135.933 267.374 136.327 267.854 136.62C268.334 136.9 268.881 137.04 269.494 137.04ZM35.94 164.5L32.22 153.68H34.62L37.46 162.3H36.62L39.52 153.68H41.58L44.46 162.3H43.62L46.48 153.68H48.88L45.14 164.5H43.1L40.18 155.68H40.92L38 164.5H35.94ZM50.4294 164.5V153.68H52.6894V164.5H50.4294ZM50.4294 152.2V149.6H52.6894V152.2H50.4294ZM60.0117 164.62C58.8784 164.62 57.9984 164.3 57.3717 163.66C56.7451 163.02 56.4317 162.12 56.4317 160.96V155.72H54.5317V153.68H54.8317C55.3384 153.68 55.7317 153.533 56.0117 153.24C56.2917 152.947 56.4317 152.547 56.4317 152.04V151.2H58.6917V153.68H61.1517V155.72H58.6917V160.86C58.6917 161.233 58.7517 161.553 58.8717 161.82C58.9917 162.073 59.1851 162.273 59.4517 162.42C59.7184 162.553 60.0651 162.62 60.4917 162.62C60.5984 162.62 60.7184 162.613 60.8517 162.6C60.9851 162.587 61.1117 162.573 61.2317 162.56V164.5C61.0451 164.527 60.8384 164.553 60.6117 164.58C60.3851 164.607 60.1851 164.62 60.0117 164.62ZM63.4372 164.5V149.36H65.6972V155.8L65.3372 155.52C65.6039 154.84 66.0305 154.327 66.6172 153.98C67.2039 153.62 67.8839 153.44 68.6572 153.44C69.4572 153.44 70.1639 153.613 70.7772 153.96C71.3905 154.307 71.8705 154.787 72.2172 155.4C72.5639 156.013 72.7372 156.713 72.7372 157.5V164.5H70.4972V158.12C70.4972 157.573 70.3905 157.113 70.1772 156.74C69.9772 156.353 69.6972 156.06 69.3372 155.86C68.9772 155.647 68.5639 155.54 68.0972 155.54C67.6439 155.54 67.2305 155.647 66.8572 155.86C66.4972 156.06 66.2105 156.353 65.9972 156.74C65.7972 157.127 65.6972 157.587 65.6972 158.12V164.5H63.4372ZM82.652 164.74C81.5454 164.74 80.572 164.467 79.732 163.92C78.9054 163.373 78.3254 162.64 77.992 161.72L79.732 160.9C80.0254 161.513 80.4254 162 80.932 162.36C81.452 162.72 82.0254 162.9 82.652 162.9C83.1854 162.9 83.6187 162.78 83.952 162.54C84.2854 162.3 84.452 161.973 84.452 161.56C84.452 161.293 84.3787 161.08 84.232 160.92C84.0854 160.747 83.8987 160.607 83.672 160.5C83.4587 160.393 83.2387 160.313 83.012 160.26L81.312 159.78C80.3787 159.513 79.6787 159.113 79.212 158.58C78.7587 158.033 78.532 157.4 78.532 156.68C78.532 156.027 78.6987 155.46 79.032 154.98C79.3654 154.487 79.8254 154.107 80.412 153.84C80.9987 153.573 81.6587 153.44 82.392 153.44C83.3787 153.44 84.2587 153.687 85.032 154.18C85.8054 154.66 86.352 155.333 86.672 156.2L84.932 157.02C84.7187 156.5 84.3787 156.087 83.912 155.78C83.4587 155.473 82.9454 155.32 82.372 155.32C81.8787 155.32 81.4854 155.44 81.192 155.68C80.8987 155.907 80.752 156.207 80.752 156.58C80.752 156.833 80.8187 157.047 80.952 157.22C81.0854 157.38 81.2587 157.513 81.472 157.62C81.6854 157.713 81.9054 157.793 82.132 157.86L83.892 158.38C84.7854 158.633 85.472 159.033 85.952 159.58C86.432 160.113 86.672 160.753 86.672 161.5C86.672 162.14 86.4987 162.707 86.152 163.2C85.8187 163.68 85.352 164.06 84.752 164.34C84.152 164.607 83.452 164.74 82.652 164.74ZM94.1064 164.74C93.0664 164.74 92.1131 164.493 91.2464 164C90.3931 163.507 89.7131 162.833 89.2064 161.98C88.6997 161.127 88.4464 160.16 88.4464 159.08C88.4464 157.987 88.6997 157.02 89.2064 156.18C89.7131 155.327 90.3931 154.66 91.2464 154.18C92.0997 153.687 93.0531 153.44 94.1064 153.44C95.1731 153.44 96.1264 153.687 96.9664 154.18C97.8197 154.66 98.4931 155.327 98.9864 156.18C99.4931 157.02 99.7464 157.987 99.7464 159.08C99.7464 160.173 99.4931 161.147 98.9864 162C98.4797 162.853 97.7997 163.527 96.9464 164.02C96.0931 164.5 95.1464 164.74 94.1064 164.74ZM94.1064 162.64C94.7464 162.64 95.3131 162.487 95.8064 162.18C96.2997 161.873 96.6864 161.453 96.9664 160.92C97.2597 160.373 97.4064 159.76 97.4064 159.08C97.4064 158.4 97.2597 157.793 96.9664 157.26C96.6864 156.727 96.2997 156.307 95.8064 156C95.3131 155.693 94.7464 155.54 94.1064 155.54C93.4797 155.54 92.9131 155.693 92.4064 156C91.9131 156.307 91.5197 156.727 91.2264 157.26C90.9464 157.793 90.8064 158.4 90.8064 159.08C90.8064 159.76 90.9464 160.373 91.2264 160.92C91.5197 161.453 91.9131 161.873 92.4064 162.18C92.9131 162.487 93.4797 162.64 94.1064 162.64ZM101.953 164.5V153.68H104.113V156.02L103.833 155.66C104.059 154.927 104.473 154.373 105.073 154C105.673 153.627 106.359 153.44 107.133 153.44C107.999 153.44 108.766 153.673 109.433 154.14C110.113 154.593 110.566 155.2 110.793 155.96L110.153 156.02C110.473 155.153 110.959 154.507 111.613 154.08C112.279 153.653 113.039 153.44 113.893 153.44C114.639 153.44 115.313 153.613 115.913 153.96C116.526 154.307 117.013 154.787 117.373 155.4C117.733 156.013 117.913 156.713 117.913 157.5V164.5H115.653V158.12C115.653 157.573 115.553 157.113 115.353 156.74C115.166 156.353 114.899 156.06 114.553 155.86C114.219 155.647 113.826 155.54 113.373 155.54C112.919 155.54 112.519 155.647 112.173 155.86C111.826 156.06 111.553 156.353 111.353 156.74C111.153 157.127 111.053 157.587 111.053 158.12V164.5H108.813V158.12C108.813 157.573 108.713 157.113 108.513 156.74C108.326 156.353 108.059 156.06 107.713 155.86C107.379 155.647 106.979 155.54 106.513 155.54C106.059 155.54 105.659 155.647 105.313 155.86C104.966 156.06 104.693 156.353 104.493 156.74C104.306 157.127 104.213 157.587 104.213 158.12V164.5H101.953ZM125.412 164.74C124.332 164.74 123.372 164.493 122.532 164C121.705 163.493 121.058 162.813 120.592 161.96C120.125 161.093 119.892 160.127 119.892 159.06C119.892 157.967 120.125 157 120.592 156.16C121.072 155.32 121.712 154.66 122.512 154.18C123.312 153.687 124.218 153.44 125.232 153.44C126.045 153.44 126.772 153.58 127.412 153.86C128.052 154.14 128.592 154.527 129.032 155.02C129.472 155.5 129.805 156.053 130.032 156.68C130.272 157.307 130.392 157.973 130.392 158.68C130.392 158.853 130.385 159.033 130.372 159.22C130.358 159.407 130.332 159.58 130.292 159.74H121.672V157.94H129.012L127.932 158.76C128.065 158.107 128.018 157.527 127.792 157.02C127.578 156.5 127.245 156.093 126.792 155.8C126.352 155.493 125.832 155.34 125.232 155.34C124.632 155.34 124.098 155.493 123.632 155.8C123.165 156.093 122.805 156.52 122.552 157.08C122.298 157.627 122.198 158.293 122.252 159.08C122.185 159.813 122.285 160.453 122.552 161C122.832 161.547 123.218 161.973 123.712 162.28C124.218 162.587 124.792 162.74 125.432 162.74C126.085 162.74 126.638 162.593 127.092 162.3C127.558 162.007 127.925 161.627 128.192 161.16L130.032 162.06C129.818 162.567 129.485 163.027 129.032 163.44C128.592 163.84 128.058 164.16 127.432 164.4C126.818 164.627 126.145 164.74 125.412 164.74ZM137.817 164.74C136.777 164.74 135.824 164.493 134.957 164C134.104 163.507 133.424 162.833 132.917 161.98C132.411 161.127 132.157 160.16 132.157 159.08C132.157 157.987 132.411 157.02 132.917 156.18C133.424 155.327 134.104 154.66 134.957 154.18C135.811 153.687 136.764 153.44 137.817 153.44C138.884 153.44 139.837 153.687 140.677 154.18C141.531 154.66 142.204 155.327 142.697 156.18C143.204 157.02 143.457 157.987 143.457 159.08C143.457 160.173 143.204 161.147 142.697 162C142.191 162.853 141.511 163.527 140.657 164.02C139.804 164.5 138.857 164.74 137.817 164.74ZM137.817 162.64C138.457 162.64 139.024 162.487 139.517 162.18C140.011 161.873 140.397 161.453 140.677 160.92C140.971 160.373 141.117 159.76 141.117 159.08C141.117 158.4 140.971 157.793 140.677 157.26C140.397 156.727 140.011 156.307 139.517 156C139.024 155.693 138.457 155.54 137.817 155.54C137.191 155.54 136.624 155.693 136.117 156C135.624 156.307 135.231 156.727 134.937 157.26C134.657 157.793 134.517 158.4 134.517 159.08C134.517 159.76 134.657 160.373 134.937 160.92C135.231 161.453 135.624 161.873 136.117 162.18C136.624 162.487 137.191 162.64 137.817 162.64ZM145.664 164.5V153.68H147.824V155.8L147.564 155.52C147.83 154.84 148.257 154.327 148.844 153.98C149.43 153.62 150.11 153.44 150.884 153.44C151.684 153.44 152.39 153.613 153.004 153.96C153.617 154.307 154.097 154.787 154.444 155.4C154.79 156.013 154.964 156.72 154.964 157.52V164.5H152.724V158.12C152.724 157.573 152.624 157.113 152.424 156.74C152.224 156.353 151.937 156.06 151.564 155.86C151.204 155.647 150.79 155.54 150.324 155.54C149.857 155.54 149.437 155.647 149.064 155.86C148.704 156.06 148.424 156.353 148.224 156.74C148.024 157.127 147.924 157.587 147.924 158.12V164.5H145.664ZM162.463 164.74C161.383 164.74 160.423 164.493 159.583 164C158.756 163.493 158.109 162.813 157.643 161.96C157.176 161.093 156.943 160.127 156.943 159.06C156.943 157.967 157.176 157 157.643 156.16C158.123 155.32 158.763 154.66 159.563 154.18C160.363 153.687 161.269 153.44 162.283 153.44C163.096 153.44 163.823 153.58 164.463 153.86C165.103 154.14 165.643 154.527 166.083 155.02C166.523 155.5 166.856 156.053 167.082 156.68C167.323 157.307 167.443 157.973 167.443 158.68C167.443 158.853 167.436 159.033 167.423 159.22C167.409 159.407 167.383 159.58 167.343 159.74H158.723V157.94H166.062L164.983 158.76C165.116 158.107 165.069 157.527 164.843 157.02C164.629 156.5 164.296 156.093 163.843 155.8C163.403 155.493 162.883 155.34 162.283 155.34C161.683 155.34 161.149 155.493 160.683 155.8C160.216 156.093 159.856 156.52 159.603 157.08C159.349 157.627 159.249 158.293 159.303 159.08C159.236 159.813 159.336 160.453 159.603 161C159.883 161.547 160.269 161.973 160.763 162.28C161.269 162.587 161.843 162.74 162.483 162.74C163.136 162.74 163.689 162.593 164.143 162.3C164.609 162.007 164.976 161.627 165.243 161.16L167.082 162.06C166.869 162.567 166.536 163.027 166.083 163.44C165.643 163.84 165.109 164.16 164.483 164.4C163.869 164.627 163.196 164.74 162.463 164.74ZM170.648 164.5V161.9H172.948V164.5H170.648Z" fill="#3D3D3D"/>
</svg>
