<svg width="375" height="950" viewBox="0 0 375 950" fill="none" xmlns="http://www.w3.org/2000/svg">
<path d="M9.79424 117.741L0 88.5419V949.871H375V175.227L374.489 156.782C373.413 117.964 321.476 105.875 303.368 140.228C291.817 162.142 262.643 167.175 244.416 150.399L234.218 141.012C219.157 127.149 195.066 131.203 185.373 149.233C173.198 171.876 140.443 171.047 129.43 147.816L120.098 128.131C109.603 105.995 78.8613 104.035 65.6399 124.658C51.5022 146.71 18.1247 142.576 9.79424 117.741Z" fill="url(#paint0_linear_2522_3539)"/>
<path d="M9.78089 120.365L0 91.2996V949.871H375V177.707L374.492 159.427C373.413 120.621 321.513 108.507 303.366 142.824C291.802 164.692 262.685 169.72 244.458 152.996L234.191 143.577C219.126 129.755 195.077 133.805 185.371 151.8C173.175 174.409 140.462 173.579 129.428 150.38L120.105 130.778C109.59 108.67 78.8835 106.708 65.6411 127.298C51.4779 149.319 18.1315 145.181 9.78089 120.365Z" fill="#010019"/>
<g opacity="0.3" filter="url(#filter0_f_2522_3539)">
<path d="M-13.8792 216.342C-1.16793 205.846 20.0421 201.814 39.5915 200.572C101.004 196.672 158.478 213.287 208.789 233.567C226.975 240.909 245.015 248.982 257.509 260.364C282.953 283.533 279.724 319.516 250.066 343.714C239.979 351.95 227.423 358.757 214.462 364.96C191.41 376.009 166.296 385.544 139.342 390.266C120.12 393.626 100.403 394.467 80.9574 394.451C26.6184 394.398 -27.3967 387.612 -73.7367 371.349C-94.0618 364.216 -113.495 354.757 -122.981 340.853C-132.468 326.949 -129.232 307.784 -110.296 297.073C-102.464 292.643 -92.8318 290.029 -83.3906 287.53C-69.4996 283.855 -55.3721 280.188 -43.0926 274.331C-30.4083 268.28 -15.7475 257.573 -19.4123 247.389C-23.3363 236.458 -26.5765 226.837 -13.8792 216.342Z" fill="url(#paint1_linear_2522_3539)"/>
</g>
<g opacity="0.3" filter="url(#filter1_f_2522_3539)">
<path d="M381.231 986.592C363.439 991.306 343.051 983.803 325.966 974.068C272.296 943.482 236.045 891.756 208.269 839.94C198.235 821.196 188.829 801.704 186.308 781.602C181.166 740.678 208.666 701.501 249.976 690.835C264.031 687.2 279.149 686.603 294.187 686.926C320.944 687.48 348.369 690.936 374.001 700.929C392.275 708.064 409.224 718.352 425.355 729.462C470.427 760.52 510.586 799.067 537.837 844.04C549.789 863.765 559.397 885.632 557.682 906.893C555.966 928.154 540.061 948.156 516.954 949.563C507.397 950.146 497.598 947.631 488.037 945.094C473.971 941.359 459.714 937.48 445.48 937.153C430.777 936.815 411.221 940.658 407.239 954.357C402.957 969.056 399.01 981.871 381.231 986.592Z" fill="url(#paint2_linear_2522_3539)"/>
</g>
<defs>
<filter id="filter0_f_2522_3539" x="-328.142" y="0" width="802.786" height="594.451" filterUnits="userSpaceOnUse" color-interpolation-filters="sRGB">
<feFlood flood-opacity="0" result="BackgroundImageFix"/>
<feBlend mode="normal" in="SourceGraphic" in2="BackgroundImageFix" result="shape"/>
<feGaussianBlur stdDeviation="100" result="effect1_foregroundBlur_2522_3539"/>
</filter>
<filter id="filter1_f_2522_3539" x="-14.3086" y="486.85" width="772.189" height="701.188" filterUnits="userSpaceOnUse" color-interpolation-filters="sRGB">
<feFlood flood-opacity="0" result="BackgroundImageFix"/>
<feBlend mode="normal" in="SourceGraphic" in2="BackgroundImageFix" result="shape"/>
<feGaussianBlur stdDeviation="100" result="effect1_foregroundBlur_2522_3539"/>
</filter>
<linearGradient id="paint0_linear_2522_3539" x1="-6.81553e-07" y1="113.658" x2="372.25" y2="197.24" gradientUnits="userSpaceOnUse">
<stop stop-color="#FFD93D"/>
<stop offset="1" stop-color="#FF4F93"/>
</linearGradient>
<linearGradient id="paint1_linear_2522_3539" x1="252.959" y1="360.027" x2="-48.8879" y2="192.681" gradientUnits="userSpaceOnUse">
<stop stop-color="#FF4F93"/>
<stop offset="1" stop-color="#FFD93D"/>
</linearGradient>
<linearGradient id="paint2_linear_2522_3539" x1="258.827" y1="670.588" x2="476.467" y2="974.446" gradientUnits="userSpaceOnUse">
<stop stop-color="#FF4F93"/>
<stop offset="1" stop-color="#FFD93D"/>
</linearGradient>
</defs>
</svg>
