<svg width="1920" height="1047" viewBox="0 0 1920 1047" fill="none" xmlns="http://www.w3.org/2000/svg">
<path d="M2.53367 100.653L0 98.4196V1046.41H1920V193.827L1856.65 152.79C1746.8 81.6249 1605.92 79.5747 1494.04 147.513L1442.77 178.645C1370.56 222.494 1280.47 224.596 1206.29 184.162C1136.21 145.958 1051.6 145.595 981.187 183.196L951.859 198.858C851.019 252.708 727.435 238.933 640.927 164.201C552.273 87.6136 424.82 75.3124 323.065 133.374C220.238 192.047 91.3355 178.949 2.53367 100.653Z" fill="url(#paint0_linear_2519_3538)"/>
<path d="M2.16389 112.505L0 110.621V1046.41H1920V204.8L1856.71 164.33C1746.61 93.9199 1606.14 91.8874 1494.04 159.082L1442.83 189.777C1370.46 233.159 1280.59 235.242 1206.29 195.26C1136.1 157.49 1051.71 157.13 981.198 194.3L951.422 209.997C850.624 263.132 727.623 249.487 640.922 175.551C552.065 99.7778 425.018 87.7003 323.27 145.01C220.2 203.065 91.3958 190.166 2.16389 112.505Z" fill="#010019"/>
<g opacity="0.3" filter="url(#filter0_f_2519_3538)">
<path d="M1554.6 1130.24C1524.56 1138.2 1490.14 1125.53 1461.3 1109.09C1370.68 1057.45 1309.48 970.123 1262.58 882.639C1245.64 850.993 1229.76 818.084 1225.5 784.144C1216.82 715.049 1263.25 648.905 1333 630.896C1356.73 624.759 1382.25 623.752 1407.64 624.297C1452.82 625.233 1499.12 631.068 1542.4 647.939C1573.25 659.985 1601.86 677.356 1629.1 696.113C1705.2 748.549 1773 813.631 1819.01 889.561C1839.19 922.864 1855.41 959.784 1852.51 995.68C1849.62 1031.58 1822.77 1065.35 1783.75 1067.72C1767.62 1068.71 1751.07 1064.46 1734.93 1060.18C1711.18 1053.87 1687.11 1047.32 1663.08 1046.77C1638.25 1046.2 1605.24 1052.69 1598.51 1075.82C1591.28 1100.63 1584.62 1122.27 1554.6 1130.24Z" fill="url(#paint1_linear_2519_3538)"/>
</g>
<g opacity="0.3" filter="url(#filter1_f_2519_3538)">
<path d="M-31.1215 327.019C-10.1043 309.665 24.965 302.998 57.2886 300.944C158.83 294.496 253.86 321.969 337.044 355.5C367.115 367.64 396.941 380.987 417.599 399.807C459.669 438.115 454.331 497.61 405.294 537.62C388.616 551.239 367.855 562.493 346.424 572.749C308.31 591.017 266.786 606.783 222.22 614.591C190.437 620.146 157.836 621.536 125.684 621.511C35.8385 621.423 -53.4717 610.202 -130.092 583.312C-163.698 571.519 -195.829 555.879 -211.514 532.89C-227.199 509.9 -221.85 478.212 -190.539 460.502C-177.59 453.177 -161.664 448.856 -146.054 444.724C-123.086 438.648 -99.7271 432.585 -79.4238 422.9C-58.4511 412.896 -34.2106 395.192 -40.2701 378.353C-46.7582 360.28 -52.1155 344.372 -31.1215 327.019Z" fill="url(#paint2_linear_2519_3538)"/>
</g>
<defs>
<filter id="filter0_f_2519_3538" x="924.461" y="324.168" width="1228.39" height="1108.51" filterUnits="userSpaceOnUse" color-interpolation-filters="sRGB">
<feFlood flood-opacity="0" result="BackgroundImageFix"/>
<feBlend mode="normal" in="SourceGraphic" in2="BackgroundImageFix" result="shape"/>
<feGaussianBlur stdDeviation="150" result="effect1_foregroundBlur_2519_3538"/>
</filter>
<filter id="filter1_f_2519_3538" x="-520.047" y="0" width="1265.98" height="921.512" filterUnits="userSpaceOnUse" color-interpolation-filters="sRGB">
<feFlood flood-opacity="0" result="BackgroundImageFix"/>
<feBlend mode="normal" in="SourceGraphic" in2="BackgroundImageFix" result="shape"/>
<feGaussianBlur stdDeviation="150" result="effect1_foregroundBlur_2519_3538"/>
</filter>
<linearGradient id="paint0_linear_2519_3538" x1="1920" y1="203.988" x2="4.07073" y2="69.1494" gradientUnits="userSpaceOnUse">
<stop stop-color="#FF4F93"/>
<stop offset="1" stop-color="#FFD93D"/>
</linearGradient>
<linearGradient id="paint1_linear_2519_3538" x1="1347.94" y1="596.713" x2="1715.4" y2="1109.73" gradientUnits="userSpaceOnUse">
<stop stop-color="#FF4F93"/>
<stop offset="1" stop-color="#FFD93D"/>
</linearGradient>
<linearGradient id="paint2_linear_2519_3538" x1="410.077" y1="564.593" x2="-89.006" y2="287.898" gradientUnits="userSpaceOnUse">
<stop stop-color="#FF4F93"/>
<stop offset="1" stop-color="#FFD93D"/>
</linearGradient>
</defs>
</svg>
