<svg width="24" height="24" viewBox="0 0 24 24" fill="none" xmlns="http://www.w3.org/2000/svg">
<path d="M3.42857 2H10.5714C10.9503 2 11.3137 2.21071 11.5816 2.58579C11.8495 2.96086 12 3.46957 12 4C12 4.53043 11.8495 5.03914 11.5816 5.41421C11.3137 5.78929 10.9503 6 10.5714 6H3.42857C3.04969 6 2.68633 5.78929 2.41842 5.41421C2.15051 5.03914 2 4.53043 2 4C2 3.46957 2.15051 2.96086 2.41842 2.58579C2.68633 2.21071 3.04969 2 3.42857 2ZM13.4286 18H20.5714C20.9503 18 21.3137 18.2107 21.5816 18.5858C21.8495 18.9609 22 19.4696 22 20C22 20.5304 21.8495 21.0391 21.5816 21.4142C21.3137 21.7893 20.9503 22 20.5714 22H13.4286C13.0497 22 12.6863 21.7893 12.4184 21.4142C12.1505 21.0391 12 20.5304 12 20C12 19.4696 12.1505 18.9609 12.4184 18.5858C12.6863 18.2107 13.0497 18 13.4286 18ZM3.42857 10H20.5714C20.9503 10 21.3137 10.2107 21.5816 10.5858C21.8495 10.9609 22 11.4696 22 12C22 12.5304 21.8495 13.0391 21.5816 13.4142C21.3137 13.7893 20.9503 14 20.5714 14H3.42857C3.04969 14 2.68633 13.7893 2.41842 13.4142C2.15051 13.0391 2 12.5304 2 12C2 11.4696 2.15051 10.9609 2.41842 10.5858C2.68633 10.2107 3.04969 10 3.42857 10Z" fill="#1E1E1E"/>
</svg>
