<svg width="375" height="822" viewBox="0 0 375 822" fill="none" xmlns="http://www.w3.org/2000/svg">
<g clip-path="url(#clip0_2366_6440)">
<rect width="375" height="822" fill="#02001B"/>
<path d="M244.128 75.0367C255.094 75.1542 262.734 74.5745 272.866 63.117C278.309 56.9627 277.972 55.2054 278.645 56.4013C292.63 81.1988 300.359 84.8857 319.364 85.9536C339.538 87.0869 351.892 67.1799 351.829 55.4117C351.685 27.5565 340.898 43.385 365.53 34.1208C372.092 31.6533 377.479 27.2145 377.061 20.2089C376.811 16.0102 374.796 13.1903 372 8.42502C370.591 6.02281 369.453 7.34142 383.785 2.46912C385.623 1.84506 392.091 -0.423988 394.455 -1.69559C398.809 -4.03513 398.679 -6.8081 396.598 -8.10842C389.358 -12.6282 375.156 -10.3096 363.084 -10.8762C352.716 -11.3645 235.852 -10.3331 221.151 -9.10326C216.732 -8.73248 208.354 -9.12414 207.479 -9.11369C176.481 -8.73248 153.53 -11.8266 147.13 -5.68795C145.673 -4.29102 145.603 -2.50762 147.049 -1.0663C147.897 -0.217697 148.941 0.320183 149.975 0.863297C158.956 5.5946 167.773 7.50069 172.443 8.67307C175.907 9.54257 176.765 8.97858 176.384 10.0805C174.656 15.0885 175.755 21.7129 178.684 26.4076C183.393 33.9537 197.576 36.8598 208.779 31.118C213.373 28.7628 212.329 28.883 210.687 36.2958C206.754 54.0435 220.958 74.7886 244.131 75.0393L244.128 75.0367ZM384.077 -7.82122C388.235 -7.83167 395.826 -6.3851 394.189 -5.19444C393.607 -4.77145 393.02 -4.31973 392.362 -4.05862C372.541 3.85299 366.3 2.64668 367.811 7.34143C369.322 12.0336 381.966 23.7913 364.924 30.7812C359.477 33.0163 351.745 34.4159 348.125 34.3219C346.201 34.2723 344.886 35.5726 345.494 37.6667C350.631 55.3255 349.467 64.8403 336.753 77.008C333.626 79.9977 329.087 81.2876 324.759 82.1206C320.431 82.9535 320.129 82.5932 312.831 81.8856C284.291 79.123 281.663 40.8 275.696 52.9703C273.412 57.6259 268.792 63.2867 261.316 68.2948C256.999 71.1879 252.405 71.1331 247.992 71.4699C237.065 72.3028 229.407 70.4777 219.83 59.767C214.78 54.1166 212.235 44.7088 214.388 35.6849C215.137 32.5411 215.174 29.2616 216.221 26.1779C216.448 25.5094 216.155 24.9271 215.594 24.5146C214.414 23.6451 213.376 24.7705 212.827 25.1465C199.858 34.0347 180.388 32.515 179.112 17.402C178.903 14.9449 178.726 12.4409 179.488 9.99952C181.307 4.16373 166.179 7.5242 149.343 -2.70345C148.771 -3.05073 148.766 -3.42152 149.343 -3.69308C159.943 -8.69332 184.695 -4.42418 235.805 -6.41644C276.615 -8.0066 383.931 -7.81859 384.077 -7.81859V-7.82122Z" fill="white" fill-opacity="0.04"/>
<path d="M29.0694 817.795C211.352 817.795 202.068 823.839 212.678 817.528C220.549 812.841 200.32 806.474 190.107 803.915C165.373 797.724 161.489 801.321 158.493 785.925C155.831 772.26 156.387 765.583 147.254 760.612C142.987 758.29 134.194 755.981 127.882 756.334C118.09 756.881 113.491 759.832 101.874 767.022C96.5475 770.317 93.3956 773.949 90.1963 769.068C85.2402 761.508 83.1906 725.976 43.8215 731.249C25.3362 733.726 16.0268 755.955 10.1535 748.278C8.82726 746.546 7.43645 740.408 2.15308 737.34C-3.23363 734.213 -5.62342 734.837 -7.38884 732.783C-11.4063 728.117 5.45142 727.867 12.0093 739.081C14.0202 742.518 13.5078 743.221 15.7598 741.377C29.1125 730.448 32.4065 725.205 51.6971 725.002C62.7116 724.886 73.3645 728.862 81.1754 737.806C88.8787 746.624 89.0768 749.937 92.1684 758.919C94.3128 765.135 94.0846 765.243 95.5959 764.321C106.834 757.45 113.181 752.944 121.38 751.518C130.474 749.937 139.943 751.41 147.577 754.576C157.722 758.785 160.387 765.243 162.088 774.082C167.888 804.203 162.656 787.51 203.451 802.084C212.213 805.216 216.17 807.042 219.154 812.225C221.131 815.649 219.951 820.47 212.304 823.511C201.578 827.776 186.438 825.338 178.95 825.011C129.742 822.844 4.86581 825.286 -4.75793 822.658C-6.10137 822.292 -6.72143 819.707 -4.60722 819.186C0.51683 817.92 29.0694 817.704 29.0694 817.795Z" fill="white" fill-opacity="0.04"/>
</g>
<defs>
<clipPath id="clip0_2366_6440">
<rect width="375" height="822" fill="white"/>
</clipPath>
</defs>
</svg>
