<svg width="1920" height="696" viewBox="0 0 1920 696" fill="none" xmlns="http://www.w3.org/2000/svg">
<rect width="1920" height="696" fill="#02001B"/>
<path d="M1655.61 149.265C1679.37 149.519 1695.92 148.264 1717.88 123.46C1729.67 110.136 1728.94 106.331 1730.4 108.92C1760.7 162.606 1777.44 170.588 1818.62 172.9C1862.33 175.353 1889.1 132.255 1888.96 106.778C1888.65 46.4729 1865.28 80.7407 1918.65 60.6842C1932.87 55.3422 1944.54 45.7323 1943.63 30.5656C1943.09 21.4758 1938.72 15.3707 1932.67 5.05417C1929.61 -0.146484 1927.15 2.70822 1958.2 -7.84006C1962.18 -9.1911 1976.2 -14.1035 1981.32 -16.8564C1990.75 -21.9214 1990.47 -27.9247 1985.96 -30.7399C1970.28 -40.525 1939.5 -35.5053 1913.35 -36.732C1890.89 -37.789 1637.68 -35.5562 1605.83 -32.8936C1596.25 -32.0909 1578.1 -32.9389 1576.2 -32.9162C1509.04 -32.0909 1459.31 -38.7896 1445.45 -25.4997C1442.29 -22.4754 1442.14 -18.6144 1445.27 -15.494C1447.11 -13.6569 1449.37 -12.4924 1451.61 -11.3166C1471.07 -1.07355 1490.18 3.05305 1500.29 5.59119C1507.8 7.4736 1509.66 6.25259 1508.83 8.63811C1505.09 19.4803 1507.47 33.8217 1513.82 43.9856C1524.02 60.3224 1554.75 66.6141 1579.02 54.1834C1588.97 49.0845 1586.71 49.3445 1583.16 65.3931C1574.63 103.816 1605.41 148.728 1655.62 149.271L1655.61 149.265ZM1958.83 -30.1181C1967.84 -30.1407 1984.29 -27.009 1980.74 -24.4313C1979.48 -23.5155 1978.21 -22.5376 1976.78 -21.9723C1933.84 -4.84404 1920.32 -7.45563 1923.59 2.70825C1926.86 12.8665 1954.26 38.3214 1917.34 53.4542C1905.53 58.2931 1888.78 61.323 1880.94 61.1195C1876.77 61.0121 1873.92 63.8272 1875.24 68.3608C1886.37 106.591 1883.84 127.19 1856.3 153.533C1849.52 160.005 1839.69 162.798 1830.31 164.601C1820.93 166.404 1820.28 165.624 1804.47 164.092C1742.63 158.112 1736.94 75.1443 1724.01 101.492C1719.06 111.572 1709.05 123.827 1692.85 134.669C1683.5 140.933 1673.54 140.814 1663.98 141.543C1640.31 143.346 1623.72 139.395 1602.97 116.207C1592.02 103.974 1586.51 83.6067 1591.17 64.0703C1592.8 57.2642 1592.88 50.1642 1595.14 43.4881C1595.64 42.041 1595 40.7804 1593.79 39.8873C1591.23 38.0048 1588.98 40.4413 1587.79 41.2553C1559.69 60.4977 1517.51 57.2077 1514.74 24.4888C1514.29 19.1694 1513.91 13.7483 1515.56 8.46288C1519.5 -4.17133 1486.72 3.10394 1450.24 -19.0384C1449 -19.7902 1448.99 -20.593 1450.24 -21.1809C1473.21 -32.0061 1526.84 -22.7637 1637.58 -27.0768C1726 -30.5194 1958.52 -30.1124 1958.83 -30.1124V-30.1181Z" fill="white" fill-opacity="0.04"/>
<path d="M55.1389 690.59C419.704 690.59 401.137 702.678 422.357 690.055C438.099 680.681 397.641 667.947 377.213 662.829C327.747 650.448 319.979 657.643 313.985 626.85C308.663 599.52 309.774 586.166 291.508 576.223C282.974 571.579 265.388 566.961 252.763 567.668C233.18 568.762 223.983 574.664 200.748 589.044C190.095 595.635 183.791 602.898 177.393 593.136C167.48 578.015 163.381 506.952 84.6431 517.498C47.6724 522.452 29.0536 566.91 17.307 551.556C14.6545 548.093 11.8729 535.815 1.30616 529.681C-9.46726 523.426 -14.2468 524.675 -17.7777 520.565C-25.8125 511.234 7.90283 510.734 21.0187 533.161C25.0405 540.037 24.0156 541.441 28.5197 537.754C55.225 515.895 61.8131 505.41 100.394 505.005C122.423 504.772 143.729 512.725 159.351 530.611C174.757 548.248 175.154 554.873 181.337 572.837C185.626 585.27 185.169 585.485 188.192 583.641C210.669 569.899 223.363 560.887 239.76 558.035C257.948 554.873 276.885 557.82 292.154 564.152C312.444 572.57 317.774 585.485 321.176 603.165C332.776 663.407 322.313 630.02 403.901 659.168C421.426 665.431 429.341 669.084 435.309 679.449C439.262 686.299 436.902 695.94 421.607 702.023C400.155 710.552 369.876 705.676 354.9 705.021C256.484 700.687 6.73162 705.572 -12.5159 700.317C-15.2027 699.584 -16.4429 694.415 -12.2144 693.372C-1.96634 690.839 55.1389 690.409 55.1389 690.59Z" fill="white" fill-opacity="0.04"/>
</svg>
