<svg width="270" height="156" viewBox="0 0 270 156" fill="none" xmlns="http://www.w3.org/2000/svg">
<g opacity="0.99" filter="url(#filter0_d_2366_3074)">
<rect x="31.127" y="28.015" width="207" height="93.3835" rx="12.4511" fill="white" shape-rendering="crispEdges"/>
<rect x="31.5161" y="28.4041" width="206.222" height="92.6053" rx="12.062" stroke="#BEBEBE" stroke-opacity="0.2" stroke-width="0.778196" shape-rendering="crispEdges"/>
<path d="M55.3648 51.1608C54.791 51.1608 54.2536 51.0591 53.7524 50.8557C53.2512 50.6451 52.8118 50.3509 52.4341 49.9732C52.0637 49.5956 51.7732 49.1525 51.5626 48.6441C51.3519 48.1284 51.2466 47.5691 51.2466 46.9663C51.2466 46.3562 51.3519 45.7969 51.5626 45.2885C51.7732 44.7801 52.0637 44.337 52.4341 43.9593C52.8118 43.5817 53.2476 43.2911 53.7415 43.0878C54.2427 42.8844 54.7838 42.7827 55.3648 42.7827C55.9459 42.7827 56.4833 42.888 56.9772 43.0987C57.4784 43.302 57.9142 43.5926 58.2846 43.9702C58.6623 44.3407 58.9565 44.7801 59.1671 45.2885C59.385 45.7969 59.4939 46.3562 59.4939 46.9663C59.4939 47.5691 59.385 48.1284 59.1671 48.6441C58.9565 49.1525 58.6623 49.5956 58.2846 49.9732C57.9142 50.3509 57.4784 50.6451 56.9772 50.8557C56.4833 51.0591 55.9459 51.1608 55.3648 51.1608ZM55.3648 50.1693C55.8151 50.1693 56.2255 50.0895 56.5959 49.9297C56.9663 49.7626 57.2859 49.5338 57.5547 49.2433C57.8307 48.9455 58.0413 48.6041 58.1866 48.2192C58.3391 47.827 58.4153 47.4093 58.4153 46.9663C58.4153 46.5232 58.3391 46.1092 58.1866 45.7243C58.0413 45.3393 57.8307 45.0016 57.5547 44.7111C57.2859 44.4133 56.9663 44.1845 56.5959 44.0247C56.2255 43.8577 55.8151 43.7741 55.3648 43.7741C54.9218 43.7741 54.515 43.8577 54.1446 44.0247C53.7742 44.1845 53.451 44.4133 53.175 44.7111C52.9062 45.0016 52.6956 45.3393 52.5431 45.7243C52.3906 46.1092 52.3143 46.5232 52.3143 46.9663C52.3143 47.4093 52.3906 47.827 52.5431 48.2192C52.6956 48.6041 52.9062 48.9455 53.175 49.2433C53.451 49.5338 53.7742 49.7626 54.1446 49.9297C54.515 50.0895 54.9218 50.1693 55.3648 50.1693ZM57.5547 52.0106L54.7874 47.7834H55.964L58.7422 52.0106H57.5547ZM63.0122 51.1608C62.5909 51.1608 62.2096 51.0627 61.8682 50.8666C61.5341 50.6705 61.2726 50.3981 61.0838 50.0495C60.9022 49.6936 60.8114 49.2869 60.8114 48.8293V45.1578H61.8246V48.7203C61.8246 49.0109 61.8827 49.2651 61.999 49.483C62.1224 49.7009 62.2895 49.8716 62.5001 49.995C62.718 50.1185 62.965 50.1802 63.241 50.1802C63.517 50.1802 63.7603 50.1185 63.9709 49.995C64.1888 49.8716 64.3558 49.6936 64.4721 49.4612C64.5955 49.2288 64.6573 48.9528 64.6573 48.6332V45.1578H65.6814V51.03H64.69V49.8861L64.8534 49.9841C64.7154 50.3546 64.4793 50.6451 64.1452 50.8557C63.8184 51.0591 63.4407 51.1608 63.0122 51.1608ZM67.2511 51.03V45.1578H68.2643V51.03H67.2511ZM67.2511 44.2208V42.9134H68.2643V44.2208H67.2511ZM72.5601 51.1608C71.9863 51.1608 71.4743 51.0264 71.024 50.7577C70.5809 50.4889 70.2323 50.1221 69.9781 49.6573C69.7239 49.1925 69.5968 48.6695 69.5968 48.0885C69.5968 47.5001 69.7239 46.9772 69.9781 46.5196C70.2323 46.062 70.5809 45.6989 71.024 45.4301C71.4743 45.1614 71.9863 45.027 72.5601 45.027C72.9451 45.027 73.3046 45.096 73.6387 45.234C73.9728 45.372 74.267 45.5572 74.5212 45.7897C74.7754 46.0221 74.9606 46.2944 75.0768 46.6068L74.1725 47.0426C74.0345 46.7375 73.8239 46.4906 73.5406 46.3017C73.2574 46.1056 72.9305 46.0076 72.5601 46.0076C72.2042 46.0076 71.881 46.0983 71.5905 46.2799C71.3072 46.4615 71.0821 46.7084 70.915 47.0208C70.748 47.3331 70.6644 47.6926 70.6644 48.0993C70.6644 48.4916 70.748 48.8475 70.915 49.167C71.0821 49.4793 71.3072 49.7263 71.5905 49.9079C71.881 50.0895 72.2042 50.1802 72.5601 50.1802C72.9305 50.1802 73.2574 50.0858 73.5406 49.897C73.8239 49.7009 74.0345 49.443 74.1725 49.1235L75.0768 49.581C74.9606 49.8861 74.7754 50.1585 74.5212 50.3981C74.267 50.6306 73.9728 50.8158 73.6387 50.9538C73.3046 51.0918 72.9451 51.1608 72.5601 51.1608ZM76.4009 51.03V42.7827H77.4142V48.4371L77.0002 48.339L80.116 45.1578H81.4125L79.1573 47.5219L81.565 51.03H80.3666L78.1659 47.8488L78.7978 47.8161L77.0873 49.6028L77.4142 48.862V51.03H76.4009ZM87.0829 51.1608C86.5091 51.1608 85.9971 51.0264 85.5467 50.7577C85.1037 50.4889 84.7551 50.1221 84.5008 49.6573C84.2466 49.1925 84.1195 48.6695 84.1195 48.0885C84.1195 47.5001 84.2466 46.9772 84.5008 46.5196C84.7551 46.062 85.1037 45.6989 85.5467 45.4301C85.9971 45.1614 86.5091 45.027 87.0829 45.027C87.4678 45.027 87.8274 45.096 88.1615 45.234C88.4956 45.372 88.7897 45.5572 89.0439 45.7897C89.2982 46.0221 89.4834 46.2944 89.5996 46.6068L88.6953 47.0426C88.5573 46.7375 88.3467 46.4906 88.0634 46.3017C87.7802 46.1056 87.4533 46.0076 87.0829 46.0076C86.727 46.0076 86.4038 46.0983 86.1133 46.2799C85.83 46.4615 85.6048 46.7084 85.4378 47.0208C85.2707 47.3331 85.1872 47.6926 85.1872 48.0993C85.1872 48.4916 85.2707 48.8475 85.4378 49.167C85.6048 49.4793 85.83 49.7263 86.1133 49.9079C86.4038 50.0895 86.727 50.1802 87.0829 50.1802C87.4533 50.1802 87.7802 50.0858 88.0634 49.897C88.3467 49.7009 88.5573 49.443 88.6953 49.1235L89.5996 49.581C89.4834 49.8861 89.2982 50.1585 89.0439 50.3981C88.7897 50.6306 88.4956 50.8158 88.1615 50.9538C87.8274 51.0918 87.4678 51.1608 87.0829 51.1608ZM93.7128 51.1608C93.1462 51.1608 92.6342 51.03 92.1766 50.7686C91.719 50.4998 91.3559 50.133 91.0871 49.6682C90.8184 49.2033 90.684 48.6768 90.684 48.0885C90.684 47.5001 90.8148 46.9772 91.0762 46.5196C91.345 46.062 91.7081 45.6989 92.1657 45.4301C92.6233 45.1614 93.139 45.027 93.7128 45.027C94.2793 45.027 94.7913 45.1614 95.2489 45.4301C95.7065 45.6916 96.066 46.0511 96.3275 46.5087C96.5962 46.9663 96.7306 47.4929 96.7306 48.0885C96.7306 48.684 96.5926 49.2142 96.3166 49.6791C96.0406 50.1367 95.6738 50.4998 95.2162 50.7686C94.7659 51.03 94.2648 51.1608 93.7128 51.1608ZM93.7128 50.1802C94.0759 50.1802 94.4028 50.0895 94.6933 49.9079C94.9911 49.7263 95.2235 49.4757 95.3906 49.1561C95.5649 48.8366 95.652 48.4807 95.652 48.0885C95.652 47.689 95.5649 47.3367 95.3906 47.0317C95.2235 46.7193 94.9911 46.4724 94.6933 46.2908C94.4028 46.102 94.0759 46.0076 93.7128 46.0076C93.3423 46.0076 93.0082 46.102 92.7104 46.2908C92.4199 46.4724 92.1875 46.7193 92.0132 47.0317C91.8389 47.3367 91.7517 47.689 91.7517 48.0885C91.7517 48.4807 91.8389 48.8366 92.0132 49.1561C92.1875 49.4757 92.4199 49.7263 92.7104 49.9079C93.0082 50.0895 93.3423 50.1802 93.7128 50.1802ZM98.0521 51.03V45.1578H99.0435V46.3562L98.9019 46.171C99.0472 45.8006 99.2796 45.5173 99.5992 45.3212C99.9187 45.1251 100.278 45.027 100.678 45.027C101.135 45.027 101.546 45.1541 101.909 45.4083C102.279 45.6626 102.533 45.9967 102.671 46.4107L102.388 46.4216C102.541 45.964 102.799 45.619 103.162 45.3866C103.525 45.1469 103.928 45.027 104.371 45.027C104.778 45.027 105.145 45.1215 105.471 45.3103C105.806 45.4991 106.071 45.7606 106.267 46.0947C106.463 46.4288 106.561 46.8065 106.561 47.2278V51.03H105.537V47.5546C105.537 47.2278 105.479 46.9518 105.362 46.7266C105.246 46.5014 105.086 46.3271 104.883 46.2037C104.687 46.0729 104.455 46.0076 104.186 46.0076C103.924 46.0076 103.688 46.0729 103.478 46.2037C103.274 46.3271 103.111 46.5051 102.987 46.7375C102.871 46.9627 102.813 47.235 102.813 47.5546V51.03H101.789V47.5546C101.789 47.2278 101.731 46.9518 101.615 46.7266C101.498 46.5014 101.339 46.3271 101.135 46.2037C100.939 46.0729 100.707 46.0076 100.438 46.0076C100.177 46.0076 99.9405 46.0729 99.7299 46.2037C99.5265 46.3271 99.3631 46.5051 99.2396 46.7375C99.1234 46.9627 99.0653 47.235 99.0653 47.5546V51.03H98.0521ZM108 53.209V45.1578H108.991V46.4216L108.861 46.171C109.079 45.8223 109.376 45.5463 109.754 45.343C110.132 45.1323 110.564 45.027 111.05 45.027C111.602 45.027 112.096 45.1614 112.532 45.4301C112.975 45.6989 113.324 46.0657 113.578 46.5305C113.832 46.9881 113.959 47.511 113.959 48.0993C113.959 48.6731 113.832 49.1925 113.578 49.6573C113.324 50.1221 112.975 50.4889 112.532 50.7577C112.096 51.0264 111.599 51.1608 111.04 51.1608C110.567 51.1608 110.135 51.0555 109.743 50.8448C109.358 50.6342 109.06 50.3364 108.85 49.9515L109.013 49.7771V53.209H108ZM110.963 50.1802C111.334 50.1802 111.664 50.0895 111.955 49.9079C112.245 49.7263 112.47 49.4793 112.63 49.167C112.797 48.8475 112.881 48.4916 112.881 48.0993C112.881 47.6926 112.797 47.3367 112.63 47.0317C112.47 46.7193 112.245 46.4724 111.955 46.2908C111.664 46.102 111.334 46.0076 110.963 46.0076C110.593 46.0076 110.259 46.0983 109.961 46.2799C109.67 46.4615 109.438 46.7121 109.264 47.0317C109.097 47.344 109.013 47.6999 109.013 48.0993C109.013 48.4916 109.097 48.8475 109.264 49.167C109.438 49.4793 109.67 49.7263 109.961 49.9079C110.259 50.0895 110.593 50.1802 110.963 50.1802ZM117.009 51.1608C116.624 51.1608 116.283 51.0918 115.985 50.9538C115.695 50.8085 115.466 50.6124 115.299 50.3655C115.132 50.1112 115.048 49.8207 115.048 49.4939C115.048 49.1816 115.114 48.9019 115.244 48.655C115.382 48.4008 115.593 48.1865 115.876 48.0122C116.167 47.8379 116.53 47.7144 116.966 47.6418L119.145 47.2822V48.132L117.194 48.4589C116.817 48.5242 116.541 48.6441 116.366 48.8184C116.199 48.9927 116.116 49.207 116.116 49.4612C116.116 49.7009 116.21 49.9006 116.399 50.0604C116.595 50.2202 116.839 50.3001 117.129 50.3001C117.5 50.3001 117.819 50.2238 118.088 50.0713C118.364 49.9115 118.578 49.6972 118.731 49.4285C118.89 49.1598 118.97 48.862 118.97 48.5351V47.0426C118.97 46.723 118.85 46.4651 118.611 46.269C118.378 46.0657 118.07 45.964 117.685 45.964C117.351 45.964 117.053 46.0511 116.791 46.2255C116.537 46.3925 116.348 46.6177 116.225 46.9009L115.342 46.4433C115.451 46.1746 115.626 45.9349 115.865 45.7243C116.105 45.5064 116.385 45.3357 116.704 45.2122C117.024 45.0888 117.358 45.027 117.707 45.027C118.157 45.027 118.553 45.1142 118.894 45.2885C119.235 45.4556 119.501 45.6916 119.689 45.9967C119.885 46.2944 119.984 46.6431 119.984 47.0426V51.03H118.992V49.9188L119.177 49.9841C119.054 50.2166 118.887 50.4199 118.676 50.5942C118.466 50.7686 118.219 50.9066 117.935 51.0082C117.652 51.1099 117.343 51.1608 117.009 51.1608ZM121.555 51.03V45.1578H122.546V46.3017L122.383 46.2037C122.528 45.8332 122.76 45.5463 123.08 45.343C123.407 45.1323 123.788 45.027 124.224 45.027C124.645 45.027 125.019 45.1215 125.346 45.3103C125.68 45.4991 125.941 45.7606 126.13 46.0947C126.326 46.4288 126.424 46.8065 126.424 47.2278V51.03H125.4V47.5546C125.4 47.2278 125.342 46.9518 125.226 46.7266C125.11 46.5014 124.943 46.3271 124.725 46.2037C124.514 46.0729 124.271 46.0076 123.995 46.0076C123.719 46.0076 123.472 46.0729 123.254 46.2037C123.043 46.3271 122.876 46.5051 122.753 46.7375C122.629 46.9627 122.568 47.235 122.568 47.5546V51.03H121.555ZM127.874 51.03V45.1578H128.888V51.03H127.874ZM127.874 44.2208V42.9134H128.888V44.2208H127.874ZM133.249 51.1608C132.682 51.1608 132.17 51.03 131.713 50.7686C131.255 50.4998 130.892 50.133 130.623 49.6682C130.354 49.2033 130.22 48.6768 130.22 48.0885C130.22 47.5001 130.351 46.9772 130.612 46.5196C130.881 46.062 131.244 45.6989 131.702 45.4301C132.159 45.1614 132.675 45.027 133.249 45.027C133.815 45.027 134.327 45.1614 134.785 45.4301C135.242 45.6916 135.602 46.0511 135.863 46.5087C136.132 46.9663 136.267 47.4929 136.267 48.0885C136.267 48.684 136.129 49.2142 135.853 49.6791C135.577 50.1367 135.21 50.4998 134.752 50.7686C134.302 51.03 133.801 51.1608 133.249 51.1608ZM133.249 50.1802C133.612 50.1802 133.939 50.0895 134.229 49.9079C134.527 49.7263 134.759 49.4757 134.927 49.1561C135.101 48.8366 135.188 48.4807 135.188 48.0885C135.188 47.689 135.101 47.3367 134.927 47.0317C134.759 46.7193 134.527 46.4724 134.229 46.2908C133.939 46.102 133.612 46.0076 133.249 46.0076C132.878 46.0076 132.544 46.102 132.246 46.2908C131.956 46.4724 131.723 46.7193 131.549 47.0317C131.375 47.3367 131.288 47.689 131.288 48.0885C131.288 48.4807 131.375 48.8366 131.549 49.1561C131.723 49.4757 131.956 49.7263 132.246 49.9079C132.544 50.0895 132.878 50.1802 133.249 50.1802ZM137.588 51.03V45.1578H138.58V46.3017L138.416 46.2037C138.561 45.8332 138.794 45.5463 139.113 45.343C139.44 45.1323 139.822 45.027 140.257 45.027C140.679 45.027 141.053 45.1215 141.379 45.3103C141.714 45.4991 141.975 45.7606 142.164 46.0947C142.36 46.4288 142.458 46.8065 142.458 47.2278V51.03H141.434V47.5546C141.434 47.2278 141.376 46.9518 141.26 46.7266C141.143 46.5014 140.976 46.3271 140.758 46.2037C140.548 46.0729 140.305 46.0076 140.029 46.0076C139.753 46.0076 139.506 46.0729 139.288 46.2037C139.077 46.3271 138.91 46.5051 138.787 46.7375C138.663 46.9627 138.601 47.235 138.601 47.5546V51.03H137.588ZM145.791 53.209V45.1578H146.782V46.4216L146.652 46.171C146.87 45.8223 147.167 45.5463 147.545 45.343C147.923 45.1323 148.355 45.027 148.842 45.027C149.394 45.027 149.887 45.1614 150.323 45.4301C150.766 45.6989 151.115 46.0657 151.369 46.5305C151.623 46.9881 151.75 47.511 151.75 48.0993C151.75 48.6731 151.623 49.1925 151.369 49.6573C151.115 50.1221 150.766 50.4889 150.323 50.7577C149.887 51.0264 149.39 51.1608 148.831 51.1608C148.359 51.1608 147.926 51.0555 147.534 50.8448C147.149 50.6342 146.851 50.3364 146.641 49.9515L146.804 49.7771V53.209H145.791ZM148.754 50.1802C149.125 50.1802 149.455 50.0895 149.746 49.9079C150.036 49.7263 150.262 49.4793 150.421 49.167C150.588 48.8475 150.672 48.4916 150.672 48.0993C150.672 47.6926 150.588 47.3367 150.421 47.0317C150.262 46.7193 150.036 46.4724 149.746 46.2908C149.455 46.102 149.125 46.0076 148.754 46.0076C148.384 46.0076 148.05 46.0983 147.752 46.2799C147.462 46.4615 147.229 46.7121 147.055 47.0317C146.888 47.344 146.804 47.6999 146.804 48.0993C146.804 48.4916 146.888 48.8475 147.055 49.167C147.229 49.4793 147.462 49.7263 147.752 49.9079C148.05 50.0895 148.384 50.1802 148.754 50.1802ZM155.868 51.1608C155.302 51.1608 154.79 51.03 154.332 50.7686C153.874 50.4998 153.511 50.133 153.242 49.6682C152.974 49.2033 152.839 48.6768 152.839 48.0885C152.839 47.5001 152.97 46.9772 153.232 46.5196C153.5 46.062 153.863 45.6989 154.321 45.4301C154.779 45.1614 155.294 45.027 155.868 45.027C156.435 45.027 156.947 45.1614 157.404 45.4301C157.862 45.6916 158.221 46.0511 158.483 46.5087C158.752 46.9663 158.886 47.4929 158.886 48.0885C158.886 48.684 158.748 49.2142 158.472 49.6791C158.196 50.1367 157.829 50.4998 157.372 50.7686C156.921 51.03 156.42 51.1608 155.868 51.1608ZM155.868 50.1802C156.231 50.1802 156.558 50.0895 156.849 49.9079C157.146 49.7263 157.379 49.4757 157.546 49.1561C157.72 48.8366 157.807 48.4807 157.807 48.0885C157.807 47.689 157.72 47.3367 157.546 47.0317C157.379 46.7193 157.146 46.4724 156.849 46.2908C156.558 46.102 156.231 46.0076 155.868 46.0076C155.498 46.0076 155.164 46.102 154.866 46.2908C154.575 46.4724 154.343 46.7193 154.169 47.0317C153.994 47.3367 153.907 47.689 153.907 48.0885C153.907 48.4807 153.994 48.8366 154.169 49.1561C154.343 49.4757 154.575 49.7263 154.866 49.9079C155.164 50.0895 155.498 50.1802 155.868 50.1802ZM162.31 51.1608C161.722 51.1608 161.21 51.0155 160.774 50.725C160.338 50.4345 160.029 50.0422 159.848 49.5483L160.654 49.1561C160.821 49.5048 161.05 49.7808 161.34 49.9841C161.631 50.1875 161.954 50.2892 162.31 50.2892C162.63 50.2892 162.895 50.2129 163.105 50.0604C163.316 49.9079 163.421 49.7081 163.421 49.4612C163.421 49.2869 163.371 49.1489 163.269 49.0472C163.174 48.9382 163.058 48.8547 162.92 48.7966C162.782 48.7312 162.655 48.684 162.539 48.655L161.656 48.4044C161.126 48.2519 160.738 48.034 160.491 47.7507C160.251 47.4675 160.131 47.137 160.131 46.7593C160.131 46.4107 160.218 46.1092 160.393 45.855C160.574 45.5936 160.818 45.3902 161.123 45.2449C161.435 45.0997 161.784 45.027 162.168 45.027C162.684 45.027 163.145 45.1578 163.552 45.4192C163.966 45.6807 164.26 46.0475 164.435 46.5196L163.607 46.9009C163.476 46.5959 163.28 46.3562 163.018 46.1819C162.757 46.0003 162.463 45.9095 162.136 45.9095C161.838 45.9095 161.602 45.9858 161.428 46.1383C161.253 46.2836 161.166 46.4688 161.166 46.6939C161.166 46.861 161.21 46.999 161.297 47.1079C161.384 47.2096 161.489 47.2895 161.613 47.3476C161.736 47.3984 161.856 47.442 161.972 47.4783L162.931 47.7616C163.41 47.8996 163.781 48.1139 164.042 48.4044C164.311 48.6949 164.445 49.0436 164.445 49.4503C164.445 49.7771 164.355 50.0713 164.173 50.3328C163.992 50.5942 163.741 50.7976 163.421 50.9429C163.102 51.0881 162.731 51.1608 162.31 51.1608ZM168.158 51.0954C167.584 51.0954 167.141 50.932 166.829 50.6051C166.524 50.2783 166.371 49.8171 166.371 49.2215V46.1274H165.303V45.1578H165.521C165.783 45.1578 165.99 45.0779 166.142 44.9181C166.295 44.7583 166.371 44.5477 166.371 44.2862V43.8068H167.384V45.1578H168.703V46.1274H167.384V49.1888C167.384 49.3849 167.413 49.5556 167.471 49.7009C167.537 49.8461 167.642 49.9623 167.787 50.0495C167.933 50.1294 168.125 50.1693 168.365 50.1693C168.416 50.1693 168.477 50.1657 168.55 50.1585C168.63 50.1512 168.703 50.1439 168.768 50.1367V51.03C168.673 51.0518 168.568 51.0663 168.452 51.0736C168.336 51.0881 168.238 51.0954 168.158 51.0954Z" fill="#8D8D8D"/>
<path d="M54.1539 68.1398V66.9492C54.1539 66.3328 54.294 65.8286 54.5742 65.4363C54.8543 65.0348 55.2652 64.7733 55.8068 64.6519V65.2823C55.508 65.357 55.2886 65.497 55.1485 65.7025C55.0084 65.8986 54.9197 66.1507 54.8823 66.4589H55.5267V68.1398H54.1539ZM51.8147 68.1398V66.9492C51.8147 66.3328 51.9501 65.8286 52.2209 65.4363C52.5011 65.0348 52.9119 64.7733 53.4536 64.6519V65.2823C53.1641 65.357 52.9446 65.497 52.7952 65.7025C52.6551 65.8986 52.5711 66.1507 52.5431 66.4589H53.1734V68.1398H51.8147ZM56.7139 75.2556L60.4539 64.82H62.0788L65.8188 75.2556H64.348L63.4936 72.8043H59.0392L58.1847 75.2556H56.7139ZM59.4734 71.5436H63.0593L61.0703 65.8145H61.4625L59.4734 71.5436ZM66.9797 75.2556V67.7056H68.2544V69.1764L68.0443 69.0503C68.231 68.574 68.5299 68.2052 68.9407 67.9437C69.361 67.6729 69.8512 67.5375 70.4115 67.5375C70.9532 67.5375 71.4341 67.6589 71.8543 67.9017C72.2839 68.1445 72.6201 68.4806 72.8629 68.9102C73.115 69.3398 73.2411 69.8254 73.2411 70.367V75.2556H71.9243V70.7872C71.9243 70.367 71.8496 70.0121 71.7002 69.7226C71.5508 69.4332 71.336 69.209 71.0559 69.0503C70.7851 68.8822 70.4722 68.7981 70.1174 68.7981C69.7625 68.7981 69.445 68.8822 69.1649 69.0503C68.8941 69.209 68.6793 69.4378 68.5205 69.7367C68.3618 70.0261 68.2824 70.3763 68.2824 70.7872V75.2556H66.9797ZM75.3746 78.3373C75.2065 78.3373 75.0384 78.3233 74.8703 78.2952C74.7022 78.2672 74.5435 78.2205 74.394 78.1552V76.9925C74.4968 77.0112 74.6228 77.0299 74.7723 77.0486C74.931 77.0766 75.0851 77.0906 75.2345 77.0906C75.6734 77.0906 76.0049 76.9925 76.229 76.7964C76.4625 76.6097 76.6819 76.2828 76.8874 75.8159L77.3636 74.6813L77.3356 75.8159L74.1139 67.7056H75.5287L78.036 74.149H77.6158L80.1091 67.7056H81.5519L78.1481 76.1521C77.9893 76.5536 77.7839 76.9178 77.5317 77.2447C77.2889 77.5809 76.9901 77.847 76.6353 78.0431C76.2804 78.2392 75.8602 78.3373 75.3746 78.3373ZM86.1599 75.4237C85.4315 75.4237 84.7732 75.2556 84.1849 74.9194C83.5966 74.5739 83.1296 74.1023 82.7841 73.5047C82.4386 72.907 82.2658 72.23 82.2658 71.4736C82.2658 70.7172 82.4339 70.0448 82.7701 69.4565C83.1156 68.8682 83.5825 68.4013 84.1709 68.0558C84.7592 67.7102 85.4222 67.5375 86.1599 67.5375C86.8883 67.5375 87.5467 67.7102 88.135 68.0558C88.7233 68.3919 89.1856 68.8542 89.5217 69.4425C89.8672 70.0308 90.04 70.7078 90.04 71.4736C90.04 72.2393 89.8626 72.921 89.5077 73.5187C89.1529 74.107 88.6813 74.5739 88.093 74.9194C87.514 75.2556 86.8696 75.4237 86.1599 75.4237ZM86.1599 74.163C86.6268 74.163 87.0471 74.0463 87.4206 73.8128C87.8035 73.5794 88.1023 73.2572 88.3171 72.8463C88.5412 72.4354 88.6533 71.9779 88.6533 71.4736C88.6533 70.96 88.5412 70.5071 88.3171 70.1149C88.1023 69.7133 87.8035 69.3958 87.4206 69.1623C87.0471 68.9195 86.6268 68.7981 86.1599 68.7981C85.6837 68.7981 85.2541 68.9195 84.8712 69.1623C84.4977 69.3958 84.1989 69.7133 83.9748 70.1149C83.7506 70.5071 83.6386 70.96 83.6386 71.4736C83.6386 71.9779 83.7506 72.4354 83.9748 72.8463C84.1989 73.2572 84.4977 73.5794 84.8712 73.8128C85.2541 74.0463 85.6837 74.163 86.1599 74.163ZM91.7391 75.2556V67.7056H93.0138V69.1764L92.8036 69.0503C92.9904 68.574 93.2892 68.2052 93.7001 67.9437C94.1204 67.6729 94.6106 67.5375 95.1709 67.5375C95.7125 67.5375 96.1935 67.6589 96.6137 67.9017C97.0433 68.1445 97.3794 68.4806 97.6222 68.9102C97.8744 69.3398 98.0004 69.8254 98.0004 70.367V75.2556H96.6837V70.7872C96.6837 70.367 96.609 70.0121 96.4596 69.7226C96.3102 69.4332 96.0954 69.209 95.8153 69.0503C95.5445 68.8822 95.2316 68.7981 94.8768 68.7981C94.5219 68.7981 94.2044 68.8822 93.9242 69.0503C93.6534 69.209 93.4387 69.4378 93.2799 69.7367C93.1212 70.0261 93.0418 70.3763 93.0418 70.7872V75.2556H91.7391ZM103.338 75.4237C102.61 75.4237 101.961 75.2509 101.391 74.9054C100.822 74.5599 100.373 74.0883 100.047 73.4907C99.7198 72.8837 99.5564 72.2066 99.5564 71.4596C99.5564 70.7032 99.7151 70.0308 100.033 69.4425C100.359 68.8542 100.798 68.3919 101.349 68.0558C101.91 67.7102 102.535 67.5375 103.226 67.5375C103.787 67.5375 104.282 67.6402 104.711 67.8456C105.15 68.0417 105.519 68.3126 105.818 68.6581C106.126 68.9943 106.359 69.3818 106.518 69.8207C106.686 70.2503 106.77 70.6985 106.77 71.1654C106.77 71.2681 106.761 71.3849 106.742 71.5156C106.733 71.637 106.719 71.7537 106.7 71.8658H100.509V70.7452H105.944L105.327 71.2495C105.412 70.7639 105.365 70.3296 105.187 69.9468C105.01 69.5639 104.748 69.2604 104.403 69.0363C104.057 68.8122 103.665 68.7001 103.226 68.7001C102.787 68.7001 102.386 68.8122 102.022 69.0363C101.657 69.2604 101.373 69.5826 101.167 70.0028C100.971 70.4137 100.892 70.9039 100.929 71.4736C100.892 72.0245 100.976 72.5101 101.181 72.9304C101.396 73.3413 101.695 73.6634 102.078 73.8969C102.47 74.121 102.895 74.2331 103.352 74.2331C103.857 74.2331 104.282 74.1163 104.627 73.8829C104.973 73.6494 105.253 73.3506 105.468 72.9864L106.56 73.5467C106.411 73.8922 106.177 74.2097 105.86 74.4992C105.552 74.7794 105.183 75.0035 104.753 75.1716C104.333 75.3397 103.861 75.4237 103.338 75.4237ZM113.565 75.4237C113.024 75.4237 112.534 75.2976 112.095 75.0455C111.665 74.7934 111.329 74.4432 111.086 73.9949C110.853 73.5374 110.736 73.0144 110.736 72.4261V67.7056H112.039V72.286C112.039 72.6596 112.113 72.9864 112.263 73.2665C112.421 73.5467 112.636 73.7661 112.907 73.9249C113.187 74.0837 113.505 74.163 113.86 74.163C114.214 74.163 114.527 74.0837 114.798 73.9249C115.078 73.7661 115.293 73.5374 115.442 73.2385C115.601 72.9397 115.681 72.5848 115.681 72.174V67.7056H116.997V75.2556H115.723V73.7848L115.933 73.9109C115.755 74.3871 115.452 74.7607 115.022 75.0315C114.602 75.293 114.116 75.4237 113.565 75.4237ZM119.015 78.0571V67.7056H120.29V69.3304L120.122 69.0083C120.402 68.56 120.785 68.2052 121.271 67.9437C121.756 67.6729 122.312 67.5375 122.938 67.5375C123.647 67.5375 124.282 67.7102 124.843 68.0558C125.412 68.4013 125.86 68.8729 126.187 69.4705C126.514 70.0588 126.678 70.7312 126.678 71.4876C126.678 72.2253 126.514 72.893 126.187 73.4907C125.86 74.0883 125.412 74.5599 124.843 74.9054C124.282 75.2509 123.643 75.4237 122.924 75.4237C122.317 75.4237 121.761 75.2883 121.257 75.0175C120.762 74.7467 120.379 74.3638 120.108 73.8689L120.318 73.6448V78.0571H119.015ZM122.825 74.163C123.302 74.163 123.727 74.0463 124.1 73.8128C124.474 73.5794 124.763 73.2619 124.969 72.8603C125.183 72.4494 125.291 71.9919 125.291 71.4876C125.291 70.9646 125.183 70.5071 124.969 70.1149C124.763 69.7133 124.474 69.3958 124.1 69.1623C123.727 68.9195 123.302 68.7981 122.825 68.7981C122.349 68.7981 121.92 68.9149 121.537 69.1483C121.163 69.3818 120.864 69.704 120.64 70.1149C120.426 70.5164 120.318 70.974 120.318 71.4876C120.318 71.9919 120.426 72.4494 120.64 72.8603C120.864 73.2619 121.163 73.5794 121.537 73.8128C121.92 74.0463 122.349 74.163 122.825 74.163ZM131.605 75.2556V68.9522H130.163V67.7056H131.605V67.1733C131.605 66.6317 131.722 66.1741 131.956 65.8005C132.198 65.427 132.516 65.1422 132.908 64.9461C133.31 64.75 133.753 64.6519 134.239 64.6519C134.341 64.6519 134.454 64.6613 134.575 64.6799C134.706 64.6893 134.813 64.7033 134.897 64.722V65.8846C134.822 65.8659 134.734 65.8566 134.631 65.8566C134.528 65.8472 134.449 65.8426 134.393 65.8426C133.963 65.8426 133.608 65.9453 133.328 66.1507C133.057 66.3562 132.922 66.697 132.922 67.1733V67.7056H134.715V68.9522H132.922V75.2556H131.605ZM139.605 75.4237C138.876 75.4237 138.218 75.2556 137.63 74.9194C137.041 74.5739 136.574 74.1023 136.229 73.5047C135.883 72.907 135.711 72.23 135.711 71.4736C135.711 70.7172 135.879 70.0448 136.215 69.4565C136.56 68.8682 137.027 68.4013 137.616 68.0558C138.204 67.7102 138.867 67.5375 139.605 67.5375C140.333 67.5375 140.991 67.7102 141.58 68.0558C142.168 68.3919 142.63 68.8542 142.966 69.4425C143.312 70.0308 143.485 70.7078 143.485 71.4736C143.485 72.2393 143.307 72.921 142.952 73.5187C142.598 74.107 142.126 74.5739 141.538 74.9194C140.959 75.2556 140.314 75.4237 139.605 75.4237ZM139.605 74.163C140.072 74.163 140.492 74.0463 140.865 73.8128C141.248 73.5794 141.547 73.2572 141.762 72.8463C141.986 72.4354 142.098 71.9779 142.098 71.4736C142.098 70.96 141.986 70.5071 141.762 70.1149C141.547 69.7133 141.248 69.3958 140.865 69.1623C140.492 68.9195 140.072 68.7981 139.605 68.7981C139.128 68.7981 138.699 68.9195 138.316 69.1623C137.942 69.3958 137.644 69.7133 137.419 70.1149C137.195 70.5071 137.083 70.96 137.083 71.4736C137.083 71.9779 137.195 72.4354 137.419 72.8463C137.644 73.2572 137.942 73.5794 138.316 73.8128C138.699 74.0463 139.128 74.163 139.605 74.163ZM145.184 75.2556V67.7056H146.458V69.0923L146.318 68.8962C146.496 68.4666 146.767 68.1491 147.131 67.9437C147.495 67.7289 147.939 67.6215 148.462 67.6215H148.924V68.8542H148.265C147.733 68.8542 147.304 69.0223 146.977 69.3584C146.65 69.6853 146.486 70.1522 146.486 70.7592V75.2556H145.184ZM156.004 75.4237C155.266 75.4237 154.608 75.2509 154.029 74.9054C153.459 74.5599 153.011 74.0883 152.684 73.4907C152.357 72.893 152.194 72.2207 152.194 71.4736C152.194 70.7172 152.357 70.0448 152.684 69.4565C153.011 68.8682 153.459 68.4013 154.029 68.0558C154.608 67.7102 155.266 67.5375 156.004 67.5375C156.499 67.5375 156.961 67.6262 157.391 67.8036C157.82 67.981 158.199 68.2192 158.525 68.518C158.852 68.8168 159.09 69.167 159.24 69.5686L158.077 70.1289C157.9 69.7367 157.629 69.4191 157.265 69.1764C156.901 68.9242 156.48 68.7981 156.004 68.7981C155.546 68.7981 155.131 68.9149 154.757 69.1483C154.393 69.3818 154.104 69.6993 153.889 70.1008C153.674 70.5024 153.567 70.9646 153.567 71.4876C153.567 71.9919 153.674 72.4494 153.889 72.8603C154.104 73.2619 154.393 73.5794 154.757 73.8128C155.131 74.0463 155.546 74.163 156.004 74.163C156.48 74.163 156.901 74.0416 157.265 73.7988C157.629 73.5467 157.9 73.2152 158.077 72.8043L159.24 73.3926C159.09 73.7848 158.852 74.135 158.525 74.4432C158.199 74.742 157.82 74.9801 157.391 75.1576C156.961 75.335 156.499 75.4237 156.004 75.4237ZM164.528 75.4237C163.8 75.4237 163.141 75.2556 162.553 74.9194C161.965 74.5739 161.498 74.1023 161.152 73.5047C160.807 72.907 160.634 72.23 160.634 71.4736C160.634 70.7172 160.802 70.0448 161.138 69.4565C161.484 68.8682 161.951 68.4013 162.539 68.0558C163.127 67.7102 163.79 67.5375 164.528 67.5375C165.257 67.5375 165.915 67.7102 166.503 68.0558C167.092 68.3919 167.554 68.8542 167.89 69.4425C168.235 70.0308 168.408 70.7078 168.408 71.4736C168.408 72.2393 168.231 72.921 167.876 73.5187C167.521 74.107 167.05 74.5739 166.461 74.9194C165.882 75.2556 165.238 75.4237 164.528 75.4237ZM164.528 74.163C164.995 74.163 165.415 74.0463 165.789 73.8128C166.172 73.5794 166.471 73.2572 166.685 72.8463C166.909 72.4354 167.021 71.9779 167.021 71.4736C167.021 70.96 166.909 70.5071 166.685 70.1149C166.471 69.7133 166.172 69.3958 165.789 69.1623C165.415 68.9195 164.995 68.7981 164.528 68.7981C164.052 68.7981 163.622 68.9195 163.239 69.1623C162.866 69.3958 162.567 69.7133 162.343 70.1149C162.119 70.5071 162.007 70.96 162.007 71.4736C162.007 71.9779 162.119 72.4354 162.343 72.8463C162.567 73.2572 162.866 73.5794 163.239 73.8128C163.622 74.0463 164.052 74.163 164.528 74.163ZM170.673 75.2556V68.9522H169.23V67.7056H170.673V67.1733C170.673 66.6317 170.79 66.1741 171.023 65.8005C171.266 65.427 171.584 65.1422 171.976 64.9461C172.377 64.75 172.821 64.6519 173.307 64.6519C173.409 64.6519 173.521 64.6613 173.643 64.6799C173.774 64.6893 173.881 64.7033 173.965 64.722V65.8846C173.89 65.8659 173.802 65.8566 173.699 65.8566C173.596 65.8472 173.517 65.8426 173.461 65.8426C173.031 65.8426 172.676 65.9453 172.396 66.1507C172.125 66.3562 171.99 66.697 171.99 67.1733V67.7056H175.912V68.9522H171.99V75.2556H170.673ZM176.108 75.2556V68.9522H174.651V67.7056H176.108V67.1733C176.108 66.6317 176.225 66.1741 176.458 65.8005C176.692 65.427 177.005 65.1422 177.397 64.9461C177.798 64.75 178.247 64.6519 178.742 64.6519C178.835 64.6519 178.942 64.6613 179.064 64.6799C179.194 64.6893 179.302 64.7033 179.386 64.722V65.8846C179.311 65.8659 179.222 65.8566 179.12 65.8566C179.017 65.8472 178.942 65.8426 178.896 65.8426C178.457 65.8426 178.097 65.9453 177.817 66.1507C177.546 66.3562 177.411 66.697 177.411 67.1733V67.7056H179.204V68.9522H177.411V75.2556H176.108ZM183.991 75.4237C183.263 75.4237 182.614 75.2509 182.044 74.9054C181.474 74.5599 181.026 74.0883 180.699 73.4907C180.372 72.8837 180.209 72.2066 180.209 71.4596C180.209 70.7032 180.368 70.0308 180.685 69.4425C181.012 68.8542 181.451 68.3919 182.002 68.0558C182.562 67.7102 183.188 67.5375 183.879 67.5375C184.439 67.5375 184.934 67.6402 185.364 67.8456C185.803 68.0417 186.172 68.3126 186.47 68.6581C186.779 68.9943 187.012 69.3818 187.171 69.8207C187.339 70.2503 187.423 70.6985 187.423 71.1654C187.423 71.2681 187.414 71.3849 187.395 71.5156C187.386 71.637 187.372 71.7537 187.353 71.8658H181.162V70.7452H186.596L185.98 71.2495C186.064 70.7639 186.017 70.3296 185.84 69.9468C185.663 69.5639 185.401 69.2604 185.056 69.0363C184.71 68.8122 184.318 68.7001 183.879 68.7001C183.44 68.7001 183.039 68.8122 182.674 69.0363C182.31 69.2604 182.025 69.5826 181.82 70.0028C181.624 70.4137 181.544 70.9039 181.582 71.4736C181.544 72.0245 181.628 72.5101 181.834 72.9304C182.049 73.3413 182.348 73.6634 182.73 73.8969C183.123 74.121 183.547 74.2331 184.005 74.2331C184.509 74.2331 184.934 74.1163 185.28 73.8829C185.625 73.6494 185.905 73.3506 186.12 72.9864L187.213 73.5467C187.063 73.8922 186.83 74.2097 186.512 74.4992C186.204 74.7794 185.835 75.0035 185.406 75.1716C184.986 75.3397 184.514 75.4237 183.991 75.4237ZM192.595 75.4237C191.867 75.4237 191.218 75.2509 190.648 74.9054C190.079 74.5599 189.63 74.0883 189.304 73.4907C188.977 72.8837 188.813 72.2066 188.813 71.4596C188.813 70.7032 188.972 70.0308 189.29 69.4425C189.616 68.8542 190.055 68.3919 190.606 68.0558C191.167 67.7102 191.792 67.5375 192.483 67.5375C193.044 67.5375 193.538 67.6402 193.968 67.8456C194.407 68.0417 194.776 68.3126 195.075 68.6581C195.383 68.9943 195.616 69.3818 195.775 69.8207C195.943 70.2503 196.027 70.6985 196.027 71.1654C196.027 71.2681 196.018 71.3849 195.999 71.5156C195.99 71.637 195.976 71.7537 195.957 71.8658H189.766V70.7452H195.201L194.584 71.2495C194.668 70.7639 194.622 70.3296 194.444 69.9468C194.267 69.5639 194.005 69.2604 193.66 69.0363C193.314 68.8122 192.922 68.7001 192.483 68.7001C192.044 68.7001 191.643 68.8122 191.279 69.0363C190.914 69.2604 190.63 69.5826 190.424 70.0028C190.228 70.4137 190.149 70.9039 190.186 71.4736C190.149 72.0245 190.233 72.5101 190.438 72.9304C190.653 73.3413 190.952 73.6634 191.335 73.8969C191.727 74.121 192.152 74.2331 192.609 74.2331C193.114 74.2331 193.538 74.1163 193.884 73.8829C194.23 73.6494 194.51 73.3506 194.724 72.9864L195.817 73.5467C195.668 73.8922 195.434 74.2097 195.117 74.4992C194.808 74.7794 194.44 75.0035 194.01 75.1716C193.59 75.3397 193.118 75.4237 192.595 75.4237ZM199.266 72.202V72.0199C199.266 71.5997 199.337 71.2308 199.477 70.9133C199.626 70.5864 199.808 70.297 200.023 70.0448C200.247 69.7833 200.48 69.5405 200.723 69.3164C201.05 68.9896 201.344 68.6721 201.606 68.3639C201.877 68.0558 202.012 67.6916 202.012 67.2713C202.012 67.0285 201.951 66.7997 201.83 66.585C201.708 66.3702 201.526 66.1974 201.284 66.0667C201.05 65.9359 200.761 65.8706 200.415 65.8706C199.939 65.8706 199.528 66.02 199.182 66.3188C198.837 66.6176 198.622 67.0145 198.538 67.5095L197.305 67.2293C197.389 66.7157 197.572 66.2675 197.852 65.8846C198.141 65.4924 198.505 65.1889 198.944 64.9741C199.393 64.7593 199.887 64.6519 200.429 64.6519C201.036 64.6519 201.559 64.778 201.998 65.0301C202.446 65.2729 202.792 65.5904 203.035 65.9826C203.277 66.3748 203.399 66.7997 203.399 67.2573C203.399 67.6682 203.315 68.0324 203.147 68.3499C202.978 68.6581 202.764 68.9429 202.502 69.2044C202.25 69.4658 201.998 69.7273 201.746 69.9888C201.438 70.2876 201.167 70.6004 200.933 70.9273C200.709 71.2448 200.597 71.6183 200.597 72.0479V72.202H199.266ZM199.28 75.2556V73.5747H200.639V75.2556H199.28ZM207.676 68.3079V67.6775C207.965 67.6028 208.185 67.4674 208.334 67.2713C208.484 67.0659 208.568 66.8091 208.586 66.5009H207.956V64.82H209.329V66.0107C209.329 66.6176 209.189 67.1219 208.908 67.5235C208.638 67.9157 208.227 68.1771 207.676 68.3079ZM205.337 68.3079V67.6775C205.626 67.6028 205.841 67.4674 205.981 67.2713C206.13 67.0659 206.219 66.8091 206.247 66.5009H205.617V64.82H206.975V66.0107C206.975 66.6176 206.835 67.1219 206.555 67.5235C206.284 67.9157 205.878 68.1771 205.337 68.3079Z" fill="#3D3D3D"/>
<rect x="50.582" y="92.2632" width="64.5639" height="17.1203" rx="8.56015" fill="#FFD93D" fill-opacity="0.16"/>
<path d="M59.1384 104.823V97.8663H61.4169C62.1204 97.8663 62.7336 98.0095 63.2566 98.2959C63.7795 98.5822 64.1842 98.9869 64.4706 99.5098C64.7569 100.027 64.9001 100.637 64.9001 101.34C64.9001 102.037 64.7569 102.648 64.4706 103.17C64.1842 103.693 63.7795 104.101 63.2566 104.394C62.7336 104.68 62.1204 104.823 61.4169 104.823H59.1384ZM60.0535 103.983H61.4263C61.943 103.983 62.3881 103.874 62.7616 103.656C63.1414 103.438 63.434 103.133 63.6394 102.741C63.8449 102.342 63.9476 101.876 63.9476 101.34C63.9476 100.799 63.8418 100.332 63.6301 99.9394C63.4247 99.5472 63.1321 99.2453 62.7523 99.0336C62.3788 98.8157 61.9368 98.7067 61.4263 98.7067H60.0535V103.983ZM68.3479 104.935C67.8623 104.935 67.4234 104.823 67.0312 104.599C66.639 104.369 66.3277 104.055 66.0974 103.656C65.8671 103.258 65.7519 102.806 65.7519 102.302C65.7519 101.798 65.8639 101.349 66.0881 100.957C66.3184 100.565 66.6297 100.254 67.0219 100.023C67.4141 99.7931 67.8561 99.6779 68.3479 99.6779C68.8335 99.6779 69.2724 99.7931 69.6647 100.023C70.0569 100.248 70.365 100.556 70.5891 100.948C70.8195 101.34 70.9347 101.792 70.9347 102.302C70.9347 102.813 70.8164 103.267 70.5798 103.665C70.3432 104.058 70.0288 104.369 69.6366 104.599C69.2507 104.823 68.8211 104.935 68.3479 104.935ZM68.3479 104.095C68.6592 104.095 68.9394 104.017 69.1884 103.862C69.4436 103.706 69.6429 103.491 69.786 103.217C69.9355 102.943 70.0102 102.638 70.0102 102.302C70.0102 101.96 69.9355 101.658 69.786 101.396C69.6429 101.128 69.4436 100.917 69.1884 100.761C68.9394 100.599 68.6592 100.518 68.3479 100.518C68.0304 100.518 67.7441 100.599 67.4888 100.761C67.2398 100.917 67.0406 101.128 66.8912 101.396C66.7417 101.658 66.667 101.96 66.667 102.302C66.667 102.638 66.7417 102.943 66.8912 103.217C67.0406 103.491 67.2398 103.706 67.4888 103.862C67.7441 104.017 68.0304 104.095 68.3479 104.095ZM73.1341 104.823L71.4065 99.79H72.3684L73.7411 104.002L73.4049 103.992L74.7497 99.79H75.5714L76.9162 103.992L76.58 104.002L77.9621 99.79H78.9146L77.187 104.823H76.3559L75.0298 100.621H75.2913L73.9653 104.823H73.1341ZM79.6913 104.823V99.79H80.5411V100.771L80.401 100.686C80.5255 100.369 80.7247 100.123 80.9986 99.9487C81.2788 99.7682 81.6056 99.6779 81.9792 99.6779C82.3402 99.6779 82.6609 99.7589 82.941 99.9207C83.2274 100.083 83.4515 100.307 83.6134 100.593C83.7815 100.879 83.8655 101.203 83.8655 101.564V104.823H82.9877V101.844C82.9877 101.564 82.9379 101.328 82.8383 101.135C82.7387 100.942 82.5955 100.792 82.4087 100.686C82.2282 100.574 82.0196 100.518 81.7831 100.518C81.5465 100.518 81.3348 100.574 81.148 100.686C80.9675 100.792 80.8243 100.945 80.7185 101.144C80.6126 101.337 80.5597 101.571 80.5597 101.844V104.823H79.6913ZM87.1533 104.879C86.6615 104.879 86.2818 104.739 86.0141 104.459C85.7526 104.179 85.6218 103.784 85.6218 103.273V100.621H84.7067V99.79H84.8935C85.1176 99.79 85.295 99.7215 85.4257 99.5846C85.5565 99.4476 85.6218 99.267 85.6218 99.0429V98.632H86.4903V99.79H87.6202V100.621H86.4903V103.245C86.4903 103.413 86.5152 103.56 86.565 103.684C86.621 103.809 86.7113 103.908 86.8358 103.983C86.9603 104.051 87.1253 104.086 87.3308 104.086C87.3743 104.086 87.4273 104.083 87.4895 104.076C87.558 104.07 87.6202 104.064 87.6763 104.058V104.823C87.5953 104.842 87.5051 104.854 87.4055 104.861C87.3059 104.873 87.2218 104.879 87.1533 104.879ZM91.0646 104.935C90.579 104.935 90.1401 104.823 89.7479 104.599C89.3556 104.369 89.0444 104.055 88.814 103.656C88.5837 103.258 88.4685 102.806 88.4685 102.302C88.4685 101.798 88.5806 101.349 88.8047 100.957C89.035 100.565 89.3463 100.254 89.7385 100.023C90.1307 99.7931 90.5727 99.6779 91.0646 99.6779C91.5502 99.6779 91.9891 99.7931 92.3813 100.023C92.7735 100.248 93.0816 100.556 93.3058 100.948C93.5361 101.34 93.6513 101.792 93.6513 102.302C93.6513 102.813 93.533 103.267 93.2964 103.665C93.0599 104.058 92.7455 104.369 92.3533 104.599C91.9673 104.823 91.5377 104.935 91.0646 104.935ZM91.0646 104.095C91.3758 104.095 91.656 104.017 91.905 103.862C92.1603 103.706 92.3595 103.491 92.5027 103.217C92.6521 102.943 92.7268 102.638 92.7268 102.302C92.7268 101.96 92.6521 101.658 92.5027 101.396C92.3595 101.128 92.1603 100.917 91.905 100.761C91.656 100.599 91.3758 100.518 91.0646 100.518C90.7471 100.518 90.4607 100.599 90.2054 100.761C89.9564 100.917 89.7572 101.128 89.6078 101.396C89.4584 101.658 89.3837 101.96 89.3837 102.302C89.3837 102.638 89.4584 102.943 89.6078 103.217C89.7572 103.491 89.9564 103.706 90.2054 103.862C90.4607 104.017 90.7471 104.095 91.0646 104.095ZM95.8508 104.823L94.1232 99.79H95.085L96.4578 104.002L96.1216 103.992L97.4663 99.79H98.2881L99.6328 103.992L99.2966 104.002L100.679 99.79H101.631L99.9036 104.823H99.0725L97.7464 100.621H98.0079L96.6819 104.823H95.8508ZM102.408 104.823V99.79H103.258V100.771L103.118 100.686C103.242 100.369 103.441 100.123 103.715 99.9487C103.995 99.7682 104.322 99.6779 104.696 99.6779C105.057 99.6779 105.377 99.7589 105.658 99.9207C105.944 100.083 106.168 100.307 106.33 100.593C106.498 100.879 106.582 101.203 106.582 101.564V104.823H105.704V101.844C105.704 101.564 105.655 101.328 105.555 101.135C105.455 100.942 105.312 100.792 105.125 100.686C104.945 100.574 104.736 100.518 104.5 100.518C104.263 100.518 104.051 100.574 103.865 100.686C103.684 100.792 103.541 100.945 103.435 101.144C103.329 101.337 103.276 101.571 103.276 101.844V104.823H102.408Z" fill="#3D3D3D"/>
<path d="M126.545 104.823V104.188L128.469 102.106C128.849 101.701 129.151 101.368 129.375 101.107C129.605 100.845 129.773 100.612 129.879 100.406C129.985 100.201 130.038 99.983 130.038 99.7526C130.038 99.3729 129.926 99.0803 129.702 98.8748C129.478 98.6694 129.182 98.5667 128.815 98.5667C128.441 98.5667 128.123 98.6756 127.862 98.8935C127.601 99.1052 127.42 99.4071 127.32 99.7993L126.489 99.5846C126.57 99.211 126.72 98.8873 126.937 98.6134C127.155 98.3394 127.426 98.1278 127.75 97.9784C128.074 97.8289 128.429 97.7542 128.815 97.7542C129.238 97.7542 129.608 97.8383 129.926 98.0064C130.249 98.1682 130.502 98.3955 130.682 98.6881C130.869 98.9807 130.962 99.32 130.962 99.706C130.962 99.9612 130.909 100.21 130.804 100.453C130.698 100.696 130.542 100.954 130.337 101.228C130.131 101.496 129.864 101.807 129.534 102.162L127.815 104.03H131.112V104.823H126.545ZM133.918 104.823V99.79H134.768V100.817L134.646 100.658C134.771 100.341 134.97 100.098 135.244 99.9301C135.518 99.762 135.826 99.6779 136.168 99.6779C136.561 99.6779 136.912 99.7869 137.224 100.005C137.541 100.223 137.759 100.509 137.877 100.864L137.634 100.873C137.765 100.481 137.986 100.185 138.297 99.9861C138.609 99.7807 138.954 99.6779 139.334 99.6779C139.683 99.6779 139.997 99.7589 140.277 99.9207C140.564 100.083 140.791 100.307 140.959 100.593C141.127 100.879 141.211 101.203 141.211 101.564V104.823H140.333V101.844C140.333 101.564 140.283 101.328 140.184 101.135C140.084 100.942 139.947 100.792 139.773 100.686C139.605 100.574 139.406 100.518 139.175 100.518C138.951 100.518 138.749 100.574 138.568 100.686C138.394 100.792 138.254 100.945 138.148 101.144C138.048 101.337 137.999 101.571 137.999 101.844V104.823H137.121V101.844C137.121 101.564 137.071 101.328 136.971 101.135C136.872 100.942 136.735 100.792 136.561 100.686C136.392 100.574 136.193 100.518 135.963 100.518C135.739 100.518 135.536 100.574 135.356 100.686C135.182 100.792 135.041 100.945 134.936 101.144C134.836 101.337 134.786 101.571 134.786 101.844V104.823H133.918ZM142.444 104.823V99.79H143.313V104.823H142.444ZM142.444 98.9869V97.8663H143.313V98.9869H142.444ZM144.661 104.823V99.79H145.51V100.771L145.37 100.686C145.495 100.369 145.694 100.123 145.968 99.9487C146.248 99.7682 146.575 99.6779 146.948 99.6779C147.309 99.6779 147.63 99.7589 147.91 99.9207C148.197 100.083 148.421 100.307 148.583 100.593C148.751 100.879 148.835 101.203 148.835 101.564V104.823H147.957V101.844C147.957 101.564 147.907 101.328 147.808 101.135C147.708 100.942 147.565 100.792 147.378 100.686C147.197 100.574 146.989 100.518 146.752 100.518C146.516 100.518 146.304 100.574 146.117 100.686C145.937 100.792 145.794 100.945 145.688 101.144C145.582 101.337 145.529 101.571 145.529 101.844V104.823H144.661ZM153.167 104.935C152.837 104.935 152.545 104.876 152.289 104.758C152.04 104.633 151.844 104.465 151.701 104.254C151.558 104.036 151.486 103.787 151.486 103.507C151.486 103.239 151.542 102.999 151.654 102.788C151.773 102.57 151.953 102.386 152.196 102.237C152.445 102.087 152.756 101.981 153.13 101.919L154.997 101.611V102.339L153.326 102.62C153.002 102.676 152.766 102.778 152.616 102.928C152.473 103.077 152.401 103.261 152.401 103.479C152.401 103.684 152.482 103.855 152.644 103.992C152.812 104.129 153.021 104.198 153.27 104.198C153.587 104.198 153.861 104.132 154.092 104.002C154.328 103.865 154.512 103.681 154.643 103.451C154.78 103.22 154.848 102.965 154.848 102.685V101.406C154.848 101.132 154.745 100.911 154.54 100.743C154.341 100.568 154.076 100.481 153.746 100.481C153.46 100.481 153.204 100.556 152.98 100.705C152.762 100.848 152.601 101.041 152.495 101.284L151.738 100.892C151.832 100.662 151.981 100.456 152.187 100.276C152.392 100.089 152.632 99.9425 152.906 99.8367C153.18 99.7309 153.466 99.6779 153.765 99.6779C154.151 99.6779 154.49 99.7526 154.783 99.9021C155.075 100.045 155.302 100.248 155.464 100.509C155.632 100.764 155.716 101.063 155.716 101.406V104.823H154.867V103.871L155.025 103.927C154.92 104.126 154.776 104.3 154.596 104.45C154.415 104.599 154.204 104.718 153.961 104.805C153.718 104.892 153.453 104.935 153.167 104.935ZM159.463 106.878C159.108 106.878 158.778 106.822 158.473 106.71C158.174 106.598 157.916 106.442 157.698 106.243C157.486 106.05 157.324 105.823 157.212 105.561L158.025 105.188C158.112 105.424 158.277 105.623 158.52 105.785C158.769 105.953 159.08 106.037 159.454 106.037C159.74 106.037 159.998 105.981 160.229 105.869C160.465 105.763 160.652 105.602 160.789 105.384C160.926 105.172 160.994 104.914 160.994 104.609V103.479L161.153 103.647C160.979 103.989 160.727 104.251 160.397 104.431C160.073 104.612 159.715 104.702 159.323 104.702C158.85 104.702 158.426 104.593 158.053 104.375C157.679 104.151 157.387 103.849 157.175 103.469C156.963 103.083 156.858 102.657 156.858 102.19C156.858 101.717 156.963 101.29 157.175 100.911C157.387 100.531 157.676 100.232 158.044 100.014C158.417 99.79 158.84 99.6779 159.314 99.6779C159.706 99.6779 160.061 99.7682 160.378 99.9487C160.702 100.123 160.96 100.366 161.153 100.677L161.022 100.911V99.79H161.872V104.609C161.872 105.044 161.77 105.433 161.564 105.776C161.359 106.118 161.072 106.386 160.705 106.579C160.344 106.778 159.93 106.878 159.463 106.878ZM159.398 103.862C159.696 103.862 159.964 103.787 160.201 103.637C160.443 103.488 160.636 103.289 160.78 103.04C160.923 102.784 160.994 102.501 160.994 102.19C160.994 101.885 160.923 101.605 160.78 101.349C160.636 101.094 160.443 100.892 160.201 100.743C159.964 100.593 159.696 100.518 159.398 100.518C159.093 100.518 158.815 100.593 158.566 100.743C158.317 100.892 158.121 101.094 157.978 101.349C157.841 101.599 157.773 101.879 157.773 102.19C157.773 102.501 157.841 102.784 157.978 103.04C158.121 103.289 158.314 103.488 158.557 103.637C158.806 103.787 159.086 103.862 159.398 103.862ZM165.609 104.935C165.124 104.935 164.685 104.823 164.293 104.599C163.9 104.369 163.589 104.055 163.359 103.656C163.128 103.258 163.013 102.806 163.013 102.302C163.013 101.798 163.125 101.349 163.349 100.957C163.58 100.565 163.891 100.254 164.283 100.023C164.675 99.7931 165.117 99.6779 165.609 99.6779C166.095 99.6779 166.534 99.7931 166.926 100.023C167.318 100.248 167.626 100.556 167.85 100.948C168.081 101.34 168.196 101.792 168.196 102.302C168.196 102.813 168.078 103.267 167.841 103.665C167.605 104.058 167.29 104.369 166.898 104.599C166.512 104.823 166.082 104.935 165.609 104.935ZM165.609 104.095C165.921 104.095 166.201 104.017 166.45 103.862C166.705 103.706 166.904 103.491 167.047 103.217C167.197 102.943 167.271 102.638 167.271 102.302C167.271 101.96 167.197 101.658 167.047 101.396C166.904 101.128 166.705 100.917 166.45 100.761C166.201 100.599 165.921 100.518 165.609 100.518C165.292 100.518 165.005 100.599 164.75 100.761C164.501 100.917 164.302 101.128 164.152 101.396C164.003 101.658 163.928 101.96 163.928 102.302C163.928 102.638 164.003 102.943 164.152 103.217C164.302 103.491 164.501 103.706 164.75 103.862C165.005 104.017 165.292 104.095 165.609 104.095Z" fill="#8D8D8D"/>
</g>
<defs>
<filter id="filter0_d_2366_3074" x="-0.000865936" y="-2.24113e-05" width="269.256" height="155.639" filterUnits="userSpaceOnUse" color-interpolation-filters="sRGB">
<feFlood flood-opacity="0" result="BackgroundImageFix"/>
<feColorMatrix in="SourceAlpha" type="matrix" values="0 0 0 0 0 0 0 0 0 0 0 0 0 0 0 0 0 0 127 0" result="hardAlpha"/>
<feOffset dy="3.11278"/>
<feGaussianBlur stdDeviation="15.5639"/>
<feComposite in2="hardAlpha" operator="out"/>
<feColorMatrix type="matrix" values="0 0 0 0 0 0 0 0 0 0 0 0 0 0 0 0 0 0 0.1 0"/>
<feBlend mode="normal" in2="BackgroundImageFix" result="effect1_dropShadow_2366_3074"/>
<feBlend mode="normal" in="SourceGraphic" in2="effect1_dropShadow_2366_3074" result="shape"/>
</filter>
</defs>
</svg>
