<svg width="126" height="40" viewBox="0 0 126 40" fill="none" xmlns="http://www.w3.org/2000/svg">
<rect width="126" height="39.7895" rx="19.8947" fill="#FF4F93"/>
<path d="M20.3237 25.8948C20.2021 25.8948 20.1082 25.8616 20.0418 25.7953C19.9755 25.7179 19.9424 25.624 19.9424 25.5135V14.6708C19.9424 14.5603 19.9755 14.4719 20.0418 14.4056C20.1082 14.3282 20.2021 14.2895 20.3237 14.2895H21.2024C21.3129 14.2895 21.4013 14.3282 21.4676 14.4056C21.5339 14.4719 21.5671 14.5603 21.5671 14.6708V24.4524H27.0879C27.2095 24.4524 27.3034 24.4911 27.3697 24.5685C27.4361 24.6348 27.4692 24.7287 27.4692 24.8503V25.5135C27.4692 25.624 27.4361 25.7179 27.3697 25.7953C27.3034 25.8616 27.2095 25.8948 27.0879 25.8948H20.3237ZM32.3224 26.0606C31.184 26.0606 30.2777 25.7124 29.6035 25.0161C28.9293 24.3087 28.559 23.3471 28.4927 22.1314C28.4816 21.9877 28.4761 21.8053 28.4761 21.5842C28.4761 21.3521 28.4816 21.1642 28.4927 21.0206C28.5369 20.2358 28.7193 19.5506 29.0398 18.9648C29.3603 18.3679 29.7969 17.9092 30.3495 17.5887C30.9132 17.2682 31.5709 17.1079 32.3224 17.1079C33.1624 17.1079 33.8643 17.2848 34.428 17.6385C35.0027 17.9921 35.4393 18.495 35.7377 19.1471C36.0361 19.7992 36.1853 20.5619 36.1853 21.435V21.7169C36.1853 21.8385 36.1466 21.9324 36.0693 21.9987C36.003 22.065 35.9145 22.0982 35.804 22.0982H30.0677C30.0677 22.1092 30.0677 22.1314 30.0677 22.1645C30.0677 22.1977 30.0677 22.2253 30.0677 22.2474C30.0898 22.7006 30.1893 23.1261 30.3661 23.524C30.543 23.9108 30.7972 24.2258 31.1288 24.469C31.4603 24.7121 31.8582 24.8337 32.3224 24.8337C32.7203 24.8337 33.0519 24.7729 33.3172 24.6514C33.5824 24.5298 33.798 24.3971 33.9638 24.2535C34.1295 24.0987 34.2401 23.9827 34.2953 23.9053C34.3948 23.7616 34.4722 23.6787 34.5274 23.6566C34.5827 23.6235 34.6711 23.6069 34.7927 23.6069H35.5885C35.699 23.6069 35.7874 23.64 35.8538 23.7064C35.9311 23.7616 35.9643 23.8445 35.9532 23.955C35.9422 24.1208 35.8538 24.3253 35.688 24.5685C35.5222 24.8006 35.2845 25.0327 34.9751 25.2648C34.6656 25.4969 34.2898 25.6903 33.8477 25.845C33.4056 25.9887 32.8972 26.0606 32.3224 26.0606ZM30.0677 20.9542H34.6103V20.9045C34.6103 20.4071 34.5164 19.965 34.3285 19.5782C34.1516 19.1914 33.8919 18.8874 33.5493 18.6664C33.2066 18.4342 32.7977 18.3182 32.3224 18.3182C31.8472 18.3182 31.4382 18.4342 31.0956 18.6664C30.764 18.8874 30.5098 19.1914 30.333 19.5782C30.1561 19.965 30.0677 20.4071 30.0677 20.9045V20.9542ZM41.4846 25.8948C40.8657 25.8948 40.3628 25.7787 39.976 25.5466C39.5891 25.3035 39.3073 24.9664 39.1304 24.5353C38.9536 24.0932 38.8652 23.5737 38.8652 22.9769V18.6H37.572C37.4615 18.6 37.3675 18.5669 37.2902 18.5006C37.2238 18.4232 37.1907 18.3292 37.1907 18.2187V17.655C37.1907 17.5445 37.2238 17.4561 37.2902 17.3898C37.3675 17.3124 37.4615 17.2737 37.572 17.2737H38.8652V14.505C38.8652 14.3945 38.8983 14.3061 38.9646 14.2398C39.042 14.1624 39.136 14.1237 39.2465 14.1237H40.0257C40.1362 14.1237 40.2246 14.1624 40.291 14.2398C40.3683 14.3061 40.407 14.3945 40.407 14.505V17.2737H42.4628C42.5733 17.2737 42.6617 17.3124 42.7281 17.3898C42.8054 17.4561 42.8441 17.5445 42.8441 17.655V18.2187C42.8441 18.3292 42.8054 18.4232 42.7281 18.5006C42.6617 18.5669 42.5733 18.6 42.4628 18.6H40.407V22.8608C40.407 23.3803 40.4954 23.7892 40.6723 24.0877C40.8491 24.3861 41.1641 24.5353 41.6173 24.5353H42.6286C42.7391 24.5353 42.8275 24.574 42.8938 24.6514C42.9712 24.7177 43.0099 24.8061 43.0099 24.9166V25.5135C43.0099 25.624 42.9712 25.7179 42.8938 25.7953C42.8275 25.8616 42.7391 25.8948 42.6286 25.8948H41.4846ZM44.5787 17.3235C44.4903 17.3235 44.4184 17.2903 44.3632 17.224C44.3189 17.1577 44.3024 17.0748 44.3134 16.9753L44.6947 14.6045C44.7168 14.4719 44.7611 14.3614 44.8274 14.2729C44.9047 14.1735 45.0153 14.1237 45.1589 14.1237H46.2697C46.3471 14.1237 46.4079 14.1569 46.4521 14.2232C46.5074 14.2785 46.535 14.3392 46.535 14.4056C46.535 14.494 46.5129 14.5824 46.4687 14.6708L45.6066 16.9421C45.5624 17.0527 45.5016 17.1466 45.4242 17.224C45.3579 17.2903 45.2529 17.3235 45.1092 17.3235H44.5787ZM50.769 26.0606C50.15 26.0606 49.6195 25.9832 49.1774 25.8285C48.7353 25.6737 48.3761 25.4858 48.0998 25.2648C47.8235 25.0437 47.6135 24.8227 47.4698 24.6016C47.3371 24.3806 47.2653 24.2037 47.2542 24.0711C47.2432 23.9495 47.2819 23.8556 47.3703 23.7892C47.4587 23.7229 47.5471 23.6898 47.6356 23.6898H48.365C48.4313 23.6898 48.4811 23.7008 48.5142 23.7229C48.5585 23.734 48.6137 23.7782 48.68 23.8556C48.8237 24.0103 48.984 24.165 49.1608 24.3198C49.3377 24.4745 49.5532 24.6016 49.8074 24.7011C50.0727 24.8006 50.3987 24.8503 50.7856 24.8503C51.3492 24.8503 51.8135 24.7453 52.1782 24.5353C52.5429 24.3142 52.7253 23.9937 52.7253 23.5737C52.7253 23.2974 52.6479 23.0764 52.4932 22.9106C52.3495 22.7448 52.0842 22.5956 51.6974 22.4629C51.3216 22.3303 50.8021 22.1921 50.139 22.0485C49.4758 21.8937 48.9508 21.7058 48.564 21.4848C48.1771 21.2527 47.9008 20.9819 47.735 20.6724C47.5692 20.3519 47.4863 19.9927 47.4863 19.5948C47.4863 19.1858 47.6079 18.7935 47.8511 18.4177C48.0942 18.0308 48.4479 17.7158 48.9121 17.4727C49.3874 17.2295 49.9787 17.1079 50.6861 17.1079C51.2608 17.1079 51.7527 17.1798 52.1616 17.3235C52.5706 17.4671 52.9077 17.6495 53.1729 17.8706C53.4382 18.0806 53.6371 18.2906 53.7698 18.5006C53.9024 18.7106 53.9742 18.8874 53.9853 19.0311C53.9963 19.1416 53.9632 19.2356 53.8858 19.3129C53.8085 19.3792 53.72 19.4124 53.6206 19.4124H52.9242C52.8469 19.4124 52.7806 19.3958 52.7253 19.3627C52.6811 19.3295 52.6369 19.2908 52.5927 19.2466C52.4821 19.1029 52.3495 18.9592 52.1948 18.8156C52.0511 18.6719 51.8577 18.5558 51.6145 18.4674C51.3824 18.3679 51.0729 18.3182 50.6861 18.3182C50.1335 18.3182 49.719 18.4342 49.4427 18.6664C49.1663 18.8985 49.0282 19.1914 49.0282 19.545C49.0282 19.755 49.089 19.9429 49.2106 20.1087C49.3321 20.2745 49.5642 20.4237 49.9069 20.5564C50.2495 20.689 50.7579 20.8327 51.4321 20.9874C52.1616 21.1311 52.7363 21.3245 53.1563 21.5677C53.5763 21.8108 53.8748 22.0927 54.0516 22.4132C54.2285 22.7337 54.3169 23.104 54.3169 23.524C54.3169 23.9882 54.1787 24.4137 53.9024 24.8006C53.6371 25.1874 53.2392 25.4969 52.7087 25.729C52.1892 25.95 51.5427 26.0606 50.769 26.0606ZM60.6812 25.8948C60.5707 25.8948 60.4768 25.8616 60.3994 25.7953C60.3331 25.7179 60.2999 25.624 60.2999 25.5135V17.655C60.2999 17.5445 60.3331 17.4561 60.3994 17.3898C60.4768 17.3124 60.5707 17.2737 60.6812 17.2737H61.4273C61.5378 17.2737 61.6262 17.3124 61.6926 17.3898C61.7699 17.4561 61.8086 17.5445 61.8086 17.655V18.2353C62.0628 17.8927 62.3833 17.6219 62.7702 17.4229C63.157 17.2129 63.6212 17.1079 64.1628 17.1079C65.4118 17.0969 66.296 17.6053 66.8155 18.6332C67.0697 18.169 67.4399 17.7987 67.9262 17.5224C68.4126 17.2461 68.9652 17.1079 69.5841 17.1079C70.1589 17.1079 70.6783 17.2406 71.1426 17.5058C71.6178 17.7711 71.9881 18.1745 72.2533 18.7161C72.5297 19.2466 72.6678 19.9153 72.6678 20.7221V25.5135C72.6678 25.624 72.6291 25.7179 72.5518 25.7953C72.4855 25.8616 72.397 25.8948 72.2865 25.8948H71.5073C71.3968 25.8948 71.3028 25.8616 71.2255 25.7953C71.1591 25.7179 71.126 25.624 71.126 25.5135V20.8714C71.126 20.2524 71.0376 19.7661 70.8607 19.4124C70.6839 19.0587 70.4462 18.81 70.1478 18.6664C69.8494 18.5227 69.5233 18.4508 69.1697 18.4508C68.8823 18.4508 68.5894 18.5227 68.291 18.6664C67.9926 18.81 67.7439 19.0587 67.5449 19.4124C67.357 19.7661 67.2631 20.2524 67.2631 20.8714V25.5135C67.2631 25.624 67.2244 25.7179 67.147 25.7953C67.0807 25.8616 66.9923 25.8948 66.8818 25.8948H66.1026C65.992 25.8948 65.8981 25.8616 65.8207 25.7953C65.7544 25.7179 65.7212 25.624 65.7212 25.5135V20.8714C65.7212 20.2524 65.6273 19.7661 65.4394 19.4124C65.2515 19.0587 65.0083 18.81 64.7099 18.6664C64.4115 18.5227 64.0965 18.4508 63.7649 18.4508C63.4776 18.4508 63.1847 18.5227 62.8862 18.6664C62.5878 18.81 62.3391 19.0587 62.1402 19.4124C61.9523 19.7661 61.8583 20.2469 61.8583 20.8548V25.5135C61.8583 25.624 61.8197 25.7179 61.7423 25.7953C61.676 25.8616 61.5876 25.8948 61.477 25.8948H60.6812ZM78.465 26.0606C77.3266 26.0606 76.4203 25.7124 75.7461 25.0161C75.0719 24.3087 74.7016 23.3471 74.6353 22.1314C74.6242 21.9877 74.6187 21.8053 74.6187 21.5842C74.6187 21.3521 74.6242 21.1642 74.6353 21.0206C74.6795 20.2358 74.8619 19.5506 75.1824 18.9648C75.5029 18.3679 75.9395 17.9092 76.4921 17.5887C77.0558 17.2682 77.7134 17.1079 78.465 17.1079C79.305 17.1079 80.0069 17.2848 80.5705 17.6385C81.1453 17.9921 81.5819 18.495 81.8803 19.1471C82.1787 19.7992 82.3279 20.5619 82.3279 21.435V21.7169C82.3279 21.8385 82.2892 21.9324 82.2119 21.9987C82.1455 22.065 82.0571 22.0982 81.9466 22.0982H76.2103C76.2103 22.1092 76.2103 22.1314 76.2103 22.1645C76.2103 22.1977 76.2103 22.2253 76.2103 22.2474C76.2324 22.7006 76.3319 23.1261 76.5087 23.524C76.6855 23.9108 76.9398 24.2258 77.2713 24.469C77.6029 24.7121 78.0008 24.8337 78.465 24.8337C78.8629 24.8337 79.1945 24.7729 79.4598 24.6514C79.725 24.5298 79.9405 24.3971 80.1063 24.2535C80.2721 24.0987 80.3826 23.9827 80.4379 23.9053C80.5374 23.7616 80.6148 23.6787 80.67 23.6566C80.7253 23.6235 80.8137 23.6069 80.9353 23.6069H81.7311C81.8416 23.6069 81.93 23.64 81.9963 23.7064C82.0737 23.7616 82.1069 23.8445 82.0958 23.955C82.0848 24.1208 81.9963 24.3253 81.8305 24.5685C81.6648 24.8006 81.4271 25.0327 81.1176 25.2648C80.8082 25.4969 80.4324 25.6903 79.9903 25.845C79.5482 25.9887 79.0398 26.0606 78.465 26.0606ZM76.2103 20.9542H80.7529V20.9045C80.7529 20.4071 80.659 19.965 80.4711 19.5782C80.2942 19.1914 80.0345 18.8874 79.6919 18.6664C79.3492 18.4342 78.9403 18.3182 78.465 18.3182C77.9898 18.3182 77.5808 18.4342 77.2382 18.6664C76.9066 18.8874 76.6524 19.1914 76.4755 19.5782C76.2987 19.965 76.2103 20.4071 76.2103 20.9045V20.9542ZM87.7421 26.0606C86.6037 26.0606 85.6974 25.7124 85.0232 25.0161C84.3489 24.3087 83.9787 23.3471 83.9124 22.1314C83.9013 21.9877 83.8958 21.8053 83.8958 21.5842C83.8958 21.3521 83.9013 21.1642 83.9124 21.0206C83.9566 20.2358 84.1389 19.5506 84.4595 18.9648C84.78 18.3679 85.2166 17.9092 85.7692 17.5887C86.3329 17.2682 86.9905 17.1079 87.7421 17.1079C88.5821 17.1079 89.2839 17.2848 89.8476 17.6385C90.4224 17.9921 90.8589 18.495 91.1574 19.1471C91.4558 19.7992 91.605 20.5619 91.605 21.435V21.7169C91.605 21.8385 91.5663 21.9324 91.4889 21.9987C91.4226 22.065 91.3342 22.0982 91.2237 22.0982H85.4874C85.4874 22.1092 85.4874 22.1314 85.4874 22.1645C85.4874 22.1977 85.4874 22.2253 85.4874 22.2474C85.5095 22.7006 85.6089 23.1261 85.7858 23.524C85.9626 23.9108 86.2168 24.2258 86.5484 24.469C86.88 24.7121 87.2779 24.8337 87.7421 24.8337C88.14 24.8337 88.4716 24.7729 88.7368 24.6514C89.0021 24.5298 89.2176 24.3971 89.3834 24.2535C89.5492 24.0987 89.6597 23.9827 89.715 23.9053C89.8145 23.7616 89.8918 23.6787 89.9471 23.6566C90.0024 23.6235 90.0908 23.6069 90.2124 23.6069H91.0082C91.1187 23.6069 91.2071 23.64 91.2734 23.7064C91.3508 23.7616 91.3839 23.8445 91.3729 23.955C91.3618 24.1208 91.2734 24.3253 91.1076 24.5685C90.9418 24.8006 90.7042 25.0327 90.3947 25.2648C90.0853 25.4969 89.7095 25.6903 89.2674 25.845C88.8253 25.9887 88.3168 26.0606 87.7421 26.0606ZM85.4874 20.9542H90.03V20.9045C90.03 20.4071 89.9361 19.965 89.7482 19.5782C89.5713 19.1914 89.3116 18.8874 88.9689 18.6664C88.6263 18.4342 88.2174 18.3182 87.7421 18.3182C87.2668 18.3182 86.8579 18.4342 86.5153 18.6664C86.1837 18.8874 85.9295 19.1914 85.7526 19.5782C85.5758 19.965 85.4874 20.4071 85.4874 20.9045V20.9542ZM96.9043 25.8948C96.2854 25.8948 95.7825 25.7787 95.3956 25.5466C95.0088 25.3035 94.7269 24.9664 94.5501 24.5353C94.3733 24.0932 94.2848 23.5737 94.2848 22.9769V18.6H92.9917C92.8811 18.6 92.7872 18.5669 92.7098 18.5006C92.6435 18.4232 92.6104 18.3292 92.6104 18.2187V17.655C92.6104 17.5445 92.6435 17.4561 92.7098 17.3898C92.7872 17.3124 92.8811 17.2737 92.9917 17.2737H94.2848V14.505C94.2848 14.3945 94.318 14.3061 94.3843 14.2398C94.4617 14.1624 94.5556 14.1237 94.6661 14.1237H95.4454C95.5559 14.1237 95.6443 14.1624 95.7106 14.2398C95.788 14.3061 95.8267 14.3945 95.8267 14.505V17.2737H97.8825C97.993 17.2737 98.0814 17.3124 98.1477 17.3898C98.2251 17.4561 98.2638 17.5445 98.2638 17.655V18.2187C98.2638 18.3292 98.2251 18.4232 98.1477 18.5006C98.0814 18.5669 97.993 18.6 97.8825 18.6H95.8267V22.8608C95.8267 23.3803 95.9151 23.7892 96.0919 24.0877C96.2688 24.3861 96.5838 24.5353 97.0369 24.5353H98.0483C98.1588 24.5353 98.2472 24.574 98.3135 24.6514C98.3909 24.7177 98.4296 24.8061 98.4296 24.9166V25.5135C98.4296 25.624 98.3909 25.7179 98.3135 25.7953C98.2472 25.8616 98.1588 25.8948 98.0483 25.8948H96.9043ZM100.429 23.1427C100.319 23.1427 100.225 23.1095 100.148 23.0432C100.081 22.9658 100.048 22.8719 100.048 22.7614V14.6708C100.048 14.5603 100.081 14.4719 100.148 14.4056C100.225 14.3282 100.319 14.2895 100.429 14.2895H101.209C101.319 14.2895 101.408 14.3282 101.474 14.4056C101.54 14.4719 101.573 14.5603 101.573 14.6708V22.7614C101.573 22.8719 101.54 22.9658 101.474 23.0432C101.408 23.1095 101.319 23.1427 101.209 23.1427H100.429ZM100.28 25.8948C100.17 25.8948 100.076 25.8616 99.9983 25.7953C99.932 25.7179 99.8989 25.624 99.8989 25.5135V24.469C99.8989 24.3474 99.932 24.2535 99.9983 24.1871C100.076 24.1098 100.17 24.0711 100.28 24.0711H101.341C101.452 24.0711 101.54 24.1098 101.607 24.1871C101.684 24.2535 101.723 24.3474 101.723 24.469V25.5135C101.723 25.624 101.684 25.7179 101.607 25.7953C101.54 25.8616 101.452 25.8948 101.341 25.8948H100.28ZM104.493 23.1427C104.383 23.1427 104.289 23.1095 104.211 23.0432C104.145 22.9658 104.112 22.8719 104.112 22.7614V14.6708C104.112 14.5603 104.145 14.4719 104.211 14.4056C104.289 14.3282 104.383 14.2895 104.493 14.2895H105.272C105.383 14.2895 105.471 14.3282 105.538 14.4056C105.604 14.4719 105.637 14.5603 105.637 14.6708V22.7614C105.637 22.8719 105.604 22.9658 105.538 23.0432C105.471 23.1095 105.383 23.1427 105.272 23.1427H104.493ZM104.344 25.8948C104.233 25.8948 104.139 25.8616 104.062 25.7953C103.996 25.7179 103.963 25.624 103.963 25.5135V24.469C103.963 24.3474 103.996 24.2535 104.062 24.1871C104.139 24.1098 104.233 24.0711 104.344 24.0711H105.405C105.516 24.0711 105.604 24.1098 105.67 24.1871C105.748 24.2535 105.786 24.3474 105.786 24.469V25.5135C105.786 25.624 105.748 25.7179 105.67 25.7953C105.604 25.8616 105.516 25.8948 105.405 25.8948H104.344Z" fill="white"/>
</svg>
